<svg width="25" height="24" viewBox="0 0 25 24" fill="none" xmlns="http://www.w3.org/2000/svg">
<path d="M16.0186 1.75C13.0486 1.75 10.6386 4.16 10.6386 7.13C10.6386 10.1 13.0486 12.51 16.0186 12.51C18.9886 12.51 21.3986 10.1 21.3986 7.13C21.3986 4.16 18.9886 1.75 16.0186 1.75Z" fill="white"/>
<path d="M6.78862 13.03C4.95862 13.03 3.45862 14.52 3.45862 16.36C3.45862 18.2 4.94862 19.69 6.78862 19.69C8.61862 19.69 10.1186 18.2 10.1186 16.36C10.1186 14.52 8.61862 13.03 6.78862 13.03Z" fill="#FABDA9"/>
<path d="M17.0486 16.6201C15.4986 16.6201 14.2386 17.8801 14.2386 19.4301C14.2386 20.9801 15.4986 22.2401 17.0486 22.2401C18.5986 22.2401 19.8586 20.9801 19.8586 19.4301C19.8586 17.8801 18.5986 16.6201 17.0486 16.6201Z" fill="#FABDA9"/>
</svg>
