<svg width="25" height="24" viewBox="0 0 25 24" fill="none" xmlns="http://www.w3.org/2000/svg">
<path d="M17.6071 3.56V2C17.6071 1.59 17.2671 1.25 16.8571 1.25C16.4471 1.25 16.1071 1.59 16.1071 2V3.5H9.6071V2C9.6071 1.59 9.2671 1.25 8.8571 1.25C8.4471 1.25 8.1071 1.59 8.1071 2V3.56C5.4071 3.81 4.0971 5.42 3.8971 7.81C3.8771 8.1 4.1171 8.34 4.3971 8.34H21.3171C21.6071 8.34 21.8471 8.09 21.8171 7.81C21.6171 5.42 20.3071 3.81 17.6071 3.56Z" fill="#CAB1F3"/>
<path d="M20.8571 9.84009H4.85712C4.30712 9.84009 3.85712 10.2901 3.85712 10.8401V17.0001C3.85712 20.0001 5.35712 22.0001 8.85712 22.0001H16.8571C20.3571 22.0001 21.8571 20.0001 21.8571 17.0001V10.8401C21.8571 10.2901 21.4071 9.84009 20.8571 9.84009ZM10.0671 18.2101C9.96712 18.3001 9.85712 18.3701 9.73712 18.4201C9.61712 18.4701 9.48712 18.5001 9.35712 18.5001C9.22712 18.5001 9.09712 18.4701 8.97712 18.4201C8.85712 18.3701 8.74712 18.3001 8.64712 18.2101C8.46712 18.0201 8.35712 17.7601 8.35712 17.5001C8.35712 17.2401 8.46712 16.9801 8.64712 16.7901C8.74712 16.7001 8.85712 16.6301 8.97712 16.5801C9.21712 16.4801 9.49712 16.4801 9.73712 16.5801C9.85712 16.6301 9.96712 16.7001 10.0671 16.7901C10.2471 16.9801 10.3571 17.2401 10.3571 17.5001C10.3571 17.7601 10.2471 18.0201 10.0671 18.2101ZM10.2771 14.3801C10.2271 14.5001 10.1571 14.6101 10.0671 14.7101C9.96712 14.8001 9.85712 14.8701 9.73712 14.9201C9.61712 14.9701 9.48712 15.0001 9.35712 15.0001C9.22712 15.0001 9.09712 14.9701 8.97712 14.9201C8.85712 14.8701 8.74712 14.8001 8.64712 14.7101C8.55712 14.6101 8.48712 14.5001 8.43712 14.3801C8.38712 14.2601 8.35712 14.1301 8.35712 14.0001C8.35712 13.8701 8.38712 13.7401 8.43712 13.6201C8.48712 13.5001 8.55712 13.3901 8.64712 13.2901C8.74712 13.2001 8.85712 13.1301 8.97712 13.0801C9.21712 12.9801 9.49712 12.9801 9.73712 13.0801C9.85712 13.1301 9.96712 13.2001 10.0671 13.2901C10.1571 13.3901 10.2271 13.5001 10.2771 13.6201C10.3271 13.7401 10.3571 13.8701 10.3571 14.0001C10.3571 14.1301 10.3271 14.2601 10.2771 14.3801ZM13.5671 14.7101C13.4671 14.8001 13.3571 14.8701 13.2371 14.9201C13.1171 14.9701 12.9871 15.0001 12.8571 15.0001C12.7271 15.0001 12.5971 14.9701 12.4771 14.9201C12.3571 14.8701 12.2471 14.8001 12.1471 14.7101C11.9671 14.5201 11.8571 14.2601 11.8571 14.0001C11.8571 13.7401 11.9671 13.4801 12.1471 13.2901C12.2471 13.2001 12.3571 13.1301 12.4771 13.0801C12.7171 12.9701 12.9971 12.9701 13.2371 13.0801C13.3571 13.1301 13.4671 13.2001 13.5671 13.2901C13.7471 13.4801 13.8571 13.7401 13.8571 14.0001C13.8571 14.2601 13.7471 14.5201 13.5671 14.7101Z" fill="white"/>
</svg>
