<svg width="12" height="12" viewBox="0 0 12 12" fill="none" xmlns="http://www.w3.org/2000/svg">
<path d="M2.7002 1.04999H9.3002C9.8502 1.04999 10.3002 1.49999 10.3002 2.04999V3.14999C10.3002 3.54999 10.0502 4.04999 9.8002 4.29999L7.6502 6.19999C7.3502 6.44999 7.1502 6.94999 7.1502 7.34999V9.49999C7.1502 9.79999 6.9502 10.2 6.7002 10.35L6.0002 10.8C5.3502 11.2 4.4502 10.75 4.4502 9.94999V7.29999C4.4502 6.94999 4.2502 6.49999 4.0502 6.24999L2.1502 4.24999C1.9002 3.99999 1.7002 3.54999 1.7002 3.24999V2.09999C1.7002 1.49999 2.1502 1.04999 2.7002 1.04999Z" stroke="#012047" stroke-width="1.5" stroke-miterlimit="10" stroke-linecap="round" stroke-linejoin="round"/>
</svg>
