<svg width="25" height="24" viewBox="0 0 25 24" fill="none" xmlns="http://www.w3.org/2000/svg">
<path d="M22.0143 12.23H18.5343C17.5543 12.23 16.6843 12.77 16.2443 13.65L15.4043 15.31C15.2043 15.71 14.8043 15.96 14.3643 15.96H11.0843C10.7743 15.96 10.3343 15.89 10.0443 15.31L9.20432 13.66C8.76432 12.79 7.88433 12.24 6.91432 12.24H3.41432C3.02433 12.24 2.71432 12.55 2.71432 12.94V16.2C2.71432 19.83 4.89433 22 8.53433 22H16.9143C20.3443 22 22.4543 20.12 22.7143 16.78V12.93C22.7143 12.55 22.4043 12.23 22.0143 12.23Z" fill="white"/>
<path d="M13.4643 3.80999L14.1843 4.52999C14.3343 4.67999 14.5243 4.74999 14.7143 4.74999C14.9043 4.74999 15.0943 4.67999 15.2443 4.52999C15.5343 4.23999 15.5343 3.75999 15.2443 3.46999L13.2443 1.46999C13.2343 1.45999 13.2243 1.45999 13.2243 1.44999C13.1643 1.38999 13.0843 1.33999 13.0043 1.29999C12.9943 1.29999 12.9943 1.29999 12.9843 1.28999C12.9043 1.25999 12.8243 1.24999 12.7443 1.23999C12.7143 1.23999 12.6943 1.23999 12.6643 1.23999C12.6043 1.23999 12.5443 1.25999 12.4843 1.27999C12.4543 1.28999 12.4343 1.29999 12.4143 1.30999C12.3343 1.34999 12.2543 1.38999 12.1943 1.45999L10.1943 3.45999C9.90432 3.74999 9.90432 4.22999 10.1943 4.51999C10.4843 4.80999 10.9643 4.80999 11.2543 4.51999L11.9743 3.79999V4.99999H13.4743V3.80999H13.4643Z" fill="white"/>
<path d="M22.7143 10.81V10.85C22.4943 10.77 22.2543 10.73 22.0143 10.73H18.5343C16.9843 10.73 15.5943 11.59 14.9043 12.97L14.1543 14.45H11.2943L10.5443 12.98C9.85432 11.59 8.46432 10.73 6.91432 10.73H3.41432C3.17432 10.73 2.93432 10.77 2.71432 10.85V10.81C2.71432 7.17 4.88432 5 8.52432 5H11.9643V9C11.9643 9.41 12.3043 9.75 12.7143 9.75C13.1243 9.75 13.4643 9.41 13.4643 9V5H16.9043C20.5443 5 22.7143 7.17 22.7143 10.81Z" fill="#ABA5FD"/>
</svg>
