<svg width="25" height="24" viewBox="0 0 25 24" fill="none" xmlns="http://www.w3.org/2000/svg">
<path d="M9.57144 2C6.95144 2 4.82144 4.13 4.82144 6.75C4.82144 9.32 6.83144 11.4 9.45144 11.49C9.53144 11.48 9.61144 11.48 9.67144 11.49C9.69144 11.49 9.70144 11.49 9.72144 11.49C9.73144 11.49 9.73144 11.49 9.74144 11.49C12.3014 11.4 14.3114 9.32 14.3214 6.75C14.3214 4.13 12.1914 2 9.57144 2Z" fill="white"/>
<path d="M14.6514 14.1499C11.8614 12.2899 7.31143 12.2899 4.50143 14.1499C3.23143 14.9999 2.53143 16.1499 2.53143 17.3799C2.53143 18.6099 3.23143 19.7499 4.49143 20.5899C5.89143 21.5299 7.73143 21.9999 9.57143 21.9999C11.4114 21.9999 13.2514 21.5299 14.6514 20.5899C15.9114 19.7399 16.6114 18.5999 16.6114 17.3599C16.6014 16.1299 15.9114 14.9899 14.6514 14.1499Z" fill="white"/>
<path d="M20.5614 7.3401C20.7214 9.2801 19.3414 10.9801 17.4314 11.2101C17.4214 11.2101 17.4214 11.2101 17.4114 11.2101H17.3814C17.3214 11.2101 17.2614 11.2101 17.2114 11.2301C16.2414 11.2801 15.3514 10.9701 14.6814 10.4001C15.7114 9.4801 16.3014 8.1001 16.1814 6.6001C16.1114 5.7901 15.8314 5.0501 15.4114 4.4201C15.7914 4.2301 16.2314 4.1101 16.6814 4.0701C18.6414 3.9001 20.3914 5.3601 20.5614 7.3401Z" fill="#95C4FF"/>
<path d="M22.5614 16.5899C22.4814 17.5599 21.8614 18.3999 20.8214 18.9699C19.8214 19.5199 18.5614 19.7799 17.3114 19.7499C18.0314 19.0999 18.4514 18.2899 18.5314 17.4299C18.6314 16.1899 18.0414 14.9999 16.8614 14.0499C16.1914 13.5199 15.4114 13.0999 14.5614 12.7899C16.7714 12.1499 19.5514 12.5799 21.2614 13.9599C22.1814 14.6999 22.6514 15.6299 22.5614 16.5899Z" fill="#95C4FF"/>
</svg>
