<svg width="27" height="20" viewBox="0 0 27 20" fill="none" xmlns="http://www.w3.org/2000/svg">
<path d="M10.0794 0.267639C8.57828 0.521606 7.96151 0.662197 7.39915 0.875347C6.22908 1.31979 5.2631 1.95017 4.43317 2.81639C2.27898 5.05221 0.727965 8.20866 0.215495 11.3923C0.0295541 12.5579 0.0114136 12.966 0.0114136 16.5352V19.9955H4.56922C9.61683 19.9955 9.52159 20 10.1474 19.7052C10.7824 19.4059 11.2631 18.9343 11.5533 18.3402C11.8572 17.7143 11.8481 17.8957 11.8481 13.0703V8.70299L8.93656 8.69392L6.02047 8.68032L6.03407 8.50798C6.07942 7.97737 6.43317 7.06581 6.81865 6.47624C7.47171 5.47851 8.52386 4.61683 10.0341 3.82772C10.8731 3.39235 11.1134 3.18827 11.3266 2.74382C11.5941 2.19054 11.6667 1.7733 11.6667 0.820925C11.6667 0.367413 11.6531 6.67572e-05 11.635 6.67572e-05C11.6123 0.00460243 10.9139 0.122515 10.0794 0.267639Z" fill="#E04F16"/>
<path d="M26.4059 0.0680809C26.22 0.104361 25.6077 0.204134 25.0454 0.294836C23.3311 0.566944 22.5964 0.780096 21.5987 1.29257C20.8322 1.68712 20.2699 2.09529 19.6667 2.69392C17.6712 4.67578 16.1248 7.61455 15.4717 10.6667C15.1542 12.1588 15.1452 12.2903 15.127 16.3356L15.1089 20L19.839 19.9864L24.5692 19.9728L24.9592 19.8322C25.712 19.5646 26.2835 19.0794 26.6281 18.4127C26.9909 17.7143 26.9683 18.0544 26.9819 13.1111L27 8.70298H24.0703H21.1452V8.57599C21.1452 8.50343 21.186 8.28575 21.2359 8.0862C21.6939 6.29482 22.8957 4.99777 25.2132 3.78689C25.6712 3.55106 25.966 3.36512 26.1066 3.22453C26.4377 2.898 26.6871 2.28123 26.7687 1.59642C26.8186 1.13384 26.8277 -0.00901794 26.7823 5.34058e-05C26.7597 0.00458908 26.5919 0.0317993 26.4059 0.0680809Z" fill="#E04F16"/>
</svg>
