<svg width="156" height="27" viewBox="0 0 156 27" fill="none" xmlns="http://www.w3.org/2000/svg">
<path d="M154.649 16.0181C155.199 15.9689 155.605 15.483 155.555 14.9329L154.753 5.9688C154.703 5.41872 154.218 5.01272 153.667 5.06198C153.117 5.11124 152.711 5.5971 152.761 6.14719L153.474 14.1153L145.506 14.8288C144.956 14.8781 144.55 15.3639 144.599 15.914C144.648 16.4641 145.134 16.8701 145.684 16.8209L154.649 16.0181ZM0.959487 15.8987C1.58056 16.2397 2.19864 16.571 2.81378 16.8929L3.74106 15.1208C3.13781 14.8051 2.53142 14.4801 1.92186 14.1455L0.959487 15.8987ZM6.46961 18.7124C7.74059 19.3123 8.99888 19.8719 10.2449 20.3927L11.0162 18.5475C9.79847 18.0384 8.56762 17.4911 7.32327 16.9038L6.46961 18.7124ZM14.0352 21.8731C15.3582 22.3532 16.6672 22.7898 17.9627 23.1849L18.5461 21.2719C17.2843 20.8871 16.0083 20.4615 14.7175 19.993L14.0352 21.8731ZM21.9335 24.2784C23.2821 24.6097 24.6159 24.8964 25.9354 25.141L26.2999 23.1745C25.0183 22.937 23.7221 22.6583 22.4106 22.3361L21.9335 24.2784ZM30.0206 25.772C31.4071 25.9433 32.7777 26.0689 34.1331 26.152L34.2554 24.1558C32.9408 24.0752 31.6112 23.9533 30.2658 23.7871L30.0206 25.772ZM38.2483 26.2769C39.6344 26.2761 41.0044 26.2324 42.359 26.1493L42.2365 24.153C40.9214 24.2337 39.5919 24.2762 38.2473 24.2769L38.2483 26.2769ZM46.4654 25.7749C47.8396 25.609 49.198 25.4048 50.5416 25.1664L50.1922 23.1972C48.8835 23.4294 47.5617 23.6281 46.2257 23.7893L46.4654 25.7749ZM54.5715 24.3427C55.9119 24.0334 57.2379 23.6927 58.5504 23.3252L58.0112 21.3993C56.7264 21.759 55.4303 22.0919 54.1217 22.394L54.5715 24.3427ZM62.4762 22.1376C63.7795 21.715 65.0701 21.2693 66.3492 20.805L65.6668 18.925C64.4074 19.3821 63.1386 19.8203 61.8592 20.2352L62.4762 22.1376ZM70.176 19.3517C71.4471 18.849 72.7076 18.3318 73.9585 17.8049L73.1822 15.9618C71.9427 16.4838 70.6959 16.9953 69.4404 17.4919L70.176 19.3517ZM77.705 16.1903C78.9531 15.6417 80.1929 15.0878 81.425 14.5335L80.6044 12.7096C79.3753 13.2626 78.1412 13.8139 76.9003 14.3593L77.705 16.1903ZM85.1289 12.8607C86.3682 12.3007 87.6005 11.7453 88.8281 11.1991L88.015 9.3718C86.7819 9.9205 85.5454 10.4778 84.3053 11.0382L85.1289 12.8607ZM92.5362 9.5761C93.7845 9.04087 95.0283 8.52078 96.2693 8.02092L95.5221 6.16575C94.2648 6.67216 93.0071 7.19808 91.7481 7.73795L92.5362 9.5761ZM100.033 6.56972C101.302 6.10427 102.57 5.66589 103.836 5.26003L103.226 3.35538C101.93 3.77064 100.636 4.2182 99.3445 4.69199L100.033 6.56972ZM107.685 4.13306C108.982 3.79107 110.28 3.4891 111.58 3.23294L111.193 1.27065C109.848 1.53564 108.509 1.84733 107.175 2.19917L107.685 4.13306ZM115.515 2.60467C116.831 2.44558 118.151 2.33883 119.477 2.29034L119.404 0.291675C118.019 0.342313 116.643 0.453698 115.275 0.619132L115.515 2.60467ZM123.444 2.32383C124.75 2.39492 126.064 2.52696 127.388 2.72562L127.685 0.747772C126.297 0.539556 124.92 0.40123 123.553 0.326788L123.444 2.32383ZM131.281 3.49995C132.543 3.81324 133.816 4.19033 135.101 4.63614L135.757 2.74661C134.415 2.28117 133.084 1.88683 131.763 1.55885L131.281 3.49995ZM138.784 6.09081C139.959 6.61168 141.145 7.19186 142.343 7.83499L143.289 6.07278C142.048 5.40654 140.816 4.80418 139.594 4.26239L138.784 6.09081ZM145.793 9.84283C146.903 10.5385 148.023 11.2891 149.155 12.0972L150.317 10.4696C149.154 9.63905 148.001 8.86612 146.856 8.14837L145.793 9.84283ZM152.315 14.4825C152.847 14.9053 153.381 15.3409 153.918 15.7895L155.201 14.2548C154.651 13.7959 154.105 13.3501 153.56 12.917L152.315 14.4825Z" fill="#012047"/>
</svg>
