<svg width="174" height="51" viewBox="0 0 174 51" fill="none" xmlns="http://www.w3.org/2000/svg">
<path d="M172.116 44.5276C172.116 47.1922 169.912 49.3505 167.187 49.3505H5.89694C3.17297 49.3505 0.961914 47.1922 0.961914 44.5276V6.06651C0.961914 3.4032 3.17297 1.2373 5.89694 1.2373H167.186C169.912 1.2373 172.114 3.4032 172.114 6.06651L172.116 44.5276Z" fill="white" fill-opacity="0.24"/>
<path d="M166.667 1.29551C169.635 1.29551 172.05 3.6502 172.05 6.54395V44.0439C172.05 46.9377 169.635 49.2924 166.667 49.2924H6.41026C3.44231 49.2924 1.02724 46.9377 1.02724 44.0439V6.54395C1.02724 3.6502 3.44231 1.29551 6.41026 1.29551H166.667ZM166.667 0.293949H6.41026C2.88622 0.293949 0 3.10801 0 6.54395V44.0439C0 47.4799 2.88622 50.2939 6.41026 50.2939H166.667C170.191 50.2939 173.077 47.4799 173.077 44.0439V6.54395C173.077 3.10801 170.191 0.293949 166.667 0.293949Z" fill="white"/>
<path d="M38.6252 25.0242C38.588 20.9954 42.0085 19.0354 42.1649 18.9442C40.2277 16.1904 37.2252 15.8142 36.17 15.7842C33.6483 15.5254 31.2021 17.2554 29.9175 17.2554C28.6072 17.2554 26.629 15.8092 24.497 15.8517C21.7534 15.8929 19.1867 17.4417 17.779 19.8467C14.8739 24.7504 17.0406 31.9567 19.8239 35.9204C21.2162 37.8617 22.8431 40.0292 24.9726 39.9529C27.0559 39.8692 27.8342 38.6579 30.3483 38.6579C32.8393 38.6579 33.57 39.9529 35.7418 39.9042C37.9777 39.8692 39.3854 37.9542 40.729 35.9954C42.338 33.7704 42.9842 31.5792 43.0098 31.4667C42.9572 31.4492 38.6675 29.8529 38.6252 25.0242Z" fill="white"/>
<path d="M34.5226 13.1767C35.6431 11.8104 36.4098 9.95168 36.197 8.06543C34.5752 8.13543 32.547 9.15918 31.379 10.4954C30.3457 11.6729 29.4226 13.6029 29.6611 15.4179C31.4829 15.5504 33.3534 14.5217 34.5226 13.1767Z" fill="white"/>
<path d="M62.8849 12.8053C62.8849 14.2766 62.4323 15.3841 61.5285 16.1278C60.6913 16.8141 59.5015 17.1578 57.9605 17.1578C57.1964 17.1578 56.5426 17.1253 55.9951 17.0603V9.02156C56.7092 8.90906 57.4785 8.85156 58.3092 8.85156C59.7772 8.85156 60.8836 9.16281 61.6297 9.78531C62.4656 10.4891 62.8849 11.4953 62.8849 12.8053ZM61.4682 12.8416C61.4682 11.8878 61.2092 11.1566 60.6913 10.6466C60.1733 10.1378 59.4169 9.88281 58.4208 9.88281C57.9977 9.88281 57.6374 9.91031 57.3387 9.96781V16.0791C57.5041 16.1041 57.8067 16.1153 58.2464 16.1153C59.2746 16.1153 60.0682 15.8366 60.6272 15.2791C61.1861 14.7216 61.4682 13.9091 61.4682 12.8416Z" fill="white"/>
<path d="M70.3968 14.0907C70.3968 14.997 70.1314 15.7395 69.6006 16.322C69.0442 16.9207 68.307 17.2195 67.3865 17.2195C66.4993 17.2195 65.7929 16.9332 65.266 16.3582C64.7404 15.7845 64.4775 15.0607 64.4775 14.1882C64.4775 13.2757 64.748 12.527 65.2916 11.9457C65.8352 11.3645 66.566 11.0732 67.4865 11.0732C68.3737 11.0732 69.0865 11.3595 69.6263 11.9332C70.1391 12.4907 70.3968 13.2107 70.3968 14.0907ZM69.0032 14.1332C69.0032 13.5895 68.8827 13.1232 68.6429 12.7345C68.3609 12.2645 67.9596 12.0295 67.4378 12.0295C66.8981 12.0295 66.4878 12.2645 66.2057 12.7345C65.9647 13.1232 65.8455 13.597 65.8455 14.157C65.8455 14.7007 65.966 15.167 66.2057 15.5557C66.4968 16.0257 66.9019 16.2607 67.425 16.2607C67.9378 16.2607 68.3404 16.022 68.6301 15.5432C68.8788 15.147 69.0032 14.677 69.0032 14.1332Z" fill="white"/>
<path d="M80.4683 11.1934L78.5773 17.0859H77.3465L76.5632 14.5271C76.3645 13.8884 76.2029 13.2534 76.0773 12.6234H76.0529C75.9363 13.2709 75.7747 13.9046 75.567 14.5271L74.735 17.0859H73.4901L71.7119 11.1934H73.0927L73.776 13.9946C73.9414 14.6571 74.0773 15.2884 74.1863 15.8859H74.2106C74.3106 15.3934 74.476 14.7659 74.7093 14.0071L75.567 11.1946H76.6619L77.4837 13.9471C77.6824 14.6184 77.844 15.2646 77.9683 15.8871H78.0055C78.0965 15.2809 78.2337 14.6346 78.4158 13.9471L79.1491 11.1946H80.4683V11.1934Z" fill="white"/>
<path d="M87.4332 17.0856H86.0896V13.7106C86.0896 12.6706 85.6844 12.1506 84.8716 12.1506C84.4729 12.1506 84.1511 12.2931 83.9011 12.5793C83.6537 12.8656 83.528 13.2031 83.528 13.5893V17.0843H82.1845V12.8768C82.1845 12.3593 82.1678 11.7981 82.1357 11.1906H83.3165L83.3793 12.1118H83.4165C83.5729 11.8256 83.8063 11.5893 84.1127 11.4006C84.4768 11.1806 84.8844 11.0693 85.3306 11.0693C85.8947 11.0693 86.3639 11.2468 86.737 11.6031C87.2011 12.0393 87.4332 12.6906 87.4332 13.5556V17.0856Z" fill="white"/>
<path d="M91.1392 17.0855H89.7969V8.48926H91.1392V17.0855Z" fill="white"/>
<path d="M99.0491 14.0907C99.0491 14.997 98.7837 15.7395 98.253 16.322C97.6966 16.9207 96.9581 17.2195 96.0389 17.2195C95.1504 17.2195 94.444 16.9332 93.9183 16.3582C93.3927 15.7845 93.1299 15.0607 93.1299 14.1882C93.1299 13.2757 93.4004 12.527 93.944 11.9457C94.4876 11.3645 95.2183 11.0732 96.1376 11.0732C97.026 11.0732 97.7376 11.3595 98.2786 11.9332C98.7914 12.4907 99.0491 13.2107 99.0491 14.0907ZM97.6542 14.1332C97.6542 13.5895 97.5337 13.1232 97.294 12.7345C97.0132 12.2645 96.6106 12.0295 96.0901 12.0295C95.5491 12.0295 95.1389 12.2645 94.8581 12.7345C94.6171 13.1232 94.4978 13.597 94.4978 14.157C94.4978 14.7007 94.6183 15.167 94.8581 15.5557C95.1491 16.0257 95.5542 16.2607 96.0773 16.2607C96.5901 16.2607 96.9914 16.022 97.2812 15.5432C97.5312 15.147 97.6542 14.677 97.6542 14.1332Z" fill="white"/>
<path d="M105.551 17.0857H104.345L104.245 16.407H104.208C103.795 16.9482 103.207 17.2195 102.442 17.2195C101.872 17.2195 101.41 17.0407 101.063 16.6857C100.748 16.3632 100.59 15.962 100.59 15.4857C100.59 14.7657 100.898 14.217 101.517 13.837C102.135 13.457 103.004 13.2707 104.123 13.2795V13.1695C104.123 12.3932 103.705 12.0057 102.868 12.0057C102.272 12.0057 101.746 12.152 101.292 12.442L101.019 11.582C101.581 11.2432 102.274 11.0732 103.092 11.0732C104.672 11.0732 105.464 11.8857 105.464 13.5107V15.6807C105.464 16.2695 105.494 16.7382 105.551 17.0857ZM104.157 15.0607V14.152C102.674 14.127 101.933 14.5232 101.933 15.3395C101.933 15.647 102.018 15.877 102.191 16.0307C102.364 16.1845 102.585 16.2607 102.848 16.2607C103.142 16.2607 103.418 16.1695 103.669 15.9882C103.922 15.8057 104.077 15.5745 104.135 15.2907C104.149 15.227 104.157 15.1495 104.157 15.0607Z" fill="white"/>
<path d="M113.186 17.0855H111.994L111.931 16.1393H111.894C111.513 16.8593 110.864 17.2193 109.953 17.2193C109.225 17.2193 108.618 16.9405 108.137 16.383C107.657 15.8255 107.417 15.1018 107.417 14.213C107.417 13.2593 107.677 12.4868 108.2 11.8968C108.707 11.3468 109.327 11.0718 110.066 11.0718C110.877 11.0718 111.445 11.338 111.768 11.8718H111.794V8.48926H113.139V15.498C113.139 16.0718 113.154 16.6005 113.186 17.0855ZM111.794 14.6005V13.618C111.794 13.448 111.781 13.3105 111.757 13.2055C111.681 12.8905 111.518 12.6255 111.271 12.4118C111.021 12.198 110.72 12.0905 110.372 12.0905C109.871 12.0905 109.479 12.2843 109.19 12.673C108.904 13.0618 108.759 13.558 108.759 14.1643C108.759 14.7468 108.896 15.2193 109.172 15.583C109.463 15.9705 109.855 16.1643 110.346 16.1643C110.787 16.1643 111.14 16.003 111.408 15.6793C111.667 15.3805 111.794 15.0205 111.794 14.6005Z" fill="white"/>
<path d="M124.677 14.0907C124.677 14.997 124.412 15.7395 123.881 16.322C123.324 16.9207 122.589 17.2195 121.667 17.2195C120.781 17.2195 120.074 16.9332 119.546 16.3582C119.021 15.7845 118.758 15.0607 118.758 14.1882C118.758 13.2757 119.028 12.527 119.572 11.9457C120.116 11.3645 120.846 11.0732 121.768 11.0732C122.654 11.0732 123.368 11.3595 123.907 11.9332C124.419 12.4907 124.677 13.2107 124.677 14.0907ZM123.285 14.1332C123.285 13.5895 123.164 13.1232 122.924 12.7345C122.641 12.2645 122.241 12.0295 121.718 12.0295C121.18 12.0295 120.769 12.2645 120.486 12.7345C120.245 13.1232 120.126 13.597 120.126 14.157C120.126 14.7007 120.246 15.167 120.486 15.5557C120.777 16.0257 121.182 16.2607 121.705 16.2607C122.218 16.2607 122.622 16.022 122.912 15.5432C123.159 15.147 123.285 14.677 123.285 14.1332Z" fill="white"/>
<path d="M131.902 17.0856H130.559V13.7106C130.559 12.6706 130.154 12.1506 129.34 12.1506C128.941 12.1506 128.62 12.2931 128.371 12.5793C128.122 12.8656 127.998 13.2031 127.998 13.5893V17.0843H126.653V12.8768C126.653 12.3593 126.638 11.7981 126.605 11.1906H127.785L127.848 12.1118H127.885C128.043 11.8256 128.276 11.5893 128.581 11.4006C128.946 11.1806 129.353 11.0693 129.8 11.0693C130.363 11.0693 130.832 11.2468 131.205 11.6031C131.671 12.0393 131.902 12.6906 131.902 13.5556V17.0856Z" fill="white"/>
<path d="M140.943 12.1743H139.464V15.0368C139.464 15.7643 139.727 16.1281 140.247 16.1281C140.488 16.1281 140.688 16.1081 140.846 16.0668L140.881 17.0606C140.615 17.1581 140.267 17.2068 139.837 17.2068C139.306 17.2068 138.893 17.0493 138.595 16.7343C138.295 16.4193 138.146 15.8893 138.146 15.1456V12.1743H137.263V11.1931H138.146V10.1131L139.463 9.72559V11.1918H140.942V12.1743H140.943Z" fill="white"/>
<path d="M148.056 17.0855H146.711V13.7355C146.711 12.6793 146.306 12.1505 145.495 12.1505C144.872 12.1505 144.446 12.4568 144.213 13.0693C144.173 13.198 144.15 13.3555 144.15 13.5405V17.0843H142.808V8.48926H144.15V12.0405H144.176C144.599 11.3943 145.205 11.0718 145.991 11.0718C146.547 11.0718 147.008 11.2493 147.373 11.6055C147.828 12.0493 148.056 12.7093 148.056 13.5818V17.0855Z" fill="white"/>
<path d="M155.394 13.8603C155.394 14.0953 155.376 14.2928 155.344 14.454H151.314C151.332 15.0365 151.524 15.4803 151.897 15.7878C152.238 16.0628 152.678 16.2003 153.217 16.2003C153.813 16.2003 154.356 16.1078 154.846 15.9215L155.056 16.8315C154.483 17.074 153.809 17.1953 153.028 17.1953C152.092 17.1953 151.355 16.9265 150.822 16.389C150.286 15.8515 150.021 15.1303 150.021 14.2253C150.021 13.3365 150.268 12.5965 150.767 12.0065C151.287 11.3765 151.991 11.0615 152.879 11.0615C153.749 11.0615 154.409 11.3765 154.855 12.0065C155.215 12.5065 155.394 13.1253 155.394 13.8603ZM154.112 13.5215C154.122 13.1328 154.033 12.7978 153.851 12.5153C153.618 12.1515 153.263 11.969 152.782 11.969C152.344 11.969 151.986 12.1465 151.713 12.5028C151.49 12.7865 151.358 13.1253 151.314 13.5215H154.112Z" fill="white"/>
<path d="M68.7759 39.6741H65.8644L64.2695 34.7878H58.7259L57.2067 39.6741H54.3721L59.8644 23.0391H63.2567L68.7759 39.6741ZM63.7887 32.7378L62.3464 28.3941C62.1939 27.9503 61.908 26.9053 61.4862 25.2603H61.4349C61.2669 25.9678 60.9964 27.0128 60.6246 28.3941L59.208 32.7378H63.7887Z" fill="white"/>
<path d="M82.9002 33.5289C82.9002 35.5689 82.3348 37.1814 81.204 38.3651C80.1912 39.4189 78.9335 39.9451 77.4322 39.9451C75.8117 39.9451 74.6476 39.3776 73.9386 38.2426H73.8873V44.5614H71.154V31.6276C71.154 30.3451 71.1194 29.0289 71.0527 27.6789H73.4566L73.6091 29.5801H73.6604C74.572 28.1476 75.9553 27.4326 77.8117 27.4326C79.263 27.4326 80.4745 27.9914 81.4438 29.1101C82.4156 30.2301 82.9002 31.7026 82.9002 33.5289ZM80.1156 33.6264C80.1156 32.4589 79.8463 31.4964 79.3053 30.7389C78.7143 29.9489 77.9207 29.5539 76.9258 29.5539C76.2514 29.5539 75.6386 29.7739 75.0912 30.2076C74.5425 30.6451 74.1835 31.2164 74.0156 31.9239C73.9309 32.2539 73.8886 32.5239 73.8886 32.7364V34.7364C73.8886 35.6089 74.163 36.3451 74.7117 36.9464C75.2604 37.5476 75.9732 37.8476 76.8502 37.8476C77.8797 37.8476 78.6809 37.4601 79.254 36.6876C79.8284 35.9139 80.1156 34.8939 80.1156 33.6264Z" fill="white"/>
<path d="M97.0503 33.5289C97.0503 35.5689 96.4849 37.1814 95.3528 38.3651C94.3413 39.4189 93.0836 39.9451 91.5823 39.9451C89.9618 39.9451 88.7977 39.3776 88.09 38.2426H88.0387V44.5614H85.3054V31.6276C85.3054 30.3451 85.2708 29.0289 85.2041 27.6789H87.6079L87.7605 29.5801H87.8118C88.722 28.1476 90.1054 27.4326 91.9631 27.4326C93.4131 27.4326 94.6246 27.9914 95.5964 29.1101C96.5644 30.2301 97.0503 31.7026 97.0503 33.5289ZM94.2656 33.6264C94.2656 32.4589 93.9951 31.4964 93.4541 30.7389C92.8631 29.9489 92.0721 29.5539 91.0759 29.5539C90.4003 29.5539 89.7887 29.7739 89.24 30.2076C88.6913 30.6451 88.3336 31.2164 88.1656 31.9239C88.0823 32.2539 88.0387 32.5239 88.0387 32.7364V34.7364C88.0387 35.6089 88.3131 36.3451 88.8592 36.9464C89.4079 37.5464 90.1208 37.8476 91.0003 37.8476C92.0297 37.8476 92.831 37.4601 93.4041 36.6876C93.9785 35.9139 94.2656 34.8939 94.2656 33.6264Z" fill="white"/>
<path d="M112.871 35.0087C112.871 36.4237 112.367 37.5749 111.355 38.4637C110.244 39.4349 108.696 39.9199 106.708 39.9199C104.872 39.9199 103.4 39.5749 102.286 38.8837L102.919 36.6624C104.119 37.3699 105.436 37.7249 106.871 37.7249C107.9 37.7249 108.702 37.4974 109.277 37.0449C109.85 36.5924 110.136 35.9849 110.136 35.2274C110.136 34.5524 109.9 33.9837 109.427 33.5224C108.957 33.0612 108.171 32.6324 107.073 32.2362C104.086 31.1499 102.594 29.5587 102.594 27.4662C102.594 26.0987 103.117 24.9774 104.164 24.1049C105.208 23.2312 106.6 22.7949 108.341 22.7949C109.894 22.7949 111.184 23.0587 112.213 23.5849L111.53 25.7574C110.568 25.2474 109.481 24.9924 108.264 24.9924C107.303 24.9924 106.552 25.2237 106.013 25.6837C105.558 26.0949 105.33 26.5962 105.33 27.1899C105.33 27.8474 105.59 28.3912 106.113 28.8187C106.568 29.2137 107.395 29.6412 108.595 30.1024C110.063 30.6787 111.141 31.3524 111.835 32.1249C112.526 32.8949 112.871 33.8587 112.871 35.0087Z" fill="white"/>
<path d="M121.908 29.6782H118.895V35.502C118.895 36.9832 119.426 37.7232 120.49 37.7232C120.979 37.7232 121.384 37.682 121.704 37.5995L121.78 39.6232C121.242 39.8195 120.533 39.9182 119.654 39.9182C118.575 39.9182 117.731 39.597 117.122 38.9557C116.516 38.3132 116.211 37.2357 116.211 35.722V29.6757H114.416V27.6757H116.211V25.4795L118.895 24.6895V27.6757H121.908V29.6782Z" fill="white"/>
<path d="M135.501 33.5773C135.501 35.4211 134.96 36.9348 133.881 38.1186C132.749 39.3373 131.246 39.9448 129.373 39.9448C127.568 39.9448 126.131 39.3611 125.059 38.1936C123.987 37.0261 123.451 35.5523 123.451 33.7761C123.451 31.9173 124.002 30.3948 125.109 29.2111C126.213 28.0261 127.702 27.4336 129.576 27.4336C131.381 27.4336 132.833 28.0173 133.929 29.1861C134.978 30.3198 135.501 31.7836 135.501 33.5773ZM132.665 33.6636C132.665 32.5573 132.423 31.6086 131.932 30.8173C131.359 29.8598 130.54 29.3823 129.478 29.3823C128.379 29.3823 127.545 29.8611 126.972 30.8173C126.481 31.6098 126.238 32.5736 126.238 33.7136C126.238 34.8198 126.481 35.7686 126.972 36.5586C127.563 37.5161 128.388 37.9936 129.454 37.9936C130.497 37.9936 131.317 37.5061 131.908 36.5336C132.411 35.7273 132.665 34.7686 132.665 33.6636Z" fill="white"/>
<path d="M144.386 30.0226C144.115 29.9739 143.827 29.9489 143.524 29.9489C142.563 29.9489 141.819 30.3026 141.296 31.0114C140.841 31.6364 140.613 32.4264 140.613 33.3801V39.6739H137.881L137.906 31.4564C137.906 30.0739 137.872 28.8151 137.804 27.6801H140.184L140.284 29.9751H140.36C140.649 29.1864 141.104 28.5514 141.727 28.0751C142.336 27.6464 142.993 27.4326 143.702 27.4326C143.955 27.4326 144.183 27.4501 144.386 27.4814V30.0226Z" fill="white"/>
<path d="M156.61 33.1089C156.61 33.5864 156.578 33.9889 156.51 34.3177H148.31C148.342 35.5027 148.738 36.4089 149.5 37.0339C150.191 37.5927 151.084 37.8727 152.182 37.8727C153.396 37.8727 154.504 37.6839 155.5 37.3052L155.928 39.1552C154.764 39.6502 153.39 39.8964 151.804 39.8964C149.896 39.8964 148.399 39.3489 147.309 38.2552C146.222 37.1614 145.677 35.6927 145.677 33.8502C145.677 32.0414 146.183 30.5352 147.197 29.3339C148.259 28.0514 149.693 27.4102 151.499 27.4102C153.272 27.4102 154.614 28.0514 155.525 29.3339C156.247 30.3527 156.61 31.6127 156.61 33.1089ZM154.004 32.4177C154.022 31.6277 153.843 30.9452 153.473 30.3689C153 29.6277 152.273 29.2577 151.295 29.2577C150.401 29.2577 149.674 29.6189 149.119 30.3439C148.664 30.9202 148.393 31.6114 148.31 32.4164H154.004V32.4177Z" fill="white"/>
</svg>
