<svg width="25" height="24" viewBox="0 0 25 24" fill="none" xmlns="http://www.w3.org/2000/svg">
<path d="M20.8529 8.11998V17.53C20.8529 19.99 18.8429 22 16.3829 22H7.90292C5.44292 22 3.43292 19.99 3.43292 17.53V8.11998C3.43292 6.40998 4.39292 4.91998 5.80292 4.16998C6.29292 3.90998 6.90292 4.25998 6.90292 4.81998C6.90292 6.40998 8.20292 7.70998 9.79292 7.70998H14.4929C16.0829 7.70998 17.3829 6.40998 17.3829 4.81998C17.3829 4.25998 17.9829 3.90998 18.4829 4.16998C19.8929 4.91998 20.8529 6.40998 20.8529 8.11998Z" fill="#98C9C0"/>
<path d="M14.4929 2H9.79292C8.75292 2 7.90292 2.84 7.90292 3.88V4.82C7.90292 5.86 8.74292 6.7 9.78292 6.7H14.4929C15.5329 6.7 16.3729 5.86 16.3729 4.82V3.88C16.3829 2.84 15.5329 2 14.4929 2Z" fill="white"/>
</svg>
