<svg width="25" height="24" viewBox="0 0 25 24" fill="none" xmlns="http://www.w3.org/2000/svg">
<path d="M22.2857 21.25H2.28574C1.87574 21.25 1.53574 21.59 1.53574 22C1.53574 22.41 1.87574 22.75 2.28574 22.75H22.2857C22.6957 22.75 23.0357 22.41 23.0357 22C23.0357 21.59 22.6957 21.25 22.2857 21.25Z" fill="white"/>
<path d="M17.2857 2H7.28574C4.28574 2 3.28574 3.79 3.28574 6V22H9.28574V15.94C9.28574 15.42 9.70574 15 10.2257 15H14.3557C14.8657 15 15.2957 15.42 15.2957 15.94V22H21.2957V6C21.2857 3.79 20.2857 2 17.2857 2ZM14.7857 9.25H13.0357V11C13.0357 11.41 12.6957 11.75 12.2857 11.75C11.8757 11.75 11.5357 11.41 11.5357 11V9.25H9.78574C9.37574 9.25 9.03574 8.91 9.03574 8.5C9.03574 8.09 9.37574 7.75 9.78574 7.75H11.5357V6C11.5357 5.59 11.8757 5.25 12.2857 5.25C12.6957 5.25 13.0357 5.59 13.0357 6V7.75H14.7857C15.1957 7.75 15.5357 8.09 15.5357 8.5C15.5357 8.91 15.1957 9.25 14.7857 9.25Z" fill="#F79FC6"/>
</svg>
