<svg width="100" height="24" viewBox="0 0 100 24" fill="none" xmlns="http://www.w3.org/2000/svg">
<g clip-path="url(#clip0_25_1353)">
<path d="M0.922668 17.6474L4.45008 14.9452C6.32415 17.3911 8.31526 18.5185 10.5316 18.5185C12.736 18.5185 14.6708 17.4044 16.4605 14.9778L20.0382 17.6148C17.456 21.1141 14.2471 22.963 10.5316 22.963C6.82785 22.963 3.58785 21.1259 0.922668 17.6474Z" fill="url(#paint0_linear_25_1353)"/>
<path d="M10.5197 5.9022L4.24116 11.3126L1.33893 7.94664L10.533 0.0236816L19.6545 7.95257L16.7389 11.3066L10.5197 5.9022Z" fill="url(#paint1_linear_25_1353)"/>
<path d="M33.5656 19.6252C31.4219 19.6252 29.6353 18.9304 28.1864 17.5407C26.7375 16.1318 26.0234 14.3259 26.0234 12.1215C26.0234 9.89924 26.7567 8.07257 28.2056 6.64294C29.6753 5.19405 31.4619 4.47998 33.5864 4.47998C36.2071 4.47998 38.5286 5.61035 39.8797 7.37776L37.5153 9.85924C36.3834 8.64738 35.1523 8.03257 33.8234 8.03257C32.6916 8.03257 31.7582 8.40887 30.9834 9.18368C30.2293 9.9585 29.853 10.9318 29.853 12.1022C29.853 13.2341 30.2293 14.1866 30.9834 14.9615C31.7582 15.7155 32.6916 16.0918 33.8027 16.0918C35.2516 16.0918 36.5227 15.4563 37.5745 14.2059L40.0367 16.5689C39.3612 17.4622 38.4486 18.197 37.3167 18.7718C36.1849 19.3481 34.9345 19.6252 33.5641 19.6252H33.5656ZM44.2027 4.26072V19.4074H40.7093V4.26072H44.2027ZM47.5138 7.47553C46.3434 7.47553 45.4901 6.6222 45.4901 5.45183C45.4901 4.31998 46.3834 3.46664 47.5138 3.46664C48.6456 3.46664 49.5197 4.31998 49.5197 5.45183C49.5197 6.6222 48.6456 7.47701 47.5138 7.47701V7.47553ZM49.2812 8.44887V19.4074H45.7671V8.44887H49.2812ZM56.0071 19.6459C54.2797 19.6459 52.8901 19.1096 51.7997 18.037C50.7271 16.9659 50.1908 15.5955 50.1908 13.9081C50.1908 12.2207 50.7271 10.8518 51.819 9.77924C52.9108 8.70664 54.3197 8.17183 56.0664 8.17183C58.3493 8.17183 60.3553 9.28294 61.2871 11.3674L58.4886 12.837C57.933 11.9037 57.1582 11.4266 56.1464 11.4266C55.4116 11.4266 54.816 11.6652 54.339 12.1422C54.1126 12.3763 53.9348 12.6529 53.8156 12.9559C53.6963 13.2589 53.6381 13.5825 53.6441 13.9081C53.6441 15.357 54.696 16.4296 56.1064 16.4296C57.1182 16.4296 58.0516 15.8741 58.4486 15.0207L61.2486 16.6874C60.2945 18.5141 58.3301 19.6459 56.0071 19.6459ZM73.4338 19.4074H69.2634L66.0264 15.0593L65.5108 15.5363V19.4074H62.019V4.26072H65.5123V11.6252L68.8071 8.44887H73.0753L68.3716 12.8563L73.4338 19.4074ZM73.6679 13.7096V4.73627H77.3997V13.6503C77.3997 15.2978 78.3523 16.0918 79.7227 16.0918C81.0723 16.0918 82.0249 15.2578 82.0249 13.6503V4.73627H85.7775V13.7096C85.7775 18.037 82.779 19.6652 79.7227 19.6652C76.6856 19.6652 73.6679 18.037 73.6679 13.7096ZM94.0708 8.17183C95.6397 8.17183 96.9108 8.72738 97.9227 9.8385C98.9345 10.9303 99.4308 12.3007 99.4308 13.9081C99.4308 15.517 98.9153 16.8859 97.9034 18.0178C96.8901 19.1289 95.6204 19.6859 94.0916 19.6859C92.8797 19.6859 91.8279 19.2889 90.9745 18.4948V23.9141H87.4605V8.44887H90.9153V9.4622C91.7686 8.60739 92.8204 8.17183 94.0708 8.17183ZM95.8575 13.9481C95.8575 12.5185 94.8264 11.4266 93.3967 11.4266C91.9671 11.4266 90.9153 12.5185 90.9153 13.9481C90.9153 14.6429 91.1523 15.2385 91.6101 15.7348C92.0856 16.2311 92.6812 16.4696 93.3967 16.4696C94.1108 16.4696 94.7064 16.2311 95.1627 15.7348C95.6179 15.2521 95.8676 14.6115 95.859 13.9481H95.8575Z" fill="white"/>
</g>
<defs>
<linearGradient id="paint0_linear_25_1353" x1="0.922668" y1="20.3981" x2="20.0382" y2="20.3981" gradientUnits="userSpaceOnUse">
<stop stop-color="#8930FD"/>
<stop offset="1" stop-color="#49CCF9"/>
</linearGradient>
<linearGradient id="paint1_linear_25_1353" x1="1.33893" y1="7.70125" x2="19.6545" y2="7.70125" gradientUnits="userSpaceOnUse">
<stop stop-color="#FF02F0"/>
<stop offset="1" stop-color="#FFC800"/>
</linearGradient>
<clipPath id="clip0_25_1353">
<rect width="98.6667" height="24" fill="white" transform="translate(0.863403)"/>
</clipPath>
</defs>
</svg>
