<svg width="117" height="24" viewBox="0 0 117 24" fill="none" xmlns="http://www.w3.org/2000/svg">
<g clip-path="url(#clip0_25_1330)">
<path fill-rule="evenodd" clip-rule="evenodd" d="M11.1829 10.9108L11.3811 10.8554C12.8581 10.4126 14.3069 9.88084 15.7198 9.26307C17.153 8.70039 18.4977 7.93407 19.7127 6.98769C21.0025 5.96069 21.9733 4.58706 22.5114 3.02769C22.6274 2.771 22.7125 2.50142 22.765 2.22461C20.8239 4.87845 13.1286 5.15538 13.1286 5.15538L14.9452 3.48922C9.65841 3.50745 4.50951 5.17923 0.218567 8.27076C3.12483 8.58241 5.85844 9.80522 8.02912 11.7646C9.07114 11.4415 10.1362 11.2108 11.1829 10.92V10.9108ZM23.2491 10.6477C18.3529 10.4206 13.4544 11.0452 8.77145 12.4938C9.75514 13.5213 10.5761 14.6933 11.2059 15.9692C15.0835 13.8092 20.4596 11.0492 23.2491 10.6569V10.6477ZM11.6946 17.0723C12.1546 18.257 12.4493 19.4994 12.5707 20.7646L19.3346 13.8092L11.6946 17.0723ZM15.2449 20.4831V20.4092C15.2437 20.3795 15.2341 20.3506 15.2172 20.3261C15.2018 20.303 15.1758 20.2892 15.1481 20.2892H15.208C15.2448 20.2647 15.2658 20.2226 15.2633 20.1785C15.2697 20.1189 15.2358 20.0624 15.1803 20.04C15.1331 20.0309 15.0846 20.0309 15.0374 20.04H14.8484V20.5615H14.9498V20.3723H15.0236C15.0554 20.3645 15.0886 20.3645 15.1204 20.3723C15.152 20.3979 15.1677 20.4382 15.1619 20.4785V20.5569H15.2633L15.2449 20.4831ZM14.9452 20.0769H15.0097C15.0446 20.0688 15.0809 20.0688 15.1158 20.0769C15.1361 20.0918 15.1467 20.1166 15.1435 20.1415C15.1474 20.1739 15.1282 20.2047 15.0974 20.2154C15.0699 20.2198 15.0418 20.2198 15.0144 20.2154H14.9452V20.04V20.0769Z" fill="white"/>
<path fill-rule="evenodd" clip-rule="evenodd" d="M15.3694 19.9246C15.2822 19.8314 15.1604 19.7785 15.0328 19.7785C14.9053 19.7785 14.7834 19.8314 14.6962 19.9246C14.6059 20.0132 14.5559 20.135 14.5579 20.2615C14.5559 20.3881 14.6059 20.5099 14.6962 20.5985C14.7834 20.6917 14.9053 20.7446 15.0328 20.7446C15.1604 20.7446 15.2822 20.6917 15.3694 20.5985C15.4625 20.5112 15.5153 20.3892 15.5153 20.2615C15.5153 20.1338 15.4625 20.0119 15.3694 19.9246ZM15.0328 20.6538C14.9287 20.6552 14.8286 20.6134 14.7562 20.5385C14.6062 20.3843 14.6062 20.1387 14.7562 19.9846C14.829 19.9102 14.9287 19.8682 15.0328 19.8682C15.1369 19.8682 15.2366 19.9102 15.3095 19.9846C15.4594 20.1387 15.4594 20.3843 15.3095 20.5385C15.2371 20.6134 15.137 20.6552 15.0328 20.6538Z" fill="white"/>
<path fill-rule="evenodd" clip-rule="evenodd" d="M64.3352 14.0446C63.2283 14.0446 62.2054 13.4535 61.6519 12.4938C61.0984 11.5342 61.0984 10.3519 61.6519 9.3923C62.2054 8.43268 63.2283 7.84153 64.3352 7.84153C66.0464 7.84153 67.4336 9.23014 67.4336 10.9431C67.4336 12.656 66.0464 14.0446 64.3352 14.0446ZM64.3352 4.45846C61.6597 4.49016 59.2811 6.17088 58.3553 8.68385C57.4295 11.1968 58.1485 14.021 60.1628 15.784C62.1772 17.547 65.0693 17.8832 67.4336 16.6292V17.4138C67.4311 19.1257 66.0454 20.5128 64.3352 20.5154C63.4032 20.5154 62.6477 21.2717 62.6477 22.2046C62.6477 23.1375 63.4032 23.8938 64.3352 23.8938C67.8947 23.8814 70.7778 20.9954 70.7902 17.4323V10.9708C70.7778 7.40769 67.8947 4.52169 64.3352 4.50923V4.45846ZM32.4383 14.0446C30.7271 14.0472 29.3378 12.6606 29.3353 10.9477C29.3327 9.23475 30.7178 7.84408 32.429 7.84153C34.1402 7.83898 35.5295 9.22552 35.5321 10.9385C35.5346 12.6514 34.1495 14.0421 32.4383 14.0446ZM32.4383 4.45846C28.8788 4.47092 25.9957 7.35692 25.9833 10.92V20.1508C25.9833 20.7543 26.3049 21.3119 26.827 21.6137C27.3491 21.9154 27.9924 21.9154 28.5145 21.6137C29.0367 21.3119 29.3583 20.7543 29.3583 20.1508V16.6154C30.3066 17.1353 31.3709 17.4068 32.4521 17.4046C36.0286 17.4046 38.9279 14.5025 38.9279 10.9223C38.9279 7.34215 36.0286 4.43999 32.4521 4.43999L32.4383 4.45846ZM50.5953 4.45846C47.0358 4.47092 44.1527 7.35692 44.1403 10.92V15.7108C44.1403 16.6437 44.8958 17.4 45.8278 17.4C46.7598 17.4 47.5153 16.6437 47.5153 15.7108V10.9431C47.5153 9.23269 48.9004 7.84615 50.6091 7.84615C52.3178 7.84615 53.7029 9.23269 53.7029 10.9431V15.7338C53.6703 16.3576 53.9842 16.9484 54.519 17.2701C55.0539 17.5918 55.7224 17.5918 56.2572 17.2701C56.7921 16.9484 57.1059 16.3576 57.0733 15.7338V10.9431C57.0609 7.37999 54.1778 4.49399 50.6183 4.48153L50.5953 4.45846ZM91.8243 13.9892C90.1131 13.9918 88.7238 12.6052 88.7213 10.8923C88.7188 9.17937 90.1039 7.7887 91.8151 7.78615C93.5263 7.7836 94.9156 9.17014 94.9181 10.8831C94.9206 12.596 93.5355 13.9867 91.8243 13.9892ZM91.8243 4.40307C88.2593 4.40307 85.3693 7.29599 85.3693 10.8646C85.3693 14.4332 88.2593 17.3261 91.8243 17.3261C95.3893 17.3261 98.2793 14.4332 98.2793 10.8646C98.2669 7.30153 95.3838 4.41553 91.8243 4.40307ZM78.0798 14.0446C76.3686 14.0446 74.9814 12.656 74.9814 10.9431C74.9814 9.23014 76.3686 7.84153 78.0798 7.84153C79.791 7.84153 81.1782 9.23014 81.1782 10.9431C81.1756 12.655 79.7899 14.0421 78.0798 14.0446ZM82.8611 0.0276867C81.9291 0.0276867 81.1735 0.783981 81.1735 1.71692V5.2523C78.6217 3.86274 75.4569 4.3507 73.4411 6.44455C71.4252 8.53839 71.055 11.7222 72.5365 14.2236C74.0179 16.725 76.9861 17.9276 79.7886 17.1619C82.5911 16.3963 84.5374 13.851 84.544 10.9431V1.7123C84.544 0.779366 83.7885 0.0230713 82.8565 0.0230713L82.8611 0.0276867ZM41.3969 4.45846C40.4649 4.45846 39.7094 5.21475 39.7094 6.14769V15.7292C39.7094 16.6622 40.4649 17.4185 41.3969 17.4185C42.3289 17.4185 43.0844 16.6622 43.0844 15.7292V6.1523C43.0844 5.21937 42.3289 4.46307 41.3969 4.46307V4.45846ZM39.7094 1.71692C39.7094 2.64985 40.4649 3.40615 41.3969 3.40615C42.3289 3.40615 43.0844 2.64985 43.0844 1.71692C43.0844 0.783981 42.3289 0.0276867 41.3969 0.0276867C40.4649 0.0276867 39.7094 0.783981 39.7094 1.71692ZM107.953 17.3677C108.401 17.3677 108.831 17.1891 109.147 16.8713C109.464 16.5535 109.641 16.1227 109.64 15.6738V8.4923C109.64 8.1023 109.956 7.78615 110.346 7.78615C112.055 7.78869 113.439 9.17656 113.439 10.8877V15.6554C113.439 16.5883 114.195 17.3446 115.127 17.3446C116.059 17.3446 116.814 16.5883 116.814 15.6554V10.8877C116.802 7.32461 113.919 4.43861 110.359 4.42615C109.539 4.42399 108.727 4.58072 107.966 4.88769C107.206 4.58083 106.393 4.42411 105.573 4.42615C102.015 4.44138 99.1337 7.32553 99.1185 10.8877V15.6554C99.1185 16.5883 99.874 17.3446 100.806 17.3446C101.738 17.3446 102.494 16.5883 102.494 15.6554V10.8877C102.494 9.17656 103.878 7.78869 105.587 7.78615C105.977 7.78615 106.293 8.1023 106.293 8.4923V15.6554C106.292 16.1042 106.469 16.535 106.785 16.8528C107.102 17.1706 107.532 17.3492 107.98 17.3492L107.953 17.3677Z" fill="white"/>
</g>
<defs>
<clipPath id="clip0_25_1330">
<rect width="116.651" height="24" fill="white" transform="translate(0.218567)"/>
</clipPath>
</defs>
</svg>
