<svg width="114" height="24" viewBox="0 0 114 24" fill="none" xmlns="http://www.w3.org/2000/svg">
<g clip-path="url(#clip0_25_1364)">
<path d="M29.1373 7.27058C30.1962 6.63529 31.3962 6.28235 32.6668 6.28235C33.302 6.28235 33.8667 6.35293 34.3609 6.5647C34.855 6.70587 35.2785 6.98821 35.6314 7.41174C35.9844 7.83527 36.2667 8.3294 36.4785 9.03529C36.6903 9.74117 36.7609 10.5176 36.7609 11.5765C36.7609 13.2706 36.6197 14.6117 36.3373 15.6C36.055 16.5882 35.702 17.3647 35.2785 17.9294C34.855 18.4941 34.4315 18.8471 33.9373 18.9882C33.4432 19.1294 33.0197 19.2 32.6668 19.2C32.1726 19.2 31.6785 19.1294 31.3256 18.9176C30.9726 18.7059 30.6197 18.5647 30.4785 18.2823V23.7176C30.3373 23.7176 30.2667 23.7882 30.1256 23.7882C29.9844 23.7882 29.9138 23.7882 29.7726 23.7882C29.5609 23.7882 29.3491 23.7176 29.2785 23.647C29.2079 23.5765 29.1373 23.4353 29.1373 23.2235V7.27058ZM30.4785 16.7294C30.6903 17.0823 30.9726 17.3647 31.3256 17.5765C31.6785 17.7882 31.9609 17.8588 32.3138 17.8588C32.5256 17.8588 32.8785 17.7882 33.1609 17.647C33.5138 17.5059 33.7962 17.2235 34.1491 16.8C34.4315 16.3765 34.7138 15.7412 34.9256 14.9647C35.1373 14.1882 35.2785 13.0588 35.2785 11.7176C35.2785 10.8706 35.2079 10.1647 35.1373 9.59998C35.0668 9.03528 34.855 8.61175 34.6432 8.25881C34.4315 7.90587 34.1491 7.69411 33.7962 7.62352C33.4432 7.48234 33.0903 7.41174 32.6668 7.41174C31.8903 7.41174 31.1844 7.62353 30.5491 8.04705V16.7294H30.4785ZM29.7726 24C29.5528 24.003 29.3352 23.9547 29.1373 23.8588C28.9962 23.7176 28.9256 23.5059 28.9256 23.2235V7.12939L29.0667 7.0588C30.1962 6.35292 31.3962 6.07057 32.7373 6.07057C33.3726 6.07057 34.0079 6.14116 34.5021 6.35292C35.0668 6.56468 35.4903 6.84705 35.9138 7.27058C36.2668 7.69411 36.5491 8.25881 36.7609 8.96469C36.9726 9.67058 37.0432 10.5176 37.0432 11.5765C37.0432 13.2706 36.9021 14.6118 36.6197 15.6706C36.3373 16.7294 35.9844 17.5059 35.5609 18.0706C35.1373 18.6353 34.6432 18.9882 34.1491 19.2C33.655 19.3412 33.1609 19.4823 32.8079 19.4823C32.2432 19.4823 31.7491 19.4118 31.3256 19.2C31.1138 19.1294 30.9726 18.9882 30.8315 18.9176V23.9294L30.6903 24C30.5491 24.0706 30.4079 24.0706 30.2668 24.0706C29.9844 23.9294 29.8432 24 29.7726 24ZM29.3491 7.41174V23.1529C29.3491 23.3647 29.4197 23.4353 29.4197 23.4353C29.4197 23.4353 29.4903 23.5059 29.7726 23.5059C29.8432 23.5059 29.9844 23.5059 30.1256 23.5059C30.1962 23.5059 30.1962 23.5059 30.2668 23.5059V17.5765L30.6903 18.1412C30.8314 18.3529 31.1138 18.4941 31.4667 18.7059C31.8197 18.847 32.2432 18.9882 32.7373 18.9882C33.0903 18.9882 33.5138 18.9176 33.9373 18.7765C34.3609 18.6353 34.7844 18.2823 35.1373 17.7882C35.5609 17.2941 35.8432 16.5176 36.1256 15.5294C36.4079 14.5412 36.5491 13.2 36.5491 11.5765C36.5491 10.5882 36.4785 9.81176 36.2668 9.10588C36.055 8.47058 35.8432 7.97646 35.4903 7.62352C35.1373 7.27058 34.7844 6.98822 34.2903 6.84705C33.7962 6.70587 33.302 6.63529 32.6668 6.63529C31.4668 6.49411 30.3373 6.84704 29.3491 7.41174ZM32.3138 18.1412C31.9609 18.1412 31.5373 18 31.1844 17.8588C30.8315 17.6471 30.4785 17.3647 30.2668 16.9412V7.97646L30.3373 7.90587C30.9726 7.48234 31.7491 7.27058 32.5962 7.27058C33.0903 7.27058 33.5138 7.34116 33.8667 7.48234C34.2197 7.62351 34.5726 7.90587 34.7844 8.25881C34.9962 8.61175 35.2079 9.10587 35.3491 9.67058C35.4903 10.2353 35.5609 10.9412 35.5609 11.8588C35.5609 13.2706 35.4197 14.4 35.2079 15.1764C34.9962 16.0235 34.7138 16.6588 34.3609 17.0823C34.0079 17.5059 33.655 17.8588 33.302 18C32.8785 18.0706 32.5962 18.1412 32.3138 18.1412ZM30.6903 16.6588C30.902 16.9412 31.1138 17.2235 31.3962 17.3647C31.6785 17.5059 31.9609 17.647 32.3138 17.647C32.5256 17.647 32.8079 17.5765 33.0903 17.5059C33.3726 17.3647 33.655 17.1529 33.9373 16.8C34.2197 16.3765 34.502 15.8118 34.6432 15.0353C34.855 14.2588 34.9256 13.2 34.9256 11.7882C34.9256 10.9412 34.855 10.2353 34.7844 9.74117C34.7138 9.17646 34.5726 8.75292 34.3609 8.47057C34.1491 8.18821 33.9373 7.97646 33.655 7.90587C33.3726 7.76469 33.0197 7.76468 32.5962 7.76468C31.8903 7.76468 31.255 7.90587 30.6903 8.25881V16.6588ZM38.102 7.41174C38.102 7.19998 38.1726 6.98823 38.3138 6.91764C38.5962 6.77646 39.0197 6.63528 39.7256 6.4941C40.4315 6.35293 41.2785 6.28235 42.1256 6.28235C43.1138 6.28235 43.8197 6.49411 44.3138 6.91764C44.8079 7.34117 45.0197 8.11763 45.0197 9.24704V10.7294C45.0197 12.1412 45.0197 13.4823 44.9491 14.8235C44.9491 16.0941 44.8785 17.2235 44.8785 18.2118C44.5962 18.4235 44.1726 18.5647 43.6785 18.7765C43.1138 18.9882 42.4079 19.0588 41.5609 19.0588C41.1373 19.0588 40.7138 19.0588 40.2197 18.9882C39.7962 18.9176 39.4432 18.7765 39.0903 18.4941C38.7373 18.2823 38.5256 17.8588 38.3138 17.3647C38.102 16.8706 38.0315 16.2353 38.0315 15.3882C38.0315 14.5412 38.102 13.8353 38.3138 13.2706C38.5256 12.7765 38.8079 12.3529 39.1609 12.0706C39.5138 11.7882 39.8667 11.5765 40.3609 11.5059C40.7844 11.4353 41.2785 11.3647 41.702 11.3647C42.055 11.3647 42.4079 11.3647 42.7609 11.4353C43.1138 11.5059 43.4667 11.5764 43.7491 11.647V9.45882C43.7491 9.03529 43.6785 8.75292 43.6079 8.47057C43.5373 8.18821 43.3962 8.04704 43.1844 7.83528C43.0432 7.6941 42.8315 7.62352 42.5491 7.55293C42.3373 7.48234 42.055 7.48234 41.7726 7.48234C40.5671 7.47483 39.3705 7.69021 38.2432 8.11763C38.1726 7.97645 38.102 7.6941 38.102 7.41174ZM43.8197 12.7059C43.6079 12.6353 43.3256 12.5647 43.0432 12.4941C42.7609 12.4235 42.4785 12.4235 42.2668 12.4235C41.9138 12.4235 41.5609 12.4235 41.2785 12.4941C40.9256 12.5647 40.6432 12.7059 40.4315 12.847C40.2197 13.0588 40.0079 13.3412 39.8667 13.6941C39.7256 14.0471 39.655 14.6117 39.655 15.247C39.655 15.8117 39.7256 16.3059 39.8667 16.6588C40.0079 17.0117 40.1491 17.2235 40.3609 17.4353C40.5726 17.5765 40.855 17.7176 41.1373 17.7882C41.4197 17.8588 41.702 17.8588 42.055 17.8588C42.4785 17.8588 42.8315 17.7882 43.1844 17.7176C43.5373 17.5765 43.7491 17.5059 43.8903 17.3647C43.8903 17.0823 43.8903 16.8 43.9609 16.4471C43.9609 16.0941 43.9609 15.6706 44.0315 15.247C44.0315 14.8235 44.0315 14.4 44.0315 13.9765C43.8197 13.5529 43.8197 13.1294 43.8197 12.7059ZM41.6314 19.3412C41.2079 19.3412 40.7138 19.3412 40.2903 19.2706C39.7962 19.2 39.3726 19.0588 39.0197 18.7765C38.6668 18.4941 38.3844 18.0706 38.1726 17.5765C37.9609 17.0823 37.8197 16.3765 37.8197 15.4588C37.8197 14.5412 37.9609 13.8353 38.1726 13.2706C38.3399 12.7826 38.6285 12.3453 39.0113 11.9995C39.3941 11.6538 39.8585 11.411 40.3609 11.2941C40.855 11.2235 41.2785 11.1529 41.7726 11.1529C42.1256 11.1529 42.4785 11.1529 42.8315 11.2235C43.1138 11.2235 43.3256 11.2941 43.5373 11.3647V9.52939C43.5373 9.17645 43.4667 8.8941 43.3962 8.61175C43.3256 8.39999 43.1844 8.2588 43.0432 8.11763C42.9813 8.04835 42.905 7.99349 42.8197 7.9569C42.7343 7.92031 42.6419 7.9029 42.5491 7.90587C42.3373 7.83528 42.055 7.83528 41.7726 7.83528C40.9962 7.83528 40.2903 7.90588 39.7256 8.04705C39.0903 8.18823 38.6668 8.32939 38.3138 8.47057L38.102 8.54116L38.0315 8.3294C37.8903 8.04705 37.8197 7.76468 37.8197 7.41174C37.8197 7.12939 37.8903 6.84704 38.102 6.70586C38.3844 6.56468 38.8785 6.42352 39.655 6.21176C40.3609 6.07058 41.2079 5.99998 42.1256 5.99998C43.1844 5.99998 43.9609 6.21174 44.5256 6.70586C45.0903 7.19998 45.3726 8.04704 45.3726 9.24704V10.7294C45.3726 12.1412 45.3726 13.4823 45.302 14.8235C45.302 16.0941 45.2315 17.2235 45.2315 18.2118V18.3529L45.1609 18.4235C44.8785 18.6353 44.455 18.847 43.8903 19.0588C43.3256 19.2706 42.5491 19.3412 41.6314 19.3412ZM41.7726 11.647C41.3491 11.647 40.9256 11.7176 40.4315 11.7882C40.0079 11.8588 39.655 12.0706 39.3726 12.2823C39.0903 12.5647 38.8079 12.9176 38.5962 13.4117C38.3844 13.9059 38.3138 14.6118 38.3138 15.3882C38.3138 16.1647 38.3844 16.8 38.5962 17.2941C38.8079 17.7176 39.0197 18.0706 39.302 18.2823C39.5844 18.4941 39.9373 18.6353 40.3609 18.7059C40.7844 18.7764 41.2079 18.7765 41.6314 18.7765C42.7209 18.8318 43.8021 18.5615 44.7373 18C44.7373 17.0823 44.8079 15.9529 44.8079 14.7529C44.8079 13.4823 44.8785 12.0706 44.8785 10.6588V9.17645C44.8785 8.11763 44.6667 7.41174 44.2432 7.0588C43.8197 6.63527 43.1138 6.4941 42.1962 6.4941C41.2785 6.4941 40.5021 6.56468 39.7962 6.70586C38.9491 6.84704 38.5962 6.98822 38.455 7.12939C38.3844 7.19998 38.3844 7.27057 38.3844 7.41174C38.3844 7.55292 38.3844 7.76469 38.455 7.90587C38.8079 7.76469 39.1609 7.6941 39.7256 7.55293C40.3609 7.41175 41.0668 7.34117 41.9138 7.34117C42.1962 7.34117 42.4785 7.34116 42.7609 7.41174C43.0432 7.48233 43.255 7.55292 43.4667 7.76468C43.6785 7.90586 43.8197 8.18821 43.9609 8.47057C44.0315 8.75292 44.102 9.10586 44.102 9.52939V12.0706L43.7491 11.9294C43.4667 11.7882 43.1844 11.7176 42.8315 11.7176C42.4079 11.647 42.1256 11.647 41.7726 11.647ZM41.8432 18.1412C41.4903 18.1412 41.2079 18.1412 40.9256 18.0706C40.5726 18 40.2903 17.9294 40.0785 17.7176C39.8668 17.5059 39.655 17.2235 39.5138 16.8706C39.3726 16.5176 39.302 16.0235 39.302 15.3882C39.302 14.6823 39.3726 14.1176 39.5138 13.7647C39.655 13.3412 39.8668 12.9882 40.1491 12.7765C40.4315 12.5647 40.7844 12.4235 41.1373 12.3529C41.4903 12.2823 41.8432 12.2823 42.1962 12.2823C42.4079 12.2823 42.6903 12.2823 43.0432 12.3529C43.3962 12.4235 43.6785 12.4941 43.8903 12.5647L44.0315 12.6353V12.7059C44.0315 13.0588 44.0315 13.4823 44.0315 13.9765V15.247C44.0315 15.6706 44.0315 16.0941 43.9609 16.4471C43.9609 16.8 43.9609 17.1529 43.8903 17.3647V17.4353L43.8197 17.5059C43.6785 17.6471 43.3962 17.7882 43.0432 17.9294C42.6903 18.1412 42.2668 18.1412 41.8432 18.1412ZM42.1962 12.7059C41.8432 12.7059 41.5609 12.7059 41.2079 12.7765C40.9256 12.847 40.6432 12.9176 40.4315 13.1294C40.2197 13.2706 40.0785 13.5529 39.9373 13.9059C39.7962 14.2588 39.7256 14.7529 39.7256 15.3882C39.7256 15.9529 39.7962 16.3765 39.8667 16.7294C40.0079 17.0118 40.1491 17.2235 40.2903 17.3647C40.502 17.5059 40.7138 17.5765 40.9256 17.647C41.2079 17.7176 41.4903 17.7176 41.7726 17.7176C42.1256 17.7176 42.4785 17.6471 42.8315 17.5765C43.1138 17.5059 43.3256 17.3647 43.3962 17.2941C43.3962 17.0823 43.3962 16.8 43.4667 16.4471C43.4667 16.0941 43.4667 15.6706 43.5373 15.247V13.9765C43.5373 13.6235 43.5373 13.2 43.5373 12.9176C43.3256 12.8471 43.1844 12.847 42.9726 12.7765C42.6903 12.7059 42.4079 12.7059 42.1962 12.7059ZM47.3491 7.12939C47.9138 6.91763 48.5491 6.70587 49.255 6.4941C49.9609 6.35293 50.6668 6.21176 51.3726 6.21176C52.0079 6.21176 52.5726 6.28234 52.9962 6.42351C53.4197 6.56469 53.7726 6.77645 54.055 7.0588C54.3373 7.34116 54.4785 7.6941 54.6197 8.11763C54.6903 8.54116 54.7609 9.03528 54.7609 9.59998V18.4941C54.7609 18.5647 54.7609 18.6353 54.7609 18.7059C54.7609 18.7764 54.6903 18.7765 54.6197 18.7765C54.5491 18.7765 54.4079 18.847 54.1962 18.847C53.9844 18.847 53.7726 18.847 53.4197 18.847V10.0235C53.4197 9.59999 53.4197 9.17645 53.3491 8.8941C53.2785 8.54116 53.2079 8.32939 53.0667 8.11763C52.9256 7.90586 52.7138 7.7647 52.4315 7.69411C52.1491 7.62353 51.7962 7.55293 51.3726 7.55293C51.0197 7.55293 50.5962 7.62353 50.102 7.69411C49.6079 7.7647 49.1844 7.90586 48.7609 8.11763V18.6353C48.7609 18.7059 48.7609 18.7765 48.7609 18.847C48.7609 18.9176 48.6903 18.9176 48.6197 18.9176C48.5491 18.9176 48.4079 18.9882 48.1962 18.9882C47.9844 18.9882 47.7726 18.9882 47.4197 18.9882V7.12939H47.3491ZM54.1962 19.1294H53.1373V10.0235C53.1373 9.59999 53.1373 9.24704 53.0667 8.8941C53.016 8.6437 52.9203 8.40455 52.7844 8.18822C52.6432 8.04704 52.502 7.90587 52.2903 7.83528C51.8667 7.6941 51.1609 7.62351 50.102 7.83528C49.6785 7.90587 49.3256 8.04704 48.9726 8.18822V18.4941C48.9726 18.6353 48.9726 18.7059 48.902 18.7765C48.8315 18.9176 48.6197 18.9882 48.5491 18.9882C48.4079 18.9882 48.2667 19.0588 48.055 19.0588H47.0667V6.98823L47.2079 6.91764C47.7726 6.63529 48.4785 6.42353 49.1844 6.28235C49.8903 6.14117 50.5962 5.99998 51.302 5.99998C52.0079 5.99998 52.5726 6.07058 52.9962 6.21176C53.4903 6.35293 53.8432 6.5647 54.1256 6.91764C54.4079 7.19999 54.6197 7.62351 54.7609 8.11763C54.8315 8.54116 54.902 9.10587 54.902 9.67058V18.5647C54.902 18.7059 54.902 18.7765 54.8315 18.847C54.7609 18.9882 54.5491 19.0588 54.4785 19.0588C54.5491 19.0588 54.3373 19.1294 54.1962 19.1294ZM53.6314 18.6353H54.1962C54.4079 18.6353 54.4785 18.6353 54.5491 18.6353C54.5491 18.6353 54.5491 18.6353 54.5491 18.5647V9.67058C54.5491 9.10587 54.4785 8.61175 54.4079 8.18822C54.3373 7.83528 54.1256 7.48234 53.9138 7.27058C53.7021 6.98823 53.3491 6.84704 52.9962 6.70586C52.5726 6.56468 52.0785 6.4941 51.4432 6.4941C50.8079 6.4941 50.102 6.56468 49.3962 6.70586C48.7609 6.84704 48.1962 7.05882 47.702 7.27058V18.5647H48.1962C48.4079 18.5647 48.4785 18.5647 48.5491 18.5647C48.5491 18.5647 48.5491 18.5647 48.5491 18.4941V7.90587L48.6903 7.83528C49.1138 7.62351 49.5373 7.48233 50.0315 7.41174C50.5256 7.34116 50.9491 7.27058 51.3726 7.27058C51.8668 7.27058 52.2197 7.34116 52.5021 7.41174C52.7844 7.55292 53.0668 7.69411 53.2079 7.97646C53.3491 8.18823 53.4903 8.54116 53.5609 8.8941C53.6315 9.24704 53.6314 9.59999 53.6314 10.0941V18.6353ZM62.8079 1.41174C62.8079 1.0588 62.8785 0.917634 63.0903 0.847046C63.302 0.776458 63.655 0.705861 64.1491 0.705861V18.3529C63.7256 18.5647 63.2315 18.7765 62.6668 18.9176C62.102 19.0588 61.3962 19.1294 60.6903 19.1294C60.1256 19.1294 59.6315 19.0588 59.1373 18.9176C58.6432 18.7765 58.2197 18.4941 57.8667 18.0706C57.5138 17.647 57.2315 17.0117 57.0197 16.2353C56.8079 15.4588 56.6668 14.3294 56.6668 12.9882C56.6668 11.7882 56.8079 10.8 57.0197 9.95292C57.2315 9.10587 57.5138 8.39998 57.8667 7.83528C58.2197 7.27057 58.6432 6.91764 59.2079 6.63529C59.7787 6.33572 60.418 6.1911 61.0621 6.21587C61.7062 6.24064 62.3325 6.43393 62.8785 6.77645V1.41174H62.8079ZM62.8079 7.97646C62.5962 7.7647 62.3138 7.69411 62.102 7.62352C61.8903 7.55293 61.5373 7.48234 61.1844 7.48234C60.7609 7.48234 60.4079 7.55292 60.055 7.76468C59.702 7.97645 59.3491 8.25882 59.0667 8.68234C58.7844 9.10587 58.5726 9.67058 58.4315 10.3765C58.2903 11.0823 58.2197 11.9294 58.2197 12.9176C58.2197 13.9765 58.2903 14.8941 58.4315 15.5294C58.5726 16.1647 58.7138 16.6588 58.9962 17.0117C59.2079 17.3647 59.4903 17.5765 59.8432 17.7176C60.1962 17.8588 60.5491 17.8588 60.902 17.8588C61.255 17.8588 61.6079 17.7882 61.9609 17.7176C62.3138 17.647 62.5962 17.5059 62.8785 17.3647L62.8079 7.97646ZM60.6903 19.3412C60.1256 19.3412 59.5609 19.2706 59.0667 19.1294C58.502 18.9882 58.0785 18.7059 57.655 18.2118C57.302 17.7882 56.9491 17.1529 56.7373 16.3059C56.5256 15.4588 56.3844 14.4 56.3844 12.9882C56.3844 11.7882 56.5256 10.7294 56.7373 9.88233C56.9491 9.03527 57.2315 8.25882 57.655 7.69411C57.9941 7.17873 58.4548 6.75463 58.9964 6.45921C59.538 6.16378 60.1439 6.00607 60.7609 5.99998C61.4667 5.99998 62.0315 6.14116 62.5256 6.35292V1.41174C62.5256 0.847037 62.7373 0.63529 62.9491 0.63529C63.1609 0.564702 63.5138 0.564697 64.1491 0.564697H64.3609V18.5647L64.2197 18.6353C63.7962 18.8471 63.302 19.0588 62.6668 19.2C62.102 19.2706 61.4668 19.3412 60.6903 19.3412ZM60.7609 6.4941C60.2667 6.4941 59.7726 6.63528 59.2785 6.84705C58.7844 7.05881 58.4315 7.48234 58.0785 7.97646C57.7256 8.47058 57.4432 9.17646 57.2315 10.0235C57.0197 10.8706 56.9491 11.8588 56.9491 13.0588C56.9491 14.4 57.0197 15.4588 57.2315 16.2353C57.4432 17.0117 57.7256 17.5765 58.0785 18C58.4315 18.3529 58.7844 18.6353 59.2079 18.7059C59.7021 18.847 60.1962 18.9176 60.6903 18.9176C61.3962 18.9176 62.0315 18.847 62.6668 18.7059C63.1609 18.5647 63.5844 18.4235 64.0079 18.2823V0.988231C63.5138 0.988231 63.302 1.0588 63.2315 1.0588C63.1609 1.0588 63.0903 1.27057 63.0903 1.41174V7.27058L62.6668 7.0588C62.1726 6.70586 61.5373 6.4941 60.7609 6.4941ZM60.8315 18.1412C60.4079 18.1412 60.055 18.0706 59.702 18C59.3491 17.8588 58.9962 17.6471 58.7138 17.2235C58.4315 16.8706 58.2903 16.3059 58.1491 15.6C58.0079 14.9647 57.9373 14.0471 57.9373 12.9176C57.9373 11.9294 58.0079 11.0117 58.2197 10.3059C58.3609 9.59998 58.6432 9.03528 58.9256 8.54116C59.2079 8.04704 59.5609 7.76469 59.9844 7.55293C60.4079 7.34116 60.8315 7.27058 61.255 7.27058C61.6785 7.27058 61.9609 7.34116 62.2432 7.41174C62.5256 7.48233 62.7373 7.62351 63.0197 7.83528L63.0903 7.90587V17.5765L62.9491 17.647C62.6667 17.8588 62.3138 18 61.9609 18.0706C61.6079 18.0706 61.1844 18.1412 60.8315 18.1412ZM61.1844 7.76468C60.8315 7.76468 60.4785 7.83529 60.1256 8.04705C59.7726 8.18823 59.4903 8.47057 59.2785 8.8941C58.9962 9.31763 58.7844 9.81176 58.6432 10.5176C58.502 11.1529 58.4315 12 58.4315 12.9882C58.4315 14.0471 58.502 14.8941 58.6432 15.5294C58.7844 16.1647 58.9256 16.6588 59.1373 16.9412C59.3491 17.2235 59.5609 17.4353 59.8432 17.5059C60.1256 17.5765 60.4785 17.647 60.8315 17.647C61.1844 17.647 61.5373 17.5765 61.8903 17.5765C62.1726 17.5059 62.3844 17.4353 62.6668 17.2941V8.11763C62.4937 7.99582 62.3033 7.90065 62.102 7.83528C61.8197 7.76469 61.5373 7.76468 61.1844 7.76468ZM66.1962 7.41174C66.1962 7.19998 66.2667 6.98823 66.4079 6.91764C66.6197 6.77646 67.1138 6.63528 67.8197 6.4941C68.5256 6.35293 69.3726 6.28235 70.2197 6.28235C71.2079 6.28235 71.9138 6.49411 72.4079 6.91764C72.902 7.34117 73.1138 8.11763 73.1138 9.24704V10.7294C73.1138 12.1412 73.1138 13.4823 73.0432 14.8235C73.0432 16.0941 72.9726 17.2235 72.9726 18.2118C72.6903 18.4235 72.2668 18.5647 71.7726 18.7765C71.2079 18.9882 70.502 19.0588 69.655 19.0588C69.2315 19.0588 68.8079 19.0588 68.3138 18.9882C67.8903 18.9176 67.5373 18.7765 67.1844 18.4941C66.8315 18.2823 66.6197 17.8588 66.4079 17.3647C66.1962 16.8706 66.1256 16.2353 66.1256 15.3882C66.1256 14.5412 66.1962 13.8353 66.4079 13.2706C66.6197 12.7765 66.9021 12.3529 67.255 12.0706C67.6079 11.7882 67.9609 11.5765 68.455 11.5059C68.8785 11.4353 69.3726 11.3647 69.7962 11.3647C70.1491 11.3647 70.502 11.3647 70.855 11.4353C71.2079 11.5059 71.5609 11.5764 71.8432 11.647V9.45882C71.8432 9.03529 71.7726 8.75292 71.702 8.47057C71.6315 8.18821 71.4903 8.04704 71.2785 7.83528C71.1373 7.6941 70.9256 7.62352 70.6432 7.55293C70.4314 7.48234 70.1491 7.48234 69.8668 7.48234C68.6612 7.47483 67.4646 7.69021 66.3373 8.11763C66.2668 7.97645 66.1962 7.6941 66.1962 7.41174ZM71.9138 12.7059C71.702 12.6353 71.4197 12.5647 71.1373 12.4941C70.855 12.4235 70.5726 12.4235 70.3609 12.4235C70.0079 12.4235 69.655 12.4235 69.3726 12.4941C69.0197 12.5647 68.7373 12.7059 68.5256 12.847C68.3138 12.9882 68.102 13.3412 67.9609 13.6941C67.8197 14.0471 67.7491 14.6117 67.7491 15.247C67.7491 15.8117 67.8197 16.3059 67.9609 16.6588C68.102 17.0117 68.2432 17.2235 68.455 17.4353C68.6668 17.5765 68.9491 17.7176 69.2315 17.7882C69.5138 17.8588 69.7962 17.8588 70.1491 17.8588C70.5726 17.8588 70.9256 17.7882 71.2785 17.7176C71.6315 17.5765 71.8432 17.5059 71.9844 17.3647C71.9844 17.0823 71.9844 16.8 72.055 16.4471C72.055 16.0941 72.055 15.6706 72.1256 15.247C72.1256 14.8235 72.1256 14.4 72.1256 13.9765C71.9138 13.5529 71.9138 13.1294 71.9138 12.7059ZM69.7962 19.3412C69.3726 19.3412 68.8785 19.3412 68.455 19.2706C67.9609 19.2 67.5373 19.0588 67.1844 18.7765C66.8315 18.4941 66.5491 18.0706 66.3373 17.5765C66.1256 17.0823 65.9844 16.3765 65.9844 15.4588C65.9844 14.5412 66.1256 13.8353 66.3373 13.2706C66.5046 12.7826 66.7932 12.3453 67.176 11.9995C67.5588 11.6538 68.0232 11.411 68.5256 11.2941C68.9491 11.2235 69.4432 11.1529 69.9373 11.1529C70.2903 11.1529 70.6432 11.1529 70.9962 11.2235C71.2785 11.2235 71.4903 11.2941 71.702 11.3647V9.52939C71.702 9.17645 71.6315 8.8941 71.5609 8.61175C71.4903 8.39999 71.3491 8.2588 71.2079 8.11763C71.146 8.04835 71.0697 7.99349 70.9844 7.9569C70.899 7.92031 70.8066 7.9029 70.7138 7.90587C70.502 7.83528 70.2197 7.83528 69.9373 7.83528C69.1609 7.83528 68.455 7.90588 67.8903 8.04705C67.255 8.18823 66.8315 8.32939 66.4785 8.47057L66.2667 8.54116L66.1962 8.3294C66.055 8.04705 65.9844 7.76468 65.9844 7.41174C65.9844 7.12939 66.055 6.84704 66.2667 6.70586C66.5491 6.56468 67.0432 6.42352 67.8197 6.21176C68.5256 6.07058 69.3726 5.99998 70.2903 5.99998C71.3491 5.99998 72.1256 6.21174 72.6903 6.70586C73.255 7.19998 73.5373 8.04704 73.5373 9.24704V10.7294C73.5373 12.1412 73.5373 13.4823 73.4667 14.8235C73.4667 16.0941 73.3962 17.2235 73.3962 18.2118V18.3529L73.3256 18.4235C73.0432 18.6353 72.6197 18.847 72.055 19.0588C71.4197 19.2706 70.6432 19.3412 69.7962 19.3412ZM69.9373 11.647C69.5138 11.647 69.0197 11.7176 68.5962 11.7882C68.1726 11.8588 67.8197 12.0706 67.5373 12.2823C67.2072 12.6045 66.9434 12.9882 66.7609 13.4117C66.5491 13.9059 66.4785 14.6118 66.4785 15.3882C66.4785 16.1647 66.5491 16.8 66.7609 17.2941C66.9726 17.7176 67.1844 18.0706 67.4667 18.2823C67.7491 18.4941 68.102 18.6353 68.5256 18.7059C68.9491 18.7764 69.3726 18.7765 69.7962 18.7765C70.8856 18.8318 71.9668 18.5615 72.9021 18C72.9021 17.0823 72.9726 15.9529 72.9726 14.7529C72.9726 13.4823 73.0432 12.0706 73.0432 10.6588V9.17645C73.0432 8.11763 72.8315 7.41174 72.4079 7.0588C71.9844 6.63527 71.2785 6.4941 70.3609 6.4941C69.4432 6.4941 68.6668 6.56468 67.9609 6.70586C67.1138 6.84704 66.7609 6.98822 66.6197 7.12939C66.5491 7.19998 66.5491 7.27057 66.5491 7.41174C66.5491 7.55292 66.5491 7.76469 66.6197 7.90587C66.9726 7.76469 67.3256 7.6941 67.8903 7.55293C68.5256 7.41175 69.2315 7.34117 70.0785 7.34117C70.3609 7.34117 70.6432 7.34116 70.9256 7.41174C71.2079 7.48233 71.4197 7.55292 71.6315 7.76468C71.8432 7.90586 71.9844 8.18821 72.1256 8.47057C72.1962 8.75292 72.2667 9.10586 72.2667 9.52939V12.0706L71.9138 11.9294C71.6315 11.7882 71.3491 11.7176 70.9962 11.7176C70.5726 11.647 70.2197 11.647 69.9373 11.647ZM70.0079 18.1412C69.655 18.1412 69.3726 18.1412 69.0903 18.0706C68.7373 18 68.455 17.9294 68.2432 17.7176C68.0315 17.5059 67.8197 17.2235 67.6785 16.8706C67.5373 16.5176 67.4667 16.0235 67.4667 15.3882C67.4667 14.6823 67.5373 14.1176 67.6785 13.7647C67.8197 13.3412 68.0315 12.9882 68.3138 12.7765C68.5962 12.5647 68.9491 12.4235 69.302 12.3529C69.655 12.2823 70.0079 12.2823 70.3609 12.2823C70.5726 12.2823 70.855 12.2823 71.2079 12.3529C71.5609 12.4235 71.8432 12.4941 72.055 12.5647L72.1962 12.6353V12.7059C72.1962 13.0588 72.1962 13.4823 72.1962 13.9765V15.247C72.1962 15.6706 72.1962 16.0941 72.1256 16.4471C72.1256 16.8 72.1256 17.1529 72.055 17.3647V17.4353L71.9844 17.5059C71.8432 17.6471 71.5609 17.7882 71.2079 17.9294C70.7844 18.1412 70.4315 18.1412 70.0079 18.1412ZM70.2903 12.7059C69.9373 12.7059 69.655 12.7059 69.302 12.7765C69.0197 12.847 68.7373 12.9176 68.5256 13.1294C68.3138 13.2706 68.1726 13.5529 68.0315 13.9059C67.8903 14.2588 67.8197 14.7529 67.8197 15.3882C67.8197 15.9529 67.8903 16.3765 67.9609 16.7294C68.102 17.0118 68.2432 17.2235 68.3844 17.3647C68.5962 17.5059 68.8079 17.5765 69.0197 17.647C69.302 17.7176 69.5844 17.7176 69.8668 17.7176C70.2197 17.7176 70.5726 17.6471 70.9256 17.5765C71.2079 17.5059 71.4197 17.3647 71.4903 17.2941C71.4903 17.0823 71.4903 16.8 71.5609 16.4471C71.5609 16.0941 71.5609 15.6706 71.6315 15.247V13.9765C71.6315 13.6235 71.6315 13.2 71.6315 12.9176C71.4197 12.8471 71.2785 12.847 71.0667 12.7765C70.7844 12.7059 70.5726 12.7059 70.2903 12.7059Z" fill="white"/>
<path d="M79.1844 6.28237C79.7491 6.28237 80.2432 6.35294 80.6667 6.42353C81.0903 6.49412 81.3726 6.6353 81.655 6.77647C81.8667 6.91765 82.0785 7.05883 82.2197 7.20001C82.3609 7.34118 82.3609 7.48236 82.3609 7.55295C82.3609 7.76471 82.2197 8.04707 82.0079 8.32942C81.2256 7.77102 80.2867 7.4745 79.3256 7.48236C78.5491 7.48236 77.9138 7.62354 77.4903 7.90589C76.9962 8.18824 76.7844 8.54119 76.7844 9.1059C76.7844 9.38825 76.855 9.67059 76.9961 9.95294C77.1373 10.2353 77.4903 10.5177 77.9844 10.8706L80.6667 12.7765C81.2315 13.2706 81.655 13.6941 81.9373 14.1882C82.2197 14.6824 82.3609 15.1765 82.3609 15.8118C82.3609 16.8706 82.0079 17.7177 81.302 18.2824C80.5962 18.8471 79.6079 19.1294 78.3373 19.1294C77.3491 19.1294 76.6432 19.0588 76.0785 18.8471C75.5138 18.6353 75.2314 18.4235 75.2314 18.0706C75.2314 17.7176 75.302 17.5059 75.5138 17.2235C75.8667 17.4353 76.2903 17.6471 76.7138 17.7176C77.1373 17.7882 77.6315 17.8588 78.1962 17.8588C79.0432 17.8588 79.6785 17.7177 80.1726 17.4353C80.6667 17.1529 80.8785 16.6588 80.8785 16.0235C80.8785 15.5294 80.7373 15.1059 80.5256 14.753C80.3138 14.4 79.9609 13.9765 79.4667 13.6235L76.855 11.7176C76.1491 11.2235 75.7256 10.8 75.5138 10.3765C75.302 9.95295 75.2314 9.52943 75.2314 9.1059C75.2314 8.25884 75.5844 7.55294 76.2903 7.05882C76.9256 6.5647 77.9138 6.28237 79.1844 6.28237ZM78.1962 19.3412C77.2079 19.3412 76.4314 19.2 75.8667 18.9882C75.2314 18.7765 74.8785 18.4235 74.8785 18C74.8785 17.6471 75.0197 17.2941 75.2314 17.0118L75.3726 16.8706L75.5844 17.0118C75.9373 17.2235 76.2903 17.3647 76.7138 17.5059C77.1373 17.5765 77.6314 17.6471 78.1256 17.6471C78.902 17.6471 79.5373 17.5059 79.9609 17.2235C80.3844 16.9412 80.5962 16.5882 80.5962 15.9529C80.5962 15.5294 80.5256 15.1059 80.3138 14.8235C80.102 14.4706 79.7491 14.1176 79.3256 13.7647L76.7138 11.8588C76.0079 11.3647 75.5138 10.9412 75.302 10.4471C75.0903 10.0235 74.9491 9.52942 74.9491 9.03531C74.9491 8.11766 75.3726 7.34118 76.1491 6.77647C76.9256 6.28236 77.9138 6 79.255 6C79.8197 6 80.3844 6.07059 80.8079 6.14118C81.2314 6.21177 81.5844 6.35295 81.8667 6.49412C82.1491 6.6353 82.3609 6.77649 82.502 6.98825C82.6432 7.20002 82.7138 7.34118 82.7138 7.48236C82.7138 7.76471 82.5726 8.11766 82.3609 8.40001L82.2197 8.54118L82.0079 8.40001C81.5844 8.11766 81.1609 7.90588 80.8079 7.8353C80.3844 7.69412 79.9609 7.69413 79.4667 7.69413C78.7609 7.69413 78.1961 7.83531 77.702 8.04707C77.2785 8.25884 77.0667 8.61178 77.0667 9.03531C77.0667 9.24707 77.1373 9.52942 77.2785 9.74119C77.3491 9.88236 77.6315 10.1647 78.1962 10.5882L80.8785 12.4941C81.4432 12.9882 81.9373 13.4824 82.2197 13.9765C82.502 14.4706 82.6432 15.1059 82.6432 15.7412C82.6432 16.8706 82.2197 17.7882 81.5138 18.4235C80.5962 19.0588 79.5373 19.3412 78.1962 19.3412ZM75.5138 17.5059C75.4432 17.6471 75.3726 17.8588 75.3726 18C75.3726 18.2118 75.5844 18.3529 76.0785 18.4941C76.6432 18.7059 77.3491 18.7765 78.2667 18.7765C79.4667 18.7765 80.455 18.4941 81.0903 18C81.7256 17.5059 82.0785 16.7294 82.0785 15.7412C82.0785 15.1765 81.9373 14.6824 81.7256 14.1882C81.4432 13.7647 81.0903 13.2706 80.5256 12.8471L77.8432 10.9412C77.2785 10.5882 76.9256 10.2353 76.7844 9.95294C76.6432 9.67059 76.502 9.31766 76.502 9.03531C76.502 8.40001 76.7844 7.97648 77.3491 7.62354C77.8432 7.34119 78.5491 7.20001 79.3256 7.20001C79.8903 7.20001 80.3844 7.27059 80.8079 7.41176C81.1609 7.55294 81.5844 7.69412 81.9373 7.90589C82.0079 7.76471 82.0785 7.62353 82.0785 7.48236C82.0785 7.48236 82.0785 7.41178 81.9373 7.2706C81.8667 7.12942 81.7256 7.05883 81.5138 6.91766C81.302 6.77648 80.9491 6.7059 80.5962 6.63531C80.2432 6.56472 79.7491 6.49412 79.1844 6.49412C77.9844 6.49412 77.0667 6.70589 76.3609 7.20001C75.7256 7.62354 75.3726 8.25883 75.3726 9.03531C75.3726 9.45883 75.4432 9.81176 75.655 10.2353C75.8667 10.5882 76.2903 11.0118 76.9256 11.4353L79.5373 13.3412C80.0314 13.7647 80.455 14.1176 80.6667 14.5412C80.8785 14.9647 81.0197 15.3882 81.0197 15.9529C81.0197 16.7294 80.7373 17.2235 80.1726 17.5765C79.6785 17.9294 78.9726 18.0706 78.1256 18.0706C77.5609 18.0706 76.9962 18 76.5726 17.9294C76.1491 17.8588 75.7962 17.7177 75.5138 17.5059ZM91.8197 18.2824C91.255 18.5647 90.6903 18.7765 89.9844 18.9177C89.3491 19.0588 88.6432 19.1294 88.0785 19.1294C87.3726 19.1294 86.7373 19.0588 86.3138 18.9177C85.8197 18.7765 85.4667 18.4941 85.1844 18.1412C84.902 17.7882 84.6903 17.2941 84.6197 16.8C84.4785 16.2353 84.4785 15.6 84.4785 14.8235V6.91766C84.4785 6.84707 84.4785 6.77647 84.4785 6.70588C84.4785 6.63529 84.5491 6.6353 84.6197 6.56472C84.6903 6.56472 84.8314 6.49412 85.0432 6.49412C85.255 6.49412 85.4667 6.49412 85.8197 6.49412V14.8235C85.8197 15.3882 85.8197 15.8823 85.8903 16.2353C85.9609 16.5882 86.102 16.9412 86.2432 17.153C86.3844 17.3647 86.6667 17.5765 86.9491 17.6471C87.2314 17.7176 87.655 17.7882 88.1491 17.7882C88.4314 17.7882 88.7844 17.7176 89.2079 17.6471C89.6314 17.5765 90.055 17.4353 90.4079 17.2235V6.91766C90.4079 6.84707 90.4079 6.77647 90.4079 6.70588C90.4079 6.63529 90.4785 6.6353 90.5491 6.56472C90.6197 6.56472 90.7609 6.49412 90.9726 6.49412C91.1844 6.49412 91.3962 6.49412 91.7491 6.49412V18.2824H91.8197ZM88.0079 19.3412C87.2314 19.3412 86.6667 19.2706 86.1726 19.0588C85.6785 18.8471 85.255 18.5647 84.9726 18.2118C84.6903 17.7882 84.4785 17.3647 84.3373 16.7294C84.1962 16.1647 84.1962 15.4588 84.1962 14.6824V6.91766C84.1962 6.84707 84.1962 6.77647 84.1962 6.70588C84.1962 6.63529 84.2667 6.49412 84.5491 6.42353C84.6903 6.42353 84.8314 6.35294 85.0432 6.35294H86.102V14.8941C86.102 15.4588 86.102 15.9529 86.1726 16.3059C86.2432 16.6588 86.3138 16.9412 86.455 17.153C86.5962 17.3647 86.8079 17.5059 87.0903 17.5765C87.3726 17.6471 87.7256 17.7176 88.2197 17.7176C88.9034 17.6767 89.5736 17.5091 90.1962 17.2235V6.91766C90.1962 6.77648 90.1961 6.7059 90.2667 6.63531C90.2667 6.56472 90.4079 6.42353 90.6197 6.35294C90.7609 6.35294 90.902 6.28237 91.1138 6.28237H92.102V18.3529L91.9609 18.4235C91.3962 18.7059 90.7609 18.9176 90.055 19.0588C89.3491 19.2706 88.6432 19.3412 88.0079 19.3412ZM84.6197 6.77647V14.6824C84.6197 15.4588 84.6903 16.0941 84.7609 16.6588C84.8314 17.1529 85.0432 17.5765 85.255 17.9294C85.4667 18.2824 85.8197 18.4941 86.2432 18.6353C86.6667 18.7765 87.2314 18.8471 87.9373 18.8471C88.5726 18.8471 89.2079 18.7765 89.8432 18.6353C90.4079 18.4941 90.9726 18.2824 91.4667 18.0706V6.77647H90.9726C90.7609 6.77647 90.6903 6.77647 90.6197 6.77647V17.4353L90.4785 17.5059C90.055 17.7177 89.6314 17.9294 89.2079 18C88.7844 18.0706 88.4315 18.1412 88.0785 18.1412C87.5844 18.1412 87.1609 18.0706 86.8079 18C86.455 17.8588 86.1726 17.7177 85.9609 17.4353C85.7491 17.1529 85.6079 16.8 85.5373 16.3765C85.4667 15.9529 85.4667 15.4588 85.4667 14.8941V6.77647H84.902C84.8315 6.77647 84.6903 6.77647 84.6197 6.77647ZM94.3609 2.40002C94.3609 1.62354 94.6432 1.2706 95.2079 1.2706C95.4903 1.2706 95.702 1.34118 95.7726 1.55295C95.8432 1.76471 95.9138 2.04707 95.9138 2.40002C95.9138 3.17649 95.6314 3.52941 95.0667 3.52941C94.9562 3.53565 94.8459 3.51289 94.7468 3.46336C94.6478 3.41383 94.5634 3.33926 94.502 3.24706C94.3609 3.10588 94.3609 2.75296 94.3609 2.40002ZM95.7726 18.5647C95.7726 18.6353 95.7726 18.7059 95.7726 18.7765C95.7726 18.8471 95.702 18.8471 95.6314 18.8471C95.5609 18.8471 95.4197 18.9177 95.2079 18.9177C94.9961 18.9177 94.7844 18.9177 94.4314 18.9177V7.20001C94.4314 6.84707 94.502 6.7059 94.7138 6.63531C94.9256 6.56472 95.2785 6.56472 95.8432 6.56472L95.7726 18.5647ZM95.2079 19.1294H94.1491V7.20001C94.1491 6.6353 94.4314 6.42353 94.6432 6.42353C94.855 6.35294 95.2785 6.35294 95.8432 6.35294H96.055V18.6353C96.055 18.7765 96.055 18.8471 95.9844 18.9177C95.9138 19.0588 95.702 19.1294 95.6314 19.1294C95.5609 19.0588 95.4197 19.1294 95.2079 19.1294ZM94.6432 18.6353H95.2079C95.4197 18.6353 95.4903 18.6353 95.5609 18.6353C95.5609 18.6353 95.5609 18.6353 95.5609 18.5647V6.77647C95.0667 6.77647 94.855 6.84707 94.7844 6.84707C94.7138 6.84707 94.6432 7.05883 94.6432 7.20001V18.6353ZM95.0667 3.74119C94.7138 3.74119 94.502 3.60001 94.2903 3.38825C94.1491 3.17648 94.0785 2.82354 94.0785 2.32942C94.0785 1.12942 94.7138 0.988251 95.1373 0.988251C95.5609 0.988251 95.8432 1.20002 95.9138 1.34119C96.055 1.55296 96.1256 1.90589 96.1256 2.32942C96.1256 3.52942 95.5609 3.74119 95.0667 3.74119ZM95.1373 1.48236C94.9962 1.48236 94.5726 1.48237 94.5726 2.40002C94.5726 2.82354 94.6432 3.03531 94.7138 3.1059C94.7844 3.24707 94.9256 3.24706 95.0667 3.24706C95.2079 3.24706 95.6314 3.24707 95.6314 2.32942C95.6314 1.90589 95.5609 1.69413 95.4903 1.62354C95.4903 1.55295 95.4197 1.48236 95.1373 1.48236ZM99.4432 7.7647H97.6079C97.6079 7.2 97.6079 6.91765 97.6785 6.77647C97.7491 6.6353 97.8197 6.56472 97.9609 6.56472H99.4432V2.61177C99.4432 2.32942 99.5138 2.18823 99.655 2.11765C99.7962 2.04706 100.22 2.04707 100.784 2.04707V6.49412H103.749C103.749 7.05883 103.749 7.34118 103.679 7.48236C103.679 7.62353 103.537 7.69413 103.467 7.69413H100.784V15.2471C100.784 15.6 100.784 15.9529 100.784 16.2353C100.784 16.5176 100.855 16.8 100.926 17.0824C100.996 17.3647 101.137 17.5059 101.279 17.6471C101.42 17.7882 101.631 17.8588 101.914 17.8588C102.267 17.8588 102.549 17.8588 102.761 17.7882C102.973 17.7177 103.255 17.6471 103.537 17.5059C103.537 17.5765 103.608 17.7177 103.608 17.8588C103.608 18 103.608 18.1412 103.608 18.2118C103.608 18.353 103.537 18.4941 103.467 18.6353C103.326 18.7765 103.184 18.8471 103.043 18.9177C102.831 18.9882 102.62 19.0588 102.408 19.0588C102.196 19.0588 101.914 19.1294 101.702 19.1294C101.208 19.1294 100.784 19.0588 100.502 18.8471C100.22 18.6353 100.008 18.4235 99.8667 18.0706C99.7256 17.7176 99.655 17.3647 99.5844 16.8706C99.5844 16.3765 99.5138 15.8824 99.5138 15.3177V7.7647H99.4432ZM101.631 19.3412C101.067 19.3412 100.643 19.2 100.29 18.9882C99.9373 18.7765 99.7256 18.4941 99.5138 18.0706C99.3726 17.7176 99.2314 17.2941 99.2314 16.8C99.2314 16.3059 99.1609 15.8118 99.1609 15.2471V7.97648H97.3256V7.7647C97.3256 6.98823 97.3256 6.77647 97.3962 6.70588C97.4667 6.49412 97.6079 6.35294 97.8903 6.35294H99.1609V2.61177C99.1609 2.11765 99.4432 1.90589 99.5844 1.90589C99.7256 1.90589 99.9373 1.8353 100.784 1.8353H100.996V6.28237H103.961V6.49412C103.961 7.27059 103.961 7.48236 103.89 7.55295C103.82 7.76471 103.679 7.90589 103.396 7.90589H100.926V15.2471C100.926 15.6 100.926 15.9529 100.926 16.2353C100.926 16.5176 100.996 16.8 101.067 17.0118C101.137 17.2235 101.208 17.3647 101.349 17.4353C101.42 17.5059 101.631 17.5765 101.843 17.5765C102.196 17.5765 102.408 17.5765 102.62 17.5059C102.831 17.4353 103.043 17.3647 103.326 17.2235L103.537 17.0824L103.608 17.3647C103.679 17.5059 103.679 17.5765 103.679 17.7176C103.679 17.8588 103.679 18 103.679 18.1412C103.679 18.3529 103.608 18.5647 103.396 18.7059C103.255 18.8471 103.114 18.9176 102.831 19.0588C102.62 19.1294 102.408 19.2 102.126 19.2C102.196 19.3412 101.914 19.3412 101.631 19.3412ZM97.8903 7.48236H99.7256V15.2471C99.7256 15.8118 99.7256 16.3059 99.7962 16.8C99.7962 17.2235 99.9373 17.6471 100.079 17.9294C100.22 18.2118 100.431 18.4235 100.643 18.6353C100.926 18.7765 101.278 18.8471 101.702 18.8471C101.914 18.8471 102.196 18.8471 102.408 18.7765C102.62 18.7765 102.831 18.7059 102.973 18.6353C103.114 18.5647 103.255 18.4941 103.326 18.4235C103.396 18.3529 103.396 18.2824 103.396 18.2118C103.396 18.0706 103.396 18 103.396 17.8588C103.184 17.9294 103.043 18 102.902 18.0706C102.69 18.1412 102.337 18.2118 101.984 18.2118C101.631 18.2118 101.349 18.1412 101.208 17.9294C100.996 17.7882 100.926 17.5765 100.784 17.2941C100.714 17.0118 100.643 16.7294 100.643 16.3765C100.643 16.0941 100.643 15.7412 100.643 15.3177V7.48236H103.537C103.537 7.41177 103.608 7.27059 103.608 6.77647H100.643V2.32942C100.079 2.32942 99.8667 2.32943 99.7962 2.40002C99.7256 2.40002 99.7256 2.54119 99.7256 2.68236V6.84707H97.9609C97.9609 6.84707 97.9609 6.84707 97.8903 6.84707C97.8903 6.84707 97.8903 6.98824 97.8903 7.48236ZM108.973 6.28237C110.031 6.28237 110.879 6.63531 111.373 7.34119C111.867 8.04707 112.079 8.9647 112.079 10.2353C112.079 10.7294 112.079 11.2941 112.008 11.7882C111.937 12.2824 111.937 12.7765 111.796 13.2C111.302 13.2706 110.737 13.4118 110.173 13.4118C109.608 13.4824 109.043 13.5529 108.479 13.5529C107.914 13.5529 107.42 13.6235 106.996 13.6235C106.502 13.6235 106.149 13.6235 105.937 13.6235C105.937 14.5412 106.008 15.2471 106.149 15.8118C106.29 16.3765 106.502 16.8 106.714 17.0824C106.996 17.3647 107.279 17.5765 107.631 17.6471C107.984 17.7176 108.408 17.7882 108.831 17.7882C109.396 17.7882 109.961 17.7177 110.455 17.5765C110.949 17.4353 111.443 17.2235 111.796 16.9412C111.867 17.0823 111.937 17.2941 111.937 17.4353C111.937 17.5765 112.008 17.7882 112.008 17.8588C112.008 18 111.937 18.1412 111.726 18.2824C111.514 18.4235 111.302 18.5647 111.02 18.6353C110.737 18.7765 110.384 18.8471 109.961 18.9177C109.537 18.9882 109.114 19.0588 108.69 19.0588C108.126 19.0588 107.561 18.9882 107.067 18.8471C106.573 18.7059 106.149 18.4235 105.796 18C105.443 17.5765 105.161 17.0118 104.949 16.2353C104.737 15.4588 104.667 14.4706 104.667 13.2706C104.667 11.7177 104.808 10.4471 105.09 9.52941C105.373 8.61176 105.726 7.90588 106.149 7.41176C106.573 6.91764 107.067 6.6353 107.561 6.49412C107.984 6.35295 108.479 6.28237 108.973 6.28237ZM108.902 7.55295C108.62 7.55295 108.267 7.62354 107.914 7.69413C107.561 7.83531 107.278 8.04707 106.996 8.40001C106.714 8.75296 106.502 9.24706 106.29 9.88235C106.079 10.5176 106.008 11.3647 105.937 12.4941C106.149 12.4941 106.502 12.4941 106.855 12.4941C107.208 12.4941 107.631 12.4941 108.126 12.4235C108.549 12.4235 109.043 12.353 109.467 12.2824C109.89 12.2118 110.314 12.1412 110.667 12.0706C110.667 11.7882 110.737 11.5059 110.737 11.2235C110.737 10.9412 110.737 10.6588 110.737 10.4471C110.737 9.45883 110.596 8.75295 110.314 8.25883C110.031 7.76471 109.608 7.55295 108.902 7.55295ZM108.62 19.3412C107.984 19.3412 107.42 19.2706 106.926 19.1294C106.361 18.9882 105.937 18.7059 105.514 18.2118C105.161 17.7882 104.808 17.1529 104.596 16.3765C104.384 15.6 104.314 14.6118 104.314 13.3412C104.314 11.7177 104.455 10.4471 104.737 9.52941C105.02 8.54117 105.373 7.8353 105.796 7.2706C106.22 6.77648 106.784 6.42354 107.349 6.21178C107.914 6.0706 108.408 6 108.973 6C110.102 6 111.02 6.35294 111.514 7.12941C112.008 7.8353 112.29 8.89413 112.29 10.1647C112.29 10.6588 112.29 11.2235 112.22 11.7176C112.149 12.2118 112.149 12.7059 112.008 13.1294V13.2706H111.867C111.302 13.3412 110.737 13.4824 110.173 13.5529C109.608 13.6235 109.043 13.6941 108.479 13.6941C107.914 13.6941 107.42 13.7647 106.996 13.7647C106.643 13.7647 106.361 13.7647 106.149 13.7647C106.149 14.5412 106.22 15.1765 106.361 15.6706C106.502 16.1647 106.643 16.5883 106.926 16.8706C107.137 17.153 107.42 17.2941 107.702 17.3647C108.588 17.5627 109.51 17.5385 110.384 17.2941C110.879 17.1529 111.302 16.9412 111.655 16.7294L111.937 16.5177L112.079 16.8C112.149 17.0118 112.22 17.1529 112.22 17.3647C112.22 17.5765 112.29 17.7177 112.29 17.8588C112.29 18.0706 112.149 18.2824 111.937 18.4941C111.726 18.6353 111.443 18.7765 111.161 18.9177C110.879 19.0588 110.455 19.1294 110.031 19.2C109.537 19.3412 109.114 19.3412 108.62 19.3412ZM108.973 6.49412C108.479 6.49412 107.984 6.5647 107.49 6.70588C106.996 6.84706 106.573 7.12942 106.22 7.55295C105.796 8.04707 105.514 8.68235 105.231 9.6C104.949 10.5176 104.808 11.7882 104.808 13.3412C104.808 14.5412 104.879 15.5294 105.09 16.2353C105.302 16.9412 105.584 17.5059 105.867 17.8588C106.22 18.2118 106.573 18.4941 106.996 18.5647C107.49 18.7059 107.984 18.7765 108.549 18.7765C108.973 18.7765 109.396 18.7059 109.82 18.6353C110.243 18.5647 110.596 18.4941 110.878 18.3529C111.161 18.2824 111.373 18.1412 111.514 18C111.655 17.9294 111.726 17.7882 111.726 17.7176C111.726 17.5765 111.726 17.4353 111.726 17.2941C111.726 17.2235 111.726 17.153 111.726 17.153C111.373 17.3647 111.02 17.5059 110.596 17.6471C109.627 17.9049 108.611 17.9291 107.631 17.7176C107.208 17.5765 106.855 17.3647 106.643 17.0824C106.361 16.7294 106.149 16.3059 106.008 15.7412C105.867 15.1765 105.796 14.4 105.796 13.4824V13.2706H106.008C106.29 13.2706 106.643 13.2706 107.067 13.2706C107.49 13.2706 107.984 13.2706 108.549 13.2C109.043 13.2 109.608 13.1294 110.173 13.0588C110.667 12.9882 111.161 12.9177 111.655 12.8471C111.726 12.4941 111.796 12.0706 111.796 11.6471C111.867 11.1529 111.867 10.5882 111.867 10.0941C111.867 8.89413 111.655 7.97649 111.161 7.34119C110.737 6.84707 110.031 6.49412 108.973 6.49412ZM106.926 12.7059H105.726V12.4235C105.796 11.2941 105.867 10.4471 106.079 9.74119C106.29 9.03531 106.502 8.54118 106.784 8.18824C107.067 7.8353 107.42 7.55294 107.773 7.41176C108.126 7.27059 108.479 7.2706 108.831 7.2706C109.679 7.2706 110.243 7.55294 110.526 8.11764C110.808 8.61176 110.949 9.38825 110.949 10.4471C110.949 10.7294 110.949 11.0118 110.949 11.2941C110.949 11.5765 110.878 11.8588 110.878 12.1412V12.2824L110.737 12.3529C110.384 12.4235 109.961 12.4941 109.537 12.5647C109.114 12.6353 108.62 12.6353 108.196 12.7059C107.773 12.7059 107.349 12.7059 106.926 12.7059ZM106.22 12.2118H106.926C107.279 12.2118 107.702 12.2118 108.126 12.1412C108.549 12.1412 108.973 12.0706 109.467 12C109.82 11.9294 110.173 11.9294 110.455 11.8588C110.455 11.6471 110.526 11.4353 110.526 11.153C110.526 10.8706 110.526 10.5882 110.526 10.3765C110.526 9.45883 110.384 8.75295 110.173 8.25883C109.961 7.8353 109.537 7.62354 108.902 7.62354C108.62 7.62354 108.337 7.69412 107.984 7.7647C107.702 7.83529 107.42 8.04707 107.208 8.32942C106.926 8.68236 106.714 9.10589 106.573 9.74119C106.431 10.5177 106.29 11.2941 106.22 12.2118Z" fill="#33CC99"/>
<path d="M18.6903 1.69415C18.6903 1.69415 17.9844 2.40001 17.9844 2.82354C19.8903 3.95295 22.0079 6.1412 22.7844 7.9059C22.7844 7.9059 23.3491 7.90591 23.7726 7.69415C25.0432 7.05885 25.4668 5.29414 25.3256 3.95296C25.1844 2.61178 23.9844 2.40003 23.5609 2.04709C23.1373 1.69415 23.2785 0.776492 21.7256 0.494139C20.1726 0.141198 18.6903 1.69415 18.6903 1.69415Z" fill="#393939"/>
<path d="M8.59616 2.18824C8.59616 2.18824 13.6079 -0.141175 18.8315 3.17647C24.055 6.49412 23.8432 11.7882 23.8432 11.7882C23.8432 11.7882 26.8785 17.3647 21.5844 21.2471C16.2903 25.1294 10.2903 23.7882 8.9491 23.2235C7.67851 22.7294 5.3491 3.67059 8.59616 2.18824Z" fill="#EFEFEF"/>
<path d="M14.2432 1.55295C10.9962 1.12942 8.59616 2.25883 8.59616 2.25883C5.3491 3.74118 3.79616 8.18824 3.65499 10.3765C3.5844 12.2118 2.38441 12.4941 2.38441 16.2353C2.31382 20.7529 7.67852 22.7294 8.9491 23.2941C9.65499 23.5765 11.702 24.1412 14.1726 24V1.55295H14.2432Z" fill="#F8F8F8"/>
<path d="M11.7726 8.11763C10.0079 7.19999 8.2432 8.47058 7.74909 9.59999C6.90203 11.4353 5.9138 13.4823 5.70203 13.9059C4.99615 15.3882 6.61968 16.3059 7.89027 15.9529C9.01968 15.6 10.6432 15.0353 12.4785 13.2706C14.3844 11.4353 13.6079 9.03528 11.7726 8.11763ZM10.855 12.4235C10.7138 12.1412 10.2903 11.9294 9.79616 11.9294C9.44322 11.9294 9.09027 12.0706 8.8785 12.2824C8.94909 11.8588 9.23144 11.1529 9.93733 11.2235C10.6432 11.2941 10.855 11.9294 10.855 12.4235ZM15.655 13.2706C17.4903 15.0353 19.1138 15.6 20.2432 15.9529C21.5138 16.3059 23.1373 15.4588 22.4314 13.9059C22.2197 13.4823 21.2315 11.4353 20.3844 9.59999C19.8197 8.39999 18.1256 7.1294 16.3609 8.11763C14.6667 9.03528 13.8197 11.4353 15.655 13.2706ZM17.3491 12.4235C17.3491 11.9294 17.5609 11.2941 18.2667 11.2941C18.9726 11.2235 19.255 11.9294 19.3256 12.3529C19.1138 12.1412 18.8314 12 18.4079 12C17.9844 11.9294 17.5609 12.1412 17.3491 12.4235C17.4197 12.4235 17.3491 12.4235 17.3491 12.4235Z" fill="#393939"/>
<path d="M17.8432 21.9529C16.1491 22.6588 13.6079 23.0117 10.5726 22.2353C5.56087 20.8235 8.10205 14.3294 13.8197 14.3294C19.4668 14.2588 22.9962 19.8353 17.8432 21.9529Z" fill="#F8F8F8"/>
<path d="M14.2432 22.6588V14.2588C14.102 14.2588 13.9609 14.2588 13.8197 14.2588C8.10204 14.2588 5.63145 20.8235 10.5726 22.1647C11.9138 22.5177 13.1138 22.6588 14.2432 22.6588Z" fill="white"/>
<path d="M18.4785 18.4235C18.4079 18.9176 17.8432 19.4118 16.5021 19.2C15.5138 19.0588 14.9491 18.4235 14.7373 18.0706C15.0903 18 15.302 17.647 15.655 17.3647C16.0785 17.0118 16.502 16.8 16.5726 16.4471C16.6432 16.0941 16.5726 15.6706 15.5844 15.4588C14.5962 15.3176 14.7373 15.9529 13.4667 15.5294C12.1962 15.0353 11.9138 15.9529 11.9138 16.5176C11.9138 17.0824 12.8315 17.3647 13.4667 17.7882C13.7491 17.9294 13.8903 18.0706 14.0315 18.0706C13.8197 18.3529 13.255 19.0588 12.2668 19.2C10.9256 19.4118 10.3609 18.9176 10.2903 18.4235C10.2197 17.9294 9.79616 18.5647 10.2197 19.1294C10.6432 19.6941 11.7726 20.4 13.0432 19.7647C13.8903 19.3412 14.2432 18.9176 14.3844 18.4941C14.5256 18.9176 14.8785 19.3412 15.7256 19.7647C16.9962 20.4 18.1256 19.6941 18.5491 19.1294C18.9726 18.4941 18.5491 17.9294 18.4785 18.4235ZM4.07852 7.76469C4.85499 7.83528 5.49027 7.48235 5.63145 7.19999C5.70204 7.05882 5.70204 6.91764 5.63145 6.84705C5.77263 6.70587 5.84322 6.49411 5.70204 6.14117C5.70204 6.07058 5.63145 5.85882 5.63145 5.78823C5.63145 5.78823 5.70206 5.71764 5.91382 5.71764C5.98441 5.71764 6.05499 5.71764 6.12558 5.71764C6.26675 5.64705 6.40793 5.64706 6.40793 5.50588C6.40793 5.3647 6.33735 5.29412 6.26676 5.22353C6.19617 5.15294 6.05498 5.08234 5.98439 5.01175C5.9138 4.94116 5.77264 4.87058 5.77264 4.8C5.77264 4.72941 5.84323 4.65881 5.91382 4.65881C5.98441 4.65881 6.12557 4.65882 6.33733 4.7294C6.40792 4.79999 6.54912 4.8 6.6197 4.8C6.76088 4.87058 6.83146 4.79999 6.83146 4.7294C6.90205 4.65882 6.90205 4.51764 6.90205 4.37646C7.04323 4.37646 7.18441 4.44706 7.32559 4.51765C7.46676 4.58824 7.53735 4.58822 7.60793 4.58822C7.8197 4.58822 7.89028 4.44705 7.89028 4.30587C7.89028 4.23528 7.89028 4.23528 7.89028 4.23528C8.03146 4.23528 8.31382 4.09412 8.31382 3.81177H8.38441C8.38441 3.81177 8.45498 3.81177 8.52557 3.81177C8.66675 3.81177 8.87852 3.81175 9.0197 3.59999C9.09029 3.45881 9.16086 3.31763 9.16086 3.17645C9.16086 3.17645 9.16086 3.17647 9.16086 3.10588C9.09027 2.25882 8.73733 0.282354 6.33733 -0.0705872C6.26675 1.08033e-06 6.12559 -1.61529e-05 5.91382 -1.61529e-05C4.14912 -1.61529e-05 2.80793 1.1294 1.89028 3.31764C1.32558 4.7294 1.25499 6.49412 2.66676 7.34118C2.87852 7.48235 3.01969 7.55294 3.23146 7.62353" fill="#393939"/>
</g>
<defs>
<clipPath id="clip0_25_1364">
<rect width="112.941" height="24" fill="white" transform="translate(0.478516)"/>
</clipPath>
</defs>
</svg>
