<svg width="130" height="24" viewBox="0 0 130 24" fill="none" xmlns="http://www.w3.org/2000/svg">
<g clip-path="url(#clip0_25_1379)">
<path fill-rule="evenodd" clip-rule="evenodd" d="M10.6034 17.1364L4.86861 11.3754C3.89415 10.3964 2.31425 10.3964 1.33948 11.3754C0.365029 12.3543 0.365029 13.9414 1.33948 14.9206L8.8388 22.4544C9.81325 23.4333 11.3935 23.4333 12.3679 22.4544L19.4265 15.3631L15.8977 11.8178L10.6034 17.1364Z" fill="#16B8A2"/>
<path fill-rule="evenodd" clip-rule="evenodd" d="M32.2192 6.05804L21.1917 17.1361L10.163 6.05679C9.18819 5.07755 7.60828 5.07755 6.63382 6.05679C5.65937 7.03572 5.65937 8.62287 6.63382 9.60211L19.4271 22.4541C20.4016 23.4331 21.9815 23.4331 22.9562 22.4541L35.7483 9.60336C36.7227 8.62412 36.7227 7.03697 35.7483 6.05804C34.7735 5.07911 33.1936 5.07911 32.2192 6.05804Z" fill="#FFB41F"/>
<path fill-rule="evenodd" clip-rule="evenodd" d="M41.0422 14.9216L33.544 22.4541C32.5696 23.4331 30.9897 23.4331 30.0152 22.4541L11.9277 4.28353C10.9532 3.3046 10.9532 1.71745 11.9277 0.73852C12.9024 -0.240721 14.4823 -0.240721 15.4567 0.73852L31.7795 17.1361L37.513 11.3763C38.4877 10.3974 40.0677 10.3974 41.0422 11.3763C42.0166 12.3556 42.0166 13.9428 41.0422 14.9216Z" fill="#F56358"/>
<path fill-rule="evenodd" clip-rule="evenodd" d="M30.4542 0.739811C29.4797 -0.239117 27.8999 -0.239117 26.9251 0.739811L15.8977 11.8178L19.4265 15.3631L30.4542 4.28513C31.4287 3.30589 31.4287 1.71873 30.4542 0.739811Z" fill="#16B8A2"/>
<path fill-rule="evenodd" clip-rule="evenodd" d="M54.6916 2.47108H51.6229V20.5798H62.8666V17.845H54.6916V2.47108ZM69.508 7.91601C71.3739 7.91601 72.6259 8.67977 73.3133 9.61601L73.4605 8.16238H76.1119V20.5798H73.4605L73.3133 19.1262C72.6259 20.0624 71.3739 20.8261 69.508 20.8261C66.1447 20.8261 63.8617 18.0914 63.8617 14.3711C63.8617 10.6261 66.1447 7.91601 69.508 7.91601ZM70.1463 10.5276C68.2314 10.5276 66.8567 12.0306 66.8567 14.3711C66.8567 16.7117 68.2314 18.2146 70.1463 18.2146C71.6193 18.2146 72.5031 17.4262 73.166 16.3667V12.3754C72.5031 11.3161 71.6193 10.5276 70.1463 10.5276ZM83.539 3.99861H80.593V8.16238H78.2607V10.6755H80.593V16.1944C80.593 19.2001 82.3851 20.8261 85.2083 20.8261C86.4358 20.8261 87.3441 20.4813 87.9579 20.0871L87.1723 17.7712C86.804 17.9929 86.2639 18.1653 85.4784 18.1653C84.3245 18.1653 83.539 17.4262 83.539 16.1696V10.6755H87.2704V8.16238H83.539V3.99861ZM93.691 3.99861H90.745V8.16238H88.4127V10.6755H90.745V16.1944C90.745 19.2001 92.5371 20.8261 95.3603 20.8261C96.5878 20.8261 97.4961 20.4813 98.1099 20.0871L97.3243 17.7712C96.956 17.9929 96.416 18.1653 95.6304 18.1653C94.4765 18.1653 93.691 17.4262 93.691 16.1696V10.6755H97.4225V8.16238H93.691V3.99861ZM103.033 8.16238H100.087V20.5798H103.033V8.16238ZM101.56 2.37253C100.529 2.37253 99.7431 3.13629 99.7431 4.19571C99.7431 5.25514 100.529 6.0189 101.56 6.0189C102.616 6.0189 103.401 5.25514 103.401 4.19571C103.401 3.13629 102.616 2.37253 101.56 2.37253ZM111.933 7.91601C108.128 7.91601 105.599 10.6261 105.599 14.3711C105.599 18.0914 108.153 20.8261 111.957 20.8261C114.191 20.8261 115.885 19.8161 116.99 18.0914L114.879 16.4407C114.289 17.4262 113.332 18.2393 111.982 18.2393C109.797 18.2393 108.594 16.5392 108.594 14.3711C108.594 12.1783 109.748 10.503 111.957 10.503C113.332 10.503 114.24 11.2914 114.805 12.2769L116.941 10.6509C115.836 8.92616 114.191 7.91601 111.933 7.91601ZM124.196 7.91601C128.002 7.91601 129.867 10.774 129.867 14.248V15.2827H121.127C121.201 17.2537 122.379 18.3378 124.441 18.3378C125.89 18.3378 126.946 17.6972 127.51 16.9088L129.548 18.5841C128.32 20.0624 126.7 20.8261 124.417 20.8261C120.588 20.8261 118.132 18.116 118.132 14.3957C118.132 10.6509 120.637 7.91601 124.196 7.91601ZM124.147 10.2812C122.404 10.2812 121.225 11.4392 121.127 13.1639H126.971C126.897 11.4639 125.915 10.2812 124.147 10.2812Z" fill="white"/>
</g>
<defs>
<clipPath id="clip0_25_1379">
<rect width="129.391" height="24" fill="white" transform="translate(0.608643)"/>
</clipPath>
</defs>
</svg>
