<svg width="94" height="24" viewBox="0 0 94 24" fill="none" xmlns="http://www.w3.org/2000/svg">
<path d="M24.6415 18.1961V0.026123H27.4645V7.18946C28.3535 5.86536 29.6869 5.20307 31.4645 5.2026C32.9808 5.2026 34.1529 5.65137 34.9809 6.54891C35.8089 7.44646 36.223 8.69702 36.2231 10.3006V18.1961H33.4V10.6928C33.4 8.61891 32.4762 7.58187 30.6286 7.58159C29.7046 7.58159 28.9465 7.86046 28.3542 8.4182C27.762 8.97594 27.4655 9.76027 27.465 10.7712V18.1959L24.6415 18.1961Z" fill="white"/>
<path d="M49.5648 16.6279C48.3099 17.8828 46.7327 18.5102 44.8329 18.5102C42.9332 18.5102 41.3515 17.8828 40.0877 16.6279C38.824 15.3729 38.1922 13.7779 38.1923 11.8428C38.1924 9.90787 38.8242 8.31755 40.0877 7.07193C41.3513 5.82602 42.933 5.20293 44.8329 5.20264C46.7328 5.20236 48.3101 5.82546 49.5648 7.07193C50.8199 8.3183 51.4474 9.90862 51.4473 11.8428C51.4472 13.7771 50.8197 15.3721 49.5648 16.6279ZM42.1532 15.0329C42.8237 15.8172 43.717 16.2094 44.8329 16.2094C45.9489 16.2094 46.8421 15.8172 47.5126 15.0329C48.1833 14.2486 48.5188 13.1853 48.5191 11.8428C48.5191 10.5184 48.1793 9.46394 47.4996 8.67951C46.8199 7.89508 45.931 7.50291 44.8329 7.50301C43.7173 7.50301 42.824 7.8908 42.1532 8.66638C41.4823 9.44197 41.1468 10.5006 41.1466 11.8423C41.1466 13.1853 41.4821 14.2488 42.1532 15.0329Z" fill="white"/>
<path d="M57.982 18.5098C55.3848 18.5098 54.0862 17.1154 54.0862 14.3267V7.8954H52.1259V5.51642H54.1651L54.8188 1.77856H56.9361V5.51642H61.9818V7.8954H56.9363V14.2484C56.9363 15.4163 57.3633 16.0002 58.2173 16.0001C59.0188 16.0001 59.7421 15.268 60.3872 13.8039L62.5834 14.9282C61.5025 17.3162 59.9687 18.51 57.982 18.5098Z" fill="white"/>
<path d="M63.4909 24C62.236 24 61.1989 23.6514 60.3798 22.9542L61.4256 20.732C61.9312 21.3243 62.4802 21.6207 63.0727 21.6213C63.8569 21.6213 64.249 21.1159 64.249 20.105V5.51639H67.0721V20.1566C67.0721 21.5161 66.7366 22.4965 66.0655 23.0977C65.3945 23.699 64.5363 23.9997 63.4909 24ZM65.6608 3.37243C65.1967 3.38818 64.7453 3.21895 64.4059 2.90197C64.2426 2.74811 64.114 2.56133 64.0284 2.35401C63.9428 2.14669 63.9022 1.92354 63.9093 1.69935C63.903 1.47332 63.944 1.24847 64.0295 1.03915C64.115 0.829825 64.2432 0.64062 64.4059 0.483608C64.7472 0.172467 65.1924 0 65.6543 0C66.1161 0 66.5614 0.172467 66.9027 0.483608C67.0688 0.638668 67.2002 0.827208 67.2881 1.03678C67.3759 1.24634 67.4184 1.47217 67.4125 1.69935C67.4166 1.92242 67.3733 2.14381 67.2854 2.34887C67.1975 2.55393 67.0671 2.73798 66.9027 2.88884C66.7377 3.04723 66.5431 3.17148 66.33 3.25446C66.1169 3.33745 65.8895 3.37754 65.6608 3.37243Z" fill="white"/>
<path d="M74.0843 18.51C72.6374 18.51 71.4652 18.1483 70.5679 17.4251C69.6705 16.7018 69.2218 15.7304 69.2216 14.5107C69.2216 13.3953 69.6878 12.4496 70.6203 11.6735C71.5527 10.8975 72.7248 10.5097 74.1365 10.5102C75.5832 10.5102 76.8033 10.9721 77.7967 11.8959V10.3532C77.7967 9.44723 77.5657 8.74571 77.1038 8.24866C76.6418 7.75162 75.9839 7.50324 75.1301 7.50352C73.4046 7.50352 72.3327 8.38365 71.9143 10.1439L69.326 9.59497C69.6742 8.23558 70.3627 7.16372 71.3915 6.37938C72.4203 5.59504 73.7013 5.20288 75.2345 5.20288C76.9079 5.20288 78.2282 5.64299 79.1954 6.52322C80.1626 7.40344 80.6462 8.68878 80.6464 10.3792V18.1963H77.9012V16.6013C76.9772 17.8739 75.7049 18.5102 74.0843 18.51ZM74.6065 16.4185C75.8616 16.4185 76.9249 15.7911 77.7966 14.5363V14.1437C76.9248 13.098 75.8615 12.5751 74.6065 12.5752C73.8746 12.5752 73.2818 12.754 72.828 13.1116C72.6135 13.2696 72.4399 13.4766 72.3217 13.7154C72.2034 13.9541 72.144 14.2177 72.1482 14.484C72.1413 14.7532 72.1982 15.0202 72.314 15.2633C72.4299 15.5063 72.6016 15.7186 72.815 15.8827C73.2604 16.24 73.8578 16.4186 74.6071 16.4185H74.6065Z" fill="white"/>
<path d="M83.3935 18.1961V5.51632H86.1386V7.71236C86.8355 6.10897 88.0381 5.30722 89.7465 5.30713C90.757 5.30713 91.5936 5.63827 92.2563 6.30056C92.919 6.96285 93.25 7.85173 93.2494 8.96721C93.2424 9.63483 93.1277 10.297 92.9096 10.928L90.3214 10.6666C90.3745 10.3201 90.4093 9.97103 90.4258 9.62089C90.4258 8.31372 89.8856 7.66009 88.8051 7.66C88.0729 7.66 87.4585 8.04779 86.9619 8.82337C86.4654 9.59896 86.2169 10.623 86.2167 11.8955V18.1961H83.3935Z" fill="white"/>
<path d="M7.00916 7.45638C9.11318 6.2875 11.9948 4.68627 11.9948 0.026123H8.50551C8.50551 2.63349 7.23613 3.33869 5.31462 4.40622C3.21061 5.57553 0.328979 7.17606 0.328979 11.8367H3.81827C3.81827 9.22912 5.08765 8.52392 7.00916 7.45638Z" fill="#FF3C00"/>
<path d="M13.0485 6.3855C13.0485 8.993 11.7791 9.6982 9.85759 10.7656C7.75414 11.9345 4.87195 13.5355 4.87195 18.196H8.3611C8.3611 15.5885 9.63048 14.8833 11.552 13.8158C13.656 12.6469 16.5375 11.0461 16.5375 6.3855H13.0485Z" fill="#FF3C00"/>
</svg>
