<svg width="172" height="51" viewBox="0 0 172 51" fill="none" xmlns="http://www.w3.org/2000/svg">
<path d="M165.63 50.2939H6.37037C2.86826 50.2939 0 47.4799 0 44.0439V6.54395C0 3.10801 2.86826 0.293945 6.37037 0.293945H165.63C169.132 0.293945 172 3.10801 172 6.54395V44.0439C172 47.4799 169.132 50.2939 165.63 50.2939Z" fill="white" fill-opacity="0.24"/>
<path d="M165.63 1.2955C168.579 1.2955 170.979 3.6502 170.979 6.54395V44.0439C170.979 46.9377 168.579 49.2924 165.63 49.2924H6.37037C3.42089 49.2924 1.02085 46.9377 1.02085 44.0439V6.54395C1.02085 3.6502 3.42089 1.2955 6.37037 1.2955H165.63ZM165.63 0.293945H6.37037C2.86826 0.293945 0 3.10801 0 6.54395V44.0439C0 47.4799 2.86826 50.2939 6.37037 50.2939H165.63C169.132 50.2939 172 47.4799 172 44.0439V6.54395C172 3.10801 169.132 0.293945 165.63 0.293945Z" fill="white"/>
<path d="M13.295 9.71718C12.9207 10.1016 12.7041 10.7 12.7041 11.475V39.1187C12.7041 39.8937 12.9207 40.4922 13.295 40.8766L13.3873 40.9609L29.1763 25.4766V25.1109L13.3873 9.62656L13.295 9.71718Z" fill="url(#paint0_linear_541_66356)"/>
<path d="M34.4329 30.6406L29.1758 25.4766V25.1109L34.4393 19.9469L34.5571 20.0141L40.7906 23.4938C42.5695 24.4813 42.5695 26.1063 40.7906 27.1L34.5571 30.5734L34.4329 30.6406Z" fill="url(#paint1_linear_541_66356)"/>
<path d="M34.5576 30.5735L29.1763 25.2939L13.2949 40.8767C13.8858 41.486 14.8493 41.5595 15.945 40.9501L34.5576 30.5735Z" fill="url(#paint2_linear_541_66356)"/>
<path d="M34.5576 20.0143L15.945 9.6377C14.8493 9.03458 13.8858 9.10801 13.2949 9.71739L29.1763 25.2939L34.5576 20.0143Z" fill="url(#paint3_linear_541_66356)"/>
<path d="M60.4138 13.0984C60.4138 14.1422 60.0953 14.9781 59.4678 15.6016C58.7463 16.3406 57.8067 16.7125 56.6553 16.7125C55.5548 16.7125 54.6151 16.3344 53.8443 15.5891C53.0719 14.8328 52.6865 13.9047 52.6865 12.7937C52.6865 11.6828 53.0719 10.7547 53.8443 10.0047C54.6151 9.25313 55.5548 8.875 56.6553 8.875C57.2031 8.875 57.7255 8.98594 58.224 9.19219C58.7209 9.4 59.1254 9.68125 59.4184 10.0281L58.7527 10.6875C58.2415 10.0953 57.5455 9.80313 56.6553 9.80313C55.8526 9.80313 55.1566 10.0781 54.5658 10.6328C53.9813 11.1891 53.6883 11.9094 53.6883 12.7937C53.6883 13.6781 53.9813 14.4047 54.5658 14.9609C55.1566 15.5094 55.8526 15.7906 56.6553 15.7906C57.5073 15.7906 58.224 15.5094 58.7893 14.9547C59.162 14.5875 59.3738 14.0812 59.4296 13.4344H56.6553V12.5312H60.3564C60.401 12.7266 60.4138 12.9156 60.4138 13.0984Z" fill="white" stroke="white" stroke-width="0.16" stroke-miterlimit="10"/>
<path d="M66.286 9.96719H62.8094V12.3422H65.9436V13.2453H62.8094V15.6203H66.286V16.5406H61.8252V9.04688H66.286V9.96719Z" fill="white" stroke="white" stroke-width="0.16" stroke-miterlimit="10"/>
<path d="M70.4292 16.5406H69.445V9.96719H67.3125V9.04688H72.5633V9.96719H70.4292V16.5406Z" fill="white" stroke="white" stroke-width="0.16" stroke-miterlimit="10"/>
<path d="M76.3633 16.5406V9.04688H77.3459V16.5406H76.3633Z" fill="white" stroke="white" stroke-width="0.16" stroke-miterlimit="10"/>
<path d="M81.7017 16.5406H80.7254V9.96719H78.585V9.04688H83.8421V9.96719H81.7017V16.5406Z" fill="white" stroke="white" stroke-width="0.16" stroke-miterlimit="10"/>
<path d="M93.7837 15.5766C93.0304 16.3344 92.0971 16.7125 90.9839 16.7125C89.8643 16.7125 88.931 16.3344 88.1777 15.5766C87.426 14.8203 87.0518 13.8922 87.0518 12.7937C87.0518 11.6953 87.426 10.7672 88.1777 10.0109C88.931 9.25313 89.8643 8.875 90.9839 8.875C92.0907 8.875 93.024 9.25312 93.7773 10.0172C94.5354 10.7797 94.9096 11.7016 94.9096 12.7937C94.9096 13.8922 94.5354 14.8203 93.7837 15.5766ZM88.9055 14.9484C89.4725 15.5094 90.1621 15.7906 90.9839 15.7906C91.7993 15.7906 92.4952 15.5094 93.0558 14.9484C93.6212 14.3875 93.9079 13.6672 93.9079 12.7937C93.9079 11.9203 93.6212 11.2 93.0558 10.6391C92.4952 10.0781 91.7993 9.79687 90.9839 9.79687C90.1621 9.79687 89.4725 10.0781 88.9055 10.6391C88.3402 11.2 88.0535 11.9203 88.0535 12.7937C88.0535 13.6672 88.3402 14.3875 88.9055 14.9484Z" fill="white" stroke="white" stroke-width="0.16" stroke-miterlimit="10"/>
<path d="M96.29 16.5406V9.04688H97.4845L101.198 14.875H101.241L101.198 13.4344V9.04688H102.181V16.5406H101.155L97.2663 10.425H97.2233L97.2663 11.8719V16.5406H96.29Z" fill="white" stroke="white" stroke-width="0.16" stroke-miterlimit="10"/>
<path d="M86.8091 27.4844C83.8166 27.4844 81.372 29.7188 81.372 32.8016C81.372 35.8594 83.8166 38.1172 86.8091 38.1172C89.808 38.1172 92.2526 35.8594 92.2526 32.8016C92.2526 29.7188 89.808 27.4844 86.8091 27.4844ZM86.8091 36.0234C85.1672 36.0234 83.7545 34.6938 83.7545 32.8016C83.7545 30.8844 85.1672 29.5781 86.8091 29.5781C88.4511 29.5781 89.8701 30.8844 89.8701 32.8016C89.8701 34.6938 88.4511 36.0234 86.8091 36.0234ZM74.9459 27.4844C71.947 27.4844 69.5088 29.7188 69.5088 32.8016C69.5088 35.8594 71.947 38.1172 74.9459 38.1172C77.9432 38.1172 80.383 35.8594 80.383 32.8016C80.383 29.7188 77.9432 27.4844 74.9459 27.4844ZM74.9459 36.0234C73.3023 36.0234 71.8849 34.6938 71.8849 32.8016C71.8849 30.8844 73.3023 29.5781 74.9459 29.5781C76.5879 29.5781 78.0005 30.8844 78.0005 32.8016C78.0005 34.6938 76.5879 36.0234 74.9459 36.0234ZM60.8292 29.1141V31.3734H66.3284C66.1675 32.6359 65.7375 33.5641 65.0782 34.2109C64.2755 34.9922 63.0253 35.8594 60.8292 35.8594C57.4449 35.8594 54.7948 33.1797 54.7948 29.8594C54.7948 26.5391 57.4449 23.8594 60.8292 23.8594C62.659 23.8594 63.9905 24.5609 64.9731 25.4703L66.5959 23.8781C65.2215 22.5906 63.3932 21.6016 60.8292 21.6016C56.1883 21.6016 52.2881 25.3063 52.2881 29.8594C52.2881 34.4125 56.1883 38.1172 60.8292 38.1172C63.3375 38.1172 65.2215 37.3109 66.7026 35.7984C68.2204 34.3094 68.6934 32.2156 68.6934 30.525C68.6934 30 68.6488 29.5172 68.5692 29.1141H60.8292ZM118.554 30.8656C118.107 29.6766 116.726 27.4844 113.913 27.4844C111.126 27.4844 108.806 29.6391 108.806 32.8016C108.806 35.7797 111.103 38.1172 114.181 38.1172C116.67 38.1172 118.107 36.6281 118.698 35.7609L116.85 34.5531C116.234 35.4375 115.395 36.0234 114.181 36.0234C112.975 36.0234 112.111 35.4813 111.556 34.4125L118.804 31.4703L118.554 30.8656ZM111.165 32.6359C111.103 30.5859 112.787 29.5359 113.995 29.5359C114.941 29.5359 115.743 30 116.011 30.6641L111.165 32.6359ZM105.274 37.7938H107.656V22.1688H105.274V37.7938ZM101.372 28.6688H101.292C100.757 28.0469 99.7362 27.4844 98.443 27.4844C95.7292 27.4844 93.248 29.8219 93.248 32.8188C93.248 35.7984 95.7292 38.1172 98.443 38.1172C99.7362 38.1172 100.757 37.55 101.292 36.9094H101.372V37.6719C101.372 39.7047 100.265 40.7969 98.4796 40.7969C97.024 40.7969 96.121 39.7656 95.7483 38.8984L93.6764 39.7469C94.2736 41.1563 95.855 42.8906 98.4796 42.8906C101.273 42.8906 103.63 41.2781 103.63 37.3547V27.8078H101.372V28.6688ZM98.6469 36.0234C97.0049 36.0234 95.6305 34.675 95.6305 32.8188C95.6305 30.9453 97.0049 29.5781 98.6469 29.5781C100.265 29.5781 101.541 30.9453 101.541 32.8188C101.541 34.675 100.265 36.0234 98.6469 36.0234ZM129.709 22.1688H124.01V37.7938H126.387V31.8734H129.709C132.348 31.8734 134.936 30 134.936 27.0203C134.936 24.0422 132.341 22.1688 129.709 22.1688ZM129.771 29.7H126.387V24.3422H129.771C131.545 24.3422 132.558 25.7875 132.558 27.0203C132.558 28.2297 131.545 29.7 129.771 29.7ZM144.459 27.4547C142.743 27.4547 140.957 28.1984 140.223 29.8469L142.332 30.7141C142.786 29.8469 143.62 29.5656 144.502 29.5656C145.735 29.5656 146.985 30.2922 147.004 31.575V31.7391C146.574 31.4953 145.654 31.1344 144.521 31.1344C142.25 31.1344 139.936 32.3609 139.936 34.65C139.936 36.7438 141.797 38.0922 143.888 38.0922C145.487 38.0922 146.369 37.3844 146.923 36.5609H147.004V37.7687H149.299V31.775C149.299 29.0047 147.191 27.4547 144.459 27.4547ZM144.173 36.0172C143.396 36.0172 142.313 35.6391 142.313 34.6938C142.313 33.4844 143.663 33.0203 144.832 33.0203C145.878 33.0203 146.369 33.2469 147.004 33.5453C146.818 34.9922 145.549 36.0172 144.173 36.0172ZM157.66 27.7969L154.929 34.5703H154.848L152.024 27.7969H149.462L153.704 37.2625L151.284 42.5297H153.766L160.304 27.7969H157.66ZM136.242 37.7938H138.624V22.1688H136.242V37.7938Z" fill="white"/>
<defs>
<linearGradient id="paint0_linear_541_66356" x1="27.7744" y1="39.4066" x2="6.80023" y2="18.0285" gradientUnits="userSpaceOnUse">
<stop stop-color="#00A0FF"/>
<stop offset="0.0066" stop-color="#00A1FF"/>
<stop offset="0.2601" stop-color="#00BEFF"/>
<stop offset="0.5122" stop-color="#00D2FF"/>
<stop offset="0.7604" stop-color="#00DFFF"/>
<stop offset="1" stop-color="#00E3FF"/>
</linearGradient>
<linearGradient id="paint1_linear_541_66356" x1="43.107" y1="25.292" x2="12.2784" y2="25.292" gradientUnits="userSpaceOnUse">
<stop stop-color="#FFE000"/>
<stop offset="0.4087" stop-color="#FFBD00"/>
<stop offset="0.7754" stop-color="#FFA500"/>
<stop offset="1" stop-color="#FF9C00"/>
</linearGradient>
<linearGradient id="paint2_linear_541_66356" x1="31.6314" y1="22.4237" x2="3.1887" y2="-6.56675" gradientUnits="userSpaceOnUse">
<stop stop-color="#FF3A44"/>
<stop offset="1" stop-color="#C31162"/>
</linearGradient>
<linearGradient id="paint3_linear_541_66356" x1="9.29726" y1="50.0737" x2="21.9982" y2="37.1283" gradientUnits="userSpaceOnUse">
<stop stop-color="#32A071"/>
<stop offset="0.0685" stop-color="#2DA771"/>
<stop offset="0.4762" stop-color="#15CF74"/>
<stop offset="0.8009" stop-color="#06E775"/>
<stop offset="1" stop-color="#00F076"/>
</linearGradient>
</defs>
</svg>
