<svg width="1600" height="36" viewBox="0 0 1600 36" fill="none" xmlns="http://www.w3.org/2000/svg">
<g clip-path="url(#clip0_58_1573)">
<path d="M-4 0.356689H32V36.3567H-4V0.356689Z" fill="white" fill-opacity="0.1"/>
<path d="M5 7.85669C5.39782 7.85669 5.77936 8.01472 6.06066 8.29603C6.34196 8.57733 6.5 8.95886 6.5 9.35669C6.5 9.75451 6.34196 10.136 6.06066 10.4173C5.77936 10.6987 5.39782 10.8567 5 10.8567C4.60218 10.8567 4.22064 10.6987 3.93934 10.4173C3.65804 10.136 3.5 9.75451 3.5 9.35669C3.5 8.95886 3.65804 8.57733 3.93934 8.29603C4.22064 8.01472 4.60218 7.85669 5 7.85669ZM5 25.8567C5.39782 25.8567 5.77936 26.0147 6.06066 26.296C6.34196 26.5773 6.5 26.9589 6.5 27.3567C6.5 27.7545 6.34196 28.136 6.06066 28.4174C5.77936 28.6987 5.39782 28.8567 5 28.8567C4.60218 28.8567 4.22064 28.6987 3.93934 28.4174C3.65804 28.136 3.5 27.7545 3.5 27.3567C3.5 26.9589 3.65804 26.5773 3.93934 26.296C4.22064 26.0147 4.60218 25.8567 5 25.8567ZM23 25.8567C23.3978 25.8567 23.7794 26.0147 24.0607 26.296C24.342 26.5773 24.5 26.9589 24.5 27.3567C24.5 27.7545 24.342 28.136 24.0607 28.4174C23.7794 28.6987 23.3978 28.8567 23 28.8567C22.6022 28.8567 22.2206 28.6987 21.9393 28.4174C21.658 28.136 21.5 27.7545 21.5 27.3567C21.5 26.9589 21.658 26.5773 21.9393 26.296C22.2206 26.0147 22.6022 25.8567 23 25.8567ZM23 7.85669C23.3978 7.85669 23.7794 8.01472 24.0607 8.29603C24.342 8.57733 24.5 8.95886 24.5 9.35669C24.5 9.75451 24.342 10.136 24.0607 10.4173C23.7794 10.6987 23.3978 10.8567 23 10.8567C22.6022 10.8567 22.2206 10.6987 21.9393 10.4173C21.658 10.136 21.5 9.75451 21.5 9.35669C21.5 8.95886 21.658 8.57733 21.9393 8.29603C22.2206 8.01472 22.6022 7.85669 23 7.85669Z" fill="black" fill-opacity="0.1"/>
</g>
<g clip-path="url(#clip1_58_1573)">
<path d="M32 0.356689H68V36.3567H32V0.356689Z" fill="white" fill-opacity="0.1"/>
<path d="M41 7.85669C41.3978 7.85669 41.7794 8.01472 42.0607 8.29603C42.342 8.57733 42.5 8.95886 42.5 9.35669C42.5 9.75451 42.342 10.136 42.0607 10.4173C41.7794 10.6987 41.3978 10.8567 41 10.8567C40.6022 10.8567 40.2206 10.6987 39.9393 10.4173C39.658 10.136 39.5 9.75451 39.5 9.35669C39.5 8.95886 39.658 8.57733 39.9393 8.29603C40.2206 8.01472 40.6022 7.85669 41 7.85669ZM41 25.8567C41.3978 25.8567 41.7794 26.0147 42.0607 26.296C42.342 26.5773 42.5 26.9589 42.5 27.3567C42.5 27.7545 42.342 28.136 42.0607 28.4174C41.7794 28.6987 41.3978 28.8567 41 28.8567C40.6022 28.8567 40.2206 28.6987 39.9393 28.4174C39.658 28.136 39.5 27.7545 39.5 27.3567C39.5 26.9589 39.658 26.5773 39.9393 26.296C40.2206 26.0147 40.6022 25.8567 41 25.8567ZM59 25.8567C59.3978 25.8567 59.7794 26.0147 60.0607 26.296C60.342 26.5773 60.5 26.9589 60.5 27.3567C60.5 27.7545 60.342 28.136 60.0607 28.4174C59.7794 28.6987 59.3978 28.8567 59 28.8567C58.6022 28.8567 58.2206 28.6987 57.9393 28.4174C57.658 28.136 57.5 27.7545 57.5 27.3567C57.5 26.9589 57.658 26.5773 57.9393 26.296C58.2206 26.0147 58.6022 25.8567 59 25.8567ZM59 7.85669C59.3978 7.85669 59.7794 8.01472 60.0607 8.29603C60.342 8.57733 60.5 8.95886 60.5 9.35669C60.5 9.75451 60.342 10.136 60.0607 10.4173C59.7794 10.6987 59.3978 10.8567 59 10.8567C58.6022 10.8567 58.2206 10.6987 57.9393 10.4173C57.658 10.136 57.5 9.75451 57.5 9.35669C57.5 8.95886 57.658 8.57733 57.9393 8.29603C58.2206 8.01472 58.6022 7.85669 59 7.85669Z" fill="black" fill-opacity="0.1"/>
</g>
<g clip-path="url(#clip2_58_1573)">
<path d="M68 0.356689H104V36.3567H68V0.356689Z" fill="white" fill-opacity="0.1"/>
<path d="M77 7.85669C77.3978 7.85669 77.7794 8.01472 78.0607 8.29603C78.342 8.57733 78.5 8.95886 78.5 9.35669C78.5 9.75451 78.342 10.136 78.0607 10.4173C77.7794 10.6987 77.3978 10.8567 77 10.8567C76.6022 10.8567 76.2206 10.6987 75.9393 10.4173C75.658 10.136 75.5 9.75451 75.5 9.35669C75.5 8.95886 75.658 8.57733 75.9393 8.29603C76.2206 8.01472 76.6022 7.85669 77 7.85669ZM77 25.8567C77.3978 25.8567 77.7794 26.0147 78.0607 26.296C78.342 26.5773 78.5 26.9589 78.5 27.3567C78.5 27.7545 78.342 28.136 78.0607 28.4174C77.7794 28.6987 77.3978 28.8567 77 28.8567C76.6022 28.8567 76.2206 28.6987 75.9393 28.4174C75.658 28.136 75.5 27.7545 75.5 27.3567C75.5 26.9589 75.658 26.5773 75.9393 26.296C76.2206 26.0147 76.6022 25.8567 77 25.8567ZM95 25.8567C95.3978 25.8567 95.7794 26.0147 96.0607 26.296C96.342 26.5773 96.5 26.9589 96.5 27.3567C96.5 27.7545 96.342 28.136 96.0607 28.4174C95.7794 28.6987 95.3978 28.8567 95 28.8567C94.6022 28.8567 94.2206 28.6987 93.9393 28.4174C93.658 28.136 93.5 27.7545 93.5 27.3567C93.5 26.9589 93.658 26.5773 93.9393 26.296C94.2206 26.0147 94.6022 25.8567 95 25.8567ZM95 7.85669C95.3978 7.85669 95.7794 8.01472 96.0607 8.29603C96.342 8.57733 96.5 8.95886 96.5 9.35669C96.5 9.75451 96.342 10.136 96.0607 10.4173C95.7794 10.6987 95.3978 10.8567 95 10.8567C94.6022 10.8567 94.2206 10.6987 93.9393 10.4173C93.658 10.136 93.5 9.75451 93.5 9.35669C93.5 8.95886 93.658 8.57733 93.9393 8.29603C94.2206 8.01472 94.6022 7.85669 95 7.85669Z" fill="black" fill-opacity="0.1"/>
</g>
<g clip-path="url(#clip3_58_1573)">
<path d="M104 0.356689H140V36.3567H104V0.356689Z" fill="white" fill-opacity="0.1"/>
<path d="M113 7.85669C113.398 7.85669 113.779 8.01472 114.061 8.29603C114.342 8.57733 114.5 8.95886 114.5 9.35669C114.5 9.75451 114.342 10.136 114.061 10.4173C113.779 10.6987 113.398 10.8567 113 10.8567C112.602 10.8567 112.221 10.6987 111.939 10.4173C111.658 10.136 111.5 9.75451 111.5 9.35669C111.5 8.95886 111.658 8.57733 111.939 8.29603C112.221 8.01472 112.602 7.85669 113 7.85669ZM113 25.8567C113.398 25.8567 113.779 26.0147 114.061 26.296C114.342 26.5773 114.5 26.9589 114.5 27.3567C114.5 27.7545 114.342 28.136 114.061 28.4174C113.779 28.6987 113.398 28.8567 113 28.8567C112.602 28.8567 112.221 28.6987 111.939 28.4174C111.658 28.136 111.5 27.7545 111.5 27.3567C111.5 26.9589 111.658 26.5773 111.939 26.296C112.221 26.0147 112.602 25.8567 113 25.8567ZM131 25.8567C131.398 25.8567 131.779 26.0147 132.061 26.296C132.342 26.5773 132.5 26.9589 132.5 27.3567C132.5 27.7545 132.342 28.136 132.061 28.4174C131.779 28.6987 131.398 28.8567 131 28.8567C130.602 28.8567 130.221 28.6987 129.939 28.4174C129.658 28.136 129.5 27.7545 129.5 27.3567C129.5 26.9589 129.658 26.5773 129.939 26.296C130.221 26.0147 130.602 25.8567 131 25.8567ZM131 7.85669C131.398 7.85669 131.779 8.01472 132.061 8.29603C132.342 8.57733 132.5 8.95886 132.5 9.35669C132.5 9.75451 132.342 10.136 132.061 10.4173C131.779 10.6987 131.398 10.8567 131 10.8567C130.602 10.8567 130.221 10.6987 129.939 10.4173C129.658 10.136 129.5 9.75451 129.5 9.35669C129.5 8.95886 129.658 8.57733 129.939 8.29603C130.221 8.01472 130.602 7.85669 131 7.85669Z" fill="black" fill-opacity="0.1"/>
</g>
<g clip-path="url(#clip4_58_1573)">
<path d="M140 0.356689H176V36.3567H140V0.356689Z" fill="white" fill-opacity="0.1"/>
<path d="M149 7.85669C149.398 7.85669 149.779 8.01472 150.061 8.29603C150.342 8.57733 150.5 8.95886 150.5 9.35669C150.5 9.75451 150.342 10.136 150.061 10.4173C149.779 10.6987 149.398 10.8567 149 10.8567C148.602 10.8567 148.221 10.6987 147.939 10.4173C147.658 10.136 147.5 9.75451 147.5 9.35669C147.5 8.95886 147.658 8.57733 147.939 8.29603C148.221 8.01472 148.602 7.85669 149 7.85669ZM149 25.8567C149.398 25.8567 149.779 26.0147 150.061 26.296C150.342 26.5773 150.5 26.9589 150.5 27.3567C150.5 27.7545 150.342 28.136 150.061 28.4174C149.779 28.6987 149.398 28.8567 149 28.8567C148.602 28.8567 148.221 28.6987 147.939 28.4174C147.658 28.136 147.5 27.7545 147.5 27.3567C147.5 26.9589 147.658 26.5773 147.939 26.296C148.221 26.0147 148.602 25.8567 149 25.8567ZM167 25.8567C167.398 25.8567 167.779 26.0147 168.061 26.296C168.342 26.5773 168.5 26.9589 168.5 27.3567C168.5 27.7545 168.342 28.136 168.061 28.4174C167.779 28.6987 167.398 28.8567 167 28.8567C166.602 28.8567 166.221 28.6987 165.939 28.4174C165.658 28.136 165.5 27.7545 165.5 27.3567C165.5 26.9589 165.658 26.5773 165.939 26.296C166.221 26.0147 166.602 25.8567 167 25.8567ZM167 7.85669C167.398 7.85669 167.779 8.01472 168.061 8.29603C168.342 8.57733 168.5 8.95886 168.5 9.35669C168.5 9.75451 168.342 10.136 168.061 10.4173C167.779 10.6987 167.398 10.8567 167 10.8567C166.602 10.8567 166.221 10.6987 165.939 10.4173C165.658 10.136 165.5 9.75451 165.5 9.35669C165.5 8.95886 165.658 8.57733 165.939 8.29603C166.221 8.01472 166.602 7.85669 167 7.85669Z" fill="black" fill-opacity="0.1"/>
</g>
<g clip-path="url(#clip5_58_1573)">
<path d="M176 0.356689H212V36.3567H176V0.356689Z" fill="white" fill-opacity="0.1"/>
<path d="M185 7.85669C185.398 7.85669 185.779 8.01472 186.061 8.29603C186.342 8.57733 186.5 8.95886 186.5 9.35669C186.5 9.75451 186.342 10.136 186.061 10.4173C185.779 10.6987 185.398 10.8567 185 10.8567C184.602 10.8567 184.221 10.6987 183.939 10.4173C183.658 10.136 183.5 9.75451 183.5 9.35669C183.5 8.95886 183.658 8.57733 183.939 8.29603C184.221 8.01472 184.602 7.85669 185 7.85669ZM185 25.8567C185.398 25.8567 185.779 26.0147 186.061 26.296C186.342 26.5773 186.5 26.9589 186.5 27.3567C186.5 27.7545 186.342 28.136 186.061 28.4174C185.779 28.6987 185.398 28.8567 185 28.8567C184.602 28.8567 184.221 28.6987 183.939 28.4174C183.658 28.136 183.5 27.7545 183.5 27.3567C183.5 26.9589 183.658 26.5773 183.939 26.296C184.221 26.0147 184.602 25.8567 185 25.8567ZM203 25.8567C203.398 25.8567 203.779 26.0147 204.061 26.296C204.342 26.5773 204.5 26.9589 204.5 27.3567C204.5 27.7545 204.342 28.136 204.061 28.4174C203.779 28.6987 203.398 28.8567 203 28.8567C202.602 28.8567 202.221 28.6987 201.939 28.4174C201.658 28.136 201.5 27.7545 201.5 27.3567C201.5 26.9589 201.658 26.5773 201.939 26.296C202.221 26.0147 202.602 25.8567 203 25.8567ZM203 7.85669C203.398 7.85669 203.779 8.01472 204.061 8.29603C204.342 8.57733 204.5 8.95886 204.5 9.35669C204.5 9.75451 204.342 10.136 204.061 10.4173C203.779 10.6987 203.398 10.8567 203 10.8567C202.602 10.8567 202.221 10.6987 201.939 10.4173C201.658 10.136 201.5 9.75451 201.5 9.35669C201.5 8.95886 201.658 8.57733 201.939 8.29603C202.221 8.01472 202.602 7.85669 203 7.85669Z" fill="black" fill-opacity="0.1"/>
</g>
<g clip-path="url(#clip6_58_1573)">
<path d="M212 0.356689H248V36.3567H212V0.356689Z" fill="white" fill-opacity="0.1"/>
<path d="M221 7.85669C221.398 7.85669 221.779 8.01472 222.061 8.29603C222.342 8.57733 222.5 8.95886 222.5 9.35669C222.5 9.75451 222.342 10.136 222.061 10.4173C221.779 10.6987 221.398 10.8567 221 10.8567C220.602 10.8567 220.221 10.6987 219.939 10.4173C219.658 10.136 219.5 9.75451 219.5 9.35669C219.5 8.95886 219.658 8.57733 219.939 8.29603C220.221 8.01472 220.602 7.85669 221 7.85669ZM221 25.8567C221.398 25.8567 221.779 26.0147 222.061 26.296C222.342 26.5773 222.5 26.9589 222.5 27.3567C222.5 27.7545 222.342 28.136 222.061 28.4174C221.779 28.6987 221.398 28.8567 221 28.8567C220.602 28.8567 220.221 28.6987 219.939 28.4174C219.658 28.136 219.5 27.7545 219.5 27.3567C219.5 26.9589 219.658 26.5773 219.939 26.296C220.221 26.0147 220.602 25.8567 221 25.8567ZM239 25.8567C239.398 25.8567 239.779 26.0147 240.061 26.296C240.342 26.5773 240.5 26.9589 240.5 27.3567C240.5 27.7545 240.342 28.136 240.061 28.4174C239.779 28.6987 239.398 28.8567 239 28.8567C238.602 28.8567 238.221 28.6987 237.939 28.4174C237.658 28.136 237.5 27.7545 237.5 27.3567C237.5 26.9589 237.658 26.5773 237.939 26.296C238.221 26.0147 238.602 25.8567 239 25.8567ZM239 7.85669C239.398 7.85669 239.779 8.01472 240.061 8.29603C240.342 8.57733 240.5 8.95886 240.5 9.35669C240.5 9.75451 240.342 10.136 240.061 10.4173C239.779 10.6987 239.398 10.8567 239 10.8567C238.602 10.8567 238.221 10.6987 237.939 10.4173C237.658 10.136 237.5 9.75451 237.5 9.35669C237.5 8.95886 237.658 8.57733 237.939 8.29603C238.221 8.01472 238.602 7.85669 239 7.85669Z" fill="black" fill-opacity="0.1"/>
</g>
<g clip-path="url(#clip7_58_1573)">
<path d="M248 0.356689H284V36.3567H248V0.356689Z" fill="white" fill-opacity="0.1"/>
<path d="M257 7.85669C257.398 7.85669 257.779 8.01472 258.061 8.29603C258.342 8.57733 258.5 8.95886 258.5 9.35669C258.5 9.75451 258.342 10.136 258.061 10.4173C257.779 10.6987 257.398 10.8567 257 10.8567C256.602 10.8567 256.221 10.6987 255.939 10.4173C255.658 10.136 255.5 9.75451 255.5 9.35669C255.5 8.95886 255.658 8.57733 255.939 8.29603C256.221 8.01472 256.602 7.85669 257 7.85669ZM257 25.8567C257.398 25.8567 257.779 26.0147 258.061 26.296C258.342 26.5773 258.5 26.9589 258.5 27.3567C258.5 27.7545 258.342 28.136 258.061 28.4174C257.779 28.6987 257.398 28.8567 257 28.8567C256.602 28.8567 256.221 28.6987 255.939 28.4174C255.658 28.136 255.5 27.7545 255.5 27.3567C255.5 26.9589 255.658 26.5773 255.939 26.296C256.221 26.0147 256.602 25.8567 257 25.8567ZM275 25.8567C275.398 25.8567 275.779 26.0147 276.061 26.296C276.342 26.5773 276.5 26.9589 276.5 27.3567C276.5 27.7545 276.342 28.136 276.061 28.4174C275.779 28.6987 275.398 28.8567 275 28.8567C274.602 28.8567 274.221 28.6987 273.939 28.4174C273.658 28.136 273.5 27.7545 273.5 27.3567C273.5 26.9589 273.658 26.5773 273.939 26.296C274.221 26.0147 274.602 25.8567 275 25.8567ZM275 7.85669C275.398 7.85669 275.779 8.01472 276.061 8.29603C276.342 8.57733 276.5 8.95886 276.5 9.35669C276.5 9.75451 276.342 10.136 276.061 10.4173C275.779 10.6987 275.398 10.8567 275 10.8567C274.602 10.8567 274.221 10.6987 273.939 10.4173C273.658 10.136 273.5 9.75451 273.5 9.35669C273.5 8.95886 273.658 8.57733 273.939 8.29603C274.221 8.01472 274.602 7.85669 275 7.85669Z" fill="black" fill-opacity="0.1"/>
</g>
<g clip-path="url(#clip8_58_1573)">
<path d="M284 0.356689H320V36.3567H284V0.356689Z" fill="white" fill-opacity="0.1"/>
<path d="M293 7.85669C293.398 7.85669 293.779 8.01472 294.061 8.29603C294.342 8.57733 294.5 8.95886 294.5 9.35669C294.5 9.75451 294.342 10.136 294.061 10.4173C293.779 10.6987 293.398 10.8567 293 10.8567C292.602 10.8567 292.221 10.6987 291.939 10.4173C291.658 10.136 291.5 9.75451 291.5 9.35669C291.5 8.95886 291.658 8.57733 291.939 8.29603C292.221 8.01472 292.602 7.85669 293 7.85669ZM293 25.8567C293.398 25.8567 293.779 26.0147 294.061 26.296C294.342 26.5773 294.5 26.9589 294.5 27.3567C294.5 27.7545 294.342 28.136 294.061 28.4174C293.779 28.6987 293.398 28.8567 293 28.8567C292.602 28.8567 292.221 28.6987 291.939 28.4174C291.658 28.136 291.5 27.7545 291.5 27.3567C291.5 26.9589 291.658 26.5773 291.939 26.296C292.221 26.0147 292.602 25.8567 293 25.8567ZM311 25.8567C311.398 25.8567 311.779 26.0147 312.061 26.296C312.342 26.5773 312.5 26.9589 312.5 27.3567C312.5 27.7545 312.342 28.136 312.061 28.4174C311.779 28.6987 311.398 28.8567 311 28.8567C310.602 28.8567 310.221 28.6987 309.939 28.4174C309.658 28.136 309.5 27.7545 309.5 27.3567C309.5 26.9589 309.658 26.5773 309.939 26.296C310.221 26.0147 310.602 25.8567 311 25.8567ZM311 7.85669C311.398 7.85669 311.779 8.01472 312.061 8.29603C312.342 8.57733 312.5 8.95886 312.5 9.35669C312.5 9.75451 312.342 10.136 312.061 10.4173C311.779 10.6987 311.398 10.8567 311 10.8567C310.602 10.8567 310.221 10.6987 309.939 10.4173C309.658 10.136 309.5 9.75451 309.5 9.35669C309.5 8.95886 309.658 8.57733 309.939 8.29603C310.221 8.01472 310.602 7.85669 311 7.85669Z" fill="black" fill-opacity="0.1"/>
</g>
<g clip-path="url(#clip9_58_1573)">
<path d="M320 0.356689H356V36.3567H320V0.356689Z" fill="white" fill-opacity="0.1"/>
<path d="M329 7.85669C329.398 7.85669 329.779 8.01472 330.061 8.29603C330.342 8.57733 330.5 8.95886 330.5 9.35669C330.5 9.75451 330.342 10.136 330.061 10.4173C329.779 10.6987 329.398 10.8567 329 10.8567C328.602 10.8567 328.221 10.6987 327.939 10.4173C327.658 10.136 327.5 9.75451 327.5 9.35669C327.5 8.95886 327.658 8.57733 327.939 8.29603C328.221 8.01472 328.602 7.85669 329 7.85669ZM329 25.8567C329.398 25.8567 329.779 26.0147 330.061 26.296C330.342 26.5773 330.5 26.9589 330.5 27.3567C330.5 27.7545 330.342 28.136 330.061 28.4174C329.779 28.6987 329.398 28.8567 329 28.8567C328.602 28.8567 328.221 28.6987 327.939 28.4174C327.658 28.136 327.5 27.7545 327.5 27.3567C327.5 26.9589 327.658 26.5773 327.939 26.296C328.221 26.0147 328.602 25.8567 329 25.8567ZM347 25.8567C347.398 25.8567 347.779 26.0147 348.061 26.296C348.342 26.5773 348.5 26.9589 348.5 27.3567C348.5 27.7545 348.342 28.136 348.061 28.4174C347.779 28.6987 347.398 28.8567 347 28.8567C346.602 28.8567 346.221 28.6987 345.939 28.4174C345.658 28.136 345.5 27.7545 345.5 27.3567C345.5 26.9589 345.658 26.5773 345.939 26.296C346.221 26.0147 346.602 25.8567 347 25.8567ZM347 7.85669C347.398 7.85669 347.779 8.01472 348.061 8.29603C348.342 8.57733 348.5 8.95886 348.5 9.35669C348.5 9.75451 348.342 10.136 348.061 10.4173C347.779 10.6987 347.398 10.8567 347 10.8567C346.602 10.8567 346.221 10.6987 345.939 10.4173C345.658 10.136 345.5 9.75451 345.5 9.35669C345.5 8.95886 345.658 8.57733 345.939 8.29603C346.221 8.01472 346.602 7.85669 347 7.85669Z" fill="black" fill-opacity="0.1"/>
</g>
<g clip-path="url(#clip10_58_1573)">
<path d="M356 0.356689H392V36.3567H356V0.356689Z" fill="white" fill-opacity="0.1"/>
<path d="M365 7.85669C365.398 7.85669 365.779 8.01472 366.061 8.29603C366.342 8.57733 366.5 8.95886 366.5 9.35669C366.5 9.75451 366.342 10.136 366.061 10.4173C365.779 10.6987 365.398 10.8567 365 10.8567C364.602 10.8567 364.221 10.6987 363.939 10.4173C363.658 10.136 363.5 9.75451 363.5 9.35669C363.5 8.95886 363.658 8.57733 363.939 8.29603C364.221 8.01472 364.602 7.85669 365 7.85669ZM365 25.8567C365.398 25.8567 365.779 26.0147 366.061 26.296C366.342 26.5773 366.5 26.9589 366.5 27.3567C366.5 27.7545 366.342 28.136 366.061 28.4174C365.779 28.6987 365.398 28.8567 365 28.8567C364.602 28.8567 364.221 28.6987 363.939 28.4174C363.658 28.136 363.5 27.7545 363.5 27.3567C363.5 26.9589 363.658 26.5773 363.939 26.296C364.221 26.0147 364.602 25.8567 365 25.8567ZM383 25.8567C383.398 25.8567 383.779 26.0147 384.061 26.296C384.342 26.5773 384.5 26.9589 384.5 27.3567C384.5 27.7545 384.342 28.136 384.061 28.4174C383.779 28.6987 383.398 28.8567 383 28.8567C382.602 28.8567 382.221 28.6987 381.939 28.4174C381.658 28.136 381.5 27.7545 381.5 27.3567C381.5 26.9589 381.658 26.5773 381.939 26.296C382.221 26.0147 382.602 25.8567 383 25.8567ZM383 7.85669C383.398 7.85669 383.779 8.01472 384.061 8.29603C384.342 8.57733 384.5 8.95886 384.5 9.35669C384.5 9.75451 384.342 10.136 384.061 10.4173C383.779 10.6987 383.398 10.8567 383 10.8567C382.602 10.8567 382.221 10.6987 381.939 10.4173C381.658 10.136 381.5 9.75451 381.5 9.35669C381.5 8.95886 381.658 8.57733 381.939 8.29603C382.221 8.01472 382.602 7.85669 383 7.85669Z" fill="black" fill-opacity="0.1"/>
</g>
<g clip-path="url(#clip11_58_1573)">
<path d="M392 0.356689H428V36.3567H392V0.356689Z" fill="white" fill-opacity="0.1"/>
<path d="M401 7.85669C401.398 7.85669 401.779 8.01472 402.061 8.29603C402.342 8.57733 402.5 8.95886 402.5 9.35669C402.5 9.75451 402.342 10.136 402.061 10.4173C401.779 10.6987 401.398 10.8567 401 10.8567C400.602 10.8567 400.221 10.6987 399.939 10.4173C399.658 10.136 399.5 9.75451 399.5 9.35669C399.5 8.95886 399.658 8.57733 399.939 8.29603C400.221 8.01472 400.602 7.85669 401 7.85669ZM401 25.8567C401.398 25.8567 401.779 26.0147 402.061 26.296C402.342 26.5773 402.5 26.9589 402.5 27.3567C402.5 27.7545 402.342 28.136 402.061 28.4174C401.779 28.6987 401.398 28.8567 401 28.8567C400.602 28.8567 400.221 28.6987 399.939 28.4174C399.658 28.136 399.5 27.7545 399.5 27.3567C399.5 26.9589 399.658 26.5773 399.939 26.296C400.221 26.0147 400.602 25.8567 401 25.8567ZM419 25.8567C419.398 25.8567 419.779 26.0147 420.061 26.296C420.342 26.5773 420.5 26.9589 420.5 27.3567C420.5 27.7545 420.342 28.136 420.061 28.4174C419.779 28.6987 419.398 28.8567 419 28.8567C418.602 28.8567 418.221 28.6987 417.939 28.4174C417.658 28.136 417.5 27.7545 417.5 27.3567C417.5 26.9589 417.658 26.5773 417.939 26.296C418.221 26.0147 418.602 25.8567 419 25.8567ZM419 7.85669C419.398 7.85669 419.779 8.01472 420.061 8.29603C420.342 8.57733 420.5 8.95886 420.5 9.35669C420.5 9.75451 420.342 10.136 420.061 10.4173C419.779 10.6987 419.398 10.8567 419 10.8567C418.602 10.8567 418.221 10.6987 417.939 10.4173C417.658 10.136 417.5 9.75451 417.5 9.35669C417.5 8.95886 417.658 8.57733 417.939 8.29603C418.221 8.01472 418.602 7.85669 419 7.85669Z" fill="black" fill-opacity="0.1"/>
</g>
<g clip-path="url(#clip12_58_1573)">
<path d="M428 0.356689H464V36.3567H428V0.356689Z" fill="white" fill-opacity="0.1"/>
<path d="M437 7.85669C437.398 7.85669 437.779 8.01472 438.061 8.29603C438.342 8.57733 438.5 8.95886 438.5 9.35669C438.5 9.75451 438.342 10.136 438.061 10.4173C437.779 10.6987 437.398 10.8567 437 10.8567C436.602 10.8567 436.221 10.6987 435.939 10.4173C435.658 10.136 435.5 9.75451 435.5 9.35669C435.5 8.95886 435.658 8.57733 435.939 8.29603C436.221 8.01472 436.602 7.85669 437 7.85669ZM437 25.8567C437.398 25.8567 437.779 26.0147 438.061 26.296C438.342 26.5773 438.5 26.9589 438.5 27.3567C438.5 27.7545 438.342 28.136 438.061 28.4174C437.779 28.6987 437.398 28.8567 437 28.8567C436.602 28.8567 436.221 28.6987 435.939 28.4174C435.658 28.136 435.5 27.7545 435.5 27.3567C435.5 26.9589 435.658 26.5773 435.939 26.296C436.221 26.0147 436.602 25.8567 437 25.8567ZM455 25.8567C455.398 25.8567 455.779 26.0147 456.061 26.296C456.342 26.5773 456.5 26.9589 456.5 27.3567C456.5 27.7545 456.342 28.136 456.061 28.4174C455.779 28.6987 455.398 28.8567 455 28.8567C454.602 28.8567 454.221 28.6987 453.939 28.4174C453.658 28.136 453.5 27.7545 453.5 27.3567C453.5 26.9589 453.658 26.5773 453.939 26.296C454.221 26.0147 454.602 25.8567 455 25.8567ZM455 7.85669C455.398 7.85669 455.779 8.01472 456.061 8.29603C456.342 8.57733 456.5 8.95886 456.5 9.35669C456.5 9.75451 456.342 10.136 456.061 10.4173C455.779 10.6987 455.398 10.8567 455 10.8567C454.602 10.8567 454.221 10.6987 453.939 10.4173C453.658 10.136 453.5 9.75451 453.5 9.35669C453.5 8.95886 453.658 8.57733 453.939 8.29603C454.221 8.01472 454.602 7.85669 455 7.85669Z" fill="black" fill-opacity="0.1"/>
</g>
<g clip-path="url(#clip13_58_1573)">
<path d="M464 0.356689H500V36.3567H464V0.356689Z" fill="white" fill-opacity="0.1"/>
<path d="M473 7.85669C473.398 7.85669 473.779 8.01472 474.061 8.29603C474.342 8.57733 474.5 8.95886 474.5 9.35669C474.5 9.75451 474.342 10.136 474.061 10.4173C473.779 10.6987 473.398 10.8567 473 10.8567C472.602 10.8567 472.221 10.6987 471.939 10.4173C471.658 10.136 471.5 9.75451 471.5 9.35669C471.5 8.95886 471.658 8.57733 471.939 8.29603C472.221 8.01472 472.602 7.85669 473 7.85669ZM473 25.8567C473.398 25.8567 473.779 26.0147 474.061 26.296C474.342 26.5773 474.5 26.9589 474.5 27.3567C474.5 27.7545 474.342 28.136 474.061 28.4174C473.779 28.6987 473.398 28.8567 473 28.8567C472.602 28.8567 472.221 28.6987 471.939 28.4174C471.658 28.136 471.5 27.7545 471.5 27.3567C471.5 26.9589 471.658 26.5773 471.939 26.296C472.221 26.0147 472.602 25.8567 473 25.8567ZM491 25.8567C491.398 25.8567 491.779 26.0147 492.061 26.296C492.342 26.5773 492.5 26.9589 492.5 27.3567C492.5 27.7545 492.342 28.136 492.061 28.4174C491.779 28.6987 491.398 28.8567 491 28.8567C490.602 28.8567 490.221 28.6987 489.939 28.4174C489.658 28.136 489.5 27.7545 489.5 27.3567C489.5 26.9589 489.658 26.5773 489.939 26.296C490.221 26.0147 490.602 25.8567 491 25.8567ZM491 7.85669C491.398 7.85669 491.779 8.01472 492.061 8.29603C492.342 8.57733 492.5 8.95886 492.5 9.35669C492.5 9.75451 492.342 10.136 492.061 10.4173C491.779 10.6987 491.398 10.8567 491 10.8567C490.602 10.8567 490.221 10.6987 489.939 10.4173C489.658 10.136 489.5 9.75451 489.5 9.35669C489.5 8.95886 489.658 8.57733 489.939 8.29603C490.221 8.01472 490.602 7.85669 491 7.85669Z" fill="black" fill-opacity="0.1"/>
</g>
<g clip-path="url(#clip14_58_1573)">
<path d="M500 0.356689H536V36.3567H500V0.356689Z" fill="white" fill-opacity="0.1"/>
<path d="M509 7.85669C509.398 7.85669 509.779 8.01472 510.061 8.29603C510.342 8.57733 510.5 8.95886 510.5 9.35669C510.5 9.75451 510.342 10.136 510.061 10.4173C509.779 10.6987 509.398 10.8567 509 10.8567C508.602 10.8567 508.221 10.6987 507.939 10.4173C507.658 10.136 507.5 9.75451 507.5 9.35669C507.5 8.95886 507.658 8.57733 507.939 8.29603C508.221 8.01472 508.602 7.85669 509 7.85669ZM509 25.8567C509.398 25.8567 509.779 26.0147 510.061 26.296C510.342 26.5773 510.5 26.9589 510.5 27.3567C510.5 27.7545 510.342 28.136 510.061 28.4174C509.779 28.6987 509.398 28.8567 509 28.8567C508.602 28.8567 508.221 28.6987 507.939 28.4174C507.658 28.136 507.5 27.7545 507.5 27.3567C507.5 26.9589 507.658 26.5773 507.939 26.296C508.221 26.0147 508.602 25.8567 509 25.8567ZM527 25.8567C527.398 25.8567 527.779 26.0147 528.061 26.296C528.342 26.5773 528.5 26.9589 528.5 27.3567C528.5 27.7545 528.342 28.136 528.061 28.4174C527.779 28.6987 527.398 28.8567 527 28.8567C526.602 28.8567 526.221 28.6987 525.939 28.4174C525.658 28.136 525.5 27.7545 525.5 27.3567C525.5 26.9589 525.658 26.5773 525.939 26.296C526.221 26.0147 526.602 25.8567 527 25.8567ZM527 7.85669C527.398 7.85669 527.779 8.01472 528.061 8.29603C528.342 8.57733 528.5 8.95886 528.5 9.35669C528.5 9.75451 528.342 10.136 528.061 10.4173C527.779 10.6987 527.398 10.8567 527 10.8567C526.602 10.8567 526.221 10.6987 525.939 10.4173C525.658 10.136 525.5 9.75451 525.5 9.35669C525.5 8.95886 525.658 8.57733 525.939 8.29603C526.221 8.01472 526.602 7.85669 527 7.85669Z" fill="black" fill-opacity="0.1"/>
</g>
<g clip-path="url(#clip15_58_1573)">
<path d="M536 0.356689H572V36.3567H536V0.356689Z" fill="white" fill-opacity="0.1"/>
<path d="M545 7.85669C545.398 7.85669 545.779 8.01472 546.061 8.29603C546.342 8.57733 546.5 8.95886 546.5 9.35669C546.5 9.75451 546.342 10.136 546.061 10.4173C545.779 10.6987 545.398 10.8567 545 10.8567C544.602 10.8567 544.221 10.6987 543.939 10.4173C543.658 10.136 543.5 9.75451 543.5 9.35669C543.5 8.95886 543.658 8.57733 543.939 8.29603C544.221 8.01472 544.602 7.85669 545 7.85669ZM545 25.8567C545.398 25.8567 545.779 26.0147 546.061 26.296C546.342 26.5773 546.5 26.9589 546.5 27.3567C546.5 27.7545 546.342 28.136 546.061 28.4174C545.779 28.6987 545.398 28.8567 545 28.8567C544.602 28.8567 544.221 28.6987 543.939 28.4174C543.658 28.136 543.5 27.7545 543.5 27.3567C543.5 26.9589 543.658 26.5773 543.939 26.296C544.221 26.0147 544.602 25.8567 545 25.8567ZM563 25.8567C563.398 25.8567 563.779 26.0147 564.061 26.296C564.342 26.5773 564.5 26.9589 564.5 27.3567C564.5 27.7545 564.342 28.136 564.061 28.4174C563.779 28.6987 563.398 28.8567 563 28.8567C562.602 28.8567 562.221 28.6987 561.939 28.4174C561.658 28.136 561.5 27.7545 561.5 27.3567C561.5 26.9589 561.658 26.5773 561.939 26.296C562.221 26.0147 562.602 25.8567 563 25.8567ZM563 7.85669C563.398 7.85669 563.779 8.01472 564.061 8.29603C564.342 8.57733 564.5 8.95886 564.5 9.35669C564.5 9.75451 564.342 10.136 564.061 10.4173C563.779 10.6987 563.398 10.8567 563 10.8567C562.602 10.8567 562.221 10.6987 561.939 10.4173C561.658 10.136 561.5 9.75451 561.5 9.35669C561.5 8.95886 561.658 8.57733 561.939 8.29603C562.221 8.01472 562.602 7.85669 563 7.85669Z" fill="black" fill-opacity="0.1"/>
</g>
<g clip-path="url(#clip16_58_1573)">
<path d="M572 0.356689H608V36.3567H572V0.356689Z" fill="white" fill-opacity="0.1"/>
<path d="M581 7.85669C581.398 7.85669 581.779 8.01472 582.061 8.29603C582.342 8.57733 582.5 8.95886 582.5 9.35669C582.5 9.75451 582.342 10.136 582.061 10.4173C581.779 10.6987 581.398 10.8567 581 10.8567C580.602 10.8567 580.221 10.6987 579.939 10.4173C579.658 10.136 579.5 9.75451 579.5 9.35669C579.5 8.95886 579.658 8.57733 579.939 8.29603C580.221 8.01472 580.602 7.85669 581 7.85669ZM581 25.8567C581.398 25.8567 581.779 26.0147 582.061 26.296C582.342 26.5773 582.5 26.9589 582.5 27.3567C582.5 27.7545 582.342 28.136 582.061 28.4174C581.779 28.6987 581.398 28.8567 581 28.8567C580.602 28.8567 580.221 28.6987 579.939 28.4174C579.658 28.136 579.5 27.7545 579.5 27.3567C579.5 26.9589 579.658 26.5773 579.939 26.296C580.221 26.0147 580.602 25.8567 581 25.8567ZM599 25.8567C599.398 25.8567 599.779 26.0147 600.061 26.296C600.342 26.5773 600.5 26.9589 600.5 27.3567C600.5 27.7545 600.342 28.136 600.061 28.4174C599.779 28.6987 599.398 28.8567 599 28.8567C598.602 28.8567 598.221 28.6987 597.939 28.4174C597.658 28.136 597.5 27.7545 597.5 27.3567C597.5 26.9589 597.658 26.5773 597.939 26.296C598.221 26.0147 598.602 25.8567 599 25.8567ZM599 7.85669C599.398 7.85669 599.779 8.01472 600.061 8.29603C600.342 8.57733 600.5 8.95886 600.5 9.35669C600.5 9.75451 600.342 10.136 600.061 10.4173C599.779 10.6987 599.398 10.8567 599 10.8567C598.602 10.8567 598.221 10.6987 597.939 10.4173C597.658 10.136 597.5 9.75451 597.5 9.35669C597.5 8.95886 597.658 8.57733 597.939 8.29603C598.221 8.01472 598.602 7.85669 599 7.85669Z" fill="black" fill-opacity="0.1"/>
</g>
<g clip-path="url(#clip17_58_1573)">
<path d="M608 0.356689H644V36.3567H608V0.356689Z" fill="white" fill-opacity="0.1"/>
<path d="M617 7.85669C617.398 7.85669 617.779 8.01472 618.061 8.29603C618.342 8.57733 618.5 8.95886 618.5 9.35669C618.5 9.75451 618.342 10.136 618.061 10.4173C617.779 10.6987 617.398 10.8567 617 10.8567C616.602 10.8567 616.221 10.6987 615.939 10.4173C615.658 10.136 615.5 9.75451 615.5 9.35669C615.5 8.95886 615.658 8.57733 615.939 8.29603C616.221 8.01472 616.602 7.85669 617 7.85669ZM617 25.8567C617.398 25.8567 617.779 26.0147 618.061 26.296C618.342 26.5773 618.5 26.9589 618.5 27.3567C618.5 27.7545 618.342 28.136 618.061 28.4174C617.779 28.6987 617.398 28.8567 617 28.8567C616.602 28.8567 616.221 28.6987 615.939 28.4174C615.658 28.136 615.5 27.7545 615.5 27.3567C615.5 26.9589 615.658 26.5773 615.939 26.296C616.221 26.0147 616.602 25.8567 617 25.8567ZM635 25.8567C635.398 25.8567 635.779 26.0147 636.061 26.296C636.342 26.5773 636.5 26.9589 636.5 27.3567C636.5 27.7545 636.342 28.136 636.061 28.4174C635.779 28.6987 635.398 28.8567 635 28.8567C634.602 28.8567 634.221 28.6987 633.939 28.4174C633.658 28.136 633.5 27.7545 633.5 27.3567C633.5 26.9589 633.658 26.5773 633.939 26.296C634.221 26.0147 634.602 25.8567 635 25.8567ZM635 7.85669C635.398 7.85669 635.779 8.01472 636.061 8.29603C636.342 8.57733 636.5 8.95886 636.5 9.35669C636.5 9.75451 636.342 10.136 636.061 10.4173C635.779 10.6987 635.398 10.8567 635 10.8567C634.602 10.8567 634.221 10.6987 633.939 10.4173C633.658 10.136 633.5 9.75451 633.5 9.35669C633.5 8.95886 633.658 8.57733 633.939 8.29603C634.221 8.01472 634.602 7.85669 635 7.85669Z" fill="black" fill-opacity="0.1"/>
</g>
<g clip-path="url(#clip18_58_1573)">
<path d="M644 0.356689H680V36.3567H644V0.356689Z" fill="white" fill-opacity="0.1"/>
<path d="M653 7.85669C653.398 7.85669 653.779 8.01472 654.061 8.29603C654.342 8.57733 654.5 8.95886 654.5 9.35669C654.5 9.75451 654.342 10.136 654.061 10.4173C653.779 10.6987 653.398 10.8567 653 10.8567C652.602 10.8567 652.221 10.6987 651.939 10.4173C651.658 10.136 651.5 9.75451 651.5 9.35669C651.5 8.95886 651.658 8.57733 651.939 8.29603C652.221 8.01472 652.602 7.85669 653 7.85669ZM653 25.8567C653.398 25.8567 653.779 26.0147 654.061 26.296C654.342 26.5773 654.5 26.9589 654.5 27.3567C654.5 27.7545 654.342 28.136 654.061 28.4174C653.779 28.6987 653.398 28.8567 653 28.8567C652.602 28.8567 652.221 28.6987 651.939 28.4174C651.658 28.136 651.5 27.7545 651.5 27.3567C651.5 26.9589 651.658 26.5773 651.939 26.296C652.221 26.0147 652.602 25.8567 653 25.8567ZM671 25.8567C671.398 25.8567 671.779 26.0147 672.061 26.296C672.342 26.5773 672.5 26.9589 672.5 27.3567C672.5 27.7545 672.342 28.136 672.061 28.4174C671.779 28.6987 671.398 28.8567 671 28.8567C670.602 28.8567 670.221 28.6987 669.939 28.4174C669.658 28.136 669.5 27.7545 669.5 27.3567C669.5 26.9589 669.658 26.5773 669.939 26.296C670.221 26.0147 670.602 25.8567 671 25.8567ZM671 7.85669C671.398 7.85669 671.779 8.01472 672.061 8.29603C672.342 8.57733 672.5 8.95886 672.5 9.35669C672.5 9.75451 672.342 10.136 672.061 10.4173C671.779 10.6987 671.398 10.8567 671 10.8567C670.602 10.8567 670.221 10.6987 669.939 10.4173C669.658 10.136 669.5 9.75451 669.5 9.35669C669.5 8.95886 669.658 8.57733 669.939 8.29603C670.221 8.01472 670.602 7.85669 671 7.85669Z" fill="black" fill-opacity="0.1"/>
</g>
<g clip-path="url(#clip19_58_1573)">
<path d="M680 0.356689H716V36.3567H680V0.356689Z" fill="white" fill-opacity="0.1"/>
<path d="M689 7.85669C689.398 7.85669 689.779 8.01472 690.061 8.29603C690.342 8.57733 690.5 8.95886 690.5 9.35669C690.5 9.75451 690.342 10.136 690.061 10.4173C689.779 10.6987 689.398 10.8567 689 10.8567C688.602 10.8567 688.221 10.6987 687.939 10.4173C687.658 10.136 687.5 9.75451 687.5 9.35669C687.5 8.95886 687.658 8.57733 687.939 8.29603C688.221 8.01472 688.602 7.85669 689 7.85669ZM689 25.8567C689.398 25.8567 689.779 26.0147 690.061 26.296C690.342 26.5773 690.5 26.9589 690.5 27.3567C690.5 27.7545 690.342 28.136 690.061 28.4174C689.779 28.6987 689.398 28.8567 689 28.8567C688.602 28.8567 688.221 28.6987 687.939 28.4174C687.658 28.136 687.5 27.7545 687.5 27.3567C687.5 26.9589 687.658 26.5773 687.939 26.296C688.221 26.0147 688.602 25.8567 689 25.8567ZM707 25.8567C707.398 25.8567 707.779 26.0147 708.061 26.296C708.342 26.5773 708.5 26.9589 708.5 27.3567C708.5 27.7545 708.342 28.136 708.061 28.4174C707.779 28.6987 707.398 28.8567 707 28.8567C706.602 28.8567 706.221 28.6987 705.939 28.4174C705.658 28.136 705.5 27.7545 705.5 27.3567C705.5 26.9589 705.658 26.5773 705.939 26.296C706.221 26.0147 706.602 25.8567 707 25.8567ZM707 7.85669C707.398 7.85669 707.779 8.01472 708.061 8.29603C708.342 8.57733 708.5 8.95886 708.5 9.35669C708.5 9.75451 708.342 10.136 708.061 10.4173C707.779 10.6987 707.398 10.8567 707 10.8567C706.602 10.8567 706.221 10.6987 705.939 10.4173C705.658 10.136 705.5 9.75451 705.5 9.35669C705.5 8.95886 705.658 8.57733 705.939 8.29603C706.221 8.01472 706.602 7.85669 707 7.85669Z" fill="black" fill-opacity="0.1"/>
</g>
<g clip-path="url(#clip20_58_1573)">
<path d="M716 0.356689H752V36.3567H716V0.356689Z" fill="white" fill-opacity="0.1"/>
<path d="M725 7.85669C725.398 7.85669 725.779 8.01472 726.061 8.29603C726.342 8.57733 726.5 8.95886 726.5 9.35669C726.5 9.75451 726.342 10.136 726.061 10.4173C725.779 10.6987 725.398 10.8567 725 10.8567C724.602 10.8567 724.221 10.6987 723.939 10.4173C723.658 10.136 723.5 9.75451 723.5 9.35669C723.5 8.95886 723.658 8.57733 723.939 8.29603C724.221 8.01472 724.602 7.85669 725 7.85669ZM725 25.8567C725.398 25.8567 725.779 26.0147 726.061 26.296C726.342 26.5773 726.5 26.9589 726.5 27.3567C726.5 27.7545 726.342 28.136 726.061 28.4174C725.779 28.6987 725.398 28.8567 725 28.8567C724.602 28.8567 724.221 28.6987 723.939 28.4174C723.658 28.136 723.5 27.7545 723.5 27.3567C723.5 26.9589 723.658 26.5773 723.939 26.296C724.221 26.0147 724.602 25.8567 725 25.8567ZM743 25.8567C743.398 25.8567 743.779 26.0147 744.061 26.296C744.342 26.5773 744.5 26.9589 744.5 27.3567C744.5 27.7545 744.342 28.136 744.061 28.4174C743.779 28.6987 743.398 28.8567 743 28.8567C742.602 28.8567 742.221 28.6987 741.939 28.4174C741.658 28.136 741.5 27.7545 741.5 27.3567C741.5 26.9589 741.658 26.5773 741.939 26.296C742.221 26.0147 742.602 25.8567 743 25.8567ZM743 7.85669C743.398 7.85669 743.779 8.01472 744.061 8.29603C744.342 8.57733 744.5 8.95886 744.5 9.35669C744.5 9.75451 744.342 10.136 744.061 10.4173C743.779 10.6987 743.398 10.8567 743 10.8567C742.602 10.8567 742.221 10.6987 741.939 10.4173C741.658 10.136 741.5 9.75451 741.5 9.35669C741.5 8.95886 741.658 8.57733 741.939 8.29603C742.221 8.01472 742.602 7.85669 743 7.85669Z" fill="black" fill-opacity="0.1"/>
</g>
<g clip-path="url(#clip21_58_1573)">
<path d="M752 0.356689H788V36.3567H752V0.356689Z" fill="white" fill-opacity="0.1"/>
<path d="M761 7.85669C761.398 7.85669 761.779 8.01472 762.061 8.29603C762.342 8.57733 762.5 8.95886 762.5 9.35669C762.5 9.75451 762.342 10.136 762.061 10.4173C761.779 10.6987 761.398 10.8567 761 10.8567C760.602 10.8567 760.221 10.6987 759.939 10.4173C759.658 10.136 759.5 9.75451 759.5 9.35669C759.5 8.95886 759.658 8.57733 759.939 8.29603C760.221 8.01472 760.602 7.85669 761 7.85669ZM761 25.8567C761.398 25.8567 761.779 26.0147 762.061 26.296C762.342 26.5773 762.5 26.9589 762.5 27.3567C762.5 27.7545 762.342 28.136 762.061 28.4174C761.779 28.6987 761.398 28.8567 761 28.8567C760.602 28.8567 760.221 28.6987 759.939 28.4174C759.658 28.136 759.5 27.7545 759.5 27.3567C759.5 26.9589 759.658 26.5773 759.939 26.296C760.221 26.0147 760.602 25.8567 761 25.8567ZM779 25.8567C779.398 25.8567 779.779 26.0147 780.061 26.296C780.342 26.5773 780.5 26.9589 780.5 27.3567C780.5 27.7545 780.342 28.136 780.061 28.4174C779.779 28.6987 779.398 28.8567 779 28.8567C778.602 28.8567 778.221 28.6987 777.939 28.4174C777.658 28.136 777.5 27.7545 777.5 27.3567C777.5 26.9589 777.658 26.5773 777.939 26.296C778.221 26.0147 778.602 25.8567 779 25.8567ZM779 7.85669C779.398 7.85669 779.779 8.01472 780.061 8.29603C780.342 8.57733 780.5 8.95886 780.5 9.35669C780.5 9.75451 780.342 10.136 780.061 10.4173C779.779 10.6987 779.398 10.8567 779 10.8567C778.602 10.8567 778.221 10.6987 777.939 10.4173C777.658 10.136 777.5 9.75451 777.5 9.35669C777.5 8.95886 777.658 8.57733 777.939 8.29603C778.221 8.01472 778.602 7.85669 779 7.85669Z" fill="black" fill-opacity="0.1"/>
</g>
<g clip-path="url(#clip22_58_1573)">
<path d="M788 0.356689H824V36.3567H788V0.356689Z" fill="white" fill-opacity="0.1"/>
<path d="M797 7.85669C797.398 7.85669 797.779 8.01472 798.061 8.29603C798.342 8.57733 798.5 8.95886 798.5 9.35669C798.5 9.75451 798.342 10.136 798.061 10.4173C797.779 10.6987 797.398 10.8567 797 10.8567C796.602 10.8567 796.221 10.6987 795.939 10.4173C795.658 10.136 795.5 9.75451 795.5 9.35669C795.5 8.95886 795.658 8.57733 795.939 8.29603C796.221 8.01472 796.602 7.85669 797 7.85669ZM797 25.8567C797.398 25.8567 797.779 26.0147 798.061 26.296C798.342 26.5773 798.5 26.9589 798.5 27.3567C798.5 27.7545 798.342 28.136 798.061 28.4174C797.779 28.6987 797.398 28.8567 797 28.8567C796.602 28.8567 796.221 28.6987 795.939 28.4174C795.658 28.136 795.5 27.7545 795.5 27.3567C795.5 26.9589 795.658 26.5773 795.939 26.296C796.221 26.0147 796.602 25.8567 797 25.8567ZM815 25.8567C815.398 25.8567 815.779 26.0147 816.061 26.296C816.342 26.5773 816.5 26.9589 816.5 27.3567C816.5 27.7545 816.342 28.136 816.061 28.4174C815.779 28.6987 815.398 28.8567 815 28.8567C814.602 28.8567 814.221 28.6987 813.939 28.4174C813.658 28.136 813.5 27.7545 813.5 27.3567C813.5 26.9589 813.658 26.5773 813.939 26.296C814.221 26.0147 814.602 25.8567 815 25.8567ZM815 7.85669C815.398 7.85669 815.779 8.01472 816.061 8.29603C816.342 8.57733 816.5 8.95886 816.5 9.35669C816.5 9.75451 816.342 10.136 816.061 10.4173C815.779 10.6987 815.398 10.8567 815 10.8567C814.602 10.8567 814.221 10.6987 813.939 10.4173C813.658 10.136 813.5 9.75451 813.5 9.35669C813.5 8.95886 813.658 8.57733 813.939 8.29603C814.221 8.01472 814.602 7.85669 815 7.85669Z" fill="black" fill-opacity="0.1"/>
</g>
<g clip-path="url(#clip23_58_1573)">
<path d="M824 0.356689H860V36.3567H824V0.356689Z" fill="white" fill-opacity="0.1"/>
<path d="M833 7.85669C833.398 7.85669 833.779 8.01472 834.061 8.29603C834.342 8.57733 834.5 8.95886 834.5 9.35669C834.5 9.75451 834.342 10.136 834.061 10.4173C833.779 10.6987 833.398 10.8567 833 10.8567C832.602 10.8567 832.221 10.6987 831.939 10.4173C831.658 10.136 831.5 9.75451 831.5 9.35669C831.5 8.95886 831.658 8.57733 831.939 8.29603C832.221 8.01472 832.602 7.85669 833 7.85669ZM833 25.8567C833.398 25.8567 833.779 26.0147 834.061 26.296C834.342 26.5773 834.5 26.9589 834.5 27.3567C834.5 27.7545 834.342 28.136 834.061 28.4174C833.779 28.6987 833.398 28.8567 833 28.8567C832.602 28.8567 832.221 28.6987 831.939 28.4174C831.658 28.136 831.5 27.7545 831.5 27.3567C831.5 26.9589 831.658 26.5773 831.939 26.296C832.221 26.0147 832.602 25.8567 833 25.8567ZM851 25.8567C851.398 25.8567 851.779 26.0147 852.061 26.296C852.342 26.5773 852.5 26.9589 852.5 27.3567C852.5 27.7545 852.342 28.136 852.061 28.4174C851.779 28.6987 851.398 28.8567 851 28.8567C850.602 28.8567 850.221 28.6987 849.939 28.4174C849.658 28.136 849.5 27.7545 849.5 27.3567C849.5 26.9589 849.658 26.5773 849.939 26.296C850.221 26.0147 850.602 25.8567 851 25.8567ZM851 7.85669C851.398 7.85669 851.779 8.01472 852.061 8.29603C852.342 8.57733 852.5 8.95886 852.5 9.35669C852.5 9.75451 852.342 10.136 852.061 10.4173C851.779 10.6987 851.398 10.8567 851 10.8567C850.602 10.8567 850.221 10.6987 849.939 10.4173C849.658 10.136 849.5 9.75451 849.5 9.35669C849.5 8.95886 849.658 8.57733 849.939 8.29603C850.221 8.01472 850.602 7.85669 851 7.85669Z" fill="black" fill-opacity="0.1"/>
</g>
<g clip-path="url(#clip24_58_1573)">
<path d="M860 0.356689H896V36.3567H860V0.356689Z" fill="white" fill-opacity="0.1"/>
<path d="M869 7.85669C869.398 7.85669 869.779 8.01472 870.061 8.29603C870.342 8.57733 870.5 8.95886 870.5 9.35669C870.5 9.75451 870.342 10.136 870.061 10.4173C869.779 10.6987 869.398 10.8567 869 10.8567C868.602 10.8567 868.221 10.6987 867.939 10.4173C867.658 10.136 867.5 9.75451 867.5 9.35669C867.5 8.95886 867.658 8.57733 867.939 8.29603C868.221 8.01472 868.602 7.85669 869 7.85669ZM869 25.8567C869.398 25.8567 869.779 26.0147 870.061 26.296C870.342 26.5773 870.5 26.9589 870.5 27.3567C870.5 27.7545 870.342 28.136 870.061 28.4174C869.779 28.6987 869.398 28.8567 869 28.8567C868.602 28.8567 868.221 28.6987 867.939 28.4174C867.658 28.136 867.5 27.7545 867.5 27.3567C867.5 26.9589 867.658 26.5773 867.939 26.296C868.221 26.0147 868.602 25.8567 869 25.8567ZM887 25.8567C887.398 25.8567 887.779 26.0147 888.061 26.296C888.342 26.5773 888.5 26.9589 888.5 27.3567C888.5 27.7545 888.342 28.136 888.061 28.4174C887.779 28.6987 887.398 28.8567 887 28.8567C886.602 28.8567 886.221 28.6987 885.939 28.4174C885.658 28.136 885.5 27.7545 885.5 27.3567C885.5 26.9589 885.658 26.5773 885.939 26.296C886.221 26.0147 886.602 25.8567 887 25.8567ZM887 7.85669C887.398 7.85669 887.779 8.01472 888.061 8.29603C888.342 8.57733 888.5 8.95886 888.5 9.35669C888.5 9.75451 888.342 10.136 888.061 10.4173C887.779 10.6987 887.398 10.8567 887 10.8567C886.602 10.8567 886.221 10.6987 885.939 10.4173C885.658 10.136 885.5 9.75451 885.5 9.35669C885.5 8.95886 885.658 8.57733 885.939 8.29603C886.221 8.01472 886.602 7.85669 887 7.85669Z" fill="black" fill-opacity="0.1"/>
</g>
<g clip-path="url(#clip25_58_1573)">
<path d="M896 0.356689H932V36.3567H896V0.356689Z" fill="white" fill-opacity="0.1"/>
<path d="M905 7.85669C905.398 7.85669 905.779 8.01472 906.061 8.29603C906.342 8.57733 906.5 8.95886 906.5 9.35669C906.5 9.75451 906.342 10.136 906.061 10.4173C905.779 10.6987 905.398 10.8567 905 10.8567C904.602 10.8567 904.221 10.6987 903.939 10.4173C903.658 10.136 903.5 9.75451 903.5 9.35669C903.5 8.95886 903.658 8.57733 903.939 8.29603C904.221 8.01472 904.602 7.85669 905 7.85669ZM905 25.8567C905.398 25.8567 905.779 26.0147 906.061 26.296C906.342 26.5773 906.5 26.9589 906.5 27.3567C906.5 27.7545 906.342 28.136 906.061 28.4174C905.779 28.6987 905.398 28.8567 905 28.8567C904.602 28.8567 904.221 28.6987 903.939 28.4174C903.658 28.136 903.5 27.7545 903.5 27.3567C903.5 26.9589 903.658 26.5773 903.939 26.296C904.221 26.0147 904.602 25.8567 905 25.8567ZM923 25.8567C923.398 25.8567 923.779 26.0147 924.061 26.296C924.342 26.5773 924.5 26.9589 924.5 27.3567C924.5 27.7545 924.342 28.136 924.061 28.4174C923.779 28.6987 923.398 28.8567 923 28.8567C922.602 28.8567 922.221 28.6987 921.939 28.4174C921.658 28.136 921.5 27.7545 921.5 27.3567C921.5 26.9589 921.658 26.5773 921.939 26.296C922.221 26.0147 922.602 25.8567 923 25.8567ZM923 7.85669C923.398 7.85669 923.779 8.01472 924.061 8.29603C924.342 8.57733 924.5 8.95886 924.5 9.35669C924.5 9.75451 924.342 10.136 924.061 10.4173C923.779 10.6987 923.398 10.8567 923 10.8567C922.602 10.8567 922.221 10.6987 921.939 10.4173C921.658 10.136 921.5 9.75451 921.5 9.35669C921.5 8.95886 921.658 8.57733 921.939 8.29603C922.221 8.01472 922.602 7.85669 923 7.85669Z" fill="black" fill-opacity="0.1"/>
</g>
<g clip-path="url(#clip26_58_1573)">
<path d="M932 0.356689H968V36.3567H932V0.356689Z" fill="white" fill-opacity="0.1"/>
<path d="M941 7.85669C941.398 7.85669 941.779 8.01472 942.061 8.29603C942.342 8.57733 942.5 8.95886 942.5 9.35669C942.5 9.75451 942.342 10.136 942.061 10.4173C941.779 10.6987 941.398 10.8567 941 10.8567C940.602 10.8567 940.221 10.6987 939.939 10.4173C939.658 10.136 939.5 9.75451 939.5 9.35669C939.5 8.95886 939.658 8.57733 939.939 8.29603C940.221 8.01472 940.602 7.85669 941 7.85669ZM941 25.8567C941.398 25.8567 941.779 26.0147 942.061 26.296C942.342 26.5773 942.5 26.9589 942.5 27.3567C942.5 27.7545 942.342 28.136 942.061 28.4174C941.779 28.6987 941.398 28.8567 941 28.8567C940.602 28.8567 940.221 28.6987 939.939 28.4174C939.658 28.136 939.5 27.7545 939.5 27.3567C939.5 26.9589 939.658 26.5773 939.939 26.296C940.221 26.0147 940.602 25.8567 941 25.8567ZM959 25.8567C959.398 25.8567 959.779 26.0147 960.061 26.296C960.342 26.5773 960.5 26.9589 960.5 27.3567C960.5 27.7545 960.342 28.136 960.061 28.4174C959.779 28.6987 959.398 28.8567 959 28.8567C958.602 28.8567 958.221 28.6987 957.939 28.4174C957.658 28.136 957.5 27.7545 957.5 27.3567C957.5 26.9589 957.658 26.5773 957.939 26.296C958.221 26.0147 958.602 25.8567 959 25.8567ZM959 7.85669C959.398 7.85669 959.779 8.01472 960.061 8.29603C960.342 8.57733 960.5 8.95886 960.5 9.35669C960.5 9.75451 960.342 10.136 960.061 10.4173C959.779 10.6987 959.398 10.8567 959 10.8567C958.602 10.8567 958.221 10.6987 957.939 10.4173C957.658 10.136 957.5 9.75451 957.5 9.35669C957.5 8.95886 957.658 8.57733 957.939 8.29603C958.221 8.01472 958.602 7.85669 959 7.85669Z" fill="black" fill-opacity="0.1"/>
</g>
<g clip-path="url(#clip27_58_1573)">
<path d="M968 0.356689H1004V36.3567H968V0.356689Z" fill="white" fill-opacity="0.1"/>
<path d="M977 7.85669C977.398 7.85669 977.779 8.01472 978.061 8.29603C978.342 8.57733 978.5 8.95886 978.5 9.35669C978.5 9.75451 978.342 10.136 978.061 10.4173C977.779 10.6987 977.398 10.8567 977 10.8567C976.602 10.8567 976.221 10.6987 975.939 10.4173C975.658 10.136 975.5 9.75451 975.5 9.35669C975.5 8.95886 975.658 8.57733 975.939 8.29603C976.221 8.01472 976.602 7.85669 977 7.85669ZM977 25.8567C977.398 25.8567 977.779 26.0147 978.061 26.296C978.342 26.5773 978.5 26.9589 978.5 27.3567C978.5 27.7545 978.342 28.136 978.061 28.4174C977.779 28.6987 977.398 28.8567 977 28.8567C976.602 28.8567 976.221 28.6987 975.939 28.4174C975.658 28.136 975.5 27.7545 975.5 27.3567C975.5 26.9589 975.658 26.5773 975.939 26.296C976.221 26.0147 976.602 25.8567 977 25.8567ZM995 25.8567C995.398 25.8567 995.779 26.0147 996.061 26.296C996.342 26.5773 996.5 26.9589 996.5 27.3567C996.5 27.7545 996.342 28.136 996.061 28.4174C995.779 28.6987 995.398 28.8567 995 28.8567C994.602 28.8567 994.221 28.6987 993.939 28.4174C993.658 28.136 993.5 27.7545 993.5 27.3567C993.5 26.9589 993.658 26.5773 993.939 26.296C994.221 26.0147 994.602 25.8567 995 25.8567ZM995 7.85669C995.398 7.85669 995.779 8.01472 996.061 8.29603C996.342 8.57733 996.5 8.95886 996.5 9.35669C996.5 9.75451 996.342 10.136 996.061 10.4173C995.779 10.6987 995.398 10.8567 995 10.8567C994.602 10.8567 994.221 10.6987 993.939 10.4173C993.658 10.136 993.5 9.75451 993.5 9.35669C993.5 8.95886 993.658 8.57733 993.939 8.29603C994.221 8.01472 994.602 7.85669 995 7.85669Z" fill="black" fill-opacity="0.1"/>
</g>
<g clip-path="url(#clip28_58_1573)">
<path d="M1004 0.356689H1040V36.3567H1004V0.356689Z" fill="white" fill-opacity="0.1"/>
<path d="M1013 7.85669C1013.4 7.85669 1013.78 8.01472 1014.06 8.29603C1014.34 8.57733 1014.5 8.95886 1014.5 9.35669C1014.5 9.75451 1014.34 10.136 1014.06 10.4173C1013.78 10.6987 1013.4 10.8567 1013 10.8567C1012.6 10.8567 1012.22 10.6987 1011.94 10.4173C1011.66 10.136 1011.5 9.75451 1011.5 9.35669C1011.5 8.95886 1011.66 8.57733 1011.94 8.29603C1012.22 8.01472 1012.6 7.85669 1013 7.85669ZM1013 25.8567C1013.4 25.8567 1013.78 26.0147 1014.06 26.296C1014.34 26.5773 1014.5 26.9589 1014.5 27.3567C1014.5 27.7545 1014.34 28.136 1014.06 28.4174C1013.78 28.6987 1013.4 28.8567 1013 28.8567C1012.6 28.8567 1012.22 28.6987 1011.94 28.4174C1011.66 28.136 1011.5 27.7545 1011.5 27.3567C1011.5 26.9589 1011.66 26.5773 1011.94 26.296C1012.22 26.0147 1012.6 25.8567 1013 25.8567ZM1031 25.8567C1031.4 25.8567 1031.78 26.0147 1032.06 26.296C1032.34 26.5773 1032.5 26.9589 1032.5 27.3567C1032.5 27.7545 1032.34 28.136 1032.06 28.4174C1031.78 28.6987 1031.4 28.8567 1031 28.8567C1030.6 28.8567 1030.22 28.6987 1029.94 28.4174C1029.66 28.136 1029.5 27.7545 1029.5 27.3567C1029.5 26.9589 1029.66 26.5773 1029.94 26.296C1030.22 26.0147 1030.6 25.8567 1031 25.8567ZM1031 7.85669C1031.4 7.85669 1031.78 8.01472 1032.06 8.29603C1032.34 8.57733 1032.5 8.95886 1032.5 9.35669C1032.5 9.75451 1032.34 10.136 1032.06 10.4173C1031.78 10.6987 1031.4 10.8567 1031 10.8567C1030.6 10.8567 1030.22 10.6987 1029.94 10.4173C1029.66 10.136 1029.5 9.75451 1029.5 9.35669C1029.5 8.95886 1029.66 8.57733 1029.94 8.29603C1030.22 8.01472 1030.6 7.85669 1031 7.85669Z" fill="black" fill-opacity="0.1"/>
</g>
<g clip-path="url(#clip29_58_1573)">
<path d="M1040 0.356689H1076V36.3567H1040V0.356689Z" fill="white" fill-opacity="0.1"/>
<path d="M1049 7.85669C1049.4 7.85669 1049.78 8.01472 1050.06 8.29603C1050.34 8.57733 1050.5 8.95886 1050.5 9.35669C1050.5 9.75451 1050.34 10.136 1050.06 10.4173C1049.78 10.6987 1049.4 10.8567 1049 10.8567C1048.6 10.8567 1048.22 10.6987 1047.94 10.4173C1047.66 10.136 1047.5 9.75451 1047.5 9.35669C1047.5 8.95886 1047.66 8.57733 1047.94 8.29603C1048.22 8.01472 1048.6 7.85669 1049 7.85669ZM1049 25.8567C1049.4 25.8567 1049.78 26.0147 1050.06 26.296C1050.34 26.5773 1050.5 26.9589 1050.5 27.3567C1050.5 27.7545 1050.34 28.136 1050.06 28.4174C1049.78 28.6987 1049.4 28.8567 1049 28.8567C1048.6 28.8567 1048.22 28.6987 1047.94 28.4174C1047.66 28.136 1047.5 27.7545 1047.5 27.3567C1047.5 26.9589 1047.66 26.5773 1047.94 26.296C1048.22 26.0147 1048.6 25.8567 1049 25.8567ZM1067 25.8567C1067.4 25.8567 1067.78 26.0147 1068.06 26.296C1068.34 26.5773 1068.5 26.9589 1068.5 27.3567C1068.5 27.7545 1068.34 28.136 1068.06 28.4174C1067.78 28.6987 1067.4 28.8567 1067 28.8567C1066.6 28.8567 1066.22 28.6987 1065.94 28.4174C1065.66 28.136 1065.5 27.7545 1065.5 27.3567C1065.5 26.9589 1065.66 26.5773 1065.94 26.296C1066.22 26.0147 1066.6 25.8567 1067 25.8567ZM1067 7.85669C1067.4 7.85669 1067.78 8.01472 1068.06 8.29603C1068.34 8.57733 1068.5 8.95886 1068.5 9.35669C1068.5 9.75451 1068.34 10.136 1068.06 10.4173C1067.78 10.6987 1067.4 10.8567 1067 10.8567C1066.6 10.8567 1066.22 10.6987 1065.94 10.4173C1065.66 10.136 1065.5 9.75451 1065.5 9.35669C1065.5 8.95886 1065.66 8.57733 1065.94 8.29603C1066.22 8.01472 1066.6 7.85669 1067 7.85669Z" fill="black" fill-opacity="0.1"/>
</g>
<g clip-path="url(#clip30_58_1573)">
<path d="M1076 0.356689H1112V36.3567H1076V0.356689Z" fill="white" fill-opacity="0.1"/>
<path d="M1085 7.85669C1085.4 7.85669 1085.78 8.01472 1086.06 8.29603C1086.34 8.57733 1086.5 8.95886 1086.5 9.35669C1086.5 9.75451 1086.34 10.136 1086.06 10.4173C1085.78 10.6987 1085.4 10.8567 1085 10.8567C1084.6 10.8567 1084.22 10.6987 1083.94 10.4173C1083.66 10.136 1083.5 9.75451 1083.5 9.35669C1083.5 8.95886 1083.66 8.57733 1083.94 8.29603C1084.22 8.01472 1084.6 7.85669 1085 7.85669ZM1085 25.8567C1085.4 25.8567 1085.78 26.0147 1086.06 26.296C1086.34 26.5773 1086.5 26.9589 1086.5 27.3567C1086.5 27.7545 1086.34 28.136 1086.06 28.4174C1085.78 28.6987 1085.4 28.8567 1085 28.8567C1084.6 28.8567 1084.22 28.6987 1083.94 28.4174C1083.66 28.136 1083.5 27.7545 1083.5 27.3567C1083.5 26.9589 1083.66 26.5773 1083.94 26.296C1084.22 26.0147 1084.6 25.8567 1085 25.8567ZM1103 25.8567C1103.4 25.8567 1103.78 26.0147 1104.06 26.296C1104.34 26.5773 1104.5 26.9589 1104.5 27.3567C1104.5 27.7545 1104.34 28.136 1104.06 28.4174C1103.78 28.6987 1103.4 28.8567 1103 28.8567C1102.6 28.8567 1102.22 28.6987 1101.94 28.4174C1101.66 28.136 1101.5 27.7545 1101.5 27.3567C1101.5 26.9589 1101.66 26.5773 1101.94 26.296C1102.22 26.0147 1102.6 25.8567 1103 25.8567ZM1103 7.85669C1103.4 7.85669 1103.78 8.01472 1104.06 8.29603C1104.34 8.57733 1104.5 8.95886 1104.5 9.35669C1104.5 9.75451 1104.34 10.136 1104.06 10.4173C1103.78 10.6987 1103.4 10.8567 1103 10.8567C1102.6 10.8567 1102.22 10.6987 1101.94 10.4173C1101.66 10.136 1101.5 9.75451 1101.5 9.35669C1101.5 8.95886 1101.66 8.57733 1101.94 8.29603C1102.22 8.01472 1102.6 7.85669 1103 7.85669Z" fill="black" fill-opacity="0.1"/>
</g>
<g clip-path="url(#clip31_58_1573)">
<path d="M1112 0.356689H1148V36.3567H1112V0.356689Z" fill="white" fill-opacity="0.1"/>
<path d="M1121 7.85669C1121.4 7.85669 1121.78 8.01472 1122.06 8.29603C1122.34 8.57733 1122.5 8.95886 1122.5 9.35669C1122.5 9.75451 1122.34 10.136 1122.06 10.4173C1121.78 10.6987 1121.4 10.8567 1121 10.8567C1120.6 10.8567 1120.22 10.6987 1119.94 10.4173C1119.66 10.136 1119.5 9.75451 1119.5 9.35669C1119.5 8.95886 1119.66 8.57733 1119.94 8.29603C1120.22 8.01472 1120.6 7.85669 1121 7.85669ZM1121 25.8567C1121.4 25.8567 1121.78 26.0147 1122.06 26.296C1122.34 26.5773 1122.5 26.9589 1122.5 27.3567C1122.5 27.7545 1122.34 28.136 1122.06 28.4174C1121.78 28.6987 1121.4 28.8567 1121 28.8567C1120.6 28.8567 1120.22 28.6987 1119.94 28.4174C1119.66 28.136 1119.5 27.7545 1119.5 27.3567C1119.5 26.9589 1119.66 26.5773 1119.94 26.296C1120.22 26.0147 1120.6 25.8567 1121 25.8567ZM1139 25.8567C1139.4 25.8567 1139.78 26.0147 1140.06 26.296C1140.34 26.5773 1140.5 26.9589 1140.5 27.3567C1140.5 27.7545 1140.34 28.136 1140.06 28.4174C1139.78 28.6987 1139.4 28.8567 1139 28.8567C1138.6 28.8567 1138.22 28.6987 1137.94 28.4174C1137.66 28.136 1137.5 27.7545 1137.5 27.3567C1137.5 26.9589 1137.66 26.5773 1137.94 26.296C1138.22 26.0147 1138.6 25.8567 1139 25.8567ZM1139 7.85669C1139.4 7.85669 1139.78 8.01472 1140.06 8.29603C1140.34 8.57733 1140.5 8.95886 1140.5 9.35669C1140.5 9.75451 1140.34 10.136 1140.06 10.4173C1139.78 10.6987 1139.4 10.8567 1139 10.8567C1138.6 10.8567 1138.22 10.6987 1137.94 10.4173C1137.66 10.136 1137.5 9.75451 1137.5 9.35669C1137.5 8.95886 1137.66 8.57733 1137.94 8.29603C1138.22 8.01472 1138.6 7.85669 1139 7.85669Z" fill="black" fill-opacity="0.1"/>
</g>
<g clip-path="url(#clip32_58_1573)">
<path d="M1148 0.356689H1184V36.3567H1148V0.356689Z" fill="white" fill-opacity="0.1"/>
<path d="M1157 7.85669C1157.4 7.85669 1157.78 8.01472 1158.06 8.29603C1158.34 8.57733 1158.5 8.95886 1158.5 9.35669C1158.5 9.75451 1158.34 10.136 1158.06 10.4173C1157.78 10.6987 1157.4 10.8567 1157 10.8567C1156.6 10.8567 1156.22 10.6987 1155.94 10.4173C1155.66 10.136 1155.5 9.75451 1155.5 9.35669C1155.5 8.95886 1155.66 8.57733 1155.94 8.29603C1156.22 8.01472 1156.6 7.85669 1157 7.85669ZM1157 25.8567C1157.4 25.8567 1157.78 26.0147 1158.06 26.296C1158.34 26.5773 1158.5 26.9589 1158.5 27.3567C1158.5 27.7545 1158.34 28.136 1158.06 28.4174C1157.78 28.6987 1157.4 28.8567 1157 28.8567C1156.6 28.8567 1156.22 28.6987 1155.94 28.4174C1155.66 28.136 1155.5 27.7545 1155.5 27.3567C1155.5 26.9589 1155.66 26.5773 1155.94 26.296C1156.22 26.0147 1156.6 25.8567 1157 25.8567ZM1175 25.8567C1175.4 25.8567 1175.78 26.0147 1176.06 26.296C1176.34 26.5773 1176.5 26.9589 1176.5 27.3567C1176.5 27.7545 1176.34 28.136 1176.06 28.4174C1175.78 28.6987 1175.4 28.8567 1175 28.8567C1174.6 28.8567 1174.22 28.6987 1173.94 28.4174C1173.66 28.136 1173.5 27.7545 1173.5 27.3567C1173.5 26.9589 1173.66 26.5773 1173.94 26.296C1174.22 26.0147 1174.6 25.8567 1175 25.8567ZM1175 7.85669C1175.4 7.85669 1175.78 8.01472 1176.06 8.29603C1176.34 8.57733 1176.5 8.95886 1176.5 9.35669C1176.5 9.75451 1176.34 10.136 1176.06 10.4173C1175.78 10.6987 1175.4 10.8567 1175 10.8567C1174.6 10.8567 1174.22 10.6987 1173.94 10.4173C1173.66 10.136 1173.5 9.75451 1173.5 9.35669C1173.5 8.95886 1173.66 8.57733 1173.94 8.29603C1174.22 8.01472 1174.6 7.85669 1175 7.85669Z" fill="black" fill-opacity="0.1"/>
</g>
<g clip-path="url(#clip33_58_1573)">
<path d="M1184 0.356689H1220V36.3567H1184V0.356689Z" fill="white" fill-opacity="0.1"/>
<path d="M1193 7.85669C1193.4 7.85669 1193.78 8.01472 1194.06 8.29603C1194.34 8.57733 1194.5 8.95886 1194.5 9.35669C1194.5 9.75451 1194.34 10.136 1194.06 10.4173C1193.78 10.6987 1193.4 10.8567 1193 10.8567C1192.6 10.8567 1192.22 10.6987 1191.94 10.4173C1191.66 10.136 1191.5 9.75451 1191.5 9.35669C1191.5 8.95886 1191.66 8.57733 1191.94 8.29603C1192.22 8.01472 1192.6 7.85669 1193 7.85669ZM1193 25.8567C1193.4 25.8567 1193.78 26.0147 1194.06 26.296C1194.34 26.5773 1194.5 26.9589 1194.5 27.3567C1194.5 27.7545 1194.34 28.136 1194.06 28.4174C1193.78 28.6987 1193.4 28.8567 1193 28.8567C1192.6 28.8567 1192.22 28.6987 1191.94 28.4174C1191.66 28.136 1191.5 27.7545 1191.5 27.3567C1191.5 26.9589 1191.66 26.5773 1191.94 26.296C1192.22 26.0147 1192.6 25.8567 1193 25.8567ZM1211 25.8567C1211.4 25.8567 1211.78 26.0147 1212.06 26.296C1212.34 26.5773 1212.5 26.9589 1212.5 27.3567C1212.5 27.7545 1212.34 28.136 1212.06 28.4174C1211.78 28.6987 1211.4 28.8567 1211 28.8567C1210.6 28.8567 1210.22 28.6987 1209.94 28.4174C1209.66 28.136 1209.5 27.7545 1209.5 27.3567C1209.5 26.9589 1209.66 26.5773 1209.94 26.296C1210.22 26.0147 1210.6 25.8567 1211 25.8567ZM1211 7.85669C1211.4 7.85669 1211.78 8.01472 1212.06 8.29603C1212.34 8.57733 1212.5 8.95886 1212.5 9.35669C1212.5 9.75451 1212.34 10.136 1212.06 10.4173C1211.78 10.6987 1211.4 10.8567 1211 10.8567C1210.6 10.8567 1210.22 10.6987 1209.94 10.4173C1209.66 10.136 1209.5 9.75451 1209.5 9.35669C1209.5 8.95886 1209.66 8.57733 1209.94 8.29603C1210.22 8.01472 1210.6 7.85669 1211 7.85669Z" fill="black" fill-opacity="0.1"/>
</g>
<g clip-path="url(#clip34_58_1573)">
<path d="M1220 0.356689H1256V36.3567H1220V0.356689Z" fill="white" fill-opacity="0.1"/>
<path d="M1229 7.85669C1229.4 7.85669 1229.78 8.01472 1230.06 8.29603C1230.34 8.57733 1230.5 8.95886 1230.5 9.35669C1230.5 9.75451 1230.34 10.136 1230.06 10.4173C1229.78 10.6987 1229.4 10.8567 1229 10.8567C1228.6 10.8567 1228.22 10.6987 1227.94 10.4173C1227.66 10.136 1227.5 9.75451 1227.5 9.35669C1227.5 8.95886 1227.66 8.57733 1227.94 8.29603C1228.22 8.01472 1228.6 7.85669 1229 7.85669ZM1229 25.8567C1229.4 25.8567 1229.78 26.0147 1230.06 26.296C1230.34 26.5773 1230.5 26.9589 1230.5 27.3567C1230.5 27.7545 1230.34 28.136 1230.06 28.4174C1229.78 28.6987 1229.4 28.8567 1229 28.8567C1228.6 28.8567 1228.22 28.6987 1227.94 28.4174C1227.66 28.136 1227.5 27.7545 1227.5 27.3567C1227.5 26.9589 1227.66 26.5773 1227.94 26.296C1228.22 26.0147 1228.6 25.8567 1229 25.8567ZM1247 25.8567C1247.4 25.8567 1247.78 26.0147 1248.06 26.296C1248.34 26.5773 1248.5 26.9589 1248.5 27.3567C1248.5 27.7545 1248.34 28.136 1248.06 28.4174C1247.78 28.6987 1247.4 28.8567 1247 28.8567C1246.6 28.8567 1246.22 28.6987 1245.94 28.4174C1245.66 28.136 1245.5 27.7545 1245.5 27.3567C1245.5 26.9589 1245.66 26.5773 1245.94 26.296C1246.22 26.0147 1246.6 25.8567 1247 25.8567ZM1247 7.85669C1247.4 7.85669 1247.78 8.01472 1248.06 8.29603C1248.34 8.57733 1248.5 8.95886 1248.5 9.35669C1248.5 9.75451 1248.34 10.136 1248.06 10.4173C1247.78 10.6987 1247.4 10.8567 1247 10.8567C1246.6 10.8567 1246.22 10.6987 1245.94 10.4173C1245.66 10.136 1245.5 9.75451 1245.5 9.35669C1245.5 8.95886 1245.66 8.57733 1245.94 8.29603C1246.22 8.01472 1246.6 7.85669 1247 7.85669Z" fill="black" fill-opacity="0.1"/>
</g>
<g clip-path="url(#clip35_58_1573)">
<path d="M1256 0.356689H1292V36.3567H1256V0.356689Z" fill="white" fill-opacity="0.1"/>
<path d="M1265 7.85669C1265.4 7.85669 1265.78 8.01472 1266.06 8.29603C1266.34 8.57733 1266.5 8.95886 1266.5 9.35669C1266.5 9.75451 1266.34 10.136 1266.06 10.4173C1265.78 10.6987 1265.4 10.8567 1265 10.8567C1264.6 10.8567 1264.22 10.6987 1263.94 10.4173C1263.66 10.136 1263.5 9.75451 1263.5 9.35669C1263.5 8.95886 1263.66 8.57733 1263.94 8.29603C1264.22 8.01472 1264.6 7.85669 1265 7.85669ZM1265 25.8567C1265.4 25.8567 1265.78 26.0147 1266.06 26.296C1266.34 26.5773 1266.5 26.9589 1266.5 27.3567C1266.5 27.7545 1266.34 28.136 1266.06 28.4174C1265.78 28.6987 1265.4 28.8567 1265 28.8567C1264.6 28.8567 1264.22 28.6987 1263.94 28.4174C1263.66 28.136 1263.5 27.7545 1263.5 27.3567C1263.5 26.9589 1263.66 26.5773 1263.94 26.296C1264.22 26.0147 1264.6 25.8567 1265 25.8567ZM1283 25.8567C1283.4 25.8567 1283.78 26.0147 1284.06 26.296C1284.34 26.5773 1284.5 26.9589 1284.5 27.3567C1284.5 27.7545 1284.34 28.136 1284.06 28.4174C1283.78 28.6987 1283.4 28.8567 1283 28.8567C1282.6 28.8567 1282.22 28.6987 1281.94 28.4174C1281.66 28.136 1281.5 27.7545 1281.5 27.3567C1281.5 26.9589 1281.66 26.5773 1281.94 26.296C1282.22 26.0147 1282.6 25.8567 1283 25.8567ZM1283 7.85669C1283.4 7.85669 1283.78 8.01472 1284.06 8.29603C1284.34 8.57733 1284.5 8.95886 1284.5 9.35669C1284.5 9.75451 1284.34 10.136 1284.06 10.4173C1283.78 10.6987 1283.4 10.8567 1283 10.8567C1282.6 10.8567 1282.22 10.6987 1281.94 10.4173C1281.66 10.136 1281.5 9.75451 1281.5 9.35669C1281.5 8.95886 1281.66 8.57733 1281.94 8.29603C1282.22 8.01472 1282.6 7.85669 1283 7.85669Z" fill="black" fill-opacity="0.1"/>
</g>
<g clip-path="url(#clip36_58_1573)">
<path d="M1292 0.356689H1328V36.3567H1292V0.356689Z" fill="white" fill-opacity="0.1"/>
<path d="M1301 7.85669C1301.4 7.85669 1301.78 8.01472 1302.06 8.29603C1302.34 8.57733 1302.5 8.95886 1302.5 9.35669C1302.5 9.75451 1302.34 10.136 1302.06 10.4173C1301.78 10.6987 1301.4 10.8567 1301 10.8567C1300.6 10.8567 1300.22 10.6987 1299.94 10.4173C1299.66 10.136 1299.5 9.75451 1299.5 9.35669C1299.5 8.95886 1299.66 8.57733 1299.94 8.29603C1300.22 8.01472 1300.6 7.85669 1301 7.85669ZM1301 25.8567C1301.4 25.8567 1301.78 26.0147 1302.06 26.296C1302.34 26.5773 1302.5 26.9589 1302.5 27.3567C1302.5 27.7545 1302.34 28.136 1302.06 28.4174C1301.78 28.6987 1301.4 28.8567 1301 28.8567C1300.6 28.8567 1300.22 28.6987 1299.94 28.4174C1299.66 28.136 1299.5 27.7545 1299.5 27.3567C1299.5 26.9589 1299.66 26.5773 1299.94 26.296C1300.22 26.0147 1300.6 25.8567 1301 25.8567ZM1319 25.8567C1319.4 25.8567 1319.78 26.0147 1320.06 26.296C1320.34 26.5773 1320.5 26.9589 1320.5 27.3567C1320.5 27.7545 1320.34 28.136 1320.06 28.4174C1319.78 28.6987 1319.4 28.8567 1319 28.8567C1318.6 28.8567 1318.22 28.6987 1317.94 28.4174C1317.66 28.136 1317.5 27.7545 1317.5 27.3567C1317.5 26.9589 1317.66 26.5773 1317.94 26.296C1318.22 26.0147 1318.6 25.8567 1319 25.8567ZM1319 7.85669C1319.4 7.85669 1319.78 8.01472 1320.06 8.29603C1320.34 8.57733 1320.5 8.95886 1320.5 9.35669C1320.5 9.75451 1320.34 10.136 1320.06 10.4173C1319.78 10.6987 1319.4 10.8567 1319 10.8567C1318.6 10.8567 1318.22 10.6987 1317.94 10.4173C1317.66 10.136 1317.5 9.75451 1317.5 9.35669C1317.5 8.95886 1317.66 8.57733 1317.94 8.29603C1318.22 8.01472 1318.6 7.85669 1319 7.85669Z" fill="black" fill-opacity="0.1"/>
</g>
<g clip-path="url(#clip37_58_1573)">
<path d="M1328 0.356689H1364V36.3567H1328V0.356689Z" fill="white" fill-opacity="0.1"/>
<path d="M1337 7.85669C1337.4 7.85669 1337.78 8.01472 1338.06 8.29603C1338.34 8.57733 1338.5 8.95886 1338.5 9.35669C1338.5 9.75451 1338.34 10.136 1338.06 10.4173C1337.78 10.6987 1337.4 10.8567 1337 10.8567C1336.6 10.8567 1336.22 10.6987 1335.94 10.4173C1335.66 10.136 1335.5 9.75451 1335.5 9.35669C1335.5 8.95886 1335.66 8.57733 1335.94 8.29603C1336.22 8.01472 1336.6 7.85669 1337 7.85669ZM1337 25.8567C1337.4 25.8567 1337.78 26.0147 1338.06 26.296C1338.34 26.5773 1338.5 26.9589 1338.5 27.3567C1338.5 27.7545 1338.34 28.136 1338.06 28.4174C1337.78 28.6987 1337.4 28.8567 1337 28.8567C1336.6 28.8567 1336.22 28.6987 1335.94 28.4174C1335.66 28.136 1335.5 27.7545 1335.5 27.3567C1335.5 26.9589 1335.66 26.5773 1335.94 26.296C1336.22 26.0147 1336.6 25.8567 1337 25.8567ZM1355 25.8567C1355.4 25.8567 1355.78 26.0147 1356.06 26.296C1356.34 26.5773 1356.5 26.9589 1356.5 27.3567C1356.5 27.7545 1356.34 28.136 1356.06 28.4174C1355.78 28.6987 1355.4 28.8567 1355 28.8567C1354.6 28.8567 1354.22 28.6987 1353.94 28.4174C1353.66 28.136 1353.5 27.7545 1353.5 27.3567C1353.5 26.9589 1353.66 26.5773 1353.94 26.296C1354.22 26.0147 1354.6 25.8567 1355 25.8567ZM1355 7.85669C1355.4 7.85669 1355.78 8.01472 1356.06 8.29603C1356.34 8.57733 1356.5 8.95886 1356.5 9.35669C1356.5 9.75451 1356.34 10.136 1356.06 10.4173C1355.78 10.6987 1355.4 10.8567 1355 10.8567C1354.6 10.8567 1354.22 10.6987 1353.94 10.4173C1353.66 10.136 1353.5 9.75451 1353.5 9.35669C1353.5 8.95886 1353.66 8.57733 1353.94 8.29603C1354.22 8.01472 1354.6 7.85669 1355 7.85669Z" fill="black" fill-opacity="0.1"/>
</g>
<g clip-path="url(#clip38_58_1573)">
<path d="M1364 0.356689H1400V36.3567H1364V0.356689Z" fill="white" fill-opacity="0.1"/>
<path d="M1373 7.85669C1373.4 7.85669 1373.78 8.01472 1374.06 8.29603C1374.34 8.57733 1374.5 8.95886 1374.5 9.35669C1374.5 9.75451 1374.34 10.136 1374.06 10.4173C1373.78 10.6987 1373.4 10.8567 1373 10.8567C1372.6 10.8567 1372.22 10.6987 1371.94 10.4173C1371.66 10.136 1371.5 9.75451 1371.5 9.35669C1371.5 8.95886 1371.66 8.57733 1371.94 8.29603C1372.22 8.01472 1372.6 7.85669 1373 7.85669ZM1373 25.8567C1373.4 25.8567 1373.78 26.0147 1374.06 26.296C1374.34 26.5773 1374.5 26.9589 1374.5 27.3567C1374.5 27.7545 1374.34 28.136 1374.06 28.4174C1373.78 28.6987 1373.4 28.8567 1373 28.8567C1372.6 28.8567 1372.22 28.6987 1371.94 28.4174C1371.66 28.136 1371.5 27.7545 1371.5 27.3567C1371.5 26.9589 1371.66 26.5773 1371.94 26.296C1372.22 26.0147 1372.6 25.8567 1373 25.8567ZM1391 25.8567C1391.4 25.8567 1391.78 26.0147 1392.06 26.296C1392.34 26.5773 1392.5 26.9589 1392.5 27.3567C1392.5 27.7545 1392.34 28.136 1392.06 28.4174C1391.78 28.6987 1391.4 28.8567 1391 28.8567C1390.6 28.8567 1390.22 28.6987 1389.94 28.4174C1389.66 28.136 1389.5 27.7545 1389.5 27.3567C1389.5 26.9589 1389.66 26.5773 1389.94 26.296C1390.22 26.0147 1390.6 25.8567 1391 25.8567ZM1391 7.85669C1391.4 7.85669 1391.78 8.01472 1392.06 8.29603C1392.34 8.57733 1392.5 8.95886 1392.5 9.35669C1392.5 9.75451 1392.34 10.136 1392.06 10.4173C1391.78 10.6987 1391.4 10.8567 1391 10.8567C1390.6 10.8567 1390.22 10.6987 1389.94 10.4173C1389.66 10.136 1389.5 9.75451 1389.5 9.35669C1389.5 8.95886 1389.66 8.57733 1389.94 8.29603C1390.22 8.01472 1390.6 7.85669 1391 7.85669Z" fill="black" fill-opacity="0.1"/>
</g>
<g clip-path="url(#clip39_58_1573)">
<path d="M1400 0.356689H1436V36.3567H1400V0.356689Z" fill="white" fill-opacity="0.1"/>
<path d="M1409 7.85669C1409.4 7.85669 1409.78 8.01472 1410.06 8.29603C1410.34 8.57733 1410.5 8.95886 1410.5 9.35669C1410.5 9.75451 1410.34 10.136 1410.06 10.4173C1409.78 10.6987 1409.4 10.8567 1409 10.8567C1408.6 10.8567 1408.22 10.6987 1407.94 10.4173C1407.66 10.136 1407.5 9.75451 1407.5 9.35669C1407.5 8.95886 1407.66 8.57733 1407.94 8.29603C1408.22 8.01472 1408.6 7.85669 1409 7.85669ZM1409 25.8567C1409.4 25.8567 1409.78 26.0147 1410.06 26.296C1410.34 26.5773 1410.5 26.9589 1410.5 27.3567C1410.5 27.7545 1410.34 28.136 1410.06 28.4174C1409.78 28.6987 1409.4 28.8567 1409 28.8567C1408.6 28.8567 1408.22 28.6987 1407.94 28.4174C1407.66 28.136 1407.5 27.7545 1407.5 27.3567C1407.5 26.9589 1407.66 26.5773 1407.94 26.296C1408.22 26.0147 1408.6 25.8567 1409 25.8567ZM1427 25.8567C1427.4 25.8567 1427.78 26.0147 1428.06 26.296C1428.34 26.5773 1428.5 26.9589 1428.5 27.3567C1428.5 27.7545 1428.34 28.136 1428.06 28.4174C1427.78 28.6987 1427.4 28.8567 1427 28.8567C1426.6 28.8567 1426.22 28.6987 1425.94 28.4174C1425.66 28.136 1425.5 27.7545 1425.5 27.3567C1425.5 26.9589 1425.66 26.5773 1425.94 26.296C1426.22 26.0147 1426.6 25.8567 1427 25.8567ZM1427 7.85669C1427.4 7.85669 1427.78 8.01472 1428.06 8.29603C1428.34 8.57733 1428.5 8.95886 1428.5 9.35669C1428.5 9.75451 1428.34 10.136 1428.06 10.4173C1427.78 10.6987 1427.4 10.8567 1427 10.8567C1426.6 10.8567 1426.22 10.6987 1425.94 10.4173C1425.66 10.136 1425.5 9.75451 1425.5 9.35669C1425.5 8.95886 1425.66 8.57733 1425.94 8.29603C1426.22 8.01472 1426.6 7.85669 1427 7.85669Z" fill="black" fill-opacity="0.1"/>
</g>
<g clip-path="url(#clip40_58_1573)">
<path d="M1436 0.356689H1472V36.3567H1436V0.356689Z" fill="white" fill-opacity="0.1"/>
<path d="M1445 7.85669C1445.4 7.85669 1445.78 8.01472 1446.06 8.29603C1446.34 8.57733 1446.5 8.95886 1446.5 9.35669C1446.5 9.75451 1446.34 10.136 1446.06 10.4173C1445.78 10.6987 1445.4 10.8567 1445 10.8567C1444.6 10.8567 1444.22 10.6987 1443.94 10.4173C1443.66 10.136 1443.5 9.75451 1443.5 9.35669C1443.5 8.95886 1443.66 8.57733 1443.94 8.29603C1444.22 8.01472 1444.6 7.85669 1445 7.85669ZM1445 25.8567C1445.4 25.8567 1445.78 26.0147 1446.06 26.296C1446.34 26.5773 1446.5 26.9589 1446.5 27.3567C1446.5 27.7545 1446.34 28.136 1446.06 28.4174C1445.78 28.6987 1445.4 28.8567 1445 28.8567C1444.6 28.8567 1444.22 28.6987 1443.94 28.4174C1443.66 28.136 1443.5 27.7545 1443.5 27.3567C1443.5 26.9589 1443.66 26.5773 1443.94 26.296C1444.22 26.0147 1444.6 25.8567 1445 25.8567ZM1463 25.8567C1463.4 25.8567 1463.78 26.0147 1464.06 26.296C1464.34 26.5773 1464.5 26.9589 1464.5 27.3567C1464.5 27.7545 1464.34 28.136 1464.06 28.4174C1463.78 28.6987 1463.4 28.8567 1463 28.8567C1462.6 28.8567 1462.22 28.6987 1461.94 28.4174C1461.66 28.136 1461.5 27.7545 1461.5 27.3567C1461.5 26.9589 1461.66 26.5773 1461.94 26.296C1462.22 26.0147 1462.6 25.8567 1463 25.8567ZM1463 7.85669C1463.4 7.85669 1463.78 8.01472 1464.06 8.29603C1464.34 8.57733 1464.5 8.95886 1464.5 9.35669C1464.5 9.75451 1464.34 10.136 1464.06 10.4173C1463.78 10.6987 1463.4 10.8567 1463 10.8567C1462.6 10.8567 1462.22 10.6987 1461.94 10.4173C1461.66 10.136 1461.5 9.75451 1461.5 9.35669C1461.5 8.95886 1461.66 8.57733 1461.94 8.29603C1462.22 8.01472 1462.6 7.85669 1463 7.85669Z" fill="black" fill-opacity="0.1"/>
</g>
<g clip-path="url(#clip41_58_1573)">
<path d="M1472 0.356689H1508V36.3567H1472V0.356689Z" fill="white" fill-opacity="0.1"/>
<path d="M1481 7.85669C1481.4 7.85669 1481.78 8.01472 1482.06 8.29603C1482.34 8.57733 1482.5 8.95886 1482.5 9.35669C1482.5 9.75451 1482.34 10.136 1482.06 10.4173C1481.78 10.6987 1481.4 10.8567 1481 10.8567C1480.6 10.8567 1480.22 10.6987 1479.94 10.4173C1479.66 10.136 1479.5 9.75451 1479.5 9.35669C1479.5 8.95886 1479.66 8.57733 1479.94 8.29603C1480.22 8.01472 1480.6 7.85669 1481 7.85669ZM1481 25.8567C1481.4 25.8567 1481.78 26.0147 1482.06 26.296C1482.34 26.5773 1482.5 26.9589 1482.5 27.3567C1482.5 27.7545 1482.34 28.136 1482.06 28.4174C1481.78 28.6987 1481.4 28.8567 1481 28.8567C1480.6 28.8567 1480.22 28.6987 1479.94 28.4174C1479.66 28.136 1479.5 27.7545 1479.5 27.3567C1479.5 26.9589 1479.66 26.5773 1479.94 26.296C1480.22 26.0147 1480.6 25.8567 1481 25.8567ZM1499 25.8567C1499.4 25.8567 1499.78 26.0147 1500.06 26.296C1500.34 26.5773 1500.5 26.9589 1500.5 27.3567C1500.5 27.7545 1500.34 28.136 1500.06 28.4174C1499.78 28.6987 1499.4 28.8567 1499 28.8567C1498.6 28.8567 1498.22 28.6987 1497.94 28.4174C1497.66 28.136 1497.5 27.7545 1497.5 27.3567C1497.5 26.9589 1497.66 26.5773 1497.94 26.296C1498.22 26.0147 1498.6 25.8567 1499 25.8567ZM1499 7.85669C1499.4 7.85669 1499.78 8.01472 1500.06 8.29603C1500.34 8.57733 1500.5 8.95886 1500.5 9.35669C1500.5 9.75451 1500.34 10.136 1500.06 10.4173C1499.78 10.6987 1499.4 10.8567 1499 10.8567C1498.6 10.8567 1498.22 10.6987 1497.94 10.4173C1497.66 10.136 1497.5 9.75451 1497.5 9.35669C1497.5 8.95886 1497.66 8.57733 1497.94 8.29603C1498.22 8.01472 1498.6 7.85669 1499 7.85669Z" fill="black" fill-opacity="0.1"/>
</g>
<g clip-path="url(#clip42_58_1573)">
<path d="M1508 0.356689H1544V36.3567H1508V0.356689Z" fill="white" fill-opacity="0.1"/>
<path d="M1517 7.85669C1517.4 7.85669 1517.78 8.01472 1518.06 8.29603C1518.34 8.57733 1518.5 8.95886 1518.5 9.35669C1518.5 9.75451 1518.34 10.136 1518.06 10.4173C1517.78 10.6987 1517.4 10.8567 1517 10.8567C1516.6 10.8567 1516.22 10.6987 1515.94 10.4173C1515.66 10.136 1515.5 9.75451 1515.5 9.35669C1515.5 8.95886 1515.66 8.57733 1515.94 8.29603C1516.22 8.01472 1516.6 7.85669 1517 7.85669ZM1517 25.8567C1517.4 25.8567 1517.78 26.0147 1518.06 26.296C1518.34 26.5773 1518.5 26.9589 1518.5 27.3567C1518.5 27.7545 1518.34 28.136 1518.06 28.4174C1517.78 28.6987 1517.4 28.8567 1517 28.8567C1516.6 28.8567 1516.22 28.6987 1515.94 28.4174C1515.66 28.136 1515.5 27.7545 1515.5 27.3567C1515.5 26.9589 1515.66 26.5773 1515.94 26.296C1516.22 26.0147 1516.6 25.8567 1517 25.8567ZM1535 25.8567C1535.4 25.8567 1535.78 26.0147 1536.06 26.296C1536.34 26.5773 1536.5 26.9589 1536.5 27.3567C1536.5 27.7545 1536.34 28.136 1536.06 28.4174C1535.78 28.6987 1535.4 28.8567 1535 28.8567C1534.6 28.8567 1534.22 28.6987 1533.94 28.4174C1533.66 28.136 1533.5 27.7545 1533.5 27.3567C1533.5 26.9589 1533.66 26.5773 1533.94 26.296C1534.22 26.0147 1534.6 25.8567 1535 25.8567ZM1535 7.85669C1535.4 7.85669 1535.78 8.01472 1536.06 8.29603C1536.34 8.57733 1536.5 8.95886 1536.5 9.35669C1536.5 9.75451 1536.34 10.136 1536.06 10.4173C1535.78 10.6987 1535.4 10.8567 1535 10.8567C1534.6 10.8567 1534.22 10.6987 1533.94 10.4173C1533.66 10.136 1533.5 9.75451 1533.5 9.35669C1533.5 8.95886 1533.66 8.57733 1533.94 8.29603C1534.22 8.01472 1534.6 7.85669 1535 7.85669Z" fill="black" fill-opacity="0.1"/>
</g>
<g clip-path="url(#clip43_58_1573)">
<path d="M1544 0.356689H1580V36.3567H1544V0.356689Z" fill="white" fill-opacity="0.1"/>
<path d="M1553 7.85669C1553.4 7.85669 1553.78 8.01472 1554.06 8.29603C1554.34 8.57733 1554.5 8.95886 1554.5 9.35669C1554.5 9.75451 1554.34 10.136 1554.06 10.4173C1553.78 10.6987 1553.4 10.8567 1553 10.8567C1552.6 10.8567 1552.22 10.6987 1551.94 10.4173C1551.66 10.136 1551.5 9.75451 1551.5 9.35669C1551.5 8.95886 1551.66 8.57733 1551.94 8.29603C1552.22 8.01472 1552.6 7.85669 1553 7.85669ZM1553 25.8567C1553.4 25.8567 1553.78 26.0147 1554.06 26.296C1554.34 26.5773 1554.5 26.9589 1554.5 27.3567C1554.5 27.7545 1554.34 28.136 1554.06 28.4174C1553.78 28.6987 1553.4 28.8567 1553 28.8567C1552.6 28.8567 1552.22 28.6987 1551.94 28.4174C1551.66 28.136 1551.5 27.7545 1551.5 27.3567C1551.5 26.9589 1551.66 26.5773 1551.94 26.296C1552.22 26.0147 1552.6 25.8567 1553 25.8567ZM1571 25.8567C1571.4 25.8567 1571.78 26.0147 1572.06 26.296C1572.34 26.5773 1572.5 26.9589 1572.5 27.3567C1572.5 27.7545 1572.34 28.136 1572.06 28.4174C1571.78 28.6987 1571.4 28.8567 1571 28.8567C1570.6 28.8567 1570.22 28.6987 1569.94 28.4174C1569.66 28.136 1569.5 27.7545 1569.5 27.3567C1569.5 26.9589 1569.66 26.5773 1569.94 26.296C1570.22 26.0147 1570.6 25.8567 1571 25.8567ZM1571 7.85669C1571.4 7.85669 1571.78 8.01472 1572.06 8.29603C1572.34 8.57733 1572.5 8.95886 1572.5 9.35669C1572.5 9.75451 1572.34 10.136 1572.06 10.4173C1571.78 10.6987 1571.4 10.8567 1571 10.8567C1570.6 10.8567 1570.22 10.6987 1569.94 10.4173C1569.66 10.136 1569.5 9.75451 1569.5 9.35669C1569.5 8.95886 1569.66 8.57733 1569.94 8.29603C1570.22 8.01472 1570.6 7.85669 1571 7.85669Z" fill="black" fill-opacity="0.1"/>
</g>
<g clip-path="url(#clip44_58_1573)">
<path d="M1580 0.356689H1616V36.3567H1580V0.356689Z" fill="white" fill-opacity="0.1"/>
<path d="M1589 7.85669C1589.4 7.85669 1589.78 8.01472 1590.06 8.29603C1590.34 8.57733 1590.5 8.95886 1590.5 9.35669C1590.5 9.75451 1590.34 10.136 1590.06 10.4173C1589.78 10.6987 1589.4 10.8567 1589 10.8567C1588.6 10.8567 1588.22 10.6987 1587.94 10.4173C1587.66 10.136 1587.5 9.75451 1587.5 9.35669C1587.5 8.95886 1587.66 8.57733 1587.94 8.29603C1588.22 8.01472 1588.6 7.85669 1589 7.85669ZM1589 25.8567C1589.4 25.8567 1589.78 26.0147 1590.06 26.296C1590.34 26.5773 1590.5 26.9589 1590.5 27.3567C1590.5 27.7545 1590.34 28.136 1590.06 28.4174C1589.78 28.6987 1589.4 28.8567 1589 28.8567C1588.6 28.8567 1588.22 28.6987 1587.94 28.4174C1587.66 28.136 1587.5 27.7545 1587.5 27.3567C1587.5 26.9589 1587.66 26.5773 1587.94 26.296C1588.22 26.0147 1588.6 25.8567 1589 25.8567ZM1607 25.8567C1607.4 25.8567 1607.78 26.0147 1608.06 26.296C1608.34 26.5773 1608.5 26.9589 1608.5 27.3567C1608.5 27.7545 1608.34 28.136 1608.06 28.4174C1607.78 28.6987 1607.4 28.8567 1607 28.8567C1606.6 28.8567 1606.22 28.6987 1605.94 28.4174C1605.66 28.136 1605.5 27.7545 1605.5 27.3567C1605.5 26.9589 1605.66 26.5773 1605.94 26.296C1606.22 26.0147 1606.6 25.8567 1607 25.8567ZM1607 7.85669C1607.4 7.85669 1607.78 8.01472 1608.06 8.29603C1608.34 8.57733 1608.5 8.95886 1608.5 9.35669C1608.5 9.75451 1608.34 10.136 1608.06 10.4173C1607.78 10.6987 1607.4 10.8567 1607 10.8567C1606.6 10.8567 1606.22 10.6987 1605.94 10.4173C1605.66 10.136 1605.5 9.75451 1605.5 9.35669C1605.5 8.95886 1605.66 8.57733 1605.94 8.29603C1606.22 8.01472 1606.6 7.85669 1607 7.85669Z" fill="black" fill-opacity="0.1"/>
</g>
<defs>
<clipPath id="clip0_58_1573">
<rect width="36" height="36" fill="white" transform="translate(-4)"/>
</clipPath>
<clipPath id="clip1_58_1573">
<rect width="36" height="36" fill="white" transform="translate(32)"/>
</clipPath>
<clipPath id="clip2_58_1573">
<rect width="36" height="36" fill="white" transform="translate(68)"/>
</clipPath>
<clipPath id="clip3_58_1573">
<rect width="36" height="36" fill="white" transform="translate(104)"/>
</clipPath>
<clipPath id="clip4_58_1573">
<rect width="36" height="36" fill="white" transform="translate(140)"/>
</clipPath>
<clipPath id="clip5_58_1573">
<rect width="36" height="36" fill="white" transform="translate(176)"/>
</clipPath>
<clipPath id="clip6_58_1573">
<rect width="36" height="36" fill="white" transform="translate(212)"/>
</clipPath>
<clipPath id="clip7_58_1573">
<rect width="36" height="36" fill="white" transform="translate(248)"/>
</clipPath>
<clipPath id="clip8_58_1573">
<rect width="36" height="36" fill="white" transform="translate(284)"/>
</clipPath>
<clipPath id="clip9_58_1573">
<rect width="36" height="36" fill="white" transform="translate(320)"/>
</clipPath>
<clipPath id="clip10_58_1573">
<rect width="36" height="36" fill="white" transform="translate(356)"/>
</clipPath>
<clipPath id="clip11_58_1573">
<rect width="36" height="36" fill="white" transform="translate(392)"/>
</clipPath>
<clipPath id="clip12_58_1573">
<rect width="36" height="36" fill="white" transform="translate(428)"/>
</clipPath>
<clipPath id="clip13_58_1573">
<rect width="36" height="36" fill="white" transform="translate(464)"/>
</clipPath>
<clipPath id="clip14_58_1573">
<rect width="36" height="36" fill="white" transform="translate(500)"/>
</clipPath>
<clipPath id="clip15_58_1573">
<rect width="36" height="36" fill="white" transform="translate(536)"/>
</clipPath>
<clipPath id="clip16_58_1573">
<rect width="36" height="36" fill="white" transform="translate(572)"/>
</clipPath>
<clipPath id="clip17_58_1573">
<rect width="36" height="36" fill="white" transform="translate(608)"/>
</clipPath>
<clipPath id="clip18_58_1573">
<rect width="36" height="36" fill="white" transform="translate(644)"/>
</clipPath>
<clipPath id="clip19_58_1573">
<rect width="36" height="36" fill="white" transform="translate(680)"/>
</clipPath>
<clipPath id="clip20_58_1573">
<rect width="36" height="36" fill="white" transform="translate(716)"/>
</clipPath>
<clipPath id="clip21_58_1573">
<rect width="36" height="36" fill="white" transform="translate(752)"/>
</clipPath>
<clipPath id="clip22_58_1573">
<rect width="36" height="36" fill="white" transform="translate(788)"/>
</clipPath>
<clipPath id="clip23_58_1573">
<rect width="36" height="36" fill="white" transform="translate(824)"/>
</clipPath>
<clipPath id="clip24_58_1573">
<rect width="36" height="36" fill="white" transform="translate(860)"/>
</clipPath>
<clipPath id="clip25_58_1573">
<rect width="36" height="36" fill="white" transform="translate(896)"/>
</clipPath>
<clipPath id="clip26_58_1573">
<rect width="36" height="36" fill="white" transform="translate(932)"/>
</clipPath>
<clipPath id="clip27_58_1573">
<rect width="36" height="36" fill="white" transform="translate(968)"/>
</clipPath>
<clipPath id="clip28_58_1573">
<rect width="36" height="36" fill="white" transform="translate(1004)"/>
</clipPath>
<clipPath id="clip29_58_1573">
<rect width="36" height="36" fill="white" transform="translate(1040)"/>
</clipPath>
<clipPath id="clip30_58_1573">
<rect width="36" height="36" fill="white" transform="translate(1076)"/>
</clipPath>
<clipPath id="clip31_58_1573">
<rect width="36" height="36" fill="white" transform="translate(1112)"/>
</clipPath>
<clipPath id="clip32_58_1573">
<rect width="36" height="36" fill="white" transform="translate(1148)"/>
</clipPath>
<clipPath id="clip33_58_1573">
<rect width="36" height="36" fill="white" transform="translate(1184)"/>
</clipPath>
<clipPath id="clip34_58_1573">
<rect width="36" height="36" fill="white" transform="translate(1220)"/>
</clipPath>
<clipPath id="clip35_58_1573">
<rect width="36" height="36" fill="white" transform="translate(1256)"/>
</clipPath>
<clipPath id="clip36_58_1573">
<rect width="36" height="36" fill="white" transform="translate(1292)"/>
</clipPath>
<clipPath id="clip37_58_1573">
<rect width="36" height="36" fill="white" transform="translate(1328)"/>
</clipPath>
<clipPath id="clip38_58_1573">
<rect width="36" height="36" fill="white" transform="translate(1364)"/>
</clipPath>
<clipPath id="clip39_58_1573">
<rect width="36" height="36" fill="white" transform="translate(1400)"/>
</clipPath>
<clipPath id="clip40_58_1573">
<rect width="36" height="36" fill="white" transform="translate(1436)"/>
</clipPath>
<clipPath id="clip41_58_1573">
<rect width="36" height="36" fill="white" transform="translate(1472)"/>
</clipPath>
<clipPath id="clip42_58_1573">
<rect width="36" height="36" fill="white" transform="translate(1508)"/>
</clipPath>
<clipPath id="clip43_58_1573">
<rect width="36" height="36" fill="white" transform="translate(1544)"/>
</clipPath>
<clipPath id="clip44_58_1573">
<rect width="36" height="36" fill="white" transform="translate(1580)"/>
</clipPath>
</defs>
</svg>
