<svg width="40" height="40" viewBox="0 0 40 40" fill="none" xmlns="http://www.w3.org/2000/svg">
<path d="M14.7656 3.13277C13.0156 4.07808 11.6797 5.26558 10.6328 6.8359C10.2344 7.42965 9.64844 8.51559 9.72657 8.51559C9.75782 8.51559 9.71875 8.57027 9.64844 8.64059C9.57813 8.7109 9.54688 8.78902 9.57032 8.81246C9.59375 8.84371 10.9922 7.48434 12.6797 5.79684C14.3672 4.10933 15.6875 2.73433 15.625 2.73433C15.5625 2.73433 15.1719 2.91402 14.7656 3.13277Z" fill="#0E82FD"/>
<path d="M20.0547 2.48437C19.3516 3.19531 19.336 3.17187 20.4297 3.19531C22.5781 3.24219 24.7031 4.08594 26.5313 5.61719L27.125 6.10938L27.5469 5.69531C27.7813 5.46875 27.9688 5.24219 27.9688 5.20312C27.9688 5.0625 27.086 4.28906 26.3672 3.8125C24.75 2.72656 22.9844 2.07812 21.211 1.91406L20.6641 1.85937L20.0547 2.48437Z" fill="#0E82FD"/>
<path d="M18.2813 6.39844C16.3438 6.82812 14.7969 7.91406 14.0859 9.35156C13.9063 9.69531 13.7422 10.1328 13.7109 10.3047L13.6563 10.625H13.2578C11.8906 10.6328 10.9375 12.0312 11.3281 13.4531C11.5313 14.1875 12.3281 14.8047 13.1797 14.8906L13.6563 14.9453L13.7031 15.2656C13.7656 15.6719 14.0703 16.3203 14.4141 16.8047L14.6719 17.1719L14.1953 17.3047C13.5859 17.4766 13.2578 17.6406 12.3984 18.2188C12.0156 18.4766 11.6875 18.6719 11.6563 18.6562C11.625 18.6406 11.2344 18.4219 10.7969 18.1719L9.99219 17.7109L10.0156 15.1484C10.0313 13.7344 10.0234 12.5781 10 12.5781C9.97656 12.5781 9.6875 12.8516 9.35156 13.1875L8.75 13.7891V19.1406V24.4922L9.375 23.8672L10 23.2422V21.2734C10 20.1875 10.0156 19.2969 10.0313 19.2969C10.0625 19.2969 11.1953 19.9375 12.4219 20.6406C12.5703 20.7266 12.6719 20.7656 12.6328 20.7344C12.6016 20.7031 12.7734 20.4688 13.0156 20.2266L13.4609 19.7812L13.2422 19.5938L13.0313 19.4062L13.5313 19.0781C13.8047 18.8984 14.1484 18.7109 14.2969 18.6641C14.4453 18.6172 14.625 18.5625 14.6875 18.5391C14.75 18.5078 14.8359 18.5 14.8828 18.5078C14.9219 18.5234 14.9297 18.5 14.8984 18.4688C14.8672 18.4375 15.1641 18.0859 15.5547 17.6875L16.2656 16.9688L15.8281 16.4375C15.5859 16.1406 15.2891 15.7031 15.1719 15.4688L14.9609 15.0391V12.8125V10.5859L15.2266 10.0391C15.8828 8.70312 17.4609 7.75781 19.3203 7.59375C21.2031 7.42969 22.8516 7.94531 23.9453 9.03906C24.0625 9.15625 24.1094 9.125 24.5234 8.71875C24.7656 8.47656 25 8.30469 25.0391 8.33594C25.0703 8.375 25.0547 8.32031 24.9844 8.21875C24.7891 7.92969 23.9219 7.27344 23.3516 6.99219C22.3281 6.47656 21.6016 6.3125 20.1953 6.28125C19.1875 6.25781 18.8203 6.28125 18.2813 6.39844ZM13.5938 12.7422V13.6172L13.3047 13.5703C13.1484 13.5391 12.9219 13.4219 12.7969 13.3125C12.375 12.8984 12.5703 12.125 13.1484 11.9609C13.6094 11.8281 13.5938 11.8047 13.5938 12.7422Z" fill="#0E82FD"/>
<path d="M17.1406 11.9844C16.625 12.2188 16.375 12.8203 16.5781 13.3438C16.8906 14.1719 18.1484 14.1953 18.4922 13.3828C18.8516 12.5156 17.9688 11.6094 17.1406 11.9844Z" fill="#0E82FD"/>
<path d="M18.5156 1.92969C18.0234 1.99219 16.8906 2.25781 16.5 2.41406C16.2891 2.5 16.0937 2.55469 16.0781 2.53125C16.0547 2.51562 15.9922 2.54688 15.9453 2.60938C15.8906 2.67188 15.7891 2.70312 15.7266 2.67969C15.6484 2.64844 15.6172 2.66406 15.6484 2.70312C15.6719 2.75 14.3125 4.17188 12.6172 5.85938C10.9219 7.55469 9.51562 8.99219 9.48437 9.05469C9.45312 9.125 9.42187 9.21094 9.40625 9.25781C9.39844 9.29688 9.32812 9.49219 9.25781 9.6875C8.98437 10.4375 8.82031 11.4531 8.77344 12.6172L8.73438 13.7891L9.39844 13.1641C9.92187 12.6641 10.0625 12.4922 10.0703 12.3047C10.0937 11.7969 10.3281 10.6562 10.5625 9.97656C10.9219 8.89844 11.3828 8.03906 12.2344 6.875C12.4766 6.53906 13.4297 5.59375 13.7656 5.35156C14.9844 4.47656 15.7422 4.0625 16.7422 3.71875C17.5391 3.44531 18.6719 3.21094 19.2578 3.19531C19.5156 3.1875 19.6641 3.17188 19.5781 3.14844C19.4609 3.11719 19.5469 3 20.0469 2.49219L20.6641 1.875L19.7266 1.89062C19.2109 1.89062 18.6641 1.91406 18.5156 1.92969Z" fill="#0E82FD"/>
<path d="M28.6953 7.10936C28.4375 7.36717 28.2422 7.57811 28.2734 7.57811C28.2969 7.57811 28.3594 7.64061 28.3984 7.72655C29.25 9.33592 29.5234 10.0312 29.7734 11.25C29.9062 11.875 29.9375 12.4453 29.9766 14.8594L30.0234 17.7187L29.7578 17.8515C29.6094 17.9297 29.4375 18.0312 29.375 18.0859C29.3125 18.1406 29 18.3125 28.6875 18.4765L28.125 18.7734L27.3516 18.2578C26.4297 17.6484 26.0703 17.4609 25.5937 17.3359C25.3984 17.289 25.2187 17.2187 25.1953 17.1875C25.1719 17.1562 25.2969 16.9219 25.4609 16.6719C25.7812 16.1875 25.9531 15.8125 26.0937 15.25C26.1719 14.9453 26.1953 14.9219 26.4375 14.9219C26.8594 14.9219 27.4766 14.6875 27.8125 14.3906C28.75 13.5937 28.8125 12.1015 27.9531 11.2344C27.5859 10.875 27.1641 10.6875 26.6016 10.6328L26.1328 10.5859L26.0625 10.25C26.0234 10.0703 25.9687 9.92186 25.9453 9.92186C25.9141 9.92186 25.6641 10.1484 25.3906 10.4297L24.8828 10.9453L24.8437 13.0312C24.7969 15.3594 24.8125 15.2969 24.1562 16.2031C23.5547 17.0234 22.1094 17.9531 20.9766 18.2422C20.1406 18.4609 19.0703 18.3906 18.2187 18.0703L17.8828 17.9453L17.4141 18.4062C17.1641 18.6562 16.9531 18.8828 16.9531 18.9062C16.9531 18.9922 17.9141 19.375 18.5391 19.539C19.0703 19.6719 19.3437 19.6953 20.1172 19.6719C20.9141 19.6406 21.1641 19.5937 21.8281 19.375C22.25 19.2344 22.9141 18.9219 23.3047 18.6875L24 18.2656L24.7891 18.4844C25.3672 18.6484 25.7344 18.8125 26.1875 19.1015C26.5234 19.3125 26.7969 19.5078 26.7969 19.5312C26.7969 19.5547 26.3672 19.8125 25.8359 20.1172C25.3125 20.414 23.7969 21.289 22.4766 22.0469C21.1484 22.8125 20.0312 23.4375 19.9922 23.4375C19.9531 23.4375 19.7891 23.3594 19.625 23.2578C19.4687 23.1562 18.3906 22.539 17.2422 21.875L15.1406 20.6797L14.6719 21.1562L14.1953 21.625L14.5391 21.8437C14.875 22.0547 16.3594 22.9219 17.9062 23.8047L18.6641 24.2422L14.4766 26.6484C12.1797 27.9765 10.2891 29.0625 10.2734 29.0625C10.2109 29.0625 10 26.9297 10 26.2109V25.8203L9.36719 26.4453L8.73438 27.0703L8.78125 27.8515C8.90625 30.0234 9.82031 32.2578 11.3281 34.1015C11.5781 34.3984 11.9453 34.789 12.1406 34.9609C12.3437 35.1328 12.5469 35.3125 12.5937 35.3515C12.6484 35.4062 12.8125 35.289 13.1172 34.9765L13.5625 34.5156L12.9219 33.8594C12.1953 33.125 11.3906 31.9687 10.9766 31.0781C10.8281 30.75 10.7031 30.4531 10.7031 30.414C10.7109 30.3828 12.1172 29.539 13.8437 28.5547C16.7969 26.8594 17.875 26.2422 20.8984 24.5C21.5859 24.1015 22.7812 23.414 23.5547 22.9687C24.3281 22.5234 25.0859 22.0859 25.2344 21.9922C25.3828 21.8906 25.7187 21.7031 25.9766 21.5625C26.2344 21.4219 26.5547 21.2344 26.6797 21.1406C26.8125 21.0547 26.9297 20.9765 26.9531 20.9687C27.0781 20.9531 27.4219 20.7422 27.4219 20.6875C27.4219 20.6484 27.4687 20.6406 27.5234 20.6719C27.5703 20.7031 27.5859 20.6953 27.5547 20.664C27.5234 20.625 28.3437 19.7422 29.375 18.7109L31.2656 16.8203L31.2266 14.0937C31.1953 11.1328 31.1719 10.9844 30.6953 9.53123C30.5625 9.12498 30.3125 8.5078 30.1406 8.16405C29.8203 7.52342 29.2891 6.64061 29.2187 6.64061C29.1953 6.64061 28.9609 6.85155 28.6953 7.10936ZM26.9687 12.1719C27.5234 12.6875 27.1406 13.5937 26.3672 13.5937H26.1719V12.7344V11.8672L26.4687 11.9219C26.625 11.9453 26.8516 12.0625 26.9687 12.1719Z" fill="#0E82FD"/>
<path d="M22.5391 13.2734C22.2031 13.6172 21.8906 13.875 21.8516 13.8516C21.8047 13.8281 21.7969 13.8438 21.8281 13.8906C21.8594 13.9453 22.0313 13.9844 22.2109 13.9844C22.8281 13.9844 23.3047 13.5078 23.2656 12.9297C23.2578 12.7812 23.2266 12.6562 23.2031 12.6562C23.1797 12.6562 22.8828 12.9375 22.5391 13.2734Z" fill="#0E82FD"/>
<path d="M19.9141 15.9297L18.9453 16.8594L19.8906 16.8672L20.8281 16.8828L21.3125 16.375C21.8516 15.8125 21.9219 15.5703 21.6328 15.2031C21.5078 15.0469 21.4062 15 21.1797 15C20.9062 15 20.8047 15.0781 19.9141 15.9297Z" fill="#0E82FD"/>
<path d="M27.9219 5.14052C27.9687 5.21864 27.8515 5.39052 27.5469 5.69521C27.1406 6.10146 27.1172 6.15614 27.2265 6.24989C27.3047 6.31239 27.5234 6.57021 27.7187 6.83583C28.3047 7.60146 28.2344 7.58583 28.75 7.07021C29.0469 6.77333 29.1797 6.59364 29.1328 6.53114C29.0937 6.48427 28.8594 6.17958 28.6094 5.85927C28.1875 5.32021 27.7656 4.87489 27.9219 5.14052Z" fill="#0E82FD"/>
<path d="M24.5156 8.72652L24.0781 9.1562L24.3125 9.49995C24.5391 9.8437 24.8437 10.6171 24.8437 10.8593C24.8437 10.9531 25.0312 10.8046 25.3906 10.4375C25.9297 9.88277 25.9297 9.87495 25.8516 9.5937C25.7656 9.26558 25.2031 8.39839 25.0469 8.33589C24.9922 8.31245 24.7578 8.48433 24.5156 8.72652Z" fill="#0E82FD"/>
<path d="M21.914 11.9686C21.5234 12.1171 21.3125 12.3671 21.2734 12.7577C21.25 12.953 21.25 13.203 21.2812 13.3046C21.3359 13.5389 21.6875 13.8983 21.8437 13.8749C21.9922 13.8514 23.2031 12.6561 23.2031 12.5311C23.2031 12.4139 22.6875 11.953 22.5547 11.953C22.5 11.953 22.3906 11.9374 22.3047 11.9139C22.2187 11.8983 22.0469 11.9218 21.914 11.9686Z" fill="#0E82FD"/>
<path d="M18.3594 15.0547C18.1328 15.1484 18.0234 15.3281 18.0234 15.6328C18.0234 15.9141 18.0781 16 18.4453 16.375C18.6719 16.6094 18.8984 16.7969 18.9453 16.7969C18.9922 16.7969 19.2891 16.5312 19.6094 16.2109L20.1875 15.625H19.8906C19.6484 15.625 19.5234 15.5625 19.25 15.3125C18.9141 15.0078 18.6719 14.9375 18.3594 15.0547Z" fill="#0E82FD"/>
<path d="M20.4219 15.4062L20.1953 15.6641L20.4531 15.4375C20.5859 15.3047 20.7031 15.1953 20.7031 15.1797C20.7031 15.1172 20.6406 15.1719 20.4219 15.4062Z" fill="#0E82FD"/>
<path d="M15.5234 17.7031L14.75 18.5L15.2578 18.3672L15.7656 18.2266L16.2422 18.5312C16.5078 18.6953 16.7188 18.8047 16.7188 18.7734C16.7188 18.7344 16.7578 18.7656 16.7969 18.8281C16.8594 18.9219 16.9609 18.8516 17.375 18.4453L17.8828 17.9375L17.3984 17.6719C17.1328 17.5234 16.7734 17.2969 16.6016 17.1562L16.2891 16.9141L15.5234 17.7031Z" fill="#0E82FD"/>
<path d="M13.0234 20.203L12.5703 20.6874L12.7891 20.8358C12.9062 20.9218 13.1875 21.0858 13.3984 21.2108C13.6172 21.328 13.9062 21.4999 14.0547 21.5858C14.2031 21.6796 14.3047 21.7108 14.2734 21.6718C14.25 21.6249 14.4141 21.3983 14.6484 21.1718C14.8828 20.9374 15.0781 20.7265 15.0781 20.6952C15.0781 20.6718 14.7188 20.4374 14.2812 20.1874L13.4766 19.7265L13.0234 20.203Z" fill="#0E82FD"/>
<path d="M9.35938 23.8828L8.75 24.4922V25.7813V27.0703L9.375 26.4453L10.0078 25.8125L9.98438 24.5469L9.96094 23.2734L9.35938 23.8828Z" fill="#0E82FD"/>
<path d="M30.4297 18.6875C30 19.1328 29.7031 19.4453 29.7656 19.3906C29.8203 19.3437 29.9062 19.2969 29.9375 19.2969C29.9688 19.2969 30 20.5859 30 22.1719V25.039L27.6406 26.4062C26.3359 27.1562 24.75 28.0703 24.1016 28.4375C22.9141 29.1172 20.5781 30.4687 18.7109 31.5469C18.1562 31.8672 17.4844 32.2578 17.2266 32.3984C16.9688 32.5469 16.5781 32.789 16.3516 32.9375C16.1328 33.0859 15.9141 33.2031 15.875 33.2031C15.8359 33.2031 15.7734 33.2578 15.75 33.3281C15.7266 33.3906 15.6641 33.4219 15.6172 33.3906C15.5625 33.3594 15.5469 33.3672 15.5703 33.414C15.5938 33.4531 15.0781 34.0234 14.4141 34.6875L13.2109 35.8906L13.6953 36.2265C14.8281 37.0234 16.6484 37.7578 18.1172 38C19.0703 38.164 20.9297 38.164 21.8281 38.0078C23.1484 37.7734 23.7812 37.5703 25.0781 36.9297C25.8828 36.539 25.9297 36.5 27.4688 34.9844C28.3281 34.1328 29.0625 33.4609 29.0938 33.4922C29.125 33.5312 29.1406 33.5 29.125 33.4375C29.1094 33.375 29.1484 33.3281 29.2031 33.3437C29.25 33.3515 29.2891 33.3281 29.2812 33.2969C29.2656 33.2578 29.3438 33.1094 29.4531 32.9687C29.5625 32.8281 29.6484 32.6953 29.6484 32.664C29.6484 32.6406 29.7266 32.5078 29.8125 32.3828C30.1797 31.8672 30.7031 30.5625 30.9922 29.4531L31.2031 28.6328L31.2266 24.0234C31.2422 21.4844 31.25 19.0703 31.2344 18.6484L31.2109 17.8906L30.4297 18.6875ZM29.9531 27.2422C29.7891 29.875 28.8359 32.0859 27.125 33.8125C26.2891 34.6562 25.625 35.1562 24.6328 35.6797C23.1641 36.4531 21.7031 36.8047 19.9688 36.8047C18.5703 36.7969 17.5859 36.6172 16.4062 36.1562C15.8203 35.9219 14.7422 35.3906 14.7812 35.3515C14.7969 35.3359 15.2656 35.0625 15.8203 34.7422C16.7891 34.1875 18.0078 33.4922 20.7422 31.914C21.4297 31.5156 23.4141 30.375 25.1562 29.375C26.8984 28.3672 28.6719 27.3437 29.1016 27.0937C29.5312 26.8515 29.9062 26.6406 29.9375 26.6406C29.9609 26.6406 29.9688 26.914 29.9531 27.2422Z" fill="#000F28"/>
<path d="M29.2969 18.7969L27.3828 20.7188L27.9297 20.4219C28.2344 20.2656 28.6094 20.0469 28.7656 19.9453C28.9297 19.8516 29.0937 19.7656 29.1406 19.7656C29.1797 19.7656 29.2187 19.7266 29.2187 19.6875C29.2187 19.6406 29.2734 19.6094 29.3359 19.6094C29.3984 19.6094 29.4531 19.5703 29.4531 19.5312C29.4531 19.4844 29.5 19.4531 29.5547 19.4531C29.6094 19.4531 30.0156 19.0937 30.4531 18.6484L31.2578 17.8437L31.2344 17.3594L31.2109 16.875L29.2969 18.7969Z" fill="#0E82FD"/>
<path d="M15.625 33.3594C15.625 33.3984 15.6016 33.4297 15.5703 33.4219C15.5156 33.4062 15 33.6953 14.1797 34.1953C14.0938 34.25 13.9375 34.3281 13.8281 34.375C13.5938 34.4766 12.7344 35.3125 12.7344 35.4297C12.7344 35.4766 12.8438 35.6016 12.9766 35.6953L13.2188 35.875L14.5234 34.5781C15.2344 33.8672 15.7734 33.2812 15.7188 33.2812C15.6719 33.2812 15.625 33.3125 15.625 33.3594Z" fill="#000F28"/>
</svg>
