<svg width="41" height="41" viewBox="0 0 41 41" fill="none" xmlns="http://www.w3.org/2000/svg">
<path d="M17.6998 2.38794C17.5436 2.54419 17.5436 2.65356 17.5436 9.90356C17.5358 21.5442 17.5123 23.4504 17.3717 23.9114C16.8873 25.5051 15.778 26.6145 14.2233 27.052C13.9655 27.1301 13.2311 27.177 12.0826 27.2083C10.5201 27.2473 10.317 27.2708 10.192 27.3958C10.0592 27.5286 10.0436 27.6848 10.0436 29.1067C10.0436 30.5833 10.0514 30.677 10.2076 30.8333C10.3639 30.9895 10.4264 30.9973 12.4889 30.9661C14.9655 30.927 15.2858 30.8645 16.7076 30.177L17.5514 29.7629L17.528 32.7317C17.5045 35.5676 17.4967 35.7239 17.3405 36.0598C17.1295 36.5051 16.817 36.8176 16.3717 37.0286C16.0436 37.177 15.8639 37.1926 13.7936 37.2161L11.567 37.2395L11.5514 36.6614C11.5358 36.0129 11.3483 35.4583 10.8951 34.6692C10.5436 34.0754 9.02014 32.552 8.54358 32.3254C8.20764 32.1614 8.16077 32.1536 7.91077 32.2551C7.57483 32.4036 7.41858 32.7551 7.56702 33.0911C7.61389 33.2083 7.9342 33.5286 8.26233 33.7864C9.57483 34.8411 10.3951 36.1692 10.2233 36.9973L10.1764 37.2395L7.7467 37.2161C5.47327 37.1926 5.29358 37.1848 4.96545 37.0286C4.52014 36.8176 4.20764 36.5051 3.9967 36.0598C3.84045 35.7239 3.83264 35.5754 3.8092 32.1536C3.77795 28.302 3.86389 26.4973 4.10608 25.4036C4.19202 25.0129 4.26233 24.5911 4.26233 24.4583C4.26233 24.1301 3.98108 23.8723 3.62952 23.8723C3.13733 23.8801 3.00452 24.0989 2.73108 25.3958C2.59045 26.0442 2.58264 26.4895 2.58264 31.177V36.2551L2.8092 36.7239C3.10608 37.3254 3.69983 37.9192 4.30139 38.2161L4.77014 38.4426H10.6686H16.567L17.0358 38.2161C17.6373 37.9192 18.2311 37.3254 18.528 36.7239L18.7545 36.2551L18.778 32.5129L18.8014 28.7708L19.2155 28.3176C19.653 27.8411 20.2467 26.9973 20.4811 26.5051C20.5592 26.3489 20.6451 26.2161 20.6686 26.2161C20.692 26.2161 20.778 26.3489 20.8561 26.5051C21.0905 26.9973 21.6842 27.8411 22.1217 28.3176L22.5358 28.7708L22.5592 32.5129L22.5826 36.2551L22.8092 36.7239C23.1061 37.3254 23.6998 37.9192 24.3014 38.2161L24.7701 38.4426H30.6686H36.567L37.0358 38.2161C37.6373 37.9192 38.2311 37.3254 38.528 36.7239L38.7545 36.2551V31.1379C38.7545 26.1067 38.7545 26.0051 38.5748 25.2239C37.4186 19.9661 33.5123 16.0676 28.3014 14.9504C27.6608 14.8176 27.2311 14.7786 26.1373 14.7786L24.7701 14.7708L24.2858 15.0208L23.7936 15.2629V8.90356C23.7936 2.64575 23.7936 2.54419 23.6373 2.38794C23.5358 2.28638 23.3795 2.23169 23.1686 2.23169C22.9576 2.23169 22.8014 2.28638 22.6998 2.38794C22.5592 2.52856 22.5436 2.64575 22.5436 3.63794V4.73169H20.6686H18.7936V3.63794C18.7936 2.64575 18.778 2.52856 18.6373 2.38794C18.5358 2.28638 18.3795 2.23169 18.1686 2.23169C17.9576 2.23169 17.8014 2.28638 17.6998 2.38794ZM22.5436 6.60669V7.23169H20.6686H18.7936V6.60669V5.98169H20.6686H22.5436V6.60669ZM22.5436 9.10669V9.73169H20.6686H18.7936V9.10669V8.48169H20.6686H22.5436V9.10669ZM22.5436 17.3333C22.5436 23.4036 22.5514 23.7161 22.6998 24.2942C23.192 26.2317 24.7936 27.8333 26.7311 28.3254C27.2155 28.4504 27.5983 28.4817 28.692 28.4817H30.0436V29.1223V29.7551L28.6608 29.7083C27.0123 29.6458 26.2858 29.4973 25.2389 28.9973C23.4186 28.1301 22.0358 26.427 21.5201 24.4192C21.3639 23.7942 21.3483 23.5286 21.317 20.0129C21.278 16.4739 21.2701 16.2708 21.1295 16.1301C20.9264 15.927 20.4108 15.927 20.2076 16.1301C20.067 16.2708 20.0592 16.4739 20.0201 20.0129C19.9889 23.5286 19.9733 23.7942 19.817 24.4192C19.3092 26.4114 17.942 28.0989 16.1139 28.9895C15.0748 29.4895 14.3405 29.6458 12.6842 29.7083L11.2936 29.7551V29.1223V28.4817H12.6451C14.2467 28.4817 14.8405 28.3645 15.8483 27.8411C16.7389 27.3801 17.692 26.427 18.153 25.5364C18.817 24.2551 18.7936 24.5364 18.7936 17.3333V10.9817H20.6686H22.5436V17.3333ZM28.2311 16.3254C28.9264 16.4817 30.4342 16.9895 30.5826 17.1223C30.5983 17.1379 30.4498 17.4661 30.2545 17.8411C29.6217 19.0911 29.4889 20.4192 29.8873 21.4817C30.1139 22.0754 30.278 22.2317 30.6686 22.2317C31.2858 22.2317 31.4264 21.8411 31.1373 20.9192C31.0514 20.6458 30.9811 20.2942 30.9811 20.1301C30.9811 19.5676 31.2701 18.7083 31.6842 18.0286L31.8405 17.7708L32.4498 18.1848C33.317 18.7786 34.8326 20.3176 35.4264 21.2161C36.3248 22.5598 36.9576 24.0442 37.2623 25.5129C37.4655 26.4739 37.5514 28.427 37.528 31.4504L37.5045 34.302L37.0436 33.8723C36.2623 33.1458 35.942 32.2161 36.1451 31.2551C36.3248 30.3723 36.3248 30.0754 36.1451 29.8958C35.9655 29.7161 35.528 29.677 35.278 29.8098C34.8405 30.0442 34.6139 32.0911 34.9186 33.0129C35.2545 34.0208 35.9733 34.9036 36.9264 35.4739C37.1998 35.6379 37.4342 35.7786 37.4498 35.7942C37.5123 35.8411 37.1373 36.4348 36.903 36.6614C36.3405 37.2004 36.4576 37.1926 32.0045 37.2161L27.9967 37.2395L28.0514 37.0208C28.1451 36.6458 28.0983 35.4973 27.9733 35.0051C27.8014 34.3645 27.4733 33.6458 27.3014 33.5598C27.0592 33.427 26.6217 33.4661 26.442 33.6458C26.2311 33.8567 26.2701 34.2317 26.567 35.0364C26.817 35.7239 26.8561 36.4817 26.653 36.9504L26.528 37.2551L25.8951 37.2083C24.8951 37.1301 24.3405 36.7942 23.9967 36.0598C23.8405 35.7239 23.8326 35.5676 23.8092 32.7317L23.7858 29.7629L24.6295 30.177C26.0514 30.8645 26.3717 30.927 28.8483 30.9661C30.9108 30.9973 30.9733 30.9895 31.1295 30.8333C31.2858 30.677 31.2936 30.5833 31.2936 29.1067C31.2936 27.6848 31.278 27.5286 31.1451 27.3958C31.0201 27.2708 30.817 27.2473 29.2545 27.2083C27.4655 27.1614 27.0905 27.1067 26.3717 26.7864C25.5123 26.4036 24.6139 25.4895 24.2233 24.6145C23.8561 23.7864 23.8326 23.5364 23.8326 20.4739C23.8326 17.2708 23.8405 17.2004 24.3248 16.6692C24.653 16.302 24.9733 16.1223 25.3951 16.0676C25.9264 15.9895 27.317 16.1145 28.2311 16.3254Z" fill="#000F28"/>
<path d="M8.32482 11.1536C5.62169 11.5364 3.23107 13.802 2.66076 16.5286C2.51232 17.2239 2.51232 18.7395 2.65294 19.4192C3.17638 21.8958 5.01232 23.8645 7.52013 24.6301C8.13732 24.8176 8.32482 24.8411 9.41857 24.8411C10.5123 24.8411 10.6998 24.8176 11.317 24.6301C13.817 23.8645 15.6608 21.8879 16.1842 19.4192C16.3248 18.7395 16.3248 17.2239 16.1764 16.5286C15.4264 12.9661 12.0123 10.6301 8.32482 11.1536ZM11.0358 13.8254C11.2545 14.0129 11.2545 14.0208 11.2779 15.0754L11.3092 16.1379H12.3092C13.2623 16.1379 13.3248 16.1458 13.5358 16.3254L13.7545 16.5129V17.9583C13.7545 19.3801 13.7545 19.4114 13.567 19.6067C13.3795 19.802 13.3561 19.8098 12.3404 19.8098H11.3092L11.2779 20.8567C11.2545 21.8411 11.2389 21.9192 11.067 22.1067L10.8795 22.3098H9.41857H7.95763L7.77013 22.1067C7.59826 21.9192 7.58263 21.8411 7.55919 20.8567L7.52794 19.8098H6.49669C5.48107 19.8098 5.45763 19.802 5.27013 19.6067C5.08263 19.4114 5.08263 19.3801 5.08263 17.9583V16.5129L5.30138 16.3254C5.51232 16.1458 5.57482 16.1379 6.52794 16.1379H7.52794L7.55919 15.0754C7.58263 14.0208 7.58263 14.0129 7.80138 13.8254C8.01232 13.6458 8.05138 13.6379 9.41857 13.6379C10.7858 13.6379 10.8248 13.6458 11.0358 13.8254Z" fill="#0E82FD"/>
<path d="M8.77795 15.8567C8.75452 16.8411 8.73889 16.9192 8.56702 17.1067C8.37952 17.302 8.35608 17.3098 7.33264 17.3098H6.29358V17.9739V18.6379H7.30139C8.26233 18.6379 8.32483 18.6458 8.53577 18.8254C8.75452 19.0129 8.75452 19.0208 8.77795 20.0754L8.8092 21.1379H9.41858H10.028L10.0592 20.0754C10.0826 19.0208 10.0826 19.0129 10.3014 18.8254C10.5123 18.6458 10.5748 18.6379 11.5358 18.6379H12.5436V17.9739V17.3098H11.5045C10.4811 17.3098 10.4576 17.302 10.2701 17.1067C10.0983 16.9192 10.0826 16.8411 10.0592 15.8567L10.028 14.8098H9.41858H8.8092L8.77795 15.8567Z" fill="#0E82FD"/>
</svg>
