<svg width="41" height="40" viewBox="0 0 41 40" fill="none" xmlns="http://www.w3.org/2000/svg">
<g clip-path="url(#clip0_406_12215)">
<path d="M21.2031 5.67969C20.8203 5.74219 20.5703 5.88282 20.4609 6.10157C20.3672 6.27344 20.3438 6.73438 20.3438 8.39063V10.4609L19.9922 10.6172C19.4609 10.8516 18.8359 11.4844 18.5781 12.0547C18.3828 12.4688 18.3516 12.6328 18.3516 13.2422C18.3516 13.8438 18.3828 14.0078 18.5625 14.3906C18.8359 14.9766 19.375 15.5391 19.9141 15.8125L20.3438 16.0313V17.5078V18.9844H18.4297C16.3203 18.9844 16.0703 19.0313 15.8672 19.4297C15.8047 19.5469 15.7344 19.7969 15.7109 19.9766C15.6875 20.1563 15.6016 20.4063 15.5078 20.5391C15.3047 20.8203 14.7344 21.0547 14.4375 20.9844C13.9453 20.8594 13.5469 20.375 13.5469 19.9141C13.5469 19.6172 13.3047 19.2344 13.0391 19.1094C12.6562 18.9219 8.03125 18.9219 7.64844 19.1094C7.32812 19.2578 7.14062 19.625 7.14062 20.1016C7.14062 21.1875 7.44531 23.0469 7.8125 24.1797C8.375 25.9141 8.92969 26.9688 10.2266 28.7891C11.2969 30.2891 11.5469 30.7422 11.75 31.5313C11.8906 32.0859 11.9062 32.4063 11.9062 35.6797C11.9062 39.4844 11.9141 39.6016 12.3047 39.875C12.4141 39.9453 12.6406 40 12.8672 40C13.1875 40 13.2812 39.9609 13.4766 39.7656L13.7109 39.5313L13.6875 35.5313C13.6562 31.7188 13.6484 31.4922 13.4922 30.9297C13.2188 29.9453 12.8047 29.2344 11.4062 27.3047C10.125 25.5469 9.21875 23.25 9.04688 21.3594L8.99219 20.7813H10.4297H11.8672L12.0156 21.1406C12.2031 21.5859 12.8516 22.2578 13.3125 22.4844C13.8047 22.7188 14.4375 22.8281 14.9688 22.7734C15.8984 22.6641 16.8594 21.9844 17.2344 21.1641L17.4141 20.7813H19.4297C21.1094 20.7813 21.4844 20.7578 21.6797 20.6563C22.1172 20.4375 22.1406 20.2578 22.1406 17.5781C22.1406 14.5313 22.1328 14.5078 21.1094 14.2969C20.3125 14.1406 19.9297 13.4688 20.2578 12.7969C20.4453 12.4063 20.7266 12.2109 21.2109 12.1406C21.3984 12.1172 21.6406 12.0391 21.7344 11.9766C22.1016 11.75 22.1406 11.4844 22.1406 9.36719V7.39844L23.1016 7.44532C27.9375 7.70313 31.6172 10.2969 32.9531 14.4063C33.2422 15.2891 33.3906 16.1484 33.4688 17.4609C33.5469 18.8125 33.6562 19.2344 34.1016 19.9219C34.5 20.5391 35.0391 21.0625 36.1953 21.9453C37.2344 22.7422 37.6719 23.1563 37.7344 23.4141C37.7969 23.6641 37.5938 23.9531 37.1719 24.2031C35.4766 25.2188 35.0781 25.7813 35.0938 27.1641C35.1016 27.7266 35.0781 27.8438 34.875 28.2188C34.6094 28.6875 34.5781 29.0859 34.7656 29.4766C34.8906 29.7344 34.8906 29.7578 34.6797 30.1094C34.3828 30.6094 34.3516 31.1719 34.5547 32.1406C34.6484 32.5703 34.7188 32.9609 34.7188 33.0156C34.7188 33.2031 34.25 33.6563 33.9141 33.7891C33.6875 33.8828 33.1953 33.9453 32.3359 33.9922C30.7891 34.0859 29.9922 34.2109 29.2891 34.4922C27.625 35.1563 27.0703 36.125 27.0625 38.3438C27.0625 39.3672 27.1328 39.6406 27.4688 39.875C27.75 40.0703 28.3281 40.0391 28.5703 39.8125C28.8281 39.5703 28.8516 39.4766 28.875 38.2031C28.8984 37.3047 28.9219 37.1094 29.0547 36.875C29.4609 36.1875 30.3594 35.8984 32.4453 35.7891C34.3516 35.6875 35.0703 35.4453 35.8047 34.6484C36.4844 33.9141 36.625 33.2344 36.3672 31.9688L36.1953 31.1563L36.3984 30.75C36.625 30.2813 36.7109 29.7031 36.6172 29.2656C36.5625 29 36.5859 28.8984 36.7812 28.5078C37.0156 28.0703 37.0156 28.0547 36.9219 27.5C36.7812 26.6875 36.875 26.5313 37.8516 25.9297C39.1484 25.1328 39.6328 24.3906 39.5391 23.3594C39.4531 22.3984 38.9453 21.7422 37.3359 20.5234C35.5078 19.1328 35.3516 18.875 35.2578 17.1797C35.0078 12.625 32.8203 9.15625 28.9141 7.10938C27.5625 6.39844 25.7656 5.88282 24.0234 5.71094C23.25 5.625 21.6094 5.60938 21.2031 5.67969Z" fill="#000F28"/>
<path d="M14.4453 0.0544434C13.6719 0.156006 12.3594 0.452881 11.5156 0.726318C9.00782 1.52319 7.08594 2.67944 5.34376 4.44507C3.82032 5.97632 2.89844 7.43725 2.22657 9.39819C1.60157 11.2185 1.24219 13.9998 1.55469 14.6091C1.78126 15.0466 1.92969 15.0779 4.14844 15.0779L6.16407 15.0857L6.35157 15.4841C6.71876 16.2576 7.48438 16.8357 8.40626 17.0232C9.58594 17.2732 10.9063 16.6169 11.4844 15.5076L11.7109 15.0779H13.7266C15.4453 15.0779 15.7813 15.0623 15.9609 14.9529C16.3906 14.6951 16.3984 14.6794 16.4219 12.1482C16.4375 10.8591 16.4219 9.64819 16.3984 9.46069C16.3281 8.9685 16.0313 8.69507 15.5 8.62475C14.9922 8.55444 14.6016 8.24975 14.4766 7.80444C14.2891 7.19507 14.6953 6.54663 15.3281 6.44507C15.8594 6.35913 15.9453 6.32788 16.1172 6.19507C16.2109 6.11694 16.3203 5.91382 16.3594 5.74194C16.4609 5.31225 16.4531 0.968506 16.3594 0.609131C16.2266 0.132568 15.9766 -0.000244141 15.2734 0.00756836C14.9453 0.0153809 14.5781 0.0388184 14.4453 0.0544434ZM14.6406 3.30444V4.74194L14.3125 4.89038C13.7891 5.11694 13.1328 5.78882 12.875 6.35132C12.6797 6.76538 12.6484 6.92944 12.6484 7.53882C12.6484 8.17163 12.6797 8.29663 12.9063 8.76538C13.1953 9.35913 13.75 9.906 14.2891 10.1248L14.6406 10.2732V11.7732V13.281H12.6875C11.0859 13.281 10.6875 13.3044 10.5 13.3982C10.2344 13.531 10.0313 13.8826 10.0313 14.1794C10.0313 14.4919 9.82032 14.8748 9.53907 15.0779C8.89063 15.5623 7.84376 15.0544 7.84376 14.2576C7.84376 13.9138 7.61719 13.5388 7.33594 13.406C7.12501 13.3044 6.74219 13.281 5.17188 13.281H3.25782L3.28126 13.0623C3.50001 10.9919 3.98438 9.45288 4.88282 7.92944C6.40625 5.35913 9.01563 3.36694 12.125 2.406C12.8125 2.19507 14.1563 1.89038 14.4297 1.88257L14.6406 1.87475V3.30444Z" fill="#0E82FD"/>
</g>
<defs>
<clipPath id="clip0_406_12215">
<rect width="40" height="40" fill="white" transform="translate(0.5)"/>
</clipPath>
</defs>
</svg>
