<svg width="29" height="37" viewBox="0 0 29 37" fill="none" xmlns="http://www.w3.org/2000/svg">
<path d="M15.4681 0.382266C15.1018 0.54428 14.7989 1.02328 14.7989 1.44592C14.7989 1.57272 14.7707 1.6502 14.7285 1.62203C14.6933 1.60089 14.658 1.50932 14.658 1.42479C14.658 1.1712 14.3551 0.727427 14.0945 0.593589C13.9466 0.50906 13.7071 0.459751 13.4887 0.459751C13.0238 0.459751 12.7068 0.66403 12.4814 1.11485L12.3194 1.45297L12.4321 2.19964C12.4955 2.6082 12.5378 2.96041 12.5237 2.97449C12.5025 2.98858 12.3264 2.80544 12.1292 2.55889C11.6079 1.92492 11.4037 1.79813 10.9176 1.79813C10.2343 1.79813 9.79761 2.24191 9.79761 2.93223C9.79761 3.31261 9.91736 3.50985 10.7133 4.44671L11.2628 5.08068L10.9176 5.43993C10.5654 5.80622 10.4879 6.05277 10.657 6.22182C10.7063 6.27113 10.8049 6.30635 10.8824 6.30635C11.0444 6.30635 12.0517 5.27087 12.0517 5.10181C12.0517 5.03137 11.7066 4.5735 11.291 4.07337C10.8683 3.58029 10.5091 3.11538 10.4809 3.04494C10.3682 2.73499 10.826 2.33348 11.1149 2.4955C11.1923 2.53072 11.5164 2.88292 11.8404 3.27739C12.4532 4.02407 12.6223 4.12268 12.9675 3.9818C13.2844 3.84796 13.3197 3.6296 13.1717 2.6716C13.1013 2.21373 13.0379 1.72769 13.0379 1.60089C13.0379 1.15007 13.5239 0.931705 13.8339 1.24869C13.9536 1.36844 14.0382 1.63612 14.1649 2.28417C14.3058 2.99563 14.3692 3.17173 14.5101 3.28443C14.7214 3.45349 14.8834 3.45349 15.0736 3.29148C15.2004 3.19286 15.2427 3.00267 15.3554 2.18556C15.4752 1.35435 15.5174 1.18529 15.6442 1.07963C15.9612 0.819 16.4191 1.03032 16.4191 1.42479C16.4191 1.5375 16.3557 2.15738 16.2711 2.80544C16.1936 3.46054 16.1443 4.03111 16.1584 4.08042C16.1796 4.12973 16.405 4.29174 16.6656 4.44671C17.2221 4.77074 17.6659 5.24269 17.9969 5.88371C18.3844 6.62334 18.4759 7.01781 18.5252 8.13782L18.5675 9.15921L18.7859 9.18034C19.0888 9.20852 19.1733 9.07468 19.2156 8.46889C19.3424 6.75717 18.5112 4.84118 17.2855 4.03111C17.046 3.87614 16.8417 3.70708 16.8417 3.66482C16.8417 3.62255 16.9051 3.09424 16.9755 2.48845C17.1376 1.21347 17.1023 0.952838 16.729 0.593589C16.5177 0.38931 16.4402 0.361134 16.0457 0.340001C15.8062 0.325913 15.5456 0.347046 15.4681 0.382266Z" fill="#000F28"/>
<path d="M13.8065 3.89085C13.6585 4.29236 13.2218 4.61639 12.8273 4.61639H12.616V5.04608C12.616 5.46872 12.616 5.47577 12.2074 5.90546C11.341 6.82119 11.3692 6.73666 11.7778 7.39176C12.1229 7.94825 12.1934 8.32863 12.0102 8.61743C11.9327 8.73014 11.6369 9.0119 11.3481 9.24436C10.1647 10.1812 9.19257 11.5337 9.05168 12.4424C8.98829 12.8087 9.0869 12.8016 9.53773 12.4001C10.3971 11.6394 11.5242 11.3717 12.7076 11.6323C12.8696 11.6675 12.94 11.6323 13.1866 11.3717C13.6092 10.9138 13.7219 10.6461 13.7571 9.99808C13.8276 8.75127 14.5954 7.81441 15.6168 7.72988C16.3001 7.67353 16.7861 7.98347 17.096 8.68083C17.2721 9.08235 17.4835 9.2021 17.7441 9.06121C18.0611 8.89215 18.0259 7.68057 17.6807 6.63804C17.3637 5.673 16.9904 5.21514 16.2437 4.85589C15.8211 4.65865 15.5745 4.34167 15.5745 3.98946C15.5745 3.74996 15.497 3.72179 15.2223 3.87676C14.9758 4.01764 14.5954 4.00355 14.2714 3.84154C13.9192 3.65839 13.898 3.66543 13.8065 3.89085Z" fill="#0E82FD"/>
<path d="M6.95233 5.56644C6.19157 5.72141 6.07886 5.82707 5.84641 6.65123C5.3181 8.44748 5.12087 9.95492 5.11382 12.1527C5.11382 14.0546 5.17018 14.6322 5.47307 16.0058L5.64917 16.8018L5.39559 17.0201C4.65596 17.6752 4.01494 18.9502 3.69091 20.4084C3.51481 21.2396 3.51481 23.4725 3.69091 24.3742C4.41646 27.9596 6.70579 31.0872 10.1363 33.1723C12.8905 34.8488 16.2858 35.9617 19.7796 36.321C20.8644 36.4337 23.3158 36.3703 24.0977 36.2083C25.5276 35.9265 26.3518 35.3982 26.7322 34.5529C27.6972 32.4115 27.4225 26.0507 26.1757 21.3452C25.0416 17.0906 23.3299 14.435 21.2307 13.6953C20.963 13.5967 20.5968 13.5404 20.1671 13.5263L19.512 13.4981L19.3077 13.2163C18.8991 12.6528 18.1595 12.1738 17.3706 11.9695C16.9197 11.8427 15.9899 11.8427 15.5391 11.9695C15.1094 12.0822 14.405 12.4344 14.1162 12.6739L13.8978 12.8571L13.7217 12.7162C13.3343 12.4133 12.7426 12.202 12.1931 12.1668C10.735 12.0822 9.53047 12.8007 8.8965 14.1321L8.62178 14.7097L8.53021 14.4702C8.38228 14.0616 8.35411 12.8148 8.49499 12.3006C8.81197 11.082 9.72066 9.74359 10.7914 8.93352C11.4394 8.44748 11.5028 8.08823 11.059 7.34156C10.58 6.53853 10.1292 6.3906 9.44594 6.83438C8.82606 7.2359 8.70631 7.1725 8.56543 6.35538C8.43159 5.56644 7.99486 5.35512 6.95233 5.56644ZM7.93146 6.53148C8.08643 7.55992 8.49499 7.91917 9.24871 7.68672C9.42481 7.63741 9.68544 7.50357 9.82632 7.39791C9.96016 7.29225 10.1081 7.22885 10.1504 7.25703C10.1997 7.2852 10.3476 7.48244 10.4814 7.70081L10.735 8.08823L10.3194 8.44044C8.68518 9.84221 7.81876 11.3708 7.7131 13.0684C7.66379 13.7587 7.79058 14.4843 8.0653 15.076L8.23436 15.4493L7.95259 15.5338C7.79058 15.5761 7.33976 15.7804 6.94529 15.9847L6.21975 16.358L6.07182 15.6465C5.99433 15.2521 5.88867 14.6463 5.83936 14.3011C5.72666 13.477 5.72666 10.9834 5.83936 10.0394C6.01547 8.63767 6.47333 6.59488 6.67057 6.38356C6.79032 6.25677 7.61448 6.09475 7.76945 6.17224C7.83284 6.20746 7.90329 6.36243 7.93146 6.53148ZM17.7087 12.8078C18.0116 12.9627 18.3567 13.2022 18.5681 13.4206L18.9203 13.7799L18.7442 13.9207C17.5819 14.8435 16.7507 15.7099 16.1237 16.6609C14.6797 18.8516 14.2641 21.5002 14.8981 24.5573C14.9896 25.0011 15.4334 26.6283 15.8772 28.178C16.955 31.9184 16.9902 32.1297 16.638 32.5242L16.4266 32.7567L15.6659 32.7496C14.1091 32.7355 12.1227 32.0382 10.4462 30.9041C6.70579 28.3893 4.91659 23.9727 5.74779 19.2813C5.85345 18.6755 5.85345 18.6685 5.70553 18.5417C5.36037 18.2599 5.19835 18.4712 5.05747 19.4081C4.63482 22.1694 5.01521 24.7757 6.17044 27.0862C7.72718 30.1926 10.8759 32.5735 14.3698 33.285C15.1235 33.4399 16.1519 33.4681 16.5746 33.3554C16.9127 33.2568 17.2578 32.968 17.3776 32.6721C17.5114 32.3552 17.4973 31.6648 17.3424 30.9604C17.2649 30.6293 16.8704 29.1853 16.4548 27.7554C15.4686 24.3319 15.363 23.8388 15.3137 22.3244C15.2573 20.507 15.4827 19.3729 16.1942 17.9288C16.7718 16.7454 17.8707 15.4493 19.0752 14.5265C19.4979 14.2025 19.526 14.1884 20.005 14.1884C21.428 14.1743 22.6607 15.1112 23.8089 17.0554C25.0204 19.1263 26.0278 22.7611 26.4715 26.6776C26.6265 28.0864 26.6476 32.1297 26.4997 32.9328C26.3588 33.7147 26.1686 34.2852 25.9432 34.5952C25.3656 35.3912 23.5201 35.8138 21.0335 35.7293C15.9688 35.5461 10.735 33.4681 7.72014 30.4321C5.99433 28.6922 4.81093 26.5226 4.3601 24.2474C4.14878 23.1626 4.14174 21.5072 4.35306 20.5352C4.63482 19.225 5.12087 18.2599 5.83232 17.5625C6.1 17.3019 6.44516 17.1047 7.54404 16.5905C8.29776 16.2383 8.95286 15.9142 9.00217 15.879C9.04443 15.8367 9.12191 15.6254 9.16418 15.407C9.21349 15.1887 9.36846 14.7449 9.51638 14.435C9.8545 13.7376 10.3687 13.2304 10.9816 12.9909C11.5451 12.7726 12.3833 12.7655 12.8271 12.9698C13.4752 13.2797 13.4752 13.2516 12.9539 13.9207C10.249 17.4005 9.42481 21.627 10.6857 25.5506C10.9393 26.3324 11.0309 26.4452 11.3408 26.3465C11.5521 26.2831 11.5803 26.0859 11.4253 25.6703C10.0165 21.8172 10.897 17.4217 13.7569 14.0194C14.7149 12.8782 15.4757 12.4837 16.6168 12.5331C17.124 12.5542 17.279 12.5965 17.7087 12.8078Z" fill="#000F28"/>
<path d="M11.2845 13.4978C10.883 13.6176 10.5167 13.9134 10.2138 14.3572C9.81226 14.963 9.84748 15.0827 10.4603 15.3786C10.728 15.5054 10.9957 15.5899 11.0661 15.5688C11.1366 15.5477 11.3056 15.3363 11.4465 15.1039C11.5874 14.8714 11.8762 14.4417 12.0945 14.1529C12.327 13.843 12.4749 13.5894 12.4468 13.526C12.4045 13.4062 11.6789 13.3851 11.2845 13.4978Z" fill="#000F28"/>
<path d="M19.1947 14.6254C18.6946 14.9705 17.9831 15.6538 17.645 16.1117C17.321 16.5413 17.328 16.8231 17.6591 16.8583C17.8634 16.8795 17.9268 16.8302 18.3142 16.3652C18.7087 15.8862 19.3497 15.3157 19.8216 15.0198C20.0541 14.8719 20.0893 14.5267 19.878 14.407C19.6737 14.3013 19.6526 14.3084 19.1947 14.6254Z" fill="#000F28"/>
<path d="M20.1743 15.3294C19.3713 15.9351 18.533 16.8579 18.533 17.1326C18.533 17.2101 18.6809 17.4567 18.857 17.6821C19.484 18.4992 19.8925 19.5769 19.9841 20.6829C20.0264 21.1337 20.0123 21.2534 19.8784 21.507C19.6319 21.986 19.2092 22.1199 18.6034 21.9085C18.4414 21.8522 18.2019 21.8029 18.0751 21.8029C17.7229 21.8029 17.1453 22.0142 16.941 22.2185C16.772 22.3805 16.7649 22.4298 16.8072 22.782C16.927 23.7118 17.6525 25.6208 18.6105 27.5086C19.5192 29.3048 20.2729 30.3403 21.0689 30.8757C21.6183 31.242 22.0128 31.3124 22.4636 31.1293C22.8792 30.9532 23.0271 30.7418 23.1187 30.1854C23.2807 29.1851 22.8651 26.9028 22.0269 24.1908C21.5972 22.7961 21.4986 22.3875 21.4493 21.7888C21.3718 20.8378 21.724 19.753 22.3791 18.9359C22.5622 18.7105 22.7454 18.4922 22.7947 18.4569C22.999 18.2879 23.4639 17.7032 23.4639 17.6116C23.4639 17.5553 23.2737 17.2313 23.0412 16.8861C22.4002 15.9281 21.3084 14.9771 20.8435 14.9701C20.7237 14.9701 20.4772 15.1039 20.1743 15.3294Z" fill="#0E82FD"/>
<path d="M9.45286 15.8088C9.36833 15.8934 9.30493 15.9849 9.30493 16.0202C9.30493 16.2667 10.4813 16.8936 10.6997 16.7598C11.08 16.5133 10.9814 16.2878 10.3545 15.9849C9.68531 15.6609 9.61487 15.6468 9.45286 15.8088Z" fill="#000F28"/>
<path d="M16.9971 17.1677C16.8632 17.3016 16.8985 17.5692 17.0675 17.7031C17.6099 18.1328 17.9833 18.5554 18.2087 18.9851C18.5045 19.5416 18.744 20.401 18.744 20.894C18.744 21.4083 19.1033 21.6478 19.3428 21.2885C19.547 20.9786 19.2935 19.5838 18.8849 18.7738C18.6172 18.2525 18.1241 17.6538 17.7015 17.3368C17.3352 17.0691 17.138 17.0268 16.9971 17.1677Z" fill="#000F28"/>
<path d="M16.4966 18.6036C16.3135 19.0051 16.0881 19.7658 16.0247 20.1744C15.9683 20.5407 15.926 20.5336 16.9122 20.1885C17.2433 20.0687 17.5955 19.9701 17.7082 19.9701C17.8702 19.9701 17.8984 19.9419 17.8984 19.7799C17.8984 19.3995 17.0531 18.2795 16.7572 18.2795C16.6798 18.2795 16.5882 18.3993 16.4966 18.6036Z" fill="#000F28"/>
<path d="M23.2169 18.8586C22.8365 19.2671 22.59 19.6193 22.3857 20.0349L22.0899 20.6266V21.5494V22.4722L22.5266 23.8599C23.0197 25.4096 23.3085 26.5085 23.5409 27.7201C23.7523 28.7837 23.7663 30.1925 23.5832 30.7208C23.2451 31.6929 22.1814 32.0804 21.1671 31.6014C20.0471 31.073 18.8073 29.4106 17.6521 26.8959C16.7575 24.9447 16.3419 23.7401 16.1939 22.6835C16.1094 22.0566 16.0531 21.9439 15.8206 21.9439C15.5459 21.9439 15.4754 22.1059 15.5248 22.6694C15.6234 23.7894 16.2362 25.5223 17.3351 27.7553C18.1522 29.4318 18.8566 30.5095 19.6244 31.2773C20.5402 32.1931 21.3925 32.5734 22.266 32.4748C23.1535 32.3692 23.8579 31.8479 24.1749 31.059C24.3228 30.6786 24.3369 30.5377 24.3369 29.4811C24.3369 28.5653 24.3087 28.1497 24.182 27.5087C23.9565 26.3817 23.5973 25.0222 23.1253 23.5288C22.752 22.3384 22.7238 22.2186 22.7238 21.5565C22.7238 20.9014 22.7379 20.8168 22.9563 20.3801C23.0831 20.1124 23.4071 19.6687 23.71 19.3305C24.2524 18.7318 24.3158 18.5839 24.1256 18.3937C23.9284 18.1894 23.7663 18.2739 23.2169 18.8586Z" fill="#000F28"/>
<path d="M11.7558 20.2811C11.629 20.3586 11.5092 20.429 11.4951 20.4431C11.4247 20.4924 11.8121 20.8235 12.115 20.9644C12.5025 21.1475 13.7563 21.2391 14.0099 21.1053C14.179 21.0137 14.2283 20.6545 14.0874 20.5629C14.0451 20.5347 13.714 20.5136 13.3618 20.5065C12.8265 20.4995 12.6645 20.4713 12.3545 20.3163L11.9882 20.1332L11.7558 20.2811Z" fill="#000F28"/>
<path d="M17.525 20.6066C17.0812 20.684 16.3134 21.0503 16.2077 21.2335C16.1232 21.4025 16.2077 21.6209 16.3838 21.6914C16.4472 21.7125 16.7008 21.635 16.9473 21.5153C17.1939 21.3955 17.5884 21.2758 17.8349 21.2405C18.0744 21.2053 18.2998 21.1349 18.328 21.0856C18.4196 20.9447 18.3984 20.7686 18.2787 20.6488C18.1589 20.5291 18.0462 20.522 17.525 20.6066Z" fill="#000F28"/>
<path d="M15.2217 8.43238C14.8343 8.62961 14.4892 9.11566 14.3835 9.61579C14.2919 10.0455 14.3694 10.2498 14.623 10.2498C14.8555 10.2498 14.9822 10.0948 15.0386 9.75667C15.0879 9.43968 15.4401 9.00295 15.6726 8.96773C15.8064 8.9466 15.8557 9.01704 16.067 9.47491C16.1304 9.60874 16.3981 9.65101 16.5319 9.54535C16.7714 9.34107 16.5672 8.6437 16.1938 8.41829C15.8909 8.23514 15.6092 8.24219 15.2217 8.43238Z" fill="#000F28"/>
<path d="M19.4836 9.31235C18.11 9.47436 16.2715 9.9111 15.5389 10.2422C14.6161 10.6648 13.8201 11.3551 13.5665 11.9539C13.475 12.1863 13.475 12.2216 13.5947 12.3695C13.7708 12.5879 14.0244 12.5104 14.2005 12.1863C14.3696 11.8623 14.9683 11.3129 15.4121 11.0593C16.7364 10.3126 20.0964 9.735 21.2164 10.059C21.6532 10.1929 22.0195 10.5098 22.0899 10.8198C22.2237 11.4256 21.2517 12.3484 20.1739 12.6372C19.8569 12.7217 19.7583 12.8837 19.8358 13.1443C19.9626 13.5318 21.2446 13.0739 21.9913 12.3765C22.8788 11.5524 23.0056 10.5521 22.2942 9.88292C21.787 9.40392 20.6318 9.17147 19.4836 9.31235Z" fill="#000F28"/>
<path d="M24.2387 13.0114C23.0976 13.1312 22.1184 13.258 22.0691 13.3002C21.9494 13.3988 21.9916 13.7017 22.1396 13.8003C22.2241 13.8497 22.8228 13.8215 24.288 13.6806C26.7605 13.4411 26.7323 13.4411 26.9507 13.6665C27.155 13.8637 27.169 14.0469 27.0211 14.3287C26.8943 14.5893 26.8661 14.5963 25.7673 14.7302C25.253 14.7936 24.7952 14.8781 24.7529 14.9204C24.6191 15.019 24.6402 15.3853 24.7741 15.4416C24.9149 15.4909 26.4717 15.343 26.8591 15.2444C27.169 15.1669 27.5142 14.8922 27.6551 14.6104C27.7889 14.3568 27.7889 13.751 27.6621 13.5045C27.4367 13.0678 26.9436 12.7719 26.4928 12.793C26.3942 12.8001 25.3798 12.8987 24.2387 13.0114Z" fill="#000F28"/>
<path d="M24.9426 14.0905C24.1114 14.182 23.4211 14.2595 23.4141 14.2595C23.4 14.2666 23.3929 14.3159 23.3929 14.3722C23.3929 14.5131 23.5902 14.5131 25.2455 14.3229C26.3515 14.1961 26.6332 14.1398 26.6191 14.0623C26.6051 14.0059 26.5698 13.9566 26.5276 13.9496C26.4923 13.9425 25.7738 14.0059 24.9426 14.0905Z" fill="#000F28"/>
<path d="M2.22561 14.3986C1.89454 14.4831 1.71843 14.5958 1.50711 14.8776C1.33101 15.103 1.30988 15.1946 1.30988 15.6384C1.30988 16.0821 1.33101 16.1737 1.50711 16.3991C1.76774 16.7443 2.00724 16.857 2.70461 16.9838C3.50763 17.1247 3.71896 17.1106 3.81053 16.9415C4.00072 16.5893 3.81053 16.4766 2.78914 16.3075C2.26083 16.223 2.11995 16.1526 1.99315 15.906C1.85932 15.6595 1.89454 15.4834 2.1129 15.2368L2.31718 15.0044L3.50059 15.1241C4.78966 15.258 4.86715 15.2439 4.86715 14.8917C4.86715 14.624 4.76853 14.5888 3.66965 14.4831C3.18361 14.4338 2.71165 14.3845 2.61303 14.3704C2.51442 14.3563 2.34536 14.3704 2.22561 14.3986Z" fill="#000F28"/>
<path d="M2.41554 15.6541C2.43667 15.7527 2.66208 15.8232 3.59895 16.0063C4.23996 16.1331 4.80349 16.2176 4.8528 16.2035C4.89506 16.1895 4.93733 16.0908 4.93733 15.9993C4.93733 15.7879 4.95846 15.795 3.72574 15.64C2.54233 15.4991 2.38736 15.4991 2.41554 15.6541Z" fill="#000F28"/>
<path d="M24.5763 15.6817C24.4988 15.724 24.4495 15.8367 24.4495 15.9565C24.4495 16.0833 24.4988 16.1889 24.5763 16.2241C24.6397 16.2664 25.2454 16.3298 25.9217 16.3791C27.0417 16.4636 27.1544 16.4848 27.3446 16.6397C27.6334 16.8863 27.6264 17.2174 27.3305 17.4639C27.1333 17.633 27.0769 17.647 26.612 17.6118C26.3302 17.5907 26.0203 17.5555 25.9217 17.5414C25.6963 17.5062 25.4356 17.6752 25.4356 17.8584C25.4356 18.126 25.6117 18.1894 26.4852 18.2458C27.2882 18.2951 27.3446 18.2881 27.6334 18.1331C28.0772 17.8795 28.2533 17.5766 28.2533 17.0483C28.2533 16.675 28.2251 16.5693 28.049 16.3298C27.7602 15.9353 27.4432 15.8367 26.1753 15.7451C25.5977 15.7029 25.0271 15.6606 24.9073 15.6395C24.7946 15.6254 24.6397 15.6395 24.5763 15.6817Z" fill="#000F28"/>
<path d="M25.1254 16.8655C25.0972 16.9007 25.1043 16.95 25.1395 16.9711C25.2311 17.0275 27.0555 17.1754 27.1048 17.1331C27.2105 17.0275 26.9991 16.957 26.4427 16.9148C26.0975 16.8866 25.6749 16.8514 25.4988 16.8302C25.3086 16.8091 25.1536 16.8232 25.1254 16.8655Z" fill="#000F28"/>
<path d="M2.57771 17.3734C1.65494 17.4509 1.40135 17.5284 1.14072 17.8242C0.83782 18.1764 0.732158 18.5638 0.83782 18.9654C0.950525 19.3669 1.09845 19.5711 1.44361 19.7684C1.6972 19.9093 1.77468 19.9163 2.55658 19.8811C3.44414 19.8388 3.59911 19.7825 3.59911 19.5148C3.59911 19.2189 3.45118 19.1767 2.61998 19.233C1.85217 19.2823 1.84513 19.2823 1.66902 19.1062C1.48588 18.9231 1.43657 18.6413 1.52814 18.3877C1.61267 18.1694 1.94374 18.0848 3.0708 18.0003C3.69068 17.951 4.25421 17.8806 4.32465 17.8453C4.41622 17.796 4.4444 17.7185 4.43031 17.5565L4.40918 17.3311L3.84565 17.3241C3.53571 17.317 2.96514 17.3382 2.57771 17.3734Z" fill="#000F28"/>
<path d="M2.68299 18.4982C1.99972 18.5687 1.90814 18.5969 1.90814 18.7096C1.90814 18.773 2.09833 18.78 2.63368 18.7448C3.6269 18.6743 3.88049 18.6321 3.88049 18.5194C3.88049 18.4067 3.6269 18.4067 2.68299 18.4982Z" fill="#000F28"/>
</svg>
