<svg width="41" height="40" viewBox="0 0 41 40" fill="none" xmlns="http://www.w3.org/2000/svg">
<path d="M21.4425 2.02558C21.0762 2.18759 20.7733 2.66659 20.7733 3.08924C20.7733 3.21603 20.7451 3.29351 20.7028 3.26534C20.6676 3.24421 20.6324 3.15263 20.6324 3.0681C20.6324 2.81452 20.3295 2.37074 20.0689 2.2369C19.9209 2.15237 19.6814 2.10306 19.4631 2.10306C18.9982 2.10306 18.6812 2.30734 18.4558 2.75816L18.2938 3.09628L18.4065 3.84295C18.4699 4.25151 18.5121 4.60372 18.498 4.61781C18.4769 4.63189 18.3008 4.44875 18.1036 4.2022C17.5823 3.56823 17.378 3.44144 16.892 3.44144C16.2087 3.44144 15.772 3.88522 15.772 4.57554C15.772 4.95592 15.8917 5.15316 16.6877 6.09002L17.2371 6.72399L16.892 7.08324C16.5398 7.44953 16.4623 7.69608 16.6314 7.86513C16.6807 7.91444 16.7793 7.94966 16.8568 7.94966C17.0188 7.94966 18.0261 6.91418 18.0261 6.74512C18.0261 6.67468 17.6809 6.21681 17.2653 5.71668C16.8427 5.2236 16.4834 4.75869 16.4553 4.68825C16.3425 4.37831 16.8004 3.97679 17.0892 4.13881C17.1667 4.17403 17.4907 4.52623 17.8148 4.9207C18.4276 5.66738 18.5967 5.76599 18.9418 5.62511C19.2588 5.49127 19.294 5.27291 19.1461 4.31491C19.0757 3.85704 19.0123 3.371 19.0123 3.24421C19.0123 2.79338 19.4983 2.57502 19.8082 2.892C19.928 3.01175 20.0125 3.27943 20.1393 3.92748C20.2802 4.63894 20.3436 4.81504 20.4845 4.92775C20.6958 5.0968 20.8578 5.0968 21.048 4.93479C21.1748 4.83617 21.2171 4.64598 21.3298 3.82887C21.4495 2.99766 21.4918 2.8286 21.6186 2.72294C21.9356 2.46231 22.3934 2.67363 22.3934 3.0681C22.3934 3.18081 22.33 3.80069 22.2455 4.44875C22.168 5.10385 22.1187 5.67442 22.1328 5.72373C22.1539 5.77304 22.3793 5.93505 22.64 6.09002C23.1965 6.41405 23.6402 6.886 23.9713 7.52702C24.3587 8.26665 24.4503 8.66112 24.4996 9.78113L24.5419 10.8025L24.7602 10.8237C25.0631 10.8518 25.1477 10.718 25.1899 10.1122C25.3167 8.40049 24.4855 6.48449 23.2598 5.67442C23.0204 5.51945 22.8161 5.35039 22.8161 5.30813C22.8161 5.26586 22.8795 4.73755 22.9499 4.13176C23.1119 2.85678 23.0767 2.59615 22.7034 2.2369C22.492 2.03262 22.4146 2.00444 22.0201 1.98331C21.7806 1.96922 21.52 1.99036 21.4425 2.02558Z" fill="#000F28"/>
<path d="M19.7808 5.53489C19.6329 5.9364 19.1962 6.26043 18.8017 6.26043H18.5904V6.69012C18.5904 7.11277 18.5904 7.11981 18.1818 7.5495C17.3154 8.46523 17.3436 8.3807 17.7521 9.0358C18.0973 9.59229 18.1677 9.97267 17.9846 10.2615C17.9071 10.3742 17.6112 10.6559 17.3224 10.8884C16.139 11.8253 15.1669 13.1777 15.026 14.0864C14.9627 14.4527 15.0613 14.4457 15.5121 14.0442C16.3715 13.2834 17.4985 13.0157 18.6819 13.2764C18.844 13.3116 18.9144 13.2764 19.1609 13.0157C19.5836 12.5579 19.6963 12.2902 19.7315 11.6421C19.8019 10.3953 20.5698 9.45845 21.5911 9.37392C22.2744 9.31757 22.7605 9.62751 23.0704 10.3249C23.2465 10.7264 23.4578 10.8461 23.7185 10.7053C24.0355 10.5362 24.0002 9.32461 23.6551 8.28209C23.3381 7.31704 22.9647 6.85918 22.2181 6.49993C21.7954 6.3027 21.5489 5.98571 21.5489 5.63351C21.5489 5.39401 21.4714 5.36583 21.1967 5.5208C20.9501 5.66168 20.5698 5.64759 20.2457 5.48558C19.8935 5.30243 19.8724 5.30948 19.7808 5.53489Z" fill="#0E82FD"/>
<path d="M12.9267 7.21C12.1659 7.36497 12.0532 7.47063 11.8208 8.29479C11.2925 10.091 11.0952 11.5985 11.0882 13.7962C11.0882 15.6981 11.1445 16.2758 11.4474 17.6494L11.6235 18.4453L11.37 18.6637C10.6303 19.3188 9.98931 20.5938 9.66528 22.0519C9.48918 22.8831 9.48918 25.1161 9.66528 26.0177C10.3908 29.6032 12.6802 32.7308 16.1106 34.8158C18.8649 36.4923 22.2601 37.6053 25.754 37.9645C26.8388 38.0772 29.2901 38.0138 30.072 37.8518C31.502 37.5701 32.3261 37.0418 32.7065 36.1965C33.6716 34.0551 33.3968 27.6942 32.15 22.9888C31.0159 18.7341 29.3042 16.0785 27.2051 15.3389C26.9374 15.2403 26.5711 15.1839 26.1414 15.1698L25.4863 15.1417L25.282 14.8599C24.8735 14.2964 24.1339 13.8174 23.3449 13.6131C22.8941 13.4863 21.9643 13.4863 21.5135 13.6131C21.0838 13.7258 20.3794 14.078 20.0905 14.3175L19.8722 14.5006L19.6961 14.3598C19.3087 14.0569 18.7169 13.8455 18.1675 13.8103C16.7094 13.7258 15.5048 14.4443 14.8709 15.7756L14.5961 16.3532L14.5046 16.1137C14.3566 15.7052 14.3285 14.4584 14.4694 13.9442C14.7863 12.7255 15.695 11.3872 16.7657 10.5771C17.4138 10.091 17.4772 9.73179 17.0334 8.98511C16.5544 8.18209 16.1036 8.03416 15.4203 8.47794C14.8004 8.87945 14.6807 8.81606 14.5398 7.99894C14.406 7.21 13.9692 6.99868 12.9267 7.21ZM13.9058 8.17504C14.0608 9.20348 14.4694 9.56273 15.2231 9.33027C15.3992 9.28096 15.6598 9.14713 15.8007 9.04147C15.9345 8.9358 16.0825 8.87241 16.1247 8.90058C16.174 8.92876 16.322 9.126 16.4558 9.34436L16.7094 9.73179L16.2938 10.084C14.6595 11.4858 13.7931 13.0143 13.6875 14.712C13.6382 15.4023 13.7649 16.1278 14.0397 16.7195L14.2087 17.0929L13.927 17.1774C13.7649 17.2197 13.3141 17.4239 12.9197 17.6282L12.1941 18.0016L12.0462 17.2901C11.9687 16.8956 11.863 16.2898 11.8137 15.9447C11.701 15.1205 11.701 12.6269 11.8137 11.683C11.9898 10.2812 12.4477 8.23844 12.6449 8.02711C12.7647 7.90032 13.5888 7.73831 13.7438 7.81579C13.8072 7.85101 13.8777 8.00598 13.9058 8.17504ZM23.683 14.4513C23.9859 14.6063 24.3311 14.8458 24.5424 15.0642L24.8946 15.4234L24.7185 15.5643C23.5562 16.4871 22.725 17.3535 22.0981 18.3045C20.6541 20.4952 20.2385 23.1437 20.8724 26.2009C20.964 26.6447 21.4078 28.2719 21.8516 29.8216C22.9293 33.562 22.9645 33.7733 22.6123 34.1678L22.401 34.4002L21.6402 34.3932C20.0835 34.3791 18.0971 33.6817 16.4206 32.5476C12.6802 30.0329 10.891 25.6162 11.7222 20.9249C11.8278 20.3191 11.8278 20.312 11.6799 20.1852C11.3347 19.9035 11.1727 20.1148 11.0318 21.0517C10.6092 23.8129 10.9896 26.4193 12.1448 28.7297C13.7015 31.8362 16.8503 34.2171 20.3441 34.9285C21.0979 35.0835 22.1263 35.1117 22.5489 34.999C22.8871 34.9004 23.2322 34.6115 23.352 34.3157C23.4858 33.9987 23.4717 33.3084 23.3167 32.604C23.2393 32.2729 22.8448 30.8289 22.4292 29.3989C21.443 25.9755 21.3374 25.4824 21.288 23.9679C21.2317 22.1505 21.4571 21.0164 22.1686 19.5724C22.7462 18.389 23.8451 17.0929 25.0496 16.1701C25.4722 15.8461 25.5004 15.832 25.9794 15.832C27.4023 15.8179 28.635 16.7548 29.7832 18.6989C30.9948 20.7699 32.0021 24.4046 32.4459 28.3212C32.6009 29.73 32.622 33.7733 32.4741 34.5763C32.3332 35.3582 32.143 35.9288 31.9176 36.2387C31.34 37.0347 29.4944 37.4574 27.0079 37.3728C21.9431 37.1897 16.7094 35.1117 13.6945 32.0757C11.9687 30.3358 10.7853 28.1662 10.3345 25.8909C10.1231 24.8062 10.1161 23.1508 10.3274 22.1787C10.6092 20.8685 11.0952 19.9035 11.8067 19.2061C12.0744 18.9455 12.4195 18.7482 13.5184 18.234C14.2721 17.8818 14.9272 17.5578 14.9765 17.5226C15.0188 17.4803 15.0963 17.269 15.1385 17.0506C15.1879 16.8322 15.3428 16.3885 15.4907 16.0785C15.8289 15.3812 16.3431 14.874 16.9559 14.6345C17.5195 14.4161 18.3577 14.4091 18.8015 14.6133C19.4495 14.9233 19.4495 14.8951 18.9283 15.5643C16.2233 19.0441 15.3992 23.2705 16.6601 27.1941C16.9137 27.976 17.0052 28.0887 17.3152 27.9901C17.5265 27.9267 17.5547 27.7295 17.3997 27.3139C15.9909 23.4607 16.8714 19.0652 19.7313 15.6629C20.6893 14.5218 21.4501 14.1273 22.5912 14.1766C23.0984 14.1977 23.2533 14.24 23.683 14.4513Z" fill="#000F28"/>
<path d="M17.2588 15.1416C16.8573 15.2614 16.491 15.5572 16.1881 16.001C15.7866 16.6068 15.8218 16.7265 16.4346 17.0224C16.7023 17.1492 16.97 17.2337 17.0404 17.2126C17.1109 17.1915 17.2799 16.9801 17.4208 16.7477C17.5617 16.5152 17.8505 16.0855 18.0689 15.7967C18.3013 15.4868 18.4492 15.2332 18.4211 15.1698C18.3788 15.05 17.6533 15.0289 17.2588 15.1416Z" fill="#000F28"/>
<path d="M25.1691 16.2689C24.669 16.6141 23.9575 17.2973 23.6194 17.7552C23.2954 18.1849 23.3024 18.4667 23.6335 18.5019C23.8378 18.523 23.9012 18.4737 24.2886 18.0088C24.6831 17.5298 25.3241 16.9592 25.796 16.6634C26.0285 16.5155 26.0637 16.1703 25.8524 16.0505C25.6481 15.9449 25.627 15.9519 25.1691 16.2689Z" fill="#000F28"/>
<path d="M26.1486 16.9729C25.3456 17.5787 24.5073 18.5015 24.5073 18.7762C24.5073 18.8537 24.6552 19.1002 24.8313 19.3256C25.4583 20.1427 25.8668 21.2205 25.9584 22.3264C26.0007 22.7772 25.9866 22.897 25.8527 23.1506C25.6062 23.6296 25.1835 23.7634 24.5778 23.5521C24.4157 23.4957 24.1762 23.4464 24.0494 23.4464C23.6972 23.4464 23.1196 23.6578 22.9153 23.862C22.7463 24.024 22.7392 24.0734 22.7815 24.4256C22.9013 25.3554 23.6268 27.2643 24.5848 29.1522C25.4935 30.9484 26.2472 31.9839 27.0432 32.5192C27.5926 32.8855 27.9871 32.956 28.4379 32.7728C28.8535 32.5967 29.0014 32.3854 29.093 31.8289C29.255 30.8286 28.8394 28.5464 28.0012 25.8344C27.5715 24.4397 27.4729 24.0311 27.4236 23.4323C27.3461 22.4814 27.6983 21.3966 28.3534 20.5795C28.5365 20.3541 28.7197 20.1357 28.769 20.1005C28.9733 19.9314 29.4382 19.3468 29.4382 19.2552C29.4382 19.1988 29.248 18.8748 29.0155 18.5297C28.3745 17.5717 27.2827 16.6207 26.8178 16.6137C26.698 16.6137 26.4515 16.7475 26.1486 16.9729Z" fill="#0E82FD"/>
<path d="M15.4272 17.4524C15.3427 17.5369 15.2793 17.6285 15.2793 17.6637C15.2793 17.9103 16.4557 18.5372 16.674 18.4034C17.0544 18.1568 16.9558 17.9314 16.3289 17.6285C15.6597 17.3045 15.5892 17.2904 15.4272 17.4524Z" fill="#000F28"/>
<path d="M22.9714 18.811C22.8376 18.9449 22.8728 19.2125 23.0419 19.3464C23.5843 19.7761 23.9576 20.1987 24.183 20.6284C24.4789 21.1849 24.7184 22.0443 24.7184 22.5374C24.7184 23.0516 25.0776 23.2911 25.3171 22.9318C25.5214 22.6219 25.2678 21.2272 24.8593 20.4171C24.5916 19.8958 24.0985 19.2971 23.6759 18.9801C23.3096 18.7124 23.1123 18.6701 22.9714 18.811Z" fill="#000F28"/>
<path d="M22.471 20.2471C22.2879 20.6486 22.0625 21.4094 21.9991 21.818C21.9427 22.1842 21.9005 22.1772 22.8866 21.832C23.2177 21.7123 23.5699 21.6137 23.6826 21.6137C23.8446 21.6137 23.8728 21.5855 23.8728 21.4235C23.8728 21.0431 23.0275 19.9231 22.7317 19.9231C22.6542 19.9231 22.5626 20.0428 22.471 20.2471Z" fill="#000F28"/>
<path d="M29.1913 20.5024C28.811 20.9109 28.5644 21.2631 28.3601 21.6787L28.0643 22.2704V23.1932V24.116L28.501 25.5037C28.9941 27.0534 29.2829 28.1523 29.5154 29.3639C29.7267 30.4275 29.7408 31.8363 29.5576 32.3646C29.2195 33.3367 28.1559 33.7242 27.1415 33.2452C26.0215 32.7168 24.7817 31.0544 23.6265 28.5397C22.7319 26.5885 22.3163 25.3839 22.1684 24.3273C22.0838 23.7004 22.0275 23.5877 21.795 23.5877C21.5203 23.5877 21.4499 23.7497 21.4992 24.3132C21.5978 25.4332 22.2106 27.1661 23.3095 29.3991C24.1266 31.0756 24.831 32.1533 25.5988 32.9211C26.5146 33.8369 27.3669 34.2172 28.2404 34.1186C29.1279 34.013 29.8323 33.4917 30.1493 32.7028C30.2973 32.3224 30.3113 32.1815 30.3113 31.1249C30.3113 30.2091 30.2832 29.7935 30.1564 29.1525C29.931 28.0255 29.5717 26.666 29.0998 25.1726C28.7264 23.9822 28.6982 23.8624 28.6982 23.2003C28.6982 22.5452 28.7123 22.4606 28.9307 22.0239C29.0575 21.7562 29.3815 21.3124 29.6844 20.9743C30.2268 20.3756 30.2902 20.2277 30.1 20.0375C29.9028 19.8332 29.7408 19.9177 29.1913 20.5024Z" fill="#000F28"/>
<path d="M17.7302 21.9247C17.6034 22.0022 17.4837 22.0726 17.4696 22.0867C17.3991 22.136 17.7866 22.4671 18.0895 22.608C18.4769 22.7911 19.7307 22.8827 19.9843 22.7488C20.1534 22.6573 20.2027 22.298 20.0618 22.2064C20.0195 22.1783 19.6885 22.1571 19.3363 22.1501C18.8009 22.143 18.6389 22.1149 18.329 21.9599L17.9627 21.7767L17.7302 21.9247Z" fill="#000F28"/>
<path d="M23.4993 22.2506C23.0555 22.3281 22.2877 22.6944 22.1821 22.8775C22.0975 23.0466 22.1821 23.265 22.3582 23.3354C22.4216 23.3565 22.6752 23.279 22.9217 23.1593C23.1682 23.0395 23.5627 22.9198 23.8093 22.8846C24.0488 22.8494 24.2742 22.7789 24.3023 22.7296C24.3939 22.5887 24.3728 22.4126 24.253 22.2929C24.1333 22.1731 24.0206 22.1661 23.4993 22.2506Z" fill="#000F28"/>
<path d="M21.1961 10.0762C20.8087 10.2734 20.4635 10.7595 20.3579 11.2596C20.2663 11.6893 20.3438 11.8936 20.5974 11.8936C20.8298 11.8936 20.9566 11.7386 21.013 11.4005C21.0623 11.0835 21.4145 10.6467 21.6469 10.6115C21.7808 10.5904 21.8301 10.6608 22.0414 11.1187C22.1048 11.2525 22.3725 11.2948 22.5063 11.1891C22.7458 10.9849 22.5415 10.2875 22.1682 10.0621C21.8653 9.87894 21.5835 9.88599 21.1961 10.0762Z" fill="#000F28"/>
<path d="M25.4579 10.9561C24.0843 11.1182 22.2458 11.5549 21.5132 11.886C20.5904 12.3086 19.7944 12.9989 19.5409 13.5977C19.4493 13.8301 19.4493 13.8654 19.569 14.0133C19.7451 14.2317 19.9987 14.1542 20.1748 13.8301C20.3439 13.5061 20.9426 12.9567 21.3864 12.7031C22.7107 11.9564 26.0707 11.3788 27.1907 11.7028C27.6275 11.8367 27.9938 12.1536 28.0642 12.4636C28.1981 13.0694 27.226 13.9922 26.1482 14.281C25.8312 14.3655 25.7326 14.5275 25.8101 14.7881C25.9369 15.1756 27.2189 14.7177 27.9656 14.0203C28.8532 13.1962 28.9799 12.1959 28.2685 11.5267C27.7613 11.0477 26.6061 10.8153 25.4579 10.9561Z" fill="#000F28"/>
<path d="M30.213 14.6547C29.0719 14.7745 28.0927 14.9013 28.0434 14.9435C27.9237 15.0421 27.9659 15.345 28.1139 15.4437C28.1984 15.493 28.7971 15.4648 30.2623 15.3239C32.7348 15.0844 32.7066 15.0844 32.925 15.3098C33.1293 15.5071 33.1433 15.6902 32.9954 15.972C32.8686 16.2326 32.8405 16.2396 31.7416 16.3735C31.2274 16.4369 30.7695 16.5214 30.7272 16.5637C30.5934 16.6623 30.6145 17.0286 30.7484 17.0849C30.8892 17.1342 32.446 16.9863 32.8334 16.8877C33.1433 16.8102 33.4885 16.5355 33.6294 16.2537C33.7632 16.0001 33.7632 15.3943 33.6364 15.1478C33.411 14.7111 32.9179 14.4152 32.4671 14.4364C32.3685 14.4434 31.3541 14.542 30.213 14.6547Z" fill="#000F28"/>
<path d="M30.917 15.7343C30.0858 15.8258 29.3955 15.9033 29.3884 15.9033C29.3744 15.9104 29.3673 15.9597 29.3673 16.016C29.3673 16.1569 29.5645 16.1569 31.2199 15.9667C32.3258 15.8399 32.6076 15.7836 32.5935 15.7061C32.5794 15.6497 32.5442 15.6004 32.5019 15.5934C32.4667 15.5863 31.7482 15.6497 30.917 15.7343Z" fill="#000F28"/>
<path d="M8.20003 16.0424C7.86896 16.1269 7.69286 16.2396 7.48154 16.5214C7.30543 16.7468 7.2843 16.8384 7.2843 17.2822C7.2843 17.7259 7.30543 17.8175 7.48154 18.0429C7.74217 18.3881 7.98167 18.5008 8.67903 18.6276C9.48206 18.7685 9.69338 18.7544 9.78496 18.5853C9.97515 18.2331 9.78496 18.1204 8.76356 17.9513C8.23526 17.8668 8.09437 17.7964 7.96758 17.5498C7.83374 17.3033 7.86896 17.1272 8.08733 16.8806L8.29161 16.6482L9.47502 16.7679C10.7641 16.9018 10.8416 16.8877 10.8416 16.5355C10.8416 16.2678 10.743 16.2326 9.64407 16.1269C9.15803 16.0776 8.68608 16.0283 8.58746 16.0142C8.48884 16.0001 8.31978 16.0142 8.20003 16.0424Z" fill="#000F28"/>
<path d="M8.38991 17.2977C8.41104 17.3963 8.63645 17.4667 9.57331 17.6499C10.2143 17.7767 10.7779 17.8612 10.8272 17.8471C10.8694 17.833 10.9117 17.7344 10.9117 17.6428C10.9117 17.4315 10.9328 17.4385 9.70011 17.2836C8.5167 17.1427 8.36173 17.1427 8.38991 17.2977Z" fill="#000F28"/>
<path d="M30.5506 17.3258C30.4731 17.3681 30.4238 17.4808 30.4238 17.6005C30.4238 17.7273 30.4731 17.833 30.5506 17.8682C30.614 17.9104 31.2198 17.9738 31.896 18.0232C33.0161 18.1077 33.1288 18.1288 33.319 18.2838C33.6078 18.5303 33.6007 18.8614 33.3049 19.1079C33.1076 19.277 33.0513 19.2911 32.5864 19.2559C32.3046 19.2347 31.9947 19.1995 31.896 19.1854C31.6706 19.1502 31.41 19.3193 31.41 19.5024C31.41 19.7701 31.5861 19.8335 32.4596 19.8898C33.2626 19.9391 33.319 19.9321 33.6078 19.7771C34.0515 19.5235 34.2276 19.2206 34.2276 18.6923C34.2276 18.319 34.1995 18.2133 34.0234 17.9738C33.7346 17.5794 33.4176 17.4808 32.1496 17.3892C31.572 17.3469 31.0014 17.3047 30.8817 17.2835C30.769 17.2694 30.614 17.2835 30.5506 17.3258Z" fill="#000F28"/>
<path d="M31.0998 18.509C31.0716 18.5442 31.0787 18.5935 31.1139 18.6147C31.2054 18.671 33.0299 18.819 33.0792 18.7767C33.1848 18.671 32.9735 18.6006 32.417 18.5583C32.0719 18.5301 31.6492 18.4949 31.4731 18.4738C31.2829 18.4527 31.128 18.4668 31.0998 18.509Z" fill="#000F28"/>
<path d="M8.55208 19.0165C7.6293 19.0939 7.37571 19.1714 7.11508 19.4673C6.81218 19.8195 6.70652 20.2069 6.81218 20.6084C6.92489 21.0099 7.07282 21.2142 7.41798 21.4114C7.67156 21.5523 7.74905 21.5594 8.53094 21.5241C9.4185 21.4819 9.57347 21.4255 9.57347 21.1579C9.57347 20.862 9.42555 20.8197 8.59434 20.8761C7.82653 20.9254 7.81949 20.9254 7.64339 20.7493C7.46024 20.5662 7.41093 20.2844 7.50251 20.0308C7.58704 19.8124 7.91811 19.7279 9.04516 19.6434C9.66504 19.5941 10.2286 19.5236 10.299 19.4884C10.3906 19.4391 10.4188 19.3616 10.4047 19.1996L10.3835 18.9742L9.82001 18.9671C9.51007 18.9601 8.9395 18.9812 8.55208 19.0165Z" fill="#000F28"/>
<path d="M8.65742 20.1415C7.97414 20.212 7.88257 20.2402 7.88257 20.3529C7.88257 20.4163 8.07276 20.4233 8.60811 20.3881C9.60133 20.3177 9.85492 20.2754 9.85492 20.1627C9.85492 20.05 9.60133 20.05 8.65742 20.1415Z" fill="#000F28"/>
</svg>
