<svg width="41" height="40" viewBox="0 0 41 40" fill="none" xmlns="http://www.w3.org/2000/svg">
<g clip-path="url(#clip0_425_44062)">
<circle cx="20.5" cy="3.36963" r="2.36377" fill="#0E82FD"/>
<path d="M8.20815 6.61119H14.4484L13.7389 4.25588L6.88437 3.39652L1.5896 1.88379L2.72417 5.6656L8.20815 6.61119Z" fill="#0E82FD"/>
<path d="M35.1297 6.46252L39.6133 4.04139L38.8062 2.15829L33.6503 3.41371L28.4493 4.04139L24.459 8.34562L35.1297 6.46252Z" fill="#0E82FD"/>
<path d="M19.3594 0.15625C18.5 0.460938 17.7656 1.14062 17.3594 2C16.7422 3.32031 17.1328 5.14062 18.2266 6.01562L18.5469 6.27344V7.03906V7.79688L18.1797 7.6875C17.5781 7.50781 16.75 7.07031 16.2422 6.66406C15.9844 6.45312 15.4531 5.88281 15.0547 5.39062C14.2266 4.36719 13.5938 3.79688 12.8359 3.39844C11.7188 2.8125 10.9453 2.64062 8.39062 2.41406C5.67969 2.17969 4.8125 2.01562 3.07812 1.4375C2.29688 1.17188 1.94531 1.09375 1.72656 1.11719C1.15625 1.19531 0.890625 1.625 0.890625 2.47656C0.898438 4.04688 1.54688 5.32812 2.73438 6.10938L3.23438 6.4375V7.07031C3.24219 7.8125 3.32812 8.23438 3.59375 8.79688C3.83594 9.30469 4.4375 9.98438 4.91406 10.2891C5.26562 10.5078 5.26562 10.5078 5.26562 10.9609C5.26562 11.5312 5.57031 12.4531 5.9375 13.0078C6.60938 14.0234 8.00781 14.9375 9.35938 15.2422C9.75781 15.3281 9.80469 15.3594 9.76562 15.5C9.50781 16.4453 9.52344 17.6016 9.79688 18.3984C10.0156 19.0312 10.5859 19.8594 11.1094 20.2812C11.7578 20.8125 12.4141 21.1641 14.1797 21.9219L15.7812 22.6094L15.1641 22.9844C14.0078 23.6875 13.3125 24.3047 13.3125 24.6172C13.3125 25.0391 13.7344 25.3828 14.1094 25.2656C14.2109 25.2344 14.4688 25.0625 14.6797 24.8828C15.1797 24.4609 16.0078 23.9297 16.7344 23.5625L17.3125 23.2734L18.0781 23.6094C18.5078 23.7891 18.8359 23.9609 18.8125 23.9766C18.7969 24 18.3359 24.2188 17.7969 24.4609C17.2578 24.7109 16.6172 25.0312 16.3828 25.1719C14.6641 26.2031 14.2969 27.625 15.4844 28.6797C16.1641 29.2812 16.9922 29.5938 21.2031 30.8203C25.5391 32.0859 26.2578 32.3594 27 33.0391C27.7734 33.75 28.1562 34.7578 27.9922 35.6562C27.8203 36.6172 27.1797 37.3906 26.25 37.7578C25.7109 37.9766 24.9531 38.1172 24.9531 37.9922C24.9531 37.9531 25.0781 37.7109 25.2422 37.4531C26.0078 36.2031 26.2656 35.5078 26.1641 34.8984C26.0312 34.1328 25.5781 33.5781 24.7734 33.1797C24.5469 33.0703 22.6953 32.4922 20.6562 31.8828C16.4375 30.6406 16.0391 30.5078 15.3438 30.1641C13.7969 29.3984 13.0781 28.4766 13.0781 27.25C13.0781 26.7031 12.9141 26.4844 12.5 26.4844C12.0391 26.4844 11.875 26.6953 11.8438 27.3281C11.7656 28.6641 12.5156 29.9062 13.9375 30.8281L14.5 31.1875L14.0625 31.4375C13.4609 31.7734 12.7656 32.4062 12.4141 32.9375C11.5234 34.2734 11.4844 36.0625 12.3047 37.3516C12.6406 37.875 13.2891 38.4609 13.8516 38.75C14.4141 39.0312 15.375 39.2969 15.8359 39.2969C16.6484 39.2969 17.2188 38.875 17.2812 38.2188C17.3281 37.7031 17.2109 37.3594 16.6953 36.5391C16.1406 35.6562 16.0078 35.2422 16.1562 34.8828C16.3281 34.4844 16.7109 34.2969 18.4062 33.7812C18.5234 33.75 18.5391 33.9453 18.5625 36.1875C18.5859 38.5234 18.5938 38.6484 18.7578 38.9453C19.1406 39.6484 19.7188 40 20.5156 40C21.0938 40 21.5234 39.8203 21.8828 39.4453C22.3984 38.9062 22.4141 38.8125 22.4375 36.1484L22.4609 33.7422L22.6328 33.7891C24.6484 34.3672 25.0859 34.7031 24.8438 35.4922C24.7812 35.6875 24.5469 36.1562 24.3047 36.5391C23.7969 37.3516 23.6719 37.7031 23.7188 38.2031C23.8047 39.1094 24.6172 39.4766 25.9219 39.1875C26.8047 38.9844 27.6484 38.5391 28.1797 37.9766C29.4922 36.6016 29.6562 34.5469 28.5703 32.9141C28.2266 32.3984 27.4688 31.7109 26.9297 31.4297C26.7031 31.3047 26.5156 31.1953 26.5156 31.1719C26.5156 31.1484 26.7031 31.0234 26.9219 30.8984C27.5 30.5625 28.3828 29.6562 28.6719 29.1016C29.2969 27.8984 29.2109 26.5703 28.4297 25.3438C27.8906 24.5 26.7578 23.4609 25.7109 22.8516C25.5 22.7344 25.3594 22.6094 25.3984 22.5703C25.4297 22.5391 26.1875 22.1953 27.0781 21.8047C29.2891 20.8438 29.9766 20.3906 30.6328 19.4688C31.3438 18.4844 31.5938 17.1875 31.3281 15.9453C31.2578 15.625 31.2109 15.3594 31.2266 15.3516C31.2344 15.3438 31.4922 15.2734 31.7891 15.1953C32.5547 14.9922 33.7344 14.375 34.2734 13.8984C35.1406 13.125 35.7344 11.9375 35.7344 10.9609C35.7344 10.5078 35.7344 10.5078 36.0859 10.2891C36.5625 9.98438 37.1641 9.30469 37.4062 8.79688C37.6719 8.23438 37.7578 7.8125 37.7656 7.07031V6.4375L38.2656 6.10938C39.1797 5.50781 39.7578 4.64844 39.9922 3.55469C40.2188 2.46875 40.1172 1.63281 39.7109 1.29688C39.375 1.00781 39.1172 1.03906 37.7891 1.48438C37.1562 1.69531 36.1797 1.95312 35.6172 2.05469C34.3984 2.28906 34.3672 2.29688 34.25 2.57031C34.0625 3.02344 34.3594 3.4375 34.8594 3.4375C35.2969 3.4375 37.0156 3.0625 37.9141 2.77344C38.3828 2.625 38.7812 2.5 38.8203 2.5C38.9219 2.5 38.7891 3.32812 38.6172 3.78906C38.4062 4.35156 37.8047 4.97656 37.1562 5.30469C36.2812 5.75 35.1641 5.97656 33.1641 6.11719C32.8359 6.14062 32.7031 6.19531 32.5938 6.32812C32.3906 6.57812 32.4141 6.92188 32.6562 7.16406L32.8594 7.36719L33.8516 7.3125C34.7188 7.26562 35.3828 7.17969 36.2734 6.98438L36.5391 6.92969L36.5 7.39844C36.4219 8.21875 35.9297 8.92969 35.1094 9.39844C34.4062 9.80469 32.75 10.1562 31.5703 10.1562C31.1953 10.1562 31.0859 10.1875 30.9297 10.3516C30.6641 10.6094 30.6641 11 30.9297 11.25C31.1172 11.4219 31.1562 11.4297 32 11.3828C32.8359 11.3359 34.0625 11.1641 34.3672 11.0391C34.4922 10.9922 34.5 11.0234 34.4531 11.25C34.2109 12.5 32.8906 13.6406 31.25 14.0391C30.7266 14.1641 30.7031 14.1641 30.625 14.0234C30.2891 13.4453 29.5078 12.5469 28.9375 12.0859C26.7109 10.2891 24.25 10.2422 23.7734 11.9844C23.7188 12.1719 23.7031 12.6172 23.7266 13.0703C23.7656 13.7578 23.75 13.8281 23.6406 13.7969C23.5625 13.7812 23.2734 13.7188 22.9844 13.6719L22.4531 13.5781V11.3281V9.07812L23.0078 8.94531C24.4453 8.59375 25.7969 7.66406 26.8281 6.32812C28.1328 4.625 29.2891 4.00781 31.6328 3.75C32.5 3.65625 32.7656 3.50781 32.7656 3.11719C32.7656 2.53906 32.4844 2.39844 31.5469 2.50781C29.9453 2.6875 28.9688 2.95312 28.0703 3.46094C27.2969 3.89844 26.7734 4.36719 25.9688 5.36719C25.5625 5.86719 25.0156 6.45312 24.7578 6.66406C24.25 7.07031 23.4219 7.50781 22.8281 7.6875L22.4531 7.79688V7.03906V6.27344L22.7734 6.01562C23.8984 5.11719 24.2656 3.27344 23.6016 1.92969C23.1641 1.04688 22.5 0.453125 21.6094 0.148438C21.0391 -0.046875 19.9219 -0.046875 19.3594 0.15625ZM21.3594 1.41406C22.1484 1.76562 22.6172 2.45312 22.6719 3.32031C22.7031 3.82031 22.6797 3.90625 22.4375 4.375C21.8516 5.50781 20.6484 5.90625 19.5078 5.34375C19.0312 5.11719 18.75 4.8125 18.4844 4.22656C18.3203 3.875 18.2969 3.72656 18.3281 3.28906C18.4141 2.10156 19.3203 1.25 20.5 1.25C20.8438 1.25 21.125 1.30469 21.3594 1.41406ZM4.875 3.23438C5.41406 3.34375 6.42969 3.48438 7.14062 3.55469C9.78125 3.79688 10.1641 3.84375 10.7734 3.98438C12.2578 4.32812 13.0156 4.86719 14.3047 6.48438C14.6016 6.84375 15.0859 7.35156 15.3828 7.60156C16.0156 8.13281 17.2344 8.75781 18.0234 8.95312L18.5469 9.07812V11.3281V13.5781L18.0234 13.6719C17.7266 13.7188 17.4375 13.7812 17.3594 13.7969C17.25 13.8281 17.2344 13.7578 17.2734 13.0703C17.3359 11.8984 17.1094 11.3125 16.4453 10.9453C15.0703 10.1875 12.3828 11.3125 10.9297 13.25C10.6719 13.5938 10.4219 13.9453 10.375 14.0312C10.2891 14.1797 10.2734 14.1797 9.75 14.0391C8.99219 13.8516 8.03906 13.3594 7.51562 12.8906C7.05469 12.4844 6.64844 11.7969 6.53906 11.2578C6.5 11.0234 6.50781 10.9922 6.63281 11.0391C6.9375 11.1641 8.16406 11.3359 9 11.3828C9.84375 11.4297 9.88281 11.4219 10.0703 11.25C10.3359 11 10.3359 10.6094 10.0703 10.3516C9.91406 10.1875 9.80469 10.1562 9.42969 10.1562C8.32031 10.1562 6.69531 9.82812 5.95312 9.44531C5.14844 9.03906 4.57812 8.22656 4.5 7.39844L4.46094 6.92969L4.72656 6.98438C5.61719 7.17969 6.28125 7.26562 7.14844 7.3125L8.14062 7.36719L8.34375 7.16406C8.58594 6.92188 8.60938 6.57812 8.40625 6.32812C8.28906 6.1875 8.16406 6.14062 7.79688 6.11719C7.54688 6.10156 6.98438 6.05469 6.55469 6.00781C3.79688 5.72656 2.35938 4.70312 2.16406 2.89844L2.11719 2.44531L3.00781 2.74219C3.5 2.90625 4.33594 3.125 4.875 3.23438ZM21.2031 13.4766V20.1172L20.8516 20.2578C20.5078 20.3984 20.4922 20.3984 20.1484 20.2578L19.7969 20.1172V13.4766V6.83594H20.5H21.2031V13.4766ZM15.8906 12.1094C16.1016 12.3203 16.1016 13.0156 15.8828 13.7109C15.6953 14.3281 15.2812 14.8281 14.7812 15.0391C13.4297 15.6094 13.1016 15.8281 12.8438 16.3359C12.6562 16.6875 12.6406 17.1641 12.7969 17.5391C12.9766 17.9688 13.6094 18.5781 14.2891 18.9766C14.6328 19.1797 16.5859 20.0781 18.625 20.9766C23.8984 23.2812 23.9844 23.3203 24.6797 23.7188C26.5938 24.8203 27.7109 26.1094 27.8203 27.3125C27.9141 28.3984 27.1562 29.3906 25.6484 30.1484L24.8203 30.5625L23.7891 30.2656L22.7578 29.9688L23.4844 29.7266C25.2891 29.125 26.2031 28.3047 26.2031 27.2969C26.1953 26.3672 25.5 25.5859 23.9766 24.8281C23.6797 24.6719 21.1562 23.5625 18.375 22.3594C15.6016 21.1562 13.1562 20.0781 12.9453 19.9766C10.8828 18.9297 10.2969 17.1641 11.3125 15.0391C11.7969 14.0156 12.4688 13.2734 13.5078 12.6172C14.4453 12.0156 15.5625 11.7812 15.8906 12.1094ZM26.5156 12.1328C28.2109 12.7344 29.625 14.3047 30.0781 16.0938C30.4453 17.5469 29.8359 18.9141 28.4375 19.7578C28 20.0234 23.9766 21.8125 23.8047 21.8203C23.6406 21.8281 22.1406 21.1406 22.2031 21.0859C22.2344 21.0547 23.1172 20.6484 24.1719 20.1875C26.4766 19.1719 26.9531 18.9141 27.5391 18.375C28.2812 17.6953 28.4922 16.9922 28.1562 16.3359C27.8984 15.8281 27.5703 15.6094 26.2188 15.0391C25.7188 14.8281 25.3047 14.3281 25.1172 13.7109C24.8984 13.0156 24.8984 12.3203 25.1094 12.1094C25.3203 11.8984 25.8672 11.9062 26.5156 12.1328ZM18.5469 17.1875C18.5469 18.4766 18.5312 19.5312 18.5234 19.5312C18.4375 19.5312 15.6875 18.3047 15.2266 18.0625C14.6797 17.7734 13.9375 17.1406 13.9375 16.9688C13.9375 16.8672 14.6094 16.4062 14.75 16.4062C14.9766 16.4062 15.8594 15.8984 16.2109 15.5703C16.6016 15.2031 16.625 15.1953 17.5156 15.0312C18.0234 14.9375 18.4531 14.8594 18.4922 14.8516C18.5234 14.8516 18.5469 15.8984 18.5469 17.1875ZM23.5469 15.0469C24.3516 15.1719 24.375 15.1797 24.7734 15.5625C25.1328 15.8984 26.0156 16.4062 26.25 16.4062C26.3906 16.4062 27.0625 16.8672 27.0625 16.9688C27.0625 17.1406 26.3203 17.7734 25.7734 18.0625C25.3125 18.3047 22.5625 19.5312 22.4766 19.5312C22.4688 19.5312 22.4531 18.4766 22.4531 17.1797C22.4531 14.9844 22.4609 14.8359 22.5938 14.875C22.6641 14.8984 23.0938 14.9688 23.5469 15.0469ZM20.8672 24.8125L21.2031 24.9453V27.0234V29.1094L20.8516 29.2031C20.5781 29.2734 20.4219 29.2734 20.1484 29.2031L19.7969 29.1094V27.0234V24.9453L20.0938 24.8203C20.4688 24.6641 20.4766 24.6641 20.8672 24.8125ZM18.5469 27.1406V28.7422L17.8438 28.5078C17.0547 28.2344 16.2422 27.75 16.1094 27.4609C15.9844 27.1875 16.1094 26.9531 16.5938 26.5703C16.9609 26.2812 18.3125 25.5469 18.4766 25.5469C18.5156 25.5469 18.5469 26.25 18.5469 27.1406ZM23.4219 25.9609C24.1484 26.3359 24.7656 26.8047 24.8906 27.0781C24.9531 27.2188 24.9531 27.3203 24.8906 27.4609C24.7578 27.75 23.9453 28.2344 23.1562 28.5078L22.4531 28.7422V27.1406V25.5391L22.6328 25.5859C22.7266 25.6172 23.0859 25.7891 23.4219 25.9609ZM17.2812 32.1953C17.7578 32.3359 18.1562 32.4766 18.1562 32.5C18.1562 32.5312 17.8125 32.6484 17.3984 32.7656C15.5469 33.2969 14.8438 33.9766 14.8438 35.2031C14.8516 35.6875 14.8906 35.8438 15.1328 36.3359C15.2891 36.6562 15.5547 37.1406 15.7344 37.4141C15.9062 37.6953 16.0469 37.9531 16.0469 37.9922C16.0469 38.1172 15.2891 37.9766 14.75 37.7578C13.8047 37.3828 13.1797 36.6328 13.0078 35.6484C12.7812 34.4297 13.5312 33.1406 14.8906 32.4219C15.4688 32.1094 16.125 31.8672 16.2812 31.9062C16.3438 31.9219 16.7969 32.0469 17.2812 32.1953ZM20.9609 33.2891L21.2109 33.375L21.1875 35.8594L21.1641 38.3438L20.9766 38.5469C20.7109 38.8281 20.2891 38.8281 20.0234 38.5469L19.8359 38.3438L19.8125 35.8594L19.7891 33.375L20.0078 33.2969C20.3047 33.1875 20.6562 33.1875 20.9609 33.2891Z" fill="#151515"/>
</g>
<defs>
<clipPath id="clip0_425_44062">
<rect width="40" height="40" fill="white" transform="translate(0.5)"/>
</clipPath>
</defs>
</svg>
