<svg width="41" height="41" viewBox="0 0 41 41" fill="none" xmlns="http://www.w3.org/2000/svg">
<g clip-path="url(#clip0_58_1011)">
<path d="M18.3461 0.817532C18.2133 0.950344 18.1976 1.14566 18.1664 3.25503C18.1273 5.39566 18.1117 5.60659 17.9242 6.30191C17.6195 7.47378 17.2679 8.07534 16.4164 8.92691C15.8461 9.49722 15.682 9.70816 15.682 9.87222C15.682 10.505 16.2679 10.63 16.8695 10.13C18.0023 9.20034 18.6742 8.12222 19.0336 6.67691C19.2679 5.72378 19.3539 4.75503 19.3539 2.80972C19.3539 1.17691 19.3461 1.06753 19.1898 0.872219C18.9945 0.622219 18.5726 0.590969 18.3461 0.817532Z" fill="#000F28"/>
<path d="M21.6586 0.794149C21.5101 0.903524 21.5023 1.00509 21.5023 3.23165C21.5023 5.16915 21.5258 5.66134 21.6429 6.21602C21.932 7.56759 22.5023 8.7004 23.2992 9.53634C24.1664 10.4426 24.6273 10.6379 24.9789 10.2629C25.2367 9.98165 25.182 9.68477 24.807 9.35665C23.6898 8.37227 23.1976 7.59884 22.8539 6.25509C22.7133 5.71602 22.6898 5.3254 22.6586 3.30977C22.6195 1.15352 22.6117 0.981649 22.4711 0.833212C22.2914 0.637899 21.8851 0.622274 21.6586 0.794149Z" fill="#000F28"/>
<path d="M8.40074 7.36451C8.21324 7.57545 8.16637 7.81763 8.26793 8.03638C8.36168 8.23951 8.53355 8.33326 9.08043 8.47388C9.5023 8.59107 10.1039 8.94263 10.5257 9.33326L10.8773 9.66138L10.5648 9.62232C10.3929 9.59888 9.5648 9.55201 8.71324 9.52857L7.18199 9.47388L6.97887 9.67701C6.72887 9.92701 6.72105 10.2317 6.95543 10.4661C7.1273 10.6379 7.20543 10.6458 8.72887 10.6926C9.61168 10.7239 10.4711 10.7786 10.6429 10.8098L10.9554 10.8723L10.4242 11.1692C9.47105 11.7004 8.34605 11.9739 6.69762 12.052C6.1273 12.0754 5.63512 12.1379 5.51012 12.2004C5.22105 12.3489 5.14293 12.7317 5.35387 13.0051C5.5023 13.2004 5.52574 13.2083 6.35387 13.2083C8.86168 13.2083 10.7757 12.6145 12.0492 11.4426L12.3617 11.1536L12.9086 11.3333C14.1664 11.7473 15.2054 12.3411 16.057 13.1301C17.2132 14.2004 17.8773 15.3958 18.3148 17.2239C18.5179 18.0442 18.5179 18.0989 18.5648 22.1223L18.6117 26.1926L18.8461 26.5754C19.5961 27.7786 21.3304 27.7473 21.9476 26.5286L22.1664 26.0989L22.1742 22.9739C22.1898 18.4973 22.2679 17.677 22.7992 16.1458C23.5882 13.8567 25.3695 12.1692 27.8617 11.3411L28.4476 11.1536L28.8773 11.5364C30.0257 12.5676 31.7601 13.1145 34.1976 13.2239C35.1664 13.2629 35.2601 13.2551 35.3851 13.1223C35.5414 12.9426 35.5726 12.7317 35.5023 12.4504C35.432 12.1848 35.1195 12.0754 34.4398 12.0754C32.9007 12.0754 31.182 11.677 30.2523 11.1067L29.8617 10.8645L30.1742 10.8098C30.3461 10.7708 31.2054 10.7239 32.0804 10.6926C33.6117 10.6458 33.6898 10.6379 33.8617 10.4661C34.0961 10.2317 34.0882 9.92701 33.8382 9.67701L33.6351 9.47388L32.1039 9.52857C31.2523 9.55201 30.4242 9.59888 30.2523 9.62232L29.9398 9.6692L30.2523 9.34888C30.5804 9.00513 31.6742 8.40357 31.9632 8.40357C32.4007 8.40357 32.7132 7.9192 32.5179 7.55201C32.3304 7.18482 32.0648 7.14576 31.2914 7.38795C30.2914 7.69263 29.1586 8.59107 28.5101 9.59107C28.307 9.90357 28.1664 10.0442 28.0101 10.0754C27.8851 10.0989 27.6039 10.2004 27.3773 10.302C27.1586 10.4036 26.8304 10.5364 26.6586 10.5911C25.3539 11.0129 23.7367 12.2551 22.8304 13.5208C22.057 14.6145 21.5804 15.8098 21.2132 17.5833C21.1664 17.802 21.1117 19.7395 21.0804 21.9348L21.0336 25.8879L20.8461 26.0911C20.6507 26.2942 20.4789 26.3333 20.1507 26.2473C19.7523 26.1379 19.7445 26.0286 19.7445 22.2551C19.7445 18.4504 19.6898 17.7629 19.307 16.3723C18.6586 14.0598 17.2132 12.1926 15.2054 11.0676C14.9554 10.927 14.6976 10.8098 14.6195 10.7864C14.4711 10.7629 13.9711 10.552 13.3773 10.2708C13.2054 10.1926 12.9476 10.1067 12.8148 10.0754C12.6273 10.0364 12.4945 9.91138 12.2211 9.50513C11.4945 8.45045 10.5179 7.68482 9.5023 7.38795C8.86168 7.19263 8.55699 7.19263 8.40074 7.36451Z" fill="#000F28"/>
<path d="M7.79138 13.5363C7.23669 13.6066 7.07263 13.6613 6.932 13.8097C6.72888 14.0285 6.73669 14.38 6.93981 14.5832C7.09606 14.7394 7.15856 14.7472 8.01794 14.6925C8.88513 14.6379 10.1351 14.755 10.1351 14.88C10.1351 14.9035 9.90075 15.0519 9.61169 15.2004C8.93981 15.5441 8.41638 16.0363 8.41638 16.3254C8.41638 16.591 8.73669 16.9191 8.98669 16.9191C9.08825 16.9191 9.31481 16.8097 9.47888 16.6769C9.78357 16.4347 10.4867 16.0519 10.8226 15.9425C10.9945 15.8957 11.0023 15.9035 10.9554 16.0754C10.6508 17.1535 10.2133 17.7394 9.37731 18.1613C8.70544 18.4972 8.56481 18.8019 8.89294 19.216C9.00231 19.3566 9.12731 19.4191 9.29138 19.4191C9.90075 19.4191 11.2445 18.3722 11.6429 17.5754C11.7523 17.3566 11.9398 16.8566 12.057 16.466C12.2992 15.6613 12.2367 15.7004 13.1117 15.8254C13.9789 15.9504 14.4164 16.1847 15.2914 16.9816C15.8226 17.466 16.2445 18.2082 16.4242 18.9582C16.5883 19.6691 16.5961 26.2394 16.432 26.6379C16.2914 26.9816 16.1117 27.13 15.307 27.6222C14.4711 28.1379 13.5336 29.0597 13.1976 29.7004C12.3617 31.3019 12.6586 33.1457 13.9711 34.505C14.6742 35.2238 15.6351 35.8332 16.7758 36.2629C17.9867 36.716 18.0961 36.9191 18.1039 38.5675C18.1039 40.1691 17.9086 40.0441 20.3929 40.0441C21.9789 40.0441 22.4008 40.0207 22.5258 39.9347C22.6586 39.8332 22.6742 39.6925 22.7133 38.505C22.7523 37.1925 22.7523 37.1769 22.9711 36.8879C23.0961 36.7316 23.307 36.5519 23.4398 36.4894C23.5804 36.4347 24.0414 36.2472 24.4711 36.0675C26.1508 35.3722 27.3695 34.216 27.8851 32.8097C28.1273 32.1457 28.1273 31.0597 27.8773 30.3332C27.5179 29.2863 26.4789 28.1457 25.2523 27.466C24.8617 27.2472 24.6429 27.0675 24.4945 26.8332L24.2758 26.4972V22.9347C24.2758 19.0754 24.2914 18.9113 24.7211 18.0129C24.9398 17.5519 25.8617 16.5754 26.2679 16.3722C26.4008 16.3097 26.5492 16.2082 26.6039 16.1613C26.7679 16.005 27.5258 15.8097 28.0414 15.8019L28.5179 15.7863L28.6898 16.38C28.9086 17.13 29.1351 17.6066 29.5179 18.091C29.9945 18.7004 31.0726 19.4191 31.5023 19.4191C31.7289 19.4191 31.9867 19.2238 32.0414 18.9972C32.1273 18.6535 31.9711 18.4269 31.4633 18.1691C30.8304 17.8488 30.4398 17.4816 30.1508 16.9425C29.8617 16.38 29.7211 15.9035 29.8461 15.9035C30.0179 15.9035 30.9164 16.3644 31.2836 16.6457C31.7133 16.9738 31.9476 16.9894 32.2211 16.716C32.3773 16.5597 32.4086 16.4738 32.3695 16.2785C32.3461 16.1457 32.2758 15.9816 32.2289 15.9191C32.0883 15.755 31.2679 15.2082 30.9086 15.0441C30.7289 14.9738 30.6195 14.8879 30.6586 14.8644C30.8773 14.7238 31.9008 14.6457 32.7601 14.6925L33.7054 14.7472L33.8773 14.5363C34.0883 14.2629 34.0883 14.091 33.8695 13.8332C33.7133 13.6535 33.5961 13.6222 32.9242 13.5441C31.5492 13.38 30.1586 13.6535 29.2133 14.255C28.8304 14.505 28.6742 14.5597 28.182 14.5988C26.8148 14.716 25.6976 15.216 24.5648 16.216C24.2445 16.4972 23.7054 17.3488 23.4711 17.9347C23.1195 18.8254 23.0961 19.2082 23.1195 23.13L23.1429 26.8019L23.3773 27.2629C23.6429 27.7941 23.9789 28.0988 24.8383 28.5988C27.7914 30.3175 27.557 33.2785 24.3383 34.8332C23.8539 35.0675 23.2992 35.3019 23.1039 35.3644C22.8695 35.4347 22.6039 35.6144 22.3148 35.9035C21.6976 36.505 21.5414 36.9582 21.5414 38.091V38.9504H20.4164H19.2914L19.2601 37.9894C19.2211 36.8879 19.0961 36.5207 18.5804 35.966C18.2679 35.6222 17.9945 35.4738 16.9867 35.091C16.6976 34.9738 16.3226 34.8019 16.1508 34.6925C15.9789 34.5832 15.807 34.4972 15.7679 34.4972C15.7289 34.4972 15.4164 34.2316 15.0726 33.9113C14.6195 33.4894 14.3851 33.1925 14.1898 32.8019C13.9476 32.3175 13.9242 32.216 13.9242 31.5675C13.9242 30.9425 13.9476 30.8097 14.1586 30.3957C14.4789 29.7629 15.2914 28.9738 16.1273 28.4738C16.9242 28.0129 17.182 27.7472 17.4711 27.1535L17.6742 26.7238V22.8957C17.6742 18.6379 17.6742 18.6613 17.1508 17.5441C16.8851 16.9972 16.7211 16.7629 16.1586 16.216C15.1742 15.2394 14.0648 14.7316 12.6508 14.6066C12.1664 14.5597 11.9789 14.4972 11.5883 14.2629C11.3226 14.1066 10.9164 13.9035 10.6742 13.8097C9.94763 13.5441 8.72106 13.4269 7.79138 13.5363Z" fill="#000F28"/>
<path d="M8.71328 1.91917C7.58828 2.1223 6.51796 2.59886 5.56484 3.31761C3.68984 4.73167 2.30703 6.97386 1.62734 9.70823C1.32265 10.927 1.26797 11.4582 1.27578 13.1692C1.27578 14.6926 1.29922 14.9426 1.48672 15.8332C1.6039 16.3801 1.80703 17.1301 1.93203 17.5129C3.06484 20.8567 5.58828 23.2864 8.59609 23.9192C9.28359 24.0598 10.4945 24.0598 11.182 23.9114C12.557 23.6223 13.8227 22.6614 14.432 21.4504C14.8305 20.6535 14.9398 20.1223 14.9398 18.9895C14.9398 18.091 14.9086 17.7551 14.7523 17.1223L14.557 16.3489L14.1352 16.1614C13.9008 16.0598 13.6039 15.9504 13.4789 15.927C13.268 15.8879 13.2602 15.8879 13.307 16.1457C13.3383 16.2942 13.4633 16.8176 13.5805 17.3098C13.9867 18.9348 13.8617 20.1614 13.1898 21.1848C12.4398 22.3332 11.4242 22.8567 9.94765 22.8567C8.3539 22.8489 6.90859 22.2629 5.59609 21.0832C4.9164 20.466 4.6039 20.1067 4.15859 19.4192C3.06484 17.7395 2.51015 15.8723 2.42422 13.5989C2.2914 10.091 3.40859 6.98948 5.5414 4.91917C7.49453 3.02855 9.73672 2.52073 11.8227 3.51292C12.7445 3.95042 13.432 4.70823 13.7992 5.70042C14.182 6.73948 14.1742 7.94261 13.7602 9.43479C13.6586 9.80979 13.5727 10.1614 13.5727 10.2239C13.5727 10.3098 14.5727 10.7942 14.6273 10.7317C14.6352 10.716 14.7602 10.2707 14.9008 9.73167C15.2523 8.39573 15.3148 6.91917 15.0648 5.8723C14.8227 4.85667 14.4477 4.1848 13.6898 3.44261C12.9867 2.7473 12.3148 2.36448 11.307 2.07542C10.6508 1.89573 9.2914 1.8098 8.71328 1.91917Z" fill="#0E82FD"/>
<path d="M30.4867 1.91135C29.1742 2.12229 28.1976 2.59885 27.3617 3.4426C26.2758 4.52073 25.8304 5.70042 25.8304 7.41135C25.8383 8.36448 25.8929 8.7551 26.1976 9.90354L26.4086 10.6614L26.807 10.4973C27.0258 10.4114 27.2679 10.3176 27.3461 10.302C27.5101 10.2551 27.5179 10.3332 27.2914 9.43479C27.182 9.02073 27.057 8.3801 27.0101 8.01292C26.7445 6.0676 27.6039 4.3176 29.1976 3.52854C29.8148 3.23167 30.7367 3.01292 31.3929 3.01292C32.432 3.01292 33.7601 3.49729 34.7211 4.21604C36.682 5.6926 37.8851 7.84885 38.5023 10.9817C38.5648 11.302 38.6039 12.1067 38.6039 13.1301C38.6039 14.5285 38.5726 14.8879 38.4242 15.591C38.1351 16.9426 37.6742 18.1692 37.0648 19.1848C36.8461 19.5598 36.0961 20.4973 35.7601 20.8176C33.432 23.0676 30.182 23.5442 28.432 21.8879C28.0023 21.4817 27.6117 20.8957 27.432 20.3957C27.2133 19.7551 27.1976 18.5207 27.4008 17.6223C27.7211 16.2629 27.7914 15.8801 27.7601 15.841C27.682 15.7629 26.6195 16.1457 26.557 16.2785C26.5179 16.3489 26.4008 16.7239 26.2992 17.1145C26.1429 17.7004 26.1117 18.0051 26.1117 18.9504C26.1117 19.927 26.1351 20.1535 26.2914 20.6223C26.8617 22.3254 28.0492 23.4504 29.7289 23.8801C31.2289 24.2629 33.1976 23.9426 34.7054 23.0676C37.2992 21.5676 38.9867 18.9739 39.6351 15.4739C39.8148 14.5207 39.8383 11.8332 39.6742 10.9035C38.8929 6.36448 36.3539 3.01292 32.9867 2.0676C32.3773 1.89573 31.0883 1.8176 30.4867 1.91135Z" fill="#0E82FD"/>
</g>
<defs>
<clipPath id="clip0_58_1011">
<rect width="40" height="40" fill="white" transform="translate(0.525757 0.356689)"/>
</clipPath>
</defs>
</svg>
