<svg width="41" height="40" viewBox="0 0 41 40" fill="none" xmlns="http://www.w3.org/2000/svg">
<path d="M18 1.375C16.8125 1.53906 15.5547 1.83594 14.3829 2.23438C13.3438 2.58594 11.0391 3.67188 10.6329 4C10.1797 4.375 10.336 5.07031 10.8907 5.19531C11.086 5.23438 11.2735 5.16406 11.9688 4.78125C13.9688 3.66406 16.211 2.9375 18.5079 2.65625C19.6563 2.51562 21.7266 2.54688 22.9766 2.73438C29.8985 3.74219 35.5625 8.78906 37.375 15.5625C38.1016 18.2969 38.1172 21.5078 37.4141 24.2656C35.8516 30.375 31.1329 35.1719 25.0469 36.8438C22.8672 37.4375 20.2657 37.5938 18.0235 37.2656C12.375 36.4453 7.51566 32.9375 4.92191 27.8203C3.6641 25.3359 3.07816 22.875 3.07816 20.0781C3.07816 17.2031 3.69535 14.6797 5.07035 11.9141C6.14066 9.77344 7.23441 8.39844 8.28129 7.88281C8.75785 7.64844 8.88285 7.61719 9.44535 7.625C10.1407 7.625 10.5625 7.78906 11.0313 8.23438C11.4922 8.66406 11.6954 9.16406 11.7344 9.96094C11.7735 10.8438 11.6485 11.2031 10.8907 12.3906C10.586 12.8594 10.2657 13.4375 10.1797 13.6719C9.71879 14.8594 10.0469 16.3906 10.961 17.3125C11.6875 18.0469 13.1016 18.5 13.5469 18.1406C13.6954 18.0234 13.7422 17.9141 13.7422 17.6641C13.7422 17.2422 13.5704 17.0938 12.8829 16.8906C11.9297 16.6094 11.4063 15.9609 11.3047 14.9609C11.25 14.4688 11.4141 14.0703 12.1016 13.0078C12.9297 11.7266 13.1172 11.1094 13.0625 9.83594C13.0391 9.25 12.9766 8.89844 12.8516 8.57812C11.875 6.0625 8.68754 5.48438 6.55473 7.4375C4.32816 9.47656 2.43754 13.6719 1.85941 17.8516C1.67973 19.1797 1.74223 21.8359 1.98441 23.2031C3.37504 31.0625 9.43754 37.1094 17.336 38.5234C18.2422 38.6875 18.586 38.7109 20.5 38.7109C22.4141 38.7109 22.7579 38.6875 23.6641 38.5234C31.586 37.1016 37.6016 31.0859 39.0235 23.1641C39.1875 22.2578 39.211 21.9141 39.211 20C39.211 18.0859 39.1875 17.7422 39.0235 16.8359C38.5547 14.2031 37.5938 11.7969 36.1485 9.625C33.125 5.07031 28.336 2.08594 22.8985 1.36719C21.7422 1.21875 19.1407 1.22656 18 1.375Z" fill="#000F28"/>
<path d="M18.1562 5.15625C18.0547 5.25781 18 5.41406 18 5.625C18 6.07031 18.2031 6.25 18.6953 6.25C19.1562 6.25 19.3281 6.07812 19.3281 5.61719C19.3281 5.39062 19.2812 5.28125 19.125 5.16406C18.8516 4.94531 18.3672 4.94531 18.1562 5.15625Z" fill="#0E82FD"/>
<path d="M25.5078 5.20312C25.4141 5.32031 25.3438 5.50781 25.3438 5.625C25.3438 5.74219 25.4141 5.92969 25.5078 6.04688C25.6406 6.21875 25.7266 6.25 26.0547 6.25C26.5469 6.25 26.75 6.07031 26.75 5.625C26.75 5.17969 26.5469 5 26.0547 5C25.7266 5 25.6406 5.03125 25.5078 5.20312Z" fill="#0E82FD"/>
<path d="M25.2423 8.59383C24.6563 8.6954 23.797 8.97665 23.2735 9.23446C21.2032 10.2813 19.7267 12.3907 19.5079 14.6095C19.461 15.1095 19.4532 15.1251 19.1017 15.3595C18.9063 15.4923 18.6017 15.7735 18.4298 15.9845L18.1095 16.3751L17.7579 16.1876C16.9454 15.7735 15.9688 15.9063 15.2813 16.5235C14.672 17.0704 14.5313 17.4454 14.5392 18.4532L14.5548 19.2891L14.3438 19.211C14.2267 19.1641 13.8517 19.1095 13.5079 19.086C11.4688 18.9532 9.8126 20.2579 9.1876 22.4923L9.04697 23.0001L8.58604 23.1016C7.79697 23.2813 7.16416 23.8048 6.90635 24.4845C6.78916 24.797 6.79697 25.6095 6.91416 26.0079C7.05479 26.4845 7.60166 27.0626 8.17979 27.336C9.14854 27.8048 10.3126 27.836 11.1954 27.422L11.672 27.1954V27.5626C11.672 28.0313 11.8673 29.2032 12.0313 29.7657C12.7501 32.2032 14.5392 33.9141 16.7813 34.3048C17.6642 34.4532 19.672 34.3595 20.5938 34.1173C23.797 33.2735 25.8438 30.9845 27.2188 26.7032C27.4845 25.8751 27.7657 25.0001 27.836 24.7657C27.961 24.3595 28.0157 24.297 28.9454 23.5626C31.8829 21.211 33.4063 18.8907 33.6095 16.461C33.6876 15.5157 33.586 14.4376 33.3517 13.672C32.3985 10.6251 29.5001 8.49227 26.3595 8.52352C25.9532 8.53133 25.4454 8.56258 25.2423 8.59383ZM27.8829 10.0391C28.5626 10.2266 29.5313 10.7266 30.1095 11.1954C32.0235 12.7501 32.7892 15.3282 32.0235 17.6173C31.4454 19.3204 30.1329 20.922 27.8517 22.6798C27.4063 23.0235 26.9767 23.4141 26.8985 23.547C26.8126 23.6798 26.586 24.297 26.3907 24.922C25.2579 28.5548 24.6407 29.7891 23.3126 31.0938C22.336 32.0548 20.9688 32.7345 19.5626 32.961C18.8048 33.086 17.3282 33.0704 16.7892 32.9298C15.4298 32.586 14.3438 31.672 13.7032 30.3516C13.2423 29.4141 13.0704 28.6095 13.0235 27.1876C12.9845 26.0313 13.0235 25.5235 13.2501 24.0001C13.3673 23.2032 13.2813 22.9688 12.8204 22.8595C12.3829 22.7501 12.1329 22.961 12.0001 23.5626C11.6329 25.211 11.297 25.8282 10.5782 26.1954C10.2032 26.3907 10.086 26.4141 9.69541 26.3751C9.14072 26.3204 8.51572 26.0626 8.3126 25.797C8.1251 25.5626 8.10947 25.0313 8.28135 24.7813C8.46104 24.5235 8.80479 24.3751 9.3751 24.3204C10.0704 24.2579 10.2267 24.1173 10.336 23.4923C10.586 22.0626 11.2501 21.0391 12.2032 20.6095C12.4767 20.4845 12.7423 20.4376 13.2345 20.4376C13.8126 20.4298 13.961 20.461 14.336 20.6485C14.9063 20.922 15.3673 21.4298 15.6954 22.1329C16.1017 22.9923 16.211 23.5079 16.2657 24.8282C16.3204 25.9688 16.3282 26.0391 16.5079 26.1798C16.836 26.4454 17.3751 26.3204 17.5313 25.9376C17.586 25.797 17.6095 25.3595 17.5938 24.7423L17.5704 23.7735L18.1642 24.0704C19.1876 24.586 19.8126 24.7266 21.1642 24.7266C22.1798 24.7266 22.3751 24.7032 22.6485 24.5704C23.047 24.3751 23.1876 23.961 22.9688 23.6329C22.7735 23.336 22.5313 23.2735 22.0079 23.3673C21.3751 23.4923 20.1798 23.4063 19.5626 23.2032C18.6876 22.9141 18.1563 22.5782 17.4454 21.8751C16.8673 21.3126 16.7188 21.1016 16.4142 20.4688C16.0392 19.6798 15.8829 19.086 15.8673 18.3595C15.8517 17.836 16.0001 17.5548 16.3985 17.3673C16.6251 17.2579 16.7188 17.2579 16.9767 17.336C17.3985 17.461 17.5782 17.7345 17.6407 18.3595C17.7501 19.3829 18.1329 20.1641 18.8204 20.7657C19.211 21.1095 19.9142 21.4845 20.1798 21.4845C20.7345 21.4845 21.0704 20.8673 20.7579 20.422C20.7188 20.3751 20.4767 20.2188 20.2032 20.0782C19.4063 19.6563 19.0001 19.0079 19.0001 18.1563C18.9923 17.3204 19.4688 16.6016 20.2501 16.2266C20.6954 16.0157 20.8126 15.8048 20.8126 15.1641C20.8126 13.797 21.6017 12.1641 22.711 11.2188C23.4688 10.5782 24.2735 10.172 25.2267 9.95321C25.8204 9.8204 27.2345 9.85946 27.8829 10.0391Z" fill="#000F28"/>
<path d="M16.7578 11.4531C16.6641 11.5703 16.5938 11.7578 16.5938 11.875C16.5938 11.9922 16.6641 12.1797 16.7578 12.2969C16.8906 12.4688 16.9766 12.5 17.3047 12.5C17.7969 12.5 18 12.3203 18 11.875C18 11.4297 17.7969 11.25 17.3047 11.25C16.9766 11.25 16.8906 11.2812 16.7578 11.4531Z" fill="#0E82FD"/>
<path d="M5.50781 15.2031C5.41406 15.3203 5.34375 15.5078 5.34375 15.625C5.34375 15.7422 5.41406 15.9297 5.50781 16.0469C5.64062 16.2188 5.72656 16.25 6.05469 16.25C6.54688 16.25 6.75 16.0703 6.75 15.625C6.75 15.1797 6.54688 15 6.05469 15C5.72656 15 5.64062 15.0312 5.50781 15.2031Z" fill="#0E82FD"/>
<path d="M6.90625 18.9062C6.80469 19.0078 6.75 19.1641 6.75 19.375C6.75 19.8203 6.95312 20 7.44531 20C7.90625 20 8.07812 19.8281 8.07812 19.3672C8.07812 19.1406 8.03125 19.0312 7.875 18.9141C7.60156 18.6953 7.11719 18.6953 6.90625 18.9062Z" fill="#0E82FD"/>
<path d="M35.5078 20.2031C35.4141 20.3203 35.3438 20.5078 35.3438 20.625C35.3438 20.7422 35.4141 20.9297 35.5078 21.0469C35.6406 21.2188 35.7266 21.25 36.0547 21.25C36.5469 21.25 36.75 21.0703 36.75 20.625C36.75 20.1797 36.5469 20 36.0547 20C35.7266 20 35.6406 20.0312 35.5078 20.2031Z" fill="#0E82FD"/>
<path d="M30.6562 26.4062C30.5547 26.5078 30.5 26.6641 30.5 26.875C30.5 27.3203 30.7031 27.5 31.1953 27.5C31.6562 27.5 31.8281 27.3281 31.8281 26.8672C31.8281 26.6406 31.7812 26.5312 31.625 26.4141C31.3516 26.1953 30.8672 26.1953 30.6562 26.4062Z" fill="#0E82FD"/>
<path d="M9.40625 30.1562C9.30469 30.2578 9.25 30.4141 9.25 30.625C9.25 31.0703 9.45312 31.25 9.94531 31.25C10.4062 31.25 10.5781 31.0781 10.5781 30.6172C10.5781 30.3906 10.5312 30.2812 10.375 30.1641C10.1016 29.9453 9.61719 29.9453 9.40625 30.1562Z" fill="#0E82FD"/>
<path d="M28.0078 31.4531C27.9141 31.5703 27.8438 31.7578 27.8438 31.875C27.8438 31.9922 27.9141 32.1797 28.0078 32.2969C28.1406 32.4688 28.2266 32.5 28.5547 32.5C29.0469 32.5 29.25 32.3203 29.25 31.875C29.25 31.4297 29.0469 31.25 28.5547 31.25C28.2266 31.25 28.1406 31.2812 28.0078 31.4531Z" fill="#0E82FD"/>
</svg>
