<svg width="41" height="40" viewBox="0 0 41 40" fill="none" xmlns="http://www.w3.org/2000/svg">
<path d="M25.0547 1.39811C24.2422 1.69498 23.6484 2.23404 23.25 3.04654C23.0391 3.47623 23.0391 3.48404 23.0156 5.46842C22.9922 7.14811 23.0078 7.53873 23.1172 7.95279C23.2578 8.46061 23.6953 9.20279 24.0469 9.52311C24.2422 9.70279 24.25 9.74967 24.25 10.4684C24.25 11.3044 24.1562 11.6794 23.9219 11.8044C23.8359 11.8512 23.0312 12.1403 22.1406 12.4528C20.3906 13.0622 19.8438 13.3356 19.2734 13.9215C18.9688 14.2262 18.9062 14.3434 18.9062 14.5778C18.9062 14.7965 18.9609 14.9059 19.125 15.0465C19.4453 15.3278 19.7422 15.2887 20.1328 14.9294C20.6953 14.4215 21.0625 14.2419 22.7422 13.6637C24.6016 13.0309 24.6719 12.9997 25.0078 12.6403C25.4453 12.1872 25.5 11.9528 25.5 10.4294V9.05436L25.1094 8.67936C24.8906 8.46842 24.625 8.10123 24.5078 7.84342C24.2891 7.39029 24.2891 7.36686 24.2891 5.74186C24.2891 3.90592 24.3281 3.68717 24.7812 3.18717C25.2734 2.64029 25.5547 2.54654 26.6719 2.54654C27.4297 2.53873 27.7266 2.56998 28.0156 2.67936C28.4453 2.84342 28.9531 3.35904 29.1016 3.79654C29.25 4.20279 29.25 7.07779 29.1094 7.55436C28.8906 8.28873 28.1484 9.02311 27.4297 9.23404C26.9531 9.36686 26.75 9.57779 26.75 9.92936C26.75 10.4762 27.1484 10.7028 27.7891 10.5231L28 10.4684V11.1481C28 11.6715 28.0391 11.8981 28.1641 12.1637C28.4688 12.7887 28.7812 12.9762 30.6016 13.5934C32.5 14.2419 32.7344 14.3434 33.2031 14.7809C33.6328 15.1715 33.8281 15.4919 34.0859 16.2028C34.3203 16.82 34.5391 17.0075 34.9609 16.9137C35.7031 16.7497 35.4922 15.4215 34.5312 14.2106C33.9375 13.4528 33.2656 13.0778 31.4375 12.4684C30.5547 12.1715 29.7422 11.8825 29.6328 11.8278C29.3438 11.6794 29.25 11.3512 29.25 10.4684C29.25 9.73404 29.2578 9.71061 29.4844 9.49186C29.8359 9.15592 30.1484 8.62467 30.3438 8.05436C30.5 7.58561 30.5078 7.42936 30.4844 5.51529L30.4609 3.47623L30.2344 3.00748C30.1016 2.74967 29.8203 2.35904 29.6094 2.14029C29.3906 1.92936 29 1.64811 28.7422 1.51529C28.2812 1.29654 28.25 1.28873 26.8672 1.26529C25.6484 1.24967 25.4062 1.26529 25.0547 1.39811Z" fill="#000F28"/>
<path d="M11.6718 2.67969C10.5703 3.05469 9.7109 3.79688 9.23434 4.78125C8.8984 5.46875 8.80465 5.88281 8.74215 6.91406C8.59371 9.38281 8.28902 11.5156 7.75777 13.8047L7.43746 15.1953L7.03121 15.625C6.48434 16.1953 6.17184 16.7422 6.23434 16.9922C6.32027 17.3203 6.55465 17.5 6.90621 17.5C7.19527 17.5 7.24996 17.4609 7.65621 16.9609C8.32809 16.1484 8.94527 15.7344 10.3671 15.1484C11.2578 14.7891 11.7421 14.1719 11.75 13.3984C11.75 12.9297 11.6093 12.6875 11.2812 12.6172C10.8828 12.5312 10.6406 12.7109 10.4609 13.2344L10.3046 13.7031L9.6484 14C9.1484 14.2266 9.00777 14.2656 9.04684 14.1641C9.28121 13.5547 9.82809 10.1484 9.95309 8.47656C10.1484 5.99219 10.164 5.90625 10.414 5.41406C10.6796 4.88281 11.2421 4.33594 11.8046 4.05469C12.125 3.89062 12.2968 3.86719 13 3.86719C13.7031 3.86719 13.875 3.89062 14.1953 4.05469C15.0781 4.49219 15.7578 5.41406 15.8671 6.32031L15.914 6.74219L15.2968 6.67969C14.5156 6.60938 13.6796 6.33594 13.0468 5.9375C12.4921 5.58594 12.25 5.55469 11.9531 5.78906C11.789 5.91406 11.75 6.01562 11.75 6.28906C11.75 6.58594 11.789 6.65625 12.0468 6.875C12.7656 7.47656 14.1328 7.96094 15.1015 7.96875H15.5234L15.4687 8.57031C15.4453 8.90625 15.3828 9.3125 15.3437 9.46875C15.1562 10.1406 14.3906 10.9062 13.7187 11.0938C13.5625 11.1328 13.1953 11.1719 12.9062 11.1719C12.4609 11.1719 12.3125 11.1328 11.8593 10.8984C11.1015 10.5 10.6796 10.5391 10.5078 11.0234C10.3828 11.3984 10.5546 11.7109 11.0546 12.0078C11.7265 12.3984 12.2656 12.5234 13.1875 12.4844C13.6171 12.4609 14.039 12.4219 14.1171 12.3828C14.2343 12.3359 14.25 12.3906 14.25 13.0547C14.2578 14.3047 14.5781 14.7188 16.0156 15.3125C16.9062 15.6875 17.5234 16.0703 18.0468 16.5781C18.3125 16.8281 18.4296 16.8906 18.664 16.8906C19.0625 16.8906 19.289 16.6641 19.289 16.25C19.289 15.9844 19.2343 15.8828 18.8984 15.5469C18.3515 14.9844 17.7812 14.625 16.6718 14.1328C15.5156 13.625 15.5 13.6016 15.5 12.3984C15.5 11.6641 15.5156 11.5703 15.664 11.4375C15.7578 11.3594 15.9296 11.1562 16.0546 10.9922L16.2656 10.6953L16.3125 10.9141C16.3359 11.0312 16.414 11.4688 16.4765 11.875C16.7031 13.2031 16.8281 13.6641 17.0078 13.7891C17.2734 13.9766 17.664 13.9375 17.8984 13.7031C18.125 13.4766 18.125 13.375 17.8515 11.9141C17.6015 10.6016 17.3906 8.92969 17.2968 7.46094C17.1953 5.88281 17.1328 5.53125 16.7812 4.78906C16.3125 3.79688 15.2968 2.95312 14.1796 2.625C13.5312 2.4375 12.3125 2.46094 11.6718 2.67969Z" fill="#000F28"/>
<path d="M21.3047 16.3986C20.4844 16.7033 19.8984 17.2345 19.5 18.047C19.2891 18.4689 19.2891 18.5001 19.2891 20.0001C19.2891 21.7033 19.3203 21.8439 19.8984 22.6017C20.2031 22.9923 20.2422 23.1955 20.1016 23.6955C20.0234 23.9767 19.9766 24.0158 19.0703 24.4455C18.5469 24.6955 17.9297 25.047 17.7031 25.2267C16.9062 25.8595 16.2656 26.9767 16.1562 27.922C16.1094 28.3048 16.125 28.3673 16.3047 28.547C16.5469 28.7892 16.9609 28.8205 17.2109 28.6095C17.3047 28.5392 17.4297 28.2814 17.4922 28.0236C17.7891 26.883 18.2891 26.3361 19.6719 25.6564C21.2187 24.8986 21.3672 24.7033 21.4453 23.3595C21.5 22.383 21.4609 22.2267 21.0859 21.8751C20.6406 21.4611 20.5469 21.1486 20.5469 20.0783C20.5391 18.9533 20.6172 18.6408 21.0312 18.1876C21.4297 17.7501 21.8047 17.5783 22.375 17.5783C22.9453 17.5783 23.3203 17.7501 23.7187 18.1876C24.1172 18.633 24.2109 18.9611 24.2109 20.0001C24.2109 20.6798 24.1797 20.9845 24.0703 21.2658C23.875 21.7814 23.3594 22.2267 22.7891 22.383C22.5391 22.4533 22.2734 22.5861 22.2031 22.672C21.9922 22.9142 22.0234 23.3751 22.2578 23.5939C22.4219 23.7501 22.5 23.7658 22.8828 23.7267C23.3047 23.6876 23.3125 23.6876 23.3125 23.8908C23.3125 24.1642 23.5781 24.6876 23.8437 24.9455C23.9687 25.0626 24.4844 25.3673 25 25.6173C25.5078 25.8673 26.1016 26.2189 26.3203 26.3986C26.6016 26.633 26.7812 26.7189 26.9687 26.7189C27.3281 26.7189 27.6094 26.422 27.6094 26.0392C27.6094 25.5783 27.0391 25.1017 25.7578 24.4845C24.7734 24.008 24.7266 23.9767 24.6484 23.6955C24.5078 23.1955 24.5469 22.9923 24.8437 22.6017C25.4297 21.8361 25.4609 21.7033 25.4609 20.0001V18.4767L25.2344 18.008C24.9375 17.4064 24.3437 16.8126 23.7422 16.5236C23.3359 16.3205 23.1719 16.2892 22.4922 16.2658C21.875 16.2501 21.625 16.2814 21.3047 16.3986Z" fill="#0E82FD"/>
<path d="M2.86719 17.3984C2.67969 17.4609 2.36719 17.6641 2.16406 17.8516L1.78906 18.1875L1.76562 21.5938L1.74219 25.0078L3.28125 28.5781C4.125 30.5391 4.90625 32.2891 5.01562 32.4609C5.44531 33.1641 6 33.6719 8.19531 35.3906L10.5 37.1953V37.8203C10.5 38.5625 10.625 38.75 11.125 38.75C11.6797 38.75 11.75 38.6016 11.75 37.4688V36.5L11.3359 36.1484C11.1172 35.9609 10.0469 35.1172 8.96875 34.2734C7.09375 32.8125 6.32812 32.1094 6.08594 31.6406C6.02344 31.5234 5.30469 29.875 4.48438 27.9766L3 24.5156V21.6719V18.8359L3.23438 18.7109C3.35938 18.6484 3.625 18.5938 3.82812 18.5938C4.16406 18.5938 4.22656 18.625 4.53125 18.9453C4.78125 19.2031 4.91406 19.4297 5.03125 19.8203C5.20312 20.4141 5.42188 21.7344 5.42188 22.2422C5.42188 22.6641 5.54688 22.9297 5.78906 23.0391C6.08594 23.1797 6.35156 23.1406 6.55469 22.9297C6.78906 22.7031 6.80469 22.2812 6.64062 21.0078C6.36719 18.9844 5.82031 17.9453 4.77344 17.4531C4.28906 17.2344 3.40625 17.2031 2.86719 17.3984Z" fill="#000F28"/>
<path d="M36.2266 17.4531C35.1562 17.9531 34.5859 19.1016 34.3281 21.25C34.2891 21.6094 34.25 22.0391 34.25 22.2031V22.5H34.9141H35.5781V22.2031C35.5859 21.6953 35.7969 20.375 35.9688 19.8203C36.0859 19.4297 36.2188 19.1953 36.4688 18.9453C36.7656 18.6328 36.8359 18.5938 37.1562 18.5938C37.3516 18.5938 37.6172 18.6328 37.7578 18.6797L38 18.7656V21.6484V24.5234L36.5156 27.9688C35.6953 29.8672 34.9766 31.5156 34.9141 31.6406C34.6719 32.1094 33.9219 32.7969 32.0312 34.2734C30.9531 35.1172 29.8828 35.9609 29.6641 36.1484L29.25 36.5V37.4688C29.25 38.6016 29.3203 38.75 29.875 38.75C30.375 38.75 30.5 38.5625 30.5 37.8203V37.1953L32.8047 35.3906C35.0156 33.6562 35.5938 33.125 36.0234 32.4141C36.1094 32.2656 36.875 30.5391 37.7188 28.5781L39.2578 25.0078L39.2344 21.5938L39.2109 18.1875L38.8438 17.8516C38.3828 17.4375 37.8984 17.2656 37.1875 17.2656C36.7656 17.2656 36.5312 17.3125 36.2266 17.4531Z" fill="#000F28"/>
<path d="M7.29688 24.1249C6.70312 24.2812 6.14844 24.5859 5.67969 25.0234C5.39062 25.289 5.34375 25.3749 5.34375 25.6562C5.34375 25.9765 5.35938 25.9999 8.25781 28.8906C10.9766 31.6093 11.1875 31.7968 11.4375 31.7968C11.8828 31.789 12.1953 31.4218 12.1016 31.0312C12.0703 30.8984 11.1328 29.8984 9.50781 28.2656L6.96094 25.7187L7.30469 25.539C7.875 25.2499 8.46094 25.2812 9.21094 25.6562C9.76562 25.9296 10 26.1328 11.5938 27.7031L13.3516 29.4374L13.9766 29.6484C15.875 30.2734 17.2812 31.789 17.7969 33.7499C17.9062 34.1406 17.9453 34.7421 17.9766 36.3593C18.0156 38.2656 18.0391 38.4765 18.1641 38.6015C18.3672 38.8046 18.8906 38.7968 19.0938 38.5937C19.2422 38.4453 19.25 38.3359 19.25 36.2968C19.25 33.9374 19.1953 33.5156 18.7812 32.4374C18.3281 31.2578 17.3281 30.0078 16.2656 29.289C15.75 28.9374 14.6641 28.4062 14.2891 28.3124C14.125 28.2812 13.5547 27.7656 12.4141 26.6406C11.4766 25.7109 10.5625 24.8828 10.2812 24.7031C9.32031 24.0859 8.22656 23.8671 7.29688 24.1249Z" fill="#000F28"/>
<path d="M32.2969 24.0624C31.1641 24.2656 30.6016 24.6562 28.625 26.6015C27.4609 27.7578 26.875 28.2812 26.7109 28.3124C26.3359 28.4062 25.25 28.9374 24.7344 29.289C23.6641 30.0156 22.6719 31.2578 22.2109 32.4609C21.7969 33.5312 21.75 33.8984 21.75 36.2656C21.75 38.3359 21.7578 38.4453 21.9062 38.5937C22.1094 38.7968 22.6328 38.8046 22.8359 38.6015C22.9609 38.4765 22.9844 38.2656 23.0234 36.3593C23.0547 34.7421 23.0938 34.1406 23.2031 33.7499C23.6875 31.8749 25.0156 30.3906 26.7812 29.7265C27.0703 29.6171 27.3594 29.5312 27.4297 29.5312C27.5 29.5312 28.3672 28.7265 29.3594 27.7499C31 26.1328 31.2266 25.9374 31.7891 25.6562C32.5391 25.2812 33.125 25.2499 33.6953 25.539L34.0391 25.7187L31.4922 28.2656C29.8672 29.8984 28.9297 30.8984 28.8984 31.0312C28.8047 31.4218 29.1172 31.789 29.5625 31.7968C29.8125 31.7968 30.0234 31.6093 32.7422 28.8906C35.6484 25.9921 35.6562 25.9765 35.6562 25.6562C35.6562 25.3593 35.6172 25.289 35.2812 24.9843C34.7656 24.5234 34.2031 24.2343 33.5703 24.1015C32.9922 23.9765 32.8203 23.9687 32.2969 24.0624Z" fill="#000F28"/>
</svg>
