<svg width="41" height="40" viewBox="0 0 41 40" fill="none" xmlns="http://www.w3.org/2000/svg">
<path d="M17.3571 5.26855L18.2095 7.39947L15.9365 11.2349L13.5921 16.5671L10.8223 13.7922L12.527 8.39385L17.3571 5.26855Z" fill="#0E82FD"/>
<path d="M19.3281 3.10196C18.1484 3.22696 16.8359 3.6254 15.6172 4.21915C12.6406 5.6879 10.4922 8.48477 9.75 11.8832C9.47656 13.0941 9.57031 16.1176 9.92188 17.891C10.5625 21.0863 12.5 24.1957 15.0781 26.1488C15.8125 26.7035 15.9844 26.9926 15.9766 27.6332C15.9688 28.4691 15.3828 29.3441 14.5781 29.7426C14.1641 29.9457 14.0703 29.9613 12.6094 30.0082C11.5156 30.0473 10.9688 30.0941 10.6562 30.1957C9.5 30.5551 8.39844 31.477 7.89062 32.5082C7.42188 33.4691 7.375 33.7895 7.375 35.8676C7.375 37.5707 7.38281 37.7348 7.52344 37.8988L7.67188 38.0863L20.375 38.1098C34.25 38.1254 33.4766 38.1488 33.5938 37.6957C33.6172 37.5863 33.625 36.6645 33.6094 35.6488C33.5781 34.0238 33.5547 33.727 33.4062 33.2816C32.8828 31.6879 31.4141 30.3754 29.8438 30.0863C29.5859 30.0395 28.5234 30.0004 27.4844 30.0004C26.2188 30.0004 25.5234 29.9691 25.3906 29.9066C24.9453 29.7113 24.7812 29.0395 25.1016 28.7191C25.2656 28.5629 25.3594 28.5551 27.5938 28.5082C29.5547 28.477 29.9766 28.4457 30.3047 28.3285C31.0781 28.0473 31.6328 27.6957 32.2266 27.1098C32.6953 26.6488 32.8906 26.3832 33.1406 25.8598C33.5703 24.9535 33.625 24.6098 33.625 22.8207V21.2738L33.9453 21.2191C35.1172 21.0316 35.8672 19.8285 35.4844 18.7426C35.4375 18.5941 34.8906 17.5238 34.2812 16.3676L33.1641 14.2582L33.125 13.0082C33.0938 11.7191 32.9219 10.7582 32.5391 9.65664L32.375 9.20352L32.7266 8.48477C33.125 7.68008 33.3047 7.05508 33.3281 6.35196C33.3672 5.51602 33.8516 5.67227 26.8281 4.26602C20.6484 3.03946 20.3516 2.99258 19.3281 3.10196ZM17.4062 6.57071C17.6328 6.67227 17.8047 7.03164 17.7344 7.25039C17.7031 7.32852 17.3828 7.64883 17.0234 7.96133C15.125 9.57071 13.8047 11.8363 13.6562 13.7113C13.5703 14.8363 13.4531 15.0785 13 15.0785C12.5938 15.0785 12.4531 14.852 12.4531 14.1801C12.4531 12.102 13.6016 9.71914 15.5469 7.77383C16.2422 7.07071 16.9766 6.48477 17.1484 6.48477C17.1875 6.48477 17.2969 6.52383 17.4062 6.57071ZM31.5 10.8363C31.7344 11.7035 31.8359 12.5785 31.8125 13.5238C31.8047 14.0316 31.8359 14.4535 31.9062 14.6488C31.9609 14.8207 32.5156 15.9145 33.125 17.0785C33.7422 18.2426 34.25 19.2738 34.25 19.3676C34.25 19.4613 34.1641 19.6254 34.0547 19.727C33.8906 19.8988 33.7969 19.9223 33.2891 19.9223C32.3984 19.9223 32.3438 19.9926 32.3125 21.1254L32.2812 22.0316H28.8359C25.0469 22.0316 24.8203 22.0551 23.7578 22.5004C22.4219 23.0551 21.3047 24.1098 20.6641 25.4145C20.0234 26.727 20.0312 26.6645 20.0312 32.0629V36.7973H14.3594H8.6875L8.71875 35.3285L8.74219 33.8676L9.02344 33.2816C9.38281 32.5395 9.89062 32.0316 10.6484 31.6566L11.2266 31.3754L12.7969 31.3207C13.6641 31.2895 14.4766 31.2348 14.6172 31.1879C15.1797 31.0082 15.8359 30.5785 16.2812 30.1098C17.3359 28.977 17.625 27.5082 17.0234 26.2895L16.8359 25.891L17.5625 25.1566C18.3516 24.352 18.8516 23.6488 19.6406 22.266L20.1484 21.3598L20.5 21.5004C21.0469 21.7113 22.0703 21.6879 22.5781 21.4535C23.2734 21.1332 23.7031 20.4613 23.7031 19.6957C23.7031 19.2816 23.4375 18.9848 23.0781 18.9848C22.7656 18.9848 22.375 19.352 22.375 19.6488C22.375 20.1723 21.9297 20.4457 21.2891 20.3051C20.5234 20.141 19.8516 19.5082 19.6406 18.7504C19.6016 18.602 19.5625 17.8988 19.5625 17.1879C19.5625 16.102 19.5859 15.852 19.7109 15.5863C20.1094 14.7191 21.0625 14.4535 21.8203 15.0004C22.1953 15.2738 22.25 15.3754 22.375 15.9535C22.4922 16.5395 22.6484 16.7348 23.0234 16.7426C23.2266 16.7504 23.3672 16.6957 23.5078 16.5629C23.7734 16.3129 23.7734 15.6957 23.5078 15.0395C23.3984 14.7816 23.3125 14.5316 23.3125 14.4848C23.3125 14.2582 23.9844 13.4145 24.4297 13.0785C25.375 12.3676 26.3359 11.9926 27.8047 11.7504C28.9375 11.5707 30.2266 11.0238 30.9297 10.4379C31.0625 10.3285 31.2031 10.2426 31.25 10.2348C31.3047 10.2348 31.4141 10.5082 31.5 10.8363ZM31.9844 25.2113C31.9844 25.2348 31.875 25.4301 31.7422 25.641C31.4141 26.1566 30.875 26.6176 30.2656 26.9066L29.7578 27.1488L27.4141 27.1879C24.8281 27.2348 24.7109 27.2582 24.1875 27.7582C23.3359 28.5707 23.3906 29.977 24.3125 30.7816C24.875 31.2816 25.1562 31.3285 27.4219 31.3285C29.1328 31.3285 29.4531 31.3441 29.8672 31.477C31.0781 31.852 31.9453 32.8051 32.2109 34.0473C32.2578 34.2738 32.2969 34.9848 32.2969 35.6254V36.7973H27.6875H23.0781V32.6254C23.0781 30.1879 23.1094 28.2816 23.1562 28.0395C23.2734 27.391 23.7188 26.5629 24.1719 26.141C24.6016 25.7426 25.3516 25.352 25.8984 25.2426C26.2969 25.1645 31.9844 25.1332 31.9844 25.2113Z" fill="#000F28"/>
<path d="M25.107 22.1196L32.3025 21.8418V25.2899C30.1053 25.3737 25.8718 25.9943 25.107 25.9943C24.3421 25.9943 23.6367 26.6485 23.4858 27.202L23.3458 37.0141H19.119C19.2867 35.2194 20.2764 30.9859 19.8739 27.202C19.4713 23.418 23.3123 22.1364 25.107 22.1196Z" fill="#0E82FD"/>
</svg>
