<svg width="41" height="41" viewBox="0 0 41 41" fill="none" xmlns="http://www.w3.org/2000/svg">
<g clip-path="url(#clip0_58_973)">
<path d="M13.6083 0.512939C13.3583 0.708252 13.2802 0.911377 13.077 1.91919C12.7567 3.54419 12.788 4.552 13.2098 5.68481C13.3192 5.98169 13.7645 6.79419 14.202 7.49731C15.3192 9.28638 15.5692 10.1379 15.577 12.2083V12.8411L16.1473 13.2629C16.9677 13.8801 17.1942 14.0286 17.288 14.0286C17.3427 14.0286 17.3739 13.7161 17.3739 13.0911V12.1536H20.8114H24.2489V13.0911C24.2489 13.7083 24.2802 14.0286 24.3348 14.0286C24.4364 14.0286 24.9755 13.6614 25.5927 13.1848L26.0458 12.8333V12.2004C26.0536 10.1379 26.3036 9.28638 27.4208 7.49731C27.8583 6.79419 28.3036 5.98169 28.413 5.68481C28.6786 4.95825 28.8114 4.06763 28.7567 3.34106C28.702 2.68481 28.4286 1.23169 28.2958 0.880127C28.163 0.544189 27.8739 0.356689 27.4755 0.356689C27.0458 0.356689 26.8661 0.450439 26.7098 0.747314C26.5536 1.052 26.5614 1.24731 26.788 2.38794C26.8895 2.91919 26.9598 3.37231 26.952 3.38794C26.9364 3.40356 26.6552 3.2395 26.327 3.02075C25.4989 2.48169 24.9833 2.302 24.1317 2.25513C22.9833 2.18481 22.1473 2.44263 21.2645 3.13794L20.8114 3.4895L20.3661 3.13794C19.4755 2.44263 18.6395 2.18481 17.4911 2.25513C16.6395 2.302 16.1239 2.48169 15.2958 3.02075C14.9677 3.2395 14.6864 3.40356 14.6708 3.38794C14.663 3.37231 14.7333 2.91919 14.8348 2.38794C15.1005 1.03638 15.0848 0.817627 14.6864 0.497314C14.452 0.302002 13.8583 0.309814 13.6083 0.512939ZM18.7255 4.23169C18.8895 4.31763 19.2255 4.55981 19.4833 4.77075L19.9442 5.16138V7.75513L19.952 10.3567H18.6239H17.2958L17.2567 10.1379C16.9442 8.66919 16.6552 7.96606 15.8036 6.60669C15.4364 6.02856 15.1161 5.51294 15.0848 5.46606C15.0223 5.3645 16.577 4.30981 17.038 4.13794C17.4442 3.98169 18.3427 4.03638 18.7255 4.23169ZM24.5848 4.13794C24.7489 4.20044 25.2645 4.50513 25.7333 4.80981C26.4911 5.30981 26.577 5.39575 26.5067 5.52856C26.4598 5.60669 26.1942 6.03638 25.913 6.47388C25.6239 6.91138 25.2567 7.53638 25.1005 7.85669C24.8192 8.41919 24.4052 9.677 24.4052 9.96606C24.4052 10.3567 24.3973 10.3567 22.9911 10.3567H21.6708L21.6786 7.75513V5.16138L22.1395 4.77075C22.7802 4.23169 23.2411 4.02856 23.8192 4.03638C24.077 4.03638 24.4208 4.08325 24.5848 4.13794Z" fill="#000F28"/>
<path d="M16.8036 28.4739C16.5614 28.8098 16.1864 29.2942 15.9677 29.5442L15.577 30.0051V34.9504V39.9036L15.8036 40.1301L16.0302 40.3567H20.8114H25.5927L25.8192 40.1301L26.0458 39.9036V34.9348V29.9739L25.7645 29.677C25.6161 29.5129 25.2411 29.0364 24.9286 28.6145C24.6239 28.2004 24.3427 27.8567 24.3114 27.8567C24.2802 27.8567 24.2489 28.1536 24.2489 28.5208V29.1848H20.8114H17.3739V28.5208C17.3739 28.1536 17.3427 27.8567 17.3114 27.8567C17.2723 27.8567 17.0458 28.1301 16.8036 28.4739ZM24.2489 32.427V33.8723H20.8114H17.3739V32.427V30.9817H20.8114H24.2489V32.427ZM24.2489 37.1536V38.6379H20.8114H17.3739V37.1536V35.6692H20.8114H24.2489V37.1536Z" fill="#000F28"/>
<path d="M9.75672 9.52851C8.91297 9.80195 8.14735 10.4035 7.70985 11.1223C7.35828 11.6926 6.92078 13.4582 6.66297 15.3488C6.43641 17.0051 6.37391 20.3098 6.54578 21.8801C7.04578 26.5598 8.63953 29.9348 10.8661 31.0363C11.4677 31.3332 11.4755 31.3332 12.413 31.3254C13.1942 31.3254 13.4208 31.2941 13.8036 31.1457C14.8505 30.7316 15.6552 30.0129 16.6942 28.5519C17.077 28.0129 17.8895 27.2785 18.4755 26.9426C19.6005 26.3019 21.0692 26.1535 22.2411 26.5598C23.288 26.9191 24.3036 27.6691 24.9364 28.5598C25.8817 29.8879 26.577 30.5598 27.4833 30.9894C28.1161 31.2863 28.6708 31.3957 29.4755 31.3566C30.077 31.3332 30.2255 31.3019 30.7802 31.0285C32.8036 30.0285 34.3036 27.0988 34.9677 22.8566C35.1161 21.8644 35.1395 21.4191 35.1473 19.2629C35.1473 17.7082 35.1083 16.4973 35.0458 15.9816C34.7958 13.9426 34.327 11.8801 33.9677 11.216C33.6395 10.6144 33.038 10.0519 32.3739 9.73945C31.8036 9.46601 31.7645 9.4582 30.8427 9.4582C29.913 9.4582 29.8973 9.4582 29.3036 9.75507C28.8114 9.99726 28.6083 10.1613 28.1005 10.7316C27.1317 11.8176 25.7411 13.1535 25.1083 13.591C24.4052 14.091 23.1786 14.6535 22.3739 14.8566C21.952 14.966 21.5067 15.0051 20.8114 15.0051C20.1161 15.0051 19.6708 14.966 19.2489 14.8566C18.4286 14.6535 17.2098 14.0832 16.5067 13.5832C15.8583 13.1223 14.4911 11.8176 13.5223 10.7316C13.0145 10.1613 12.8192 9.99726 12.3192 9.75507C11.7567 9.47382 11.6708 9.4582 10.8973 9.44257C10.3661 9.42695 9.95203 9.4582 9.75672 9.52851ZM11.4911 11.3488C11.6317 11.4113 11.8973 11.6301 12.077 11.8254C13.8583 13.7394 14.577 14.3879 15.9677 15.3176C17.4052 16.2785 18.788 16.7394 20.4598 16.8098C22.6161 16.9113 24.3661 16.3098 26.4989 14.7316C27.2255 14.2004 28.7411 12.7551 29.327 12.0519C29.7645 11.5285 30.0458 11.3254 30.4989 11.2238C31.2098 11.0676 32.0536 11.4426 32.3661 12.0598C32.663 12.6379 33.0223 14.2785 33.2489 16.0598C33.4052 17.341 33.3817 21.3176 33.2098 22.5051C32.9286 24.3957 32.4598 25.9816 31.7958 27.2785C31.3583 28.1535 31.2255 28.3332 30.7255 28.8488C29.9208 29.6691 29.1864 29.8019 28.1942 29.3098C27.5536 28.9973 26.913 28.3644 26.1552 27.2941C25.538 26.4348 24.663 25.6848 23.7411 25.2316C22.7098 24.7238 21.9989 24.5598 20.8114 24.5598C19.6864 24.5598 18.9442 24.716 18.0223 25.1613C16.8739 25.7004 16.2333 26.2551 15.3036 27.5051C14.3036 28.8566 13.577 29.4269 12.6864 29.5676C11.9052 29.6926 11.1942 29.3098 10.4989 28.3879C9.34266 26.8644 8.60047 24.5051 8.3036 21.4113C8.18641 20.216 8.25672 16.8879 8.4286 15.6691C8.64735 14.0207 8.97547 12.6223 9.25672 12.0598C9.63953 11.3019 10.6786 10.9738 11.4911 11.3488Z" fill="#0E82FD"/>
<path d="M10.6005 15.4739C10.1161 15.9583 10.3036 16.6223 10.9989 16.927C11.827 17.2786 12.9755 16.9739 13.1395 16.3567C13.2333 16.0051 13.1239 15.5833 12.8895 15.3801C12.7098 15.2317 12.6083 15.2161 11.7723 15.2161H10.8583L10.6005 15.4739Z" fill="#0E82FD"/>
<path d="M28.7098 15.4426C28.2802 15.8723 28.3505 16.4739 28.8739 16.8254C29.163 17.0129 29.2723 17.0364 29.8348 17.0364C30.5848 17.0364 30.9755 16.8723 31.163 16.4817C31.3583 16.0676 31.3114 15.7629 31.0223 15.4739L30.7645 15.2161H29.8505C28.9442 15.2161 28.9286 15.2239 28.7098 15.4426Z" fill="#0E82FD"/>
<path d="M19.8973 18.9114C19.6005 19.0364 19.4052 19.3801 19.4052 19.7786C19.4052 20.4973 20.6161 20.9973 21.4989 20.6223C21.9989 20.4114 22.2177 20.1458 22.2177 19.7239C22.2177 19.0676 21.6942 18.6848 21.0614 18.8801C20.8348 18.9426 20.7177 18.9426 20.5927 18.8801C20.3817 18.7708 20.202 18.7786 19.8973 18.9114Z" fill="#0E82FD"/>
<path d="M11.077 19.5675C10.8036 19.6847 10.577 20.0362 10.577 20.3565C10.577 20.7862 10.8505 21.1378 11.3192 21.3018C11.8114 21.4815 12.1708 21.4815 12.6317 21.3253C13.3817 21.0675 13.6395 20.3253 13.163 19.794C12.9364 19.5362 12.8505 19.5206 12.0614 19.5675C11.952 19.5753 11.7255 19.5597 11.5536 19.5362C11.3817 19.5206 11.163 19.5284 11.077 19.5675Z" fill="#0E82FD"/>
<path d="M28.7333 19.5675C28.4364 19.7003 28.2333 20.0363 28.2333 20.4191C28.2333 20.716 28.2723 20.8019 28.4989 21.0207C28.9989 21.4972 29.8505 21.5675 30.5302 21.1925C31.0927 20.88 31.2255 20.2472 30.8192 19.7941C30.5927 19.5363 30.4442 19.505 29.7177 19.5753C29.6083 19.5832 29.3817 19.5675 29.2098 19.5441C29.038 19.5207 28.8192 19.5285 28.7333 19.5675Z" fill="#0E82FD"/>
<path d="M15.5145 21.7395C15.1786 22.0208 15.0927 22.4817 15.3114 22.8489C15.7177 23.5442 17.2333 23.6302 17.8114 22.9974C18.3817 22.3802 17.8739 21.4427 17.0302 21.5599C16.6552 21.6145 16.663 21.6145 16.163 21.5599C15.8192 21.5208 15.7411 21.5442 15.5145 21.7395Z" fill="#0E82FD"/>
<path d="M23.9677 21.677C23.5458 21.9349 23.4442 22.5911 23.7723 22.9661C24.3505 23.6302 25.8895 23.5599 26.3114 22.8489C26.5067 22.5208 26.4442 22.0442 26.1708 21.7708C25.9677 21.5677 25.8661 21.552 25.0302 21.5989C24.9677 21.5989 24.7567 21.5833 24.5614 21.5599C24.2958 21.5286 24.1473 21.5599 23.9677 21.677Z" fill="#0E82FD"/>
<path d="M11.663 24.8488C11.5458 24.9113 11.3974 25.0831 11.327 25.2394C11.0536 25.8019 11.3895 26.3644 12.1239 26.5753C12.8349 26.7863 13.7333 26.5285 13.9755 26.0519C14.1552 25.7081 14.0849 25.2394 13.827 24.9738C13.6239 24.7785 13.4286 24.7472 12.7255 24.7941C12.6395 24.8019 12.413 24.7941 12.2177 24.7706C11.9911 24.7472 11.7958 24.7706 11.663 24.8488Z" fill="#0E82FD"/>
<path d="M27.9364 24.8801C27.538 25.1379 27.4208 25.6145 27.6473 26.052C27.7645 26.2864 28.2333 26.552 28.6786 26.6457C29.1005 26.7317 29.7802 26.5442 30.0927 26.2629C30.327 26.0442 30.3661 25.9582 30.3661 25.6614C30.3661 25.0364 29.9364 24.6535 29.3427 24.7629C29.0067 24.8332 29.0067 24.8332 28.5458 24.7707C28.2723 24.7317 28.1395 24.7551 27.9364 24.8801Z" fill="#0E82FD"/>
</g>
<defs>
<clipPath id="clip0_58_973">
<rect width="40" height="40" fill="white" transform="translate(0.811401 0.356689)"/>
</clipPath>
</defs>
</svg>
