<svg width="41" height="40" viewBox="0 0 41 40" fill="none" xmlns="http://www.w3.org/2000/svg">
<path d="M9.48438 7.4453C9.14844 7.60936 8.98438 8.24217 8.98438 9.33592C8.99219 10.1406 9.01562 10.3515 9.19531 10.8437C9.48438 11.664 9.83594 12.2031 10.4688 12.8125C11.0781 13.3906 11.8516 13.8203 12.6484 14.0234C13.2344 14.1719 14.3047 14.1719 14.9141 14.0234C15.1719 13.9609 15.4062 13.914 15.4453 13.9062C15.4766 13.9062 15.5 14.625 15.5 15.5V17.0937L15.2266 17.3359C14.8672 17.6484 14.2891 17.9375 13.7266 18.0859C12.5703 18.3906 11.3438 18.0547 10.3828 17.1875C9.89844 16.7422 9.54688 16.6719 9.28906 16.9531C8.96094 17.3203 9.16406 17.7734 9.90625 18.3281C11.0938 19.2344 12.4844 19.5547 13.8906 19.2578C14.5625 19.1172 15.3438 18.7578 15.7969 18.3828L16.1484 18.0937L16.6328 18.3515C16.8984 18.4844 17.6797 18.9375 18.3594 19.3437C19.0469 19.75 19.6797 20.1015 19.7812 20.125C20.1641 20.2265 20.6797 21.1094 20.7734 21.8515C20.8438 22.414 20.6484 23.1172 20.2656 23.6797C19.9141 24.1953 19.8672 24.5234 20.1094 24.7656C20.4844 25.1406 20.9531 24.875 21.4453 24.0234C22.1719 22.75 22.0938 21 21.25 19.8984C21.1406 19.75 21.0469 19.6172 21.0469 19.5859C21.0469 19.5469 22.2188 18.8515 23.2656 18.2812C23.8594 17.9609 23.8828 17.9531 24.1953 18.0469C24.9766 18.2812 25.5703 18.9375 25.7422 19.75C25.9141 20.5859 25.5547 21.4375 24.7891 22C24.3594 22.3125 24.2422 22.5781 24.4141 22.8828C24.6719 23.3437 25.1641 23.2656 25.8125 22.6797C27.2891 21.3515 27.3281 19.0312 25.8984 17.7187C25.4688 17.3281 24.6562 16.875 24.3906 16.875C24.2578 16.875 24.25 16.7422 24.25 15.1719V13.4687L24.6406 13.289C25.5938 12.8594 26.2734 11.914 26.3438 10.9297C26.375 10.4765 26.3594 10.3906 26.2109 10.2422C26.0078 10.039 25.625 10.0312 25.4297 10.2265C25.3438 10.3125 25.25 10.5156 25.2266 10.6797C25.0938 11.4531 24.7891 11.9062 24.2109 12.1875L23.8672 12.3515L23.0625 11.9062C22.6172 11.664 21.7656 11.164 21.1562 10.8047C20.5547 10.4531 19.9766 10.1562 19.8828 10.1562C19.7812 10.1562 19.2422 10.4297 18.6719 10.7734C16.9453 11.8047 15.25 12.7109 14.8047 12.8437C14.3281 12.9844 13.4453 13.0078 12.9453 12.8906C12.3281 12.75 11.7188 12.3984 11.2344 11.914C10.2656 10.9609 9.91406 9.71092 10.2266 8.3828C10.3594 7.8203 10.2969 7.5703 9.97656 7.42967C9.74219 7.3203 9.72656 7.3203 9.48438 7.4453ZM22.5547 12.9765L23.0781 13.2422V15.1406V17.0312L22.6797 17.25C22.4688 17.3672 21.7656 17.7656 21.125 18.1406C20.4844 18.5234 19.9219 18.8281 19.8828 18.8281C19.8359 18.8281 19.4922 18.6406 19.1172 18.414C18.7422 18.1875 18.0312 17.7734 17.5469 17.5078L16.6719 17.0156L16.6875 15.1406L16.7109 13.2578L17.5703 12.7812C18.0469 12.5156 18.7578 12.1015 19.1562 11.8594L19.8906 11.4219L20.9609 12.0625C21.5547 12.414 22.2734 12.8281 22.5547 12.9765Z" fill="#0E82FD"/>
<path d="M19.0313 13.4449C18.6094 13.6558 18.1797 14.1558 18.0704 14.5621C17.7422 15.7808 18.5391 16.9371 19.7501 17.0152C20.5782 17.0699 21.211 16.7027 21.5938 15.9527C21.7344 15.6792 21.7657 15.523 21.7344 15.0386C21.711 14.5542 21.6719 14.4136 21.4766 14.1246C21.3438 13.9449 21.086 13.6871 20.8985 13.5542C20.6094 13.3511 20.4844 13.3199 19.9688 13.2964C19.4766 13.2808 19.3047 13.3042 19.0313 13.4449ZM20.3829 14.648C20.8204 15.0777 20.5001 15.8589 19.8907 15.8589C19.2657 15.8589 18.9376 15.1167 19.3672 14.6558C19.6251 14.3746 20.1094 14.3667 20.3829 14.648Z" fill="#0E82FD"/>
<path d="M17.0313 1.92949C17.0235 1.93731 16.8751 1.96856 16.7032 1.98418C16.3829 2.01543 15.9922 2.14824 15.6563 2.32012C15.5469 2.37481 15.4219 2.42168 15.3672 2.42168C15.3126 2.42168 15.2344 2.48418 15.1954 2.55449C15.1485 2.63262 15.1094 2.66387 15.1094 2.62481C15.1094 2.48418 14.0782 3.63262 13.9688 3.90606C13.6016 4.78887 13.6251 4.75762 13.1563 4.77324C12.2657 4.79668 11.4922 4.89043 11.2891 4.99199C11.211 5.03887 11.1251 5.05449 11.1094 5.03106C11.086 5.01543 10.9688 5.03106 10.8438 5.08574C10.336 5.28887 10.0157 5.40606 9.97662 5.39824C9.89068 5.38262 8.70318 6.04668 8.70318 6.10137C8.70318 6.14824 8.67193 6.16387 8.63287 6.13262C8.58599 6.10918 8.52349 6.15606 8.47662 6.22637C8.42974 6.30449 8.39068 6.34356 8.39068 6.31231C8.39068 6.24981 8.12505 6.45293 7.82818 6.73418C7.75005 6.81231 7.68755 6.85137 7.68755 6.82012C7.68755 6.76543 7.16412 7.29668 6.80474 7.71856C6.68755 7.85137 6.60162 7.98418 6.60943 7.99981C6.62505 8.01543 6.54693 8.10137 6.43755 8.19512C6.32818 8.28106 6.27349 8.35137 6.31255 8.35918C6.3438 8.35918 6.26568 8.48418 6.13287 8.63262C6.00005 8.78887 5.89068 8.94512 5.89068 8.97637C5.89068 9.01543 5.75787 9.34356 5.58599 9.70293C5.2188 10.4998 5.14068 10.7186 5.11724 11.0154C5.10943 11.117 5.05474 11.1717 4.95318 11.1717C4.87505 11.1717 4.72662 11.2029 4.62505 11.242C4.35943 11.3514 4.14068 11.4217 4.10162 11.4061C4.08599 11.3982 4.04693 11.4295 4.01568 11.4842C3.98443 11.5311 3.91412 11.5779 3.85162 11.5936C3.67193 11.617 3.07818 12.0232 3.07818 12.1248C3.07818 12.1717 3.05474 12.1951 3.0313 12.1717C2.99224 12.1248 2.60943 12.4686 2.60943 12.5545C2.60943 12.5779 2.54693 12.6561 2.46099 12.7264C2.21099 12.9451 1.71099 13.8748 1.64849 14.2576C1.62505 14.3826 1.57818 14.5779 1.55474 14.6873C1.41412 15.2029 1.50005 16.7029 1.67193 16.9139C1.71099 16.9607 1.75787 17.0936 1.7813 17.2107C1.79693 17.3279 1.83599 17.4529 1.85943 17.492C1.88287 17.5311 1.85162 17.6639 1.7813 17.7967C1.7188 17.9295 1.64849 18.1014 1.63287 18.1795C1.61724 18.2576 1.55474 18.4764 1.48443 18.6717C1.29693 19.242 1.26568 19.4451 1.23443 20.3904C1.21099 21.1873 1.27349 21.8279 1.41412 22.1873C1.43755 22.2498 1.4688 22.3592 1.47662 22.4217C1.50005 22.6482 1.70318 23.1248 1.77349 23.1248C1.80474 23.1248 1.81255 23.1561 1.78912 23.2029C1.76568 23.242 1.7813 23.2811 1.83599 23.2811C1.89068 23.2811 1.91412 23.3045 1.88287 23.3279C1.81255 23.3982 2.39849 24.2967 2.77349 24.7029C3.06255 25.0154 3.0938 25.0779 3.11724 25.5467C3.12505 25.8279 3.16412 26.1404 3.18755 26.2498C3.25787 26.5467 3.72662 27.4373 3.8438 27.4764C3.89068 27.4998 3.93755 27.5545 3.93755 27.6092C3.93755 27.6561 4.00787 27.7498 4.0938 27.8123C4.17974 27.8748 4.25005 27.9607 4.25005 28.0076C4.25787 28.0467 4.43755 28.242 4.6563 28.4373C4.87505 28.6326 5.14849 28.8826 5.26568 28.9998C5.38287 29.1248 5.50005 29.2186 5.5313 29.2186C5.57818 29.2186 5.75787 29.3748 6.10943 29.7107C6.20318 29.8045 6.2813 29.8514 6.2813 29.8123C6.2813 29.7732 6.3438 29.8201 6.42974 29.9061C6.50787 29.9998 6.60162 30.0467 6.63287 30.0154C6.75787 29.8982 6.4688 30.3592 6.28912 30.5701C6.17974 30.6873 6.11724 30.7811 6.14849 30.7811C6.17974 30.7811 6.06255 30.9842 5.89068 31.2342C5.54693 31.7498 4.95318 32.9061 4.95318 33.0779C4.95318 33.1404 4.91412 33.2186 4.86724 33.242C4.82037 33.2732 4.80474 33.3436 4.82818 33.4061C4.85162 33.4686 4.8438 33.5154 4.80474 33.5154C4.76568 33.5154 4.71099 33.6482 4.67193 33.8045C4.60162 34.1482 4.58599 34.2107 4.56255 34.2342C4.54693 34.2654 4.51568 34.3982 4.36724 35.0389C4.23443 35.6482 4.17193 36.2889 4.14068 37.2654C4.10162 38.5154 4.13287 38.5311 6.57818 38.492C7.55474 38.4764 8.4063 38.4529 8.47662 38.4295C8.66412 38.3748 8.86724 38.1951 8.82037 38.1248C8.79693 38.0857 8.81255 38.0389 8.85943 38.0076C8.89849 37.9842 8.93755 37.8904 8.93755 37.8045C8.93755 37.5232 9.25005 36.7264 9.51568 36.3123C9.78912 35.8904 10.2188 35.3904 10.3047 35.3904C10.3282 35.3904 10.4297 35.3045 10.5313 35.1951C10.6329 35.0857 10.7501 34.9998 10.7891 34.9998C10.8282 34.9998 10.9297 34.9295 11.0079 34.8436C11.086 34.7576 11.1954 34.6873 11.2501 34.6873C11.3047 34.6873 11.4141 34.617 11.4922 34.5389C11.5704 34.4529 11.6876 34.3748 11.7501 34.3592C11.8126 34.3436 12.0157 34.2576 12.2032 34.1639C12.3985 34.0623 12.5782 34.0076 12.6172 34.0311C12.6563 34.0545 12.6876 34.0311 12.6876 33.9842C12.6876 33.9373 12.711 33.9139 12.7501 33.9373C12.8829 34.0154 14.4844 33.117 14.4844 32.9607C14.4844 32.9217 14.5313 32.8904 14.5938 32.8904C14.7579 32.8904 15.6563 31.867 15.6563 31.6717C15.6563 31.6248 15.711 31.5389 15.7735 31.4842C15.9063 31.3748 16.2501 30.6248 16.2188 30.5232C16.211 30.492 16.2422 30.4686 16.2891 30.4686C16.336 30.4686 16.3594 30.4217 16.336 30.367C16.3204 30.3201 16.336 30.2107 16.3751 30.1326C16.4766 29.9373 16.5704 29.4373 16.586 28.9998C16.5938 28.9061 16.7969 28.9061 17.0626 28.9998C17.2501 29.0701 17.8751 29.2498 17.961 29.2654C18.0079 29.2654 18.0938 29.2967 18.1563 29.3201C18.3829 29.4061 19.7969 29.7967 19.9141 29.8045C19.961 29.8045 20.0391 29.8357 20.0938 29.8748C20.1485 29.9061 20.2188 29.9217 20.2344 29.8982C20.2579 29.8748 20.4376 29.9139 20.6407 29.9764C20.8438 30.0389 21.1172 30.1014 21.2422 30.117C21.3751 30.1404 21.5626 30.1717 21.6719 30.1951C22.0079 30.2732 23.3516 30.4217 23.7422 30.4217C23.9688 30.4217 24.5626 30.3592 25.2266 30.2732C25.5938 30.2186 26.3672 30.0076 26.4766 29.9217C26.5235 29.8904 26.6407 29.8357 26.7422 29.8045C26.8516 29.7732 27.0704 29.6482 27.2422 29.5232C27.4141 29.3982 27.586 29.2967 27.6172 29.2967C27.7735 29.2967 29.2657 27.9061 29.211 27.8123C29.1876 27.7732 29.2266 27.7264 29.2969 27.7029C29.3594 27.6795 29.3985 27.6248 29.3751 27.5936C29.3516 27.5545 29.3907 27.4529 29.4688 27.367C29.5391 27.2889 29.6407 27.1482 29.6954 27.0623C29.7422 26.9842 29.8126 26.9217 29.8516 26.9295C30.8126 27.1092 33.1016 27.0857 33.4297 26.8904C33.5079 26.8436 33.5313 26.8357 33.8204 26.7654C33.9063 26.7498 33.9766 26.7264 33.9766 26.7186C33.9766 26.7107 34.0469 26.6951 34.1407 26.6795C34.2344 26.6561 34.4688 26.5779 34.6719 26.492C34.8672 26.4061 35.0469 26.3436 35.0626 26.3514C35.0704 26.3592 35.1485 26.3123 35.2188 26.2498C35.2969 26.1873 35.4063 26.1326 35.4688 26.1248C35.5313 26.117 35.711 25.9998 35.8829 25.867C36.0469 25.7342 36.2266 25.6248 36.2735 25.6248C36.3204 25.6248 36.3594 25.5857 36.3594 25.5467C36.3594 25.4998 36.4063 25.4686 36.4688 25.4686C36.586 25.4686 37.9219 24.1951 37.9219 24.0857C37.9219 24.0467 37.9922 23.9686 38.0782 23.9061C38.1641 23.8436 38.2344 23.7654 38.2344 23.7264C38.2344 23.6873 38.3204 23.5467 38.4219 23.4139C38.7032 23.0389 39.3047 21.8514 39.2657 21.7342C39.2501 21.6873 39.2735 21.6404 39.3204 21.6404C39.3672 21.6404 39.3985 21.617 39.3907 21.5779C39.3829 21.5467 39.4297 21.367 39.4844 21.1717C39.7032 20.4373 39.7891 19.8123 39.7969 18.9842C39.8047 18.2107 39.711 17.1482 39.6407 17.1482C39.6329 17.1482 39.6172 17.0779 39.6016 16.992C39.5313 16.5389 39.3516 16.0154 39.1563 15.6404C39.0782 15.4998 39.0157 15.3357 39.0157 15.2732C39.0157 15.2186 38.9688 15.117 38.9219 15.0623C38.8516 14.992 38.8204 14.6561 38.8126 14.0232C38.8126 13.0232 38.7891 12.8748 38.6407 12.5936C38.586 12.4998 38.5626 12.3904 38.586 12.3514C38.6094 12.3123 38.5704 12.2186 38.5001 12.1561C38.4297 12.0857 38.3672 11.9842 38.3594 11.9295C38.3126 11.6561 37.2735 10.3904 37.086 10.3904C37.0469 10.3904 36.9297 10.3201 36.8282 10.2342C36.7266 10.1482 36.6016 10.0779 36.5391 10.0779C36.4844 10.0779 36.4376 10.0389 36.4376 9.99981C36.4376 9.95293 36.3672 9.92168 36.2813 9.92168C36.1954 9.92168 36.1251 9.89043 36.1251 9.85137C36.1251 9.82012 35.9688 9.74199 35.7813 9.68731C35.4844 9.60918 35.4219 9.55449 35.3829 9.34356C35.3282 9.10137 35.0157 8.49981 34.8282 8.28106C34.4219 7.81231 34.0157 7.39824 34.0157 7.46074C34.0157 7.50762 33.9922 7.50762 33.9532 7.46074C33.8594 7.32793 33.2969 6.99199 32.9219 6.84356C32.5235 6.67949 31.2501 6.60137 30.8438 6.71074C30.6172 6.77324 30.586 6.75762 30.5469 6.60918C30.5235 6.51543 30.4376 6.36699 30.3438 6.27324C30.2579 6.17949 30.1876 6.07012 30.1876 6.03106C30.1876 5.88262 28.4688 4.21856 28.3204 4.21856C28.2891 4.21856 28.1954 4.15606 28.1094 4.07793C27.9063 3.90606 27.6954 3.77324 27.4532 3.66387C27.3438 3.61699 27.1251 3.50762 26.9688 3.42168C26.711 3.28887 26.0626 3.07012 25.7344 3.00762C25.6719 2.99199 25.6094 2.97637 25.6016 2.96856C25.586 2.95293 25.5157 2.94512 25.4454 2.92949C25.3672 2.92168 25.2344 2.88262 25.1485 2.84356C24.9766 2.77324 22.9454 2.75762 22.5704 2.83574C22.4454 2.85918 22.1954 2.89824 22.0235 2.92168C21.6797 2.96856 20.8985 3.19512 20.7735 3.28106C20.6251 3.39043 20.2657 3.44512 20.2657 3.35918C20.2657 3.24199 19.5469 2.57793 19.4766 2.62481C19.4376 2.64824 19.4063 2.63262 19.4063 2.58574C19.4063 2.53887 19.3204 2.48418 19.211 2.45293C19.1016 2.42949 19.0157 2.37481 19.0157 2.32793C19.0157 2.28887 18.9844 2.27324 18.9454 2.29668C18.9063 2.32793 18.8594 2.31231 18.8438 2.27324C18.836 2.22637 18.7266 2.17949 18.6094 2.15606C18.4922 2.14043 18.3672 2.10137 18.3282 2.08574C18.2032 1.99981 17.0938 1.86699 17.0313 1.92949ZM18.2344 3.23418C18.6719 3.35918 19.1172 3.69512 19.3672 4.07793C19.4376 4.19512 19.5313 4.27324 19.5704 4.24981C19.6094 4.22637 19.6407 4.26543 19.6407 4.32793C19.6407 4.39043 19.7969 4.62481 19.9844 4.83574C20.6172 5.54668 20.7501 5.85918 20.7735 6.62481C20.7891 6.99981 20.7657 7.34356 20.7188 7.39824C20.6797 7.45293 20.6641 7.52324 20.6876 7.57012C20.711 7.60918 20.711 7.65606 20.6797 7.67168C20.6407 7.67949 20.5469 7.83574 20.461 8.00762C20.3751 8.17949 20.2266 8.42168 20.1329 8.53887C19.7891 8.96856 19.961 9.43731 20.4766 9.50762C20.7501 9.54668 20.8047 9.52324 20.9766 9.29668C21.0782 9.16387 21.211 8.99981 21.2657 8.94512C21.3126 8.88262 21.3594 8.80449 21.3594 8.75762C21.3594 8.71074 21.3907 8.67168 21.4376 8.67168C21.4766 8.67168 21.5391 8.57793 21.5626 8.45293C21.5938 8.33574 21.6407 8.20293 21.6719 8.16387C21.711 8.11699 21.7579 7.96074 21.7813 7.81231C21.8047 7.66387 21.8594 7.41387 21.8907 7.26543C21.9532 6.96856 21.9532 6.93731 21.8751 6.17168C21.8204 5.62481 21.461 4.78887 21.1797 4.52324C21.0469 4.39824 21.0313 4.35137 21.1485 4.38262C21.1563 4.38262 21.2735 4.34356 21.3985 4.29668C22.5469 3.85137 24.2344 3.75762 25.3829 4.07793C25.5547 4.12481 25.7422 4.16387 25.7969 4.14824C25.8438 4.14043 25.8907 4.17168 25.8907 4.21074C25.8907 4.25762 26.0157 4.31231 26.1641 4.34356C26.3126 4.36699 26.461 4.42168 26.4844 4.46074C26.5079 4.49981 26.5547 4.51543 26.5938 4.49199C26.6251 4.46856 26.6954 4.50762 26.7501 4.57012C26.8047 4.63262 26.8829 4.68731 26.9219 4.68731C26.961 4.68731 27.1172 4.78106 27.2657 4.89043C27.4141 5.00762 27.5313 5.07012 27.5313 5.04668C27.5313 4.98418 28.8516 6.14824 28.8751 6.23418C28.8985 6.28887 29.0626 6.50762 29.2344 6.67949C29.2813 6.74199 29.3282 6.82012 29.3282 6.85918C29.3282 6.90606 29.3594 6.95293 29.3907 6.96856C29.4532 6.99199 29.6094 7.24981 30.1172 8.17168C30.2735 8.45293 30.3438 8.67168 30.3438 8.95293C30.3438 9.48418 30.3282 9.60918 30.2579 9.60918C30.2266 9.60918 30.1563 9.72637 30.1094 9.87481C30.0626 10.0232 29.9766 10.1639 29.9141 10.1873C29.7344 10.2498 29.7735 10.7029 29.9688 10.9139C30.2344 11.2029 30.5938 11.1561 30.8829 10.8045C31.0157 10.6404 31.1251 10.4842 31.1251 10.4451C31.1251 10.4139 31.1954 10.2264 31.2813 10.0311C31.5079 9.53887 31.5079 7.97637 31.2813 7.90606C31.0782 7.83574 31.2422 7.77324 31.6251 7.78106C32.3516 7.78887 32.9532 8.02324 33.4454 8.49199C33.5001 8.53887 33.5704 8.59356 33.6016 8.60918C33.8047 8.69512 34.2657 9.52324 34.3594 9.96074C34.3907 10.1092 34.6563 10.6248 34.711 10.6326C34.7344 10.6404 34.8438 10.6561 34.9532 10.6639C35.3047 10.7186 35.3907 10.742 35.8594 10.9764C36.4297 11.2654 37.1016 11.9139 37.336 12.4061C37.6954 13.1482 37.7422 13.367 37.7032 14.0623C37.6876 14.4295 37.6719 14.8279 37.6641 14.9607C37.6641 15.0857 37.7501 15.3436 37.8672 15.5232C37.9766 15.7029 38.0938 15.9451 38.1251 16.0701C38.1563 16.1873 38.211 16.3045 38.2422 16.3279C38.2813 16.3514 38.3282 16.4607 38.3438 16.5623C38.3594 16.6717 38.3829 16.7576 38.3907 16.7576C38.4063 16.7576 38.4454 16.9217 38.5079 17.2264C38.5313 17.3514 38.586 17.5857 38.6172 17.742C38.7032 18.1092 38.6563 19.7889 38.5626 20.1951C38.3438 21.0936 38.2032 21.5311 38.1251 21.6404C38.0704 21.7029 37.9532 21.9295 37.8516 22.1482C37.7501 22.3592 37.586 22.6482 37.4844 22.7889C37.3829 22.9217 37.2969 23.0701 37.2969 23.117C37.2969 23.1639 37.2579 23.2029 37.2188 23.2029C37.1719 23.2029 37.0782 23.3045 37.0001 23.4217C36.8047 23.7498 35.5469 24.8357 35.3751 24.8436C35.3282 24.8436 35.2266 24.9139 35.1485 24.9998C35.0704 25.0857 34.9922 25.1404 34.9688 25.117C34.9532 25.1014 34.7891 25.1639 34.6094 25.2498C34.2188 25.4607 33.5704 25.7107 33.336 25.742C33.2501 25.7576 33.1016 25.7889 33.0079 25.8201C32.6485 25.9295 30.9297 26.0076 30.836 25.9139C30.8126 25.8826 30.8829 25.7264 30.9922 25.5701C31.1719 25.3045 31.2813 24.9998 31.4219 24.3748C31.5079 23.9998 31.4454 22.8904 31.336 22.8904C31.3047 22.8904 31.2891 22.8592 31.3204 22.8201C31.3438 22.7811 31.3204 22.7186 31.2735 22.6951C31.2344 22.6639 31.211 22.5936 31.2344 22.5389C31.2657 22.4451 30.9219 21.8592 30.7969 21.8123C30.7657 21.7967 30.7344 21.7498 30.7344 21.7029C30.7344 21.5545 30.0235 20.9529 29.6094 20.7498C29.0704 20.4842 28.2735 20.367 27.9922 20.5154C27.6485 20.6873 27.586 21.0701 27.8516 21.3514C27.9376 21.4451 28.0704 21.5232 28.1407 21.5232C28.4454 21.5311 29.2266 21.8279 29.4219 22.0076C29.5313 22.117 29.6485 22.2029 29.6719 22.1951C29.6954 22.1873 29.711 22.1951 29.7032 22.2107C29.6876 22.2186 29.7579 22.3123 29.8516 22.4217C30.0391 22.617 30.3126 23.2654 30.3516 23.5936C30.3829 23.8904 30.2657 24.4607 30.1016 24.7654C29.9219 25.1092 29.4688 25.6248 29.3438 25.6248C29.2891 25.6248 29.2501 25.6561 29.2501 25.7029C29.2501 25.742 29.2032 25.7811 29.1563 25.7811C29.1016 25.7811 28.9766 25.9451 28.8751 26.1561C28.3672 27.2107 27.4297 28.2342 26.6407 28.5936C25.8516 28.9451 25.6876 29.0154 25.5704 29.0232C25.5001 29.0311 25.4063 29.0623 25.3594 29.0936C25.0313 29.2967 22.9376 29.2967 21.9766 29.0936C21.6172 29.0232 21.2344 28.9451 21.1251 28.9295C21.0157 28.9217 20.6641 28.8357 20.3438 28.742C20.0235 28.6482 19.7032 28.5701 19.6407 28.5545C19.5782 28.5467 19.4219 28.4998 19.2969 28.4451C19.1719 28.3982 19.0547 28.367 19.0391 28.3904C19.0157 28.4061 18.8829 28.3748 18.7344 28.3123C18.586 28.2498 18.4454 28.2029 18.4141 28.1951C18.3751 28.1951 18.1719 28.1404 17.9532 28.0779C17.7344 28.0154 17.4766 27.9451 17.3829 27.9295C17.0235 27.8514 16.9376 27.8201 16.7344 27.742C16.6094 27.6951 16.5157 27.6795 16.5157 27.7029C16.5157 27.7342 16.461 27.7107 16.3985 27.6561C16.336 27.6014 16.2813 27.5779 16.2813 27.6092C16.2813 27.6404 16.1954 27.6014 16.086 27.5311C15.9766 27.4607 15.8907 27.4295 15.8907 27.4607C15.8907 27.492 15.836 27.4764 15.7735 27.4217C15.6641 27.3357 14.7657 26.8826 14.6797 26.8748C14.5782 26.867 13.7891 26.4061 13.3829 26.117C13.1251 25.9295 12.9063 25.7811 12.8829 25.7811C12.8672 25.7811 12.7422 25.6717 12.6016 25.5389C12.2032 25.1482 11.6797 25.3436 11.6251 25.8982C11.6094 26.1092 11.6563 26.2029 11.8907 26.4139C12.2969 26.7811 12.7422 27.1092 12.836 27.1092C12.8829 27.1092 12.9219 27.1404 12.9219 27.1717C12.9219 27.2107 13.0157 27.2889 13.1407 27.3436C13.2579 27.4061 13.4063 27.4998 13.4766 27.5545C13.5469 27.617 13.6876 27.6795 13.7813 27.6951C13.8829 27.7186 13.9922 27.7654 14.0157 27.8123C14.0469 27.8592 14.1172 27.9061 14.1797 27.9217C14.2735 27.9373 14.6641 28.1014 15.2657 28.3904C15.5391 28.5232 15.5391 28.6873 15.2422 30.0389C15.2266 30.0779 15.1954 30.1639 15.1641 30.2107C15.1251 30.2654 15.086 30.3748 15.0704 30.4607C15.0547 30.5389 14.9844 30.6717 14.9219 30.7498C14.8516 30.8357 14.8047 30.9139 14.8126 30.9373C14.836 30.992 14.586 31.2811 14.0391 31.8436C13.5469 32.3357 12.711 32.8279 12.1563 32.9373C12.0157 32.9686 11.9063 33.0232 11.9063 33.0701C11.9063 33.117 11.8829 33.1326 11.8594 33.1014C11.7891 33.0311 10.8438 33.5623 10.1876 34.0467C9.56255 34.4998 8.60943 35.4607 8.67193 35.5623C8.69537 35.5936 8.67193 35.6248 8.62505 35.6248C8.53912 35.6248 8.12505 36.4607 7.91412 37.0545L7.81255 37.3436H6.5313H5.24224L5.30474 36.6561C5.37505 35.7811 5.39068 35.7029 5.44537 35.4686C5.47662 35.3592 5.51568 35.1873 5.53912 35.0779C5.60162 34.742 5.71099 34.3514 5.85162 33.9842C5.92193 33.7889 5.99224 33.5936 6.00005 33.5545C6.10162 33.1795 6.50787 32.3592 6.8438 31.8592C7.00787 31.6092 7.12505 31.4061 7.0938 31.4061C7.06255 31.4061 7.13287 31.3123 7.25005 31.2029C7.35943 31.0857 7.52349 30.8748 7.61724 30.7342C7.70318 30.5857 7.80474 30.4686 7.8438 30.4686C7.91412 30.4686 8.07818 30.0467 8.07818 29.8748C8.07818 29.7342 7.61724 29.2967 7.47662 29.2967C7.42193 29.2967 7.35162 29.242 7.32818 29.1795C7.29693 29.117 7.25005 29.0857 7.21099 29.1092C7.17193 29.1326 7.14068 29.1092 7.14068 29.0623C7.14068 29.0154 7.08599 28.9607 7.01568 28.9295C6.94537 28.9061 6.81255 28.8123 6.71099 28.7186C6.61724 28.6248 6.4063 28.4451 6.25005 28.3201C5.86724 28.0154 4.78912 26.9529 4.85162 26.9529C4.87505 26.9529 4.83599 26.8826 4.75787 26.7967C4.53912 26.5545 4.25787 25.9373 4.24224 25.6717C4.23443 25.5389 4.25787 25.2654 4.2813 25.0701C4.33599 24.7107 4.33599 24.7029 3.86724 24.2264C3.60943 23.9686 3.41412 23.7498 3.43755 23.7498C3.46099 23.7498 3.4063 23.6717 3.31255 23.5779C3.22662 23.4842 3.1563 23.3592 3.1563 23.3045C3.1563 23.2498 3.11724 23.2029 3.07818 23.2029C3.00787 23.2029 2.89849 23.0076 2.80474 22.7342C2.79693 22.7107 2.76568 22.6248 2.72662 22.5389C2.49224 21.9529 2.45318 21.8436 2.48443 21.8201C2.50787 21.7967 2.47662 21.6326 2.42193 21.4607C2.30474 21.0545 2.33599 19.5623 2.4688 19.3357C2.49224 19.2889 2.53912 19.1326 2.57037 18.9842C2.60162 18.8357 2.73443 18.4998 2.85943 18.242C3.11724 17.7029 3.1563 17.3748 2.97662 17.1092C2.6563 16.6014 2.45318 14.9686 2.68755 14.7342C2.72662 14.6951 2.76568 14.6092 2.76568 14.5467C2.76568 14.0467 3.78912 12.7967 4.35162 12.6092C4.42193 12.5779 4.48443 12.5232 4.48443 12.4764C4.48443 12.4295 4.50787 12.4217 4.53912 12.4451C4.56255 12.4764 4.66412 12.4529 4.75005 12.3904C4.8438 12.3357 5.07818 12.2576 5.26568 12.2186C5.92193 12.1014 5.99224 12.0467 6.0938 11.617C6.10162 11.5857 6.11724 11.5389 6.12505 11.4998C6.14068 11.4686 6.1563 11.4061 6.1563 11.367C6.17974 11.2107 6.46099 10.492 6.69537 9.99981C6.82818 9.71856 6.92974 9.46856 6.92193 9.42949C6.91412 9.39824 6.93755 9.37481 6.97662 9.37481C7.01568 9.37481 7.13287 9.22637 7.24224 9.03887C7.51568 8.57793 7.92193 8.11699 8.4063 7.71856C8.80474 7.39824 9.04693 7.19512 9.14849 7.10918C9.20318 7.07012 9.26568 7.03106 9.28912 7.03106C9.32037 7.03106 9.45318 6.94512 9.5938 6.83574C9.73443 6.72637 9.87505 6.66387 9.89849 6.69512C9.92974 6.71856 9.95318 6.70293 9.95318 6.64824C9.95318 6.59356 9.99224 6.57793 10.0313 6.60137C10.0782 6.62481 10.1094 6.61699 10.1094 6.57793C10.1094 6.53887 10.1563 6.50762 10.211 6.50762C10.2579 6.49981 10.5157 6.42168 10.7735 6.32793C11.5704 6.02324 12.4219 5.89043 13.3751 5.89824C14.1407 5.91387 14.2891 5.89043 14.4454 5.76543C14.5547 5.67949 14.6329 5.59356 14.6251 5.56231C14.5938 5.45293 14.7266 4.91387 14.8594 4.63262C15.0626 4.17949 15.6094 3.57012 15.8829 3.47637C15.9688 3.45293 16.0469 3.39824 16.0469 3.36699C16.0469 3.30449 16.4766 3.15606 16.8282 3.09356C17.1563 3.03887 17.7813 3.10137 18.2344 3.23418Z" fill="#012047"/>
</svg>
