<svg width="41" height="41" viewBox="0 0 41 41" fill="none" xmlns="http://www.w3.org/2000/svg">
<g clip-path="url(#clip0_58_959)">
<path d="M21.6573 6.03638C21.2745 6.09888 21.0245 6.23951 20.9152 6.45826C20.8214 6.63013 20.798 7.09107 20.798 8.74732V10.8176L20.4464 10.9739C19.9152 11.2083 19.2902 11.8411 19.0323 12.4114C18.837 12.8254 18.8058 12.9895 18.8058 13.5989C18.8058 14.2004 18.837 14.3645 19.0167 14.7473C19.2902 15.3333 19.8292 15.8958 20.3683 16.1692L20.798 16.3879V17.8645V19.3411H18.8839C16.7745 19.3411 16.5245 19.3879 16.3214 19.7864C16.2589 19.9036 16.1886 20.1536 16.1652 20.3333C16.1417 20.5129 16.0558 20.7629 15.962 20.8958C15.7589 21.177 15.1886 21.4114 14.8917 21.3411C14.3995 21.2161 14.0011 20.7317 14.0011 20.2708C14.0011 19.9739 13.7589 19.5911 13.4933 19.4661C13.1105 19.2786 8.48547 19.2786 8.10266 19.4661C7.78235 19.6145 7.59485 19.9817 7.59485 20.4583C7.59485 21.5442 7.89954 23.4036 8.26672 24.5364C8.82922 26.2708 9.38391 27.3254 10.6808 29.1458C11.7511 30.6458 12.0011 31.0989 12.2042 31.8879C12.3448 32.4426 12.3605 32.7629 12.3605 36.0364C12.3605 39.8411 12.3683 39.9583 12.7589 40.2317C12.8683 40.302 13.0948 40.3567 13.3214 40.3567C13.6417 40.3567 13.7355 40.3176 13.9308 40.1223L14.1652 39.8879L14.1417 35.8879C14.1105 32.0754 14.1027 31.8489 13.9464 31.2864C13.673 30.302 13.2589 29.5911 11.8605 27.6614C10.5792 25.9036 9.67297 23.6067 9.5011 21.7161L9.44641 21.1379H10.8839H12.3214L12.4698 21.4973C12.6573 21.9426 13.3058 22.6145 13.7667 22.8411C14.2589 23.0754 14.8917 23.1848 15.423 23.1301C16.3527 23.0208 17.3136 22.3411 17.6886 21.5208L17.8683 21.1379H19.8839C21.5636 21.1379 21.9386 21.1145 22.1339 21.0129C22.5714 20.7942 22.5948 20.6145 22.5948 17.9348C22.5948 14.8879 22.587 14.8645 21.5636 14.6536C20.7667 14.4973 20.3839 13.8254 20.712 13.1536C20.8995 12.7629 21.1808 12.5676 21.6652 12.4973C21.8527 12.4739 22.0948 12.3958 22.1886 12.3333C22.5558 12.1067 22.5948 11.8411 22.5948 9.72388V7.75513L23.5558 7.80201C28.3917 8.05982 32.0714 10.6536 33.4073 14.7629C33.6964 15.6458 33.8448 16.5051 33.923 17.8176C34.0011 19.1692 34.1105 19.5911 34.5558 20.2786C34.9542 20.8958 35.4933 21.4192 36.6495 22.302C37.6886 23.0989 38.1261 23.5129 38.1886 23.7708C38.2511 24.0208 38.048 24.3098 37.6261 24.5598C35.9308 25.5754 35.5323 26.1379 35.548 27.5208C35.5558 28.0833 35.5323 28.2004 35.3292 28.5754C35.0636 29.0442 35.0323 29.4426 35.2198 29.8333C35.3448 30.0911 35.3448 30.1145 35.1339 30.4661C34.837 30.9661 34.8058 31.5286 35.0089 32.4973C35.1027 32.927 35.173 33.3176 35.173 33.3723C35.173 33.5598 34.7042 34.0129 34.3683 34.1458C34.1417 34.2395 33.6495 34.302 32.7902 34.3489C31.2433 34.4426 30.4464 34.5676 29.7433 34.8489C28.0792 35.5129 27.5245 36.4817 27.5167 38.7004C27.5167 39.7239 27.587 39.9973 27.923 40.2317C28.2042 40.427 28.7823 40.3958 29.0245 40.1692C29.2823 39.927 29.3058 39.8333 29.3292 38.5598C29.3527 37.6614 29.3761 37.4661 29.5089 37.2317C29.9152 36.5442 30.8136 36.2551 32.8995 36.1458C34.8058 36.0442 35.5245 35.802 36.2589 35.0051C36.9386 34.2708 37.0792 33.5911 36.8214 32.3254L36.6495 31.5129L36.8527 31.1067C37.0792 30.6379 37.1652 30.0598 37.0714 29.6223C37.0167 29.3567 37.0402 29.2551 37.2355 28.8645C37.4698 28.427 37.4698 28.4114 37.3761 27.8567C37.2355 27.0442 37.3292 26.8879 38.3058 26.2864C39.6027 25.4895 40.087 24.7473 39.9933 23.7161C39.9073 22.7551 39.3995 22.0989 37.7902 20.8801C35.962 19.4895 35.8058 19.2317 35.712 17.5364C35.462 12.9817 33.2745 9.51294 29.3683 7.46607C28.0167 6.75513 26.2198 6.23951 24.4777 6.06763C23.7042 5.98169 22.0636 5.96607 21.6573 6.03638Z" fill="#000F28"/>
<path d="M14.8995 0.411377C14.1261 0.512939 12.8136 0.809814 11.9698 1.08325C9.46204 1.88013 7.54016 3.03638 5.79797 4.802C4.27454 6.33325 3.35266 7.79419 2.68079 9.75513C2.05579 11.5754 1.69641 14.3567 2.00891 14.9661C2.23547 15.4036 2.38391 15.4348 4.60266 15.4348L6.61829 15.4426L6.80579 15.8411C7.17298 16.6145 7.9386 17.1926 8.86048 17.3801C10.0402 17.6301 11.3605 16.9739 11.9386 15.8645L12.1652 15.4348H14.1808C15.8995 15.4348 16.2355 15.4192 16.4152 15.3098C16.8448 15.052 16.8527 15.0364 16.8761 12.5051C16.8917 11.2161 16.8761 10.0051 16.8527 9.81763C16.7823 9.32544 16.4855 9.052 15.9542 8.98169C15.4464 8.91138 15.0558 8.60669 14.9308 8.16138C14.7433 7.552 15.1495 6.90356 15.7823 6.802C16.3136 6.71606 16.3995 6.68481 16.5714 6.552C16.6652 6.47388 16.7745 6.27075 16.8136 6.09888C16.9152 5.66919 16.9073 1.32544 16.8136 0.966064C16.6808 0.489502 16.4308 0.356689 15.7277 0.364502C15.3995 0.372314 15.0323 0.395752 14.8995 0.411377ZM15.0948 3.66138V5.09888L14.7667 5.24731C14.2433 5.47388 13.587 6.14575 13.3292 6.70825C13.1339 7.12231 13.1027 7.28638 13.1027 7.89575C13.1027 8.52856 13.1339 8.65356 13.3605 9.12231C13.6495 9.71606 14.2042 10.2629 14.7433 10.4817L15.0948 10.6301V12.1301V13.6379H13.1417C11.5402 13.6379 11.1417 13.6614 10.9542 13.7551C10.6886 13.8879 10.4855 14.2395 10.4855 14.5364C10.4855 14.8489 10.2745 15.2317 9.99329 15.4348C9.34485 15.9192 8.29798 15.4114 8.29798 14.6145C8.29798 14.2708 8.07141 13.8958 7.79016 13.7629C7.57923 13.6614 7.19641 13.6379 5.6261 13.6379H3.71204L3.73547 13.4192C3.95422 11.3489 4.4386 9.80981 5.33704 8.28638C6.86047 5.71606 9.46985 3.72388 12.5792 2.76294C13.2667 2.552 14.6105 2.24731 14.8839 2.2395L15.0948 2.23169V3.66138Z" fill="#0E82FD"/>
</g>
<defs>
<clipPath id="clip0_58_959">
<rect width="40" height="40" fill="white" transform="translate(0.954224 0.356689)"/>
</clipPath>
</defs>
</svg>
