<svg width="41" height="40" viewBox="0 0 41 40" fill="none" xmlns="http://www.w3.org/2000/svg">
<g clip-path="url(#clip0_406_12221)">
<path d="M13.2969 0.15625C13.0469 0.351562 12.9687 0.554688 12.7656 1.5625C12.4453 3.1875 12.4766 4.19531 12.8984 5.32812C13.0078 5.625 13.4531 6.4375 13.8906 7.14062C15.0078 8.92969 15.2578 9.78125 15.2656 11.8516V12.4844L15.8359 12.9062C16.6562 13.5234 16.8828 13.6719 16.9766 13.6719C17.0312 13.6719 17.0625 13.3594 17.0625 12.7344V11.7969H20.5H23.9375V12.7344C23.9375 13.3516 23.9687 13.6719 24.0234 13.6719C24.125 13.6719 24.6641 13.3047 25.2812 12.8281L25.7344 12.4766V11.8438C25.7422 9.78125 25.9922 8.92969 27.1094 7.14062C27.5469 6.4375 27.9922 5.625 28.1016 5.32812C28.3672 4.60156 28.5 3.71094 28.4453 2.98438C28.3906 2.32812 28.1172 0.875 27.9844 0.523438C27.8516 0.1875 27.5625 0 27.1641 0C26.7344 0 26.5547 0.09375 26.3984 0.390625C26.2422 0.695312 26.25 0.890625 26.4766 2.03125C26.5781 2.5625 26.6484 3.01562 26.6406 3.03125C26.625 3.04688 26.3437 2.88281 26.0156 2.66406C25.1875 2.125 24.6719 1.94531 23.8203 1.89844C22.6719 1.82812 21.8359 2.08594 20.9531 2.78125L20.5 3.13281L20.0547 2.78125C19.1641 2.08594 18.3281 1.82812 17.1797 1.89844C16.3281 1.94531 15.8125 2.125 14.9844 2.66406C14.6562 2.88281 14.375 3.04688 14.3594 3.03125C14.3516 3.01562 14.4219 2.5625 14.5234 2.03125C14.7891 0.679688 14.7734 0.460938 14.375 0.140625C14.1406 -0.0546875 13.5469 -0.046875 13.2969 0.15625ZM18.4141 3.875C18.5781 3.96094 18.9141 4.20312 19.1719 4.41406L19.6328 4.80469V7.39844L19.6406 10H18.3125H16.9844L16.9453 9.78125C16.6328 8.3125 16.3437 7.60938 15.4922 6.25C15.125 5.67188 14.8047 5.15625 14.7734 5.10938C14.7109 5.00781 16.2656 3.95312 16.7266 3.78125C17.1328 3.625 18.0312 3.67969 18.4141 3.875ZM24.2734 3.78125C24.4375 3.84375 24.9531 4.14844 25.4219 4.45312C26.1797 4.95312 26.2656 5.03906 26.1953 5.17188C26.1484 5.25 25.8828 5.67969 25.6016 6.11719C25.3125 6.55469 24.9453 7.17969 24.7891 7.5C24.5078 8.0625 24.0937 9.32031 24.0937 9.60938C24.0937 10 24.0859 10 22.6797 10H21.3594L21.3672 7.39844V4.80469L21.8281 4.41406C22.4687 3.875 22.9297 3.67188 23.5078 3.67969C23.7656 3.67969 24.1094 3.72656 24.2734 3.78125Z" fill="#000F28"/>
<path d="M16.4922 28.1172C16.25 28.4531 15.875 28.9375 15.6562 29.1875L15.2656 29.6484V34.5938V39.5469L15.4922 39.7734L15.7188 40H20.5H25.2812L25.5078 39.7734L25.7344 39.5469V34.5781V29.6172L25.4531 29.3203C25.3047 29.1562 24.9297 28.6797 24.6172 28.2578C24.3125 27.8438 24.0312 27.5 24 27.5C23.9688 27.5 23.9375 27.7969 23.9375 28.1641V28.8281H20.5H17.0625V28.1641C17.0625 27.7969 17.0312 27.5 17 27.5C16.9609 27.5 16.7344 27.7734 16.4922 28.1172ZM23.9375 32.0703V33.5156H20.5H17.0625V32.0703V30.625H20.5H23.9375V32.0703ZM23.9375 36.7969V38.2812H20.5H17.0625V36.7969V35.3125H20.5H23.9375V36.7969Z" fill="#000F28"/>
<path d="M9.44537 9.17206C8.60162 9.4455 7.83599 10.0471 7.39849 10.7658C7.04693 11.3361 6.60943 13.1018 6.35162 14.9924C6.12505 16.6486 6.06255 19.9533 6.23443 21.5236C6.73443 26.2033 8.32818 29.5783 10.5547 30.6799C11.1563 30.9768 11.1641 30.9768 12.1016 30.9689C12.8829 30.9689 13.1094 30.9377 13.4922 30.7893C14.5391 30.3752 15.3438 29.6564 16.3829 28.1955C16.7657 27.6564 17.5782 26.9221 18.1641 26.5861C19.2891 25.9455 20.7579 25.7971 21.9297 26.2033C22.9766 26.5627 23.9922 27.3127 24.6251 28.2033C25.5704 29.5314 26.2657 30.2033 27.1719 30.633C27.8047 30.9299 28.3594 31.0393 29.1641 31.0002C29.7657 30.9768 29.9141 30.9455 30.4688 30.6721C32.4922 29.6721 33.9922 26.7424 34.6563 22.5002C34.8047 21.508 34.8282 21.0627 34.836 18.9064C34.836 17.3518 34.7969 16.1408 34.7344 15.6252C34.4844 13.5861 34.0157 11.5236 33.6563 10.8596C33.3282 10.258 32.7266 9.6955 32.0626 9.383C31.4922 9.10956 31.4532 9.10175 30.5313 9.10175C29.6016 9.10175 29.586 9.10175 28.9922 9.39863C28.5001 9.64081 28.2969 9.80488 27.7891 10.3752C26.8204 11.4611 25.4297 12.7971 24.7969 13.2346C24.0938 13.7346 22.8672 14.2971 22.0626 14.5002C21.6407 14.6096 21.1954 14.6486 20.5001 14.6486C19.8047 14.6486 19.3594 14.6096 18.9376 14.5002C18.1172 14.2971 16.8985 13.7268 16.1954 13.2268C15.5469 12.7658 14.1797 11.4611 13.211 10.3752C12.7032 9.80488 12.5079 9.64081 12.0079 9.39863C11.4454 9.11738 11.3594 9.10175 10.586 9.08613C10.0547 9.0705 9.64068 9.10175 9.44537 9.17206ZM11.1797 10.9924C11.3204 11.0549 11.586 11.2736 11.7657 11.4689C13.5469 13.383 14.2657 14.0314 15.6563 14.9611C17.0938 15.9221 18.4766 16.383 20.1485 16.4533C22.3047 16.5549 24.0547 15.9533 26.1876 14.3752C26.9141 13.8439 28.4297 12.3986 29.0157 11.6955C29.4532 11.1721 29.7344 10.9689 30.1876 10.8674C30.8985 10.7111 31.7422 11.0861 32.0547 11.7033C32.3516 12.2814 32.711 13.9221 32.9376 15.7033C33.0938 16.9846 33.0704 20.9611 32.8985 22.1486C32.6172 24.0393 32.1485 25.6252 31.4844 26.9221C31.0469 27.7971 30.9141 27.9768 30.4141 28.4924C29.6094 29.3127 28.8751 29.4455 27.8829 28.9533C27.2422 28.6408 26.6016 28.008 25.8438 26.9377C25.2266 26.0783 24.3516 25.3283 23.4297 24.8752C22.3985 24.3674 21.6876 24.2033 20.5001 24.2033C19.3751 24.2033 18.6329 24.3596 17.711 24.8049C16.5626 25.3439 15.9219 25.8986 14.9922 27.1486C13.9922 28.5002 13.2657 29.0705 12.3751 29.2111C11.5938 29.3361 10.8829 28.9533 10.1876 28.0314C9.0313 26.508 8.28912 24.1486 7.99224 21.0549C7.87505 19.8596 7.94537 16.5314 8.11724 15.3127C8.33599 13.6643 8.66412 12.2658 8.94537 11.7033C9.32818 10.9455 10.3672 10.6174 11.1797 10.9924Z" fill="#0E82FD"/>
<path d="M10.2891 15.117C9.80469 15.6013 9.99219 16.2654 10.6875 16.5701C11.5156 16.9216 12.6641 16.617 12.8281 15.9998C12.9219 15.6482 12.8125 15.2263 12.5781 15.0232C12.3984 14.8748 12.2969 14.8591 11.4609 14.8591H10.5469L10.2891 15.117Z" fill="#0E82FD"/>
<path d="M28.3985 15.0859C27.9688 15.5156 28.0391 16.1172 28.5625 16.4688C28.8516 16.6562 28.961 16.6797 29.5235 16.6797C30.2735 16.6797 30.6641 16.5156 30.8516 16.125C31.0469 15.7109 31 15.4062 30.711 15.1172L30.4531 14.8594H29.5391C28.6328 14.8594 28.6172 14.8672 28.3985 15.0859Z" fill="#0E82FD"/>
<path d="M19.5859 18.5547C19.2891 18.6797 19.0938 19.0234 19.0938 19.4219C19.0938 20.1406 20.3047 20.6406 21.1875 20.2656C21.6875 20.0547 21.9062 19.7891 21.9062 19.3672C21.9062 18.7109 21.3828 18.3281 20.75 18.5234C20.5234 18.5859 20.4062 18.5859 20.2812 18.5234C20.0703 18.4141 19.8906 18.4219 19.5859 18.5547Z" fill="#0E82FD"/>
<path d="M10.7656 19.2108C10.4922 19.328 10.2656 19.6795 10.2656 19.9998C10.2656 20.4295 10.5391 20.7811 11.0078 20.9452C11.5 21.1248 11.8594 21.1248 12.3203 20.9686C13.0703 20.7108 13.3281 19.9686 12.8516 19.4373C12.625 19.1795 12.5391 19.1639 11.75 19.2108C11.6406 19.2186 11.4141 19.203 11.2422 19.1795C11.0703 19.1639 10.8516 19.1717 10.7656 19.2108Z" fill="#0E82FD"/>
<path d="M28.4219 19.2113C28.125 19.3441 27.9219 19.6801 27.9219 20.0629C27.9219 20.3598 27.9609 20.4457 28.1875 20.6645C28.6875 21.141 29.5391 21.2113 30.2188 20.8363C30.7812 20.5238 30.9141 19.891 30.5078 19.4379C30.2812 19.1801 30.1328 19.1488 29.4062 19.2191C29.2969 19.227 29.0703 19.2113 28.8984 19.1879C28.7266 19.1645 28.5078 19.1723 28.4219 19.2113Z" fill="#0E82FD"/>
<path d="M15.2032 21.3829C14.8673 21.6641 14.7813 22.125 15.0001 22.4922C15.4063 23.1875 16.922 23.2735 17.5001 22.6407C18.0704 22.0235 17.5626 21.086 16.7188 21.2032C16.3438 21.2579 16.3517 21.2579 15.8517 21.2032C15.5079 21.1641 15.4298 21.1875 15.2032 21.3829Z" fill="#0E82FD"/>
<path d="M23.6563 21.3208C23.2344 21.5787 23.1329 22.2349 23.461 22.6099C24.0391 23.274 25.5782 23.2037 26 22.4927C26.1954 22.1646 26.1329 21.688 25.8594 21.4146C25.6563 21.2115 25.5547 21.1958 24.7188 21.2427C24.6563 21.2427 24.4454 21.2271 24.25 21.2037C23.9844 21.1724 23.836 21.2037 23.6563 21.3208Z" fill="#0E82FD"/>
<path d="M11.3516 24.4921C11.2344 24.5546 11.086 24.7265 11.0157 24.8827C10.7423 25.4452 11.0782 26.0077 11.8126 26.2186C12.5235 26.4296 13.4219 26.1718 13.6641 25.6952C13.8438 25.3515 13.7735 24.8827 13.5157 24.6171C13.3126 24.4218 13.1173 24.3905 12.4141 24.4374C12.3282 24.4452 12.1016 24.4374 11.9063 24.414C11.6798 24.3905 11.4844 24.414 11.3516 24.4921Z" fill="#0E82FD"/>
<path d="M27.6251 24.5239C27.2266 24.7817 27.1095 25.2583 27.336 25.6958C27.4532 25.9302 27.922 26.1958 28.3673 26.2895C28.7891 26.3755 29.4688 26.188 29.7813 25.9067C30.0157 25.688 30.0548 25.602 30.0548 25.3052C30.0548 24.6802 29.6251 24.2973 29.0313 24.4067C28.6954 24.477 28.6954 24.477 28.2345 24.4145C27.961 24.3755 27.8282 24.3989 27.6251 24.5239Z" fill="#0E82FD"/>
</g>
<defs>
<clipPath id="clip0_406_12221">
<rect width="40" height="40" fill="white" transform="translate(0.5)"/>
</clipPath>
</defs>
</svg>
