<svg width="37" height="38" viewBox="0 0 37 38" fill="none" xmlns="http://www.w3.org/2000/svg">
<path d="M15.5483 1.05078C15.3921 1.20703 15.3921 1.31641 15.3921 8.56641C15.3843 20.207 15.3608 22.1133 15.2202 22.5742C14.7358 24.168 13.6265 25.2773 12.0718 25.7148C11.814 25.793 11.0796 25.8398 9.93115 25.8711C8.36865 25.9102 8.16553 25.9336 8.04053 26.0586C7.90771 26.1914 7.89209 26.3477 7.89209 27.7695C7.89209 29.2461 7.8999 29.3398 8.05615 29.4961C8.2124 29.6523 8.2749 29.6602 10.3374 29.6289C12.814 29.5898 13.1343 29.5273 14.5562 28.8398L15.3999 28.4258L15.3765 31.3945C15.353 34.2305 15.3452 34.3867 15.189 34.7227C14.978 35.168 14.6655 35.4805 14.2202 35.6914C13.8921 35.8398 13.7124 35.8555 11.6421 35.8789L9.41553 35.9023L9.3999 35.3242C9.38428 34.6758 9.19678 34.1211 8.74365 33.332C8.39209 32.7383 6.86865 31.2148 6.39209 30.9883C6.05615 30.8242 6.00928 30.8164 5.75928 30.918C5.42334 31.0664 5.26709 31.418 5.41553 31.7539C5.4624 31.8711 5.78271 32.1914 6.11084 32.4492C7.42334 33.5039 8.24365 34.832 8.07178 35.6602L8.0249 35.9023L5.59521 35.8789C3.32178 35.8555 3.14209 35.8477 2.81396 35.6914C2.36865 35.4805 2.05615 35.168 1.84521 34.7227C1.68896 34.3867 1.68115 34.2383 1.65771 30.8164C1.62646 26.9648 1.7124 25.1602 1.95459 24.0664C2.04053 23.6758 2.11084 23.2539 2.11084 23.1211C2.11084 22.793 1.82959 22.5352 1.47803 22.5352C0.98584 22.543 0.853027 22.7617 0.57959 24.0586C0.438965 24.707 0.431152 25.1523 0.431152 29.8398V34.918L0.657715 35.3867C0.95459 35.9883 1.54834 36.582 2.1499 36.8789L2.61865 37.1055H8.51709H14.4155L14.8843 36.8789C15.4858 36.582 16.0796 35.9883 16.3765 35.3867L16.603 34.918L16.6265 31.1758L16.6499 27.4336L17.064 26.9805C17.5015 26.5039 18.0952 25.6602 18.3296 25.168C18.4077 25.0117 18.4937 24.8789 18.5171 24.8789C18.5405 24.8789 18.6265 25.0117 18.7046 25.168C18.939 25.6602 19.5327 26.5039 19.9702 26.9805L20.3843 27.4336L20.4077 31.1758L20.4312 34.918L20.6577 35.3867C20.9546 35.9883 21.5483 36.582 22.1499 36.8789L22.6187 37.1055H28.5171H34.4155L34.8843 36.8789C35.4858 36.582 36.0796 35.9883 36.3765 35.3867L36.603 34.918V29.8008C36.603 24.7695 36.603 24.668 36.4233 23.8867C35.2671 18.6289 31.3608 14.7305 26.1499 13.6133C25.5093 13.4805 25.0796 13.4414 23.9858 13.4414L22.6187 13.4336L22.1343 13.6836L21.6421 13.9258V7.56641C21.6421 1.30859 21.6421 1.20703 21.4858 1.05078C21.3843 0.949219 21.228 0.894531 21.0171 0.894531C20.8062 0.894531 20.6499 0.949219 20.5483 1.05078C20.4077 1.19141 20.3921 1.30859 20.3921 2.30078V3.39453H18.5171H16.6421V2.30078C16.6421 1.30859 16.6265 1.19141 16.4858 1.05078C16.3843 0.949219 16.228 0.894531 16.0171 0.894531C15.8062 0.894531 15.6499 0.949219 15.5483 1.05078ZM20.3921 5.26953V5.89453H18.5171H16.6421V5.26953V4.64453H18.5171H20.3921V5.26953ZM20.3921 7.76953V8.39453H18.5171H16.6421V7.76953V7.14453H18.5171H20.3921V7.76953ZM20.3921 15.9961C20.3921 22.0664 20.3999 22.3789 20.5483 22.957C21.0405 24.8945 22.6421 26.4961 24.5796 26.9883C25.064 27.1133 25.4468 27.1445 26.5405 27.1445H27.8921V27.7852V28.418L26.5093 28.3711C24.8608 28.3086 24.1343 28.1602 23.0874 27.6602C21.2671 26.793 19.8843 25.0898 19.3687 23.082C19.2124 22.457 19.1968 22.1914 19.1655 18.6758C19.1265 15.1367 19.1187 14.9336 18.978 14.793C18.7749 14.5898 18.2593 14.5898 18.0562 14.793C17.9155 14.9336 17.9077 15.1367 17.8687 18.6758C17.8374 22.1914 17.8218 22.457 17.6655 23.082C17.1577 25.0742 15.7905 26.7617 13.9624 27.6523C12.9233 28.1523 12.189 28.3086 10.5327 28.3711L9.14209 28.418V27.7852V27.1445H10.4937C12.0952 27.1445 12.689 27.0273 13.6968 26.5039C14.5874 26.043 15.5405 25.0898 16.0015 24.1992C16.6655 22.918 16.6421 23.1992 16.6421 15.9961V9.64453H18.5171H20.3921V15.9961ZM26.0796 14.9883C26.7749 15.1445 28.2827 15.6523 28.4312 15.7852C28.4468 15.8008 28.2983 16.1289 28.103 16.5039C27.4702 17.7539 27.3374 19.082 27.7358 20.1445C27.9624 20.7383 28.1265 20.8945 28.5171 20.8945C29.1343 20.8945 29.2749 20.5039 28.9858 19.582C28.8999 19.3086 28.8296 18.957 28.8296 18.793C28.8296 18.2305 29.1187 17.3711 29.5327 16.6914L29.689 16.4336L30.2983 16.8477C31.1655 17.4414 32.6812 18.9805 33.2749 19.8789C34.1733 21.2227 34.8062 22.707 35.1108 24.1758C35.314 25.1367 35.3999 27.0898 35.3765 30.1133L35.353 32.9648L34.8921 32.5352C34.1108 31.8086 33.7905 30.8789 33.9937 29.918C34.1733 29.0352 34.1733 28.7383 33.9937 28.5586C33.814 28.3789 33.3765 28.3398 33.1265 28.4727C32.689 28.707 32.4624 30.7539 32.7671 31.6758C33.103 32.6836 33.8218 33.5664 34.7749 34.1367C35.0483 34.3008 35.2827 34.4414 35.2983 34.457C35.3608 34.5039 34.9858 35.0977 34.7515 35.3242C34.189 35.8633 34.3062 35.8555 29.853 35.8789L25.8452 35.9023L25.8999 35.6836C25.9937 35.3086 25.9468 34.1602 25.8218 33.668C25.6499 33.0273 25.3218 32.3086 25.1499 32.2227C24.9077 32.0898 24.4702 32.1289 24.2905 32.3086C24.0796 32.5195 24.1187 32.8945 24.4155 33.6992C24.6655 34.3867 24.7046 35.1445 24.5015 35.6133L24.3765 35.918L23.7437 35.8711C22.7437 35.793 22.189 35.457 21.8452 34.7227C21.689 34.3867 21.6812 34.2305 21.6577 31.3945L21.6343 28.4258L22.478 28.8398C23.8999 29.5273 24.2202 29.5898 26.6968 29.6289C28.7593 29.6602 28.8218 29.6523 28.978 29.4961C29.1343 29.3398 29.1421 29.2461 29.1421 27.7695C29.1421 26.3477 29.1265 26.1914 28.9937 26.0586C28.8687 25.9336 28.6655 25.9102 27.103 25.8711C25.314 25.8242 24.939 25.7695 24.2202 25.4492C23.3608 25.0664 22.4624 24.1523 22.0718 23.2773C21.7046 22.4492 21.6812 22.1992 21.6812 19.1367C21.6812 15.9336 21.689 15.8633 22.1733 15.332C22.5015 14.9648 22.8218 14.7852 23.2437 14.7305C23.7749 14.6523 25.1655 14.7773 26.0796 14.9883Z" fill="#000F28"/>
<path d="M6.17336 9.81641C3.47023 10.1992 1.07961 12.4648 0.509297 15.1914C0.36086 15.8867 0.36086 17.4023 0.501485 18.082C1.02492 20.5586 2.86086 22.5273 5.36867 23.293C5.98586 23.4805 6.17336 23.5039 7.26711 23.5039C8.36086 23.5039 8.54836 23.4805 9.16555 23.293C11.6655 22.5273 13.5093 20.5508 14.0327 18.082C14.1734 17.4023 14.1734 15.8867 14.0249 15.1914C13.2749 11.6289 9.86086 9.29297 6.17336 9.81641ZM8.8843 12.4883C9.10305 12.6758 9.10305 12.6836 9.12648 13.7383L9.15773 14.8008H10.1577C11.1109 14.8008 11.1734 14.8086 11.3843 14.9883L11.603 15.1758V16.6211C11.603 18.043 11.603 18.0742 11.4155 18.2695C11.228 18.4648 11.2046 18.4727 10.189 18.4727H9.15773L9.12648 19.5195C9.10305 20.5039 9.08742 20.582 8.91555 20.7695L8.72805 20.9727H7.26711H5.80617L5.61867 20.7695C5.4468 20.582 5.43117 20.5039 5.40773 19.5195L5.37648 18.4727H4.34523C3.32961 18.4727 3.30617 18.4648 3.11867 18.2695C2.93117 18.0742 2.93117 18.043 2.93117 16.6211V15.1758L3.14992 14.9883C3.36086 14.8086 3.42336 14.8008 4.37648 14.8008H5.37648L5.40773 13.7383C5.43117 12.6836 5.43117 12.6758 5.64992 12.4883C5.86086 12.3086 5.89992 12.3008 7.26711 12.3008C8.6343 12.3008 8.67336 12.3086 8.8843 12.4883Z" fill="#0E82FD"/>
<path d="M6.62646 14.5195C6.60303 15.5039 6.5874 15.582 6.41553 15.7695C6.22803 15.9648 6.20459 15.9727 5.18115 15.9727H4.14209V16.6367V17.3008H5.1499C6.11084 17.3008 6.17334 17.3086 6.38428 17.4883C6.60303 17.6758 6.60303 17.6836 6.62646 18.7383L6.65771 19.8008H7.26709H7.87646L7.90771 18.7383C7.93115 17.6836 7.93115 17.6758 8.1499 17.4883C8.36084 17.3086 8.42334 17.3008 9.38428 17.3008H10.3921V16.6367V15.9727H9.35303C8.32959 15.9727 8.30615 15.9648 8.11865 15.7695C7.94678 15.582 7.93115 15.5039 7.90771 14.5195L7.87646 13.4727H7.26709H6.65771L6.62646 14.5195Z" fill="#0E82FD"/>
</svg>
