<svg width="41" height="40" viewBox="0 0 41 40" fill="none" xmlns="http://www.w3.org/2000/svg">
<path d="M19.5715 19.8877H14.8174L13.194 23.5982L14.8174 24.2939L22.1226 25.1056L27.5725 23.5982L26.7608 19.8877H19.5715Z" fill="#0E82FD"/>
<path d="M19.6883 7.72363H14.9341L13.3107 11.4341L14.9341 12.1299L22.2393 12.9416L27.6893 11.4341L26.8776 7.72363H19.6883Z" fill="#0E82FD"/>
<path d="M19.5715 32.7451H14.8174L13.194 36.4556L14.8174 37.1514L22.1226 37.9631L27.5725 36.4556L26.7608 32.7451H19.5715Z" fill="#0E82FD"/>
<path d="M14.1406 1.41372C13.6172 1.49966 12.8672 1.88247 12.5156 2.24184C12.3594 2.40591 12.1094 2.74966 11.9688 3.00747L11.7031 3.47622L10.3047 3.51528C8.76562 3.55434 8.64062 3.59341 8.1875 4.07778C7.78906 4.49966 7.65625 4.82778 7.65625 5.39028C7.65625 5.96841 7.8125 6.36684 8.19531 6.75747C8.72656 7.28091 8.82031 7.29653 11.2891 7.34341C14.0703 7.39028 14.0859 7.39809 13.4688 8.41372C12.8438 9.45278 12.6875 10.3043 12.9922 10.9762C13.1641 11.359 13.7422 11.8903 14.2578 12.1247C14.4609 12.2262 14.6328 12.32 14.6406 12.3434C14.6406 12.3668 14.5156 12.4684 14.3672 12.57C13.9766 12.8356 12.9219 13.9528 12.5547 14.4918C12.3828 14.7497 12.1172 15.1872 11.9688 15.4684L11.6953 15.9762L10.375 16.0153C8.86719 16.07 8.54687 16.1637 8.08594 16.6793C7.73437 17.0856 7.60937 17.4059 7.60937 17.945C7.60937 18.82 8.15625 19.5622 8.96875 19.8043C9.26562 19.8981 9.82812 19.9215 11.4141 19.9215C13.3672 19.9215 13.4766 19.9293 13.625 20.0778C13.7109 20.1637 13.7813 20.2575 13.7813 20.2965C13.7813 20.3278 13.6406 20.6012 13.4609 20.8981C12.8281 21.9762 12.6719 22.609 12.875 23.3043C13.0312 23.8278 13.4922 24.32 14.1641 24.6637L14.625 24.8981L14.2422 25.195C13.4062 25.8278 12.3203 27.1872 11.8203 28.2184L11.6406 28.5934H10.4219C8.96875 28.5934 8.60937 28.6872 8.11719 29.1793C7.3125 29.984 7.36719 31.234 8.25 31.984C8.79687 32.4528 9.08594 32.4997 11.4062 32.4997C14 32.4997 14.0078 32.4997 13.3438 33.5934C12.4844 35.0231 12.5703 36.1559 13.6094 36.9137C14.3984 37.4918 15.9531 37.9762 18.0391 38.2809C19.7422 38.5309 20.5469 38.5543 21.75 38.4059C25.2422 37.9606 27.1172 37.2887 27.75 36.2418C27.9922 35.8434 28.0078 35.7809 27.9844 35.234C27.9531 34.6325 27.8984 34.4606 27.2891 33.3356C27.0625 32.9059 27.0547 32.8747 27.1719 32.695L27.2969 32.4997H29.3906C31.7656 32.4997 32.0938 32.445 32.6094 31.984C33.4531 31.2184 33.4609 29.8278 32.625 29.1403C32.1719 28.7653 31.7188 28.6715 30.4219 28.6715H29.2734L28.8594 27.9528C28.3125 26.984 27.9141 26.484 27.0313 25.6481L26.2891 24.945L26.7109 24.7418C27.625 24.2965 28.0781 23.6637 28.0781 22.8356C28.0781 22.2653 27.9531 21.8903 27.5234 21.1715C27.3438 20.8668 27.2031 20.5309 27.2031 20.4293C27.2031 20.0153 27.2109 20.0075 29.6641 19.984C31.8281 19.9606 31.9609 19.9528 32.2578 19.7887C32.9609 19.4137 33.3125 18.8278 33.3125 18.0465C33.3125 17.4762 33.1016 16.9762 32.7031 16.6325C32.2188 16.2028 31.9844 16.1481 30.5391 16.1012L29.2109 16.0543L28.9922 15.6247C28.4297 14.5465 27.4063 13.2887 26.6016 12.695C26.4297 12.5622 26.2891 12.445 26.2891 12.4215C26.2891 12.3981 26.4609 12.3043 26.6641 12.2028C27.1797 11.9684 27.7578 11.4372 27.9297 11.0543C28.0234 10.8512 28.0781 10.5543 28.0781 10.2106C28.0781 9.71841 28.0469 9.62466 27.6094 8.78872C27.2188 8.03872 27.1563 7.85903 27.2188 7.69497C27.2578 7.59341 27.375 7.48403 27.4688 7.46059C27.5703 7.44497 28.6328 7.41372 29.8438 7.40591L32.0391 7.38247L32.4219 7.14809C33.2422 6.64028 33.5469 5.56997 33.1328 4.66372C33.0234 4.42153 32.8281 4.14809 32.6719 4.03872C32.1563 3.64028 31.9297 3.59341 30.6016 3.59341C29.9219 3.59341 29.3281 3.56216 29.2813 3.53091C29.2344 3.49966 29.1172 3.30434 29.0078 3.09341C28.6094 2.27309 27.6953 1.61684 26.7813 1.49184C26.1016 1.39809 25.5234 1.50747 24.6641 1.89809C21.8047 3.19497 19.1016 3.20278 16.5391 1.92153C15.5 1.40591 14.9141 1.28091 14.1406 1.41372ZM15.875 3.09341C17.6875 3.98403 19.5156 4.32778 21.3984 4.14809C22.8906 3.99966 23.8125 3.73403 25.1641 3.06997C26.0547 2.63247 26.5547 2.57778 27.1094 2.86684C27.4688 3.05434 27.8828 3.49184 27.9609 3.76528C28.0625 4.08559 28.4063 4.46841 28.7344 4.61684C29.0078 4.74184 29.25 4.76528 30.3281 4.76528H31.6094L31.8359 4.99184C32.1172 5.27309 32.125 5.53872 31.875 5.83559L31.6875 6.05434L29.3906 6.09341C28.1328 6.11684 27.0313 6.16372 26.9453 6.20278C26.3125 6.48403 25.9609 7.03091 25.9609 7.73403C25.9531 8.21059 26.0391 8.44497 26.5938 9.45278C26.8906 10.0075 26.8984 10.3668 26.6172 10.6403C26.0781 11.1403 24.7578 11.5622 22.7422 11.8668C21.0938 12.1247 20.4453 12.1481 19.2109 11.9918C16.2891 11.6403 14.5078 11.0934 14.2031 10.4372C14.0938 10.2106 14.0938 10.1559 14.2109 9.87466C14.2813 9.71059 14.4766 9.32778 14.6563 9.03872C14.9375 8.57778 14.9844 8.42934 15.0156 7.93716C15.0469 7.46841 15.0234 7.31997 14.8828 7.05434C14.6641 6.61684 14.2266 6.27309 13.7656 6.17153C13.5547 6.13247 12.4688 6.09341 11.3594 6.09341C9.4375 6.09341 9.32031 6.08559 9.17187 5.93716C8.96875 5.73403 8.89844 5.42153 9.00781 5.18716C9.15625 4.85122 9.51562 4.76528 10.8047 4.76528C11.4453 4.76528 12.0703 4.72622 12.1953 4.67934C12.5156 4.56216 12.7578 4.31216 12.9766 3.86684C13.2891 3.24966 13.6563 2.92153 14.25 2.72622C14.6094 2.60903 15.1328 2.72622 15.875 3.09341ZM16.6719 12.9762C17.9688 13.2575 19.4062 13.4372 20.4219 13.4372C21.4375 13.4372 22.875 13.2575 24.1719 12.9762C24.5781 12.8825 24.9297 12.8122 24.9609 12.8122C24.9922 12.8122 25.0391 12.8981 25.0625 12.9997C25.0859 13.1012 25.3281 13.3668 25.6016 13.5778C26.5234 14.3122 27.2656 15.2262 27.8359 16.32C28.0859 16.7965 28.25 17.0075 28.4844 17.1715C28.7969 17.3747 28.8438 17.3825 30.2109 17.4215L31.6094 17.4606L31.7969 17.6793C32.1016 18.0309 32.0156 18.4137 31.5938 18.6325C31.4063 18.7262 30.9844 18.7497 29.2344 18.7497C27.1719 18.7497 27.0859 18.7575 26.75 18.9215C26.2891 19.1637 25.9922 19.5543 25.8984 20.0543C25.7969 20.5934 25.9219 21.07 26.3594 21.7965C26.5938 22.1793 26.7031 22.4684 26.7344 22.7262C26.7656 23.07 26.75 23.109 26.5156 23.3122C25.7969 23.9137 24.1406 24.359 21.5703 24.6559C20.4922 24.7731 20.3438 24.7731 19.3047 24.6559C15.8594 24.2418 13.9688 23.5309 14.1328 22.7028C14.1641 22.57 14.3672 22.1403 14.5859 21.7575C14.9219 21.1637 14.9922 20.9762 15.0156 20.57C15.0703 19.7653 14.7656 19.1793 14.1328 18.8981C13.8516 18.7653 13.5859 18.7497 11.7266 18.7497C9.50781 18.7497 9.20312 18.7106 9.02344 18.3747C8.88281 18.1168 8.92187 17.7731 9.10156 17.609C9.24219 17.4762 9.42969 17.4528 10.6484 17.4215C12.4766 17.3668 12.4375 17.3903 13.2188 15.9606C13.6328 15.1872 14.3594 14.32 15.1094 13.695C15.4297 13.4215 15.7266 13.1168 15.7578 13.0075C15.7969 12.8981 15.8516 12.8122 15.8828 12.8122C15.9141 12.8122 16.2656 12.8825 16.6719 12.9762ZM17.1797 25.6637C17.6953 25.7653 18.6328 25.9137 19.2656 25.984C20.3516 26.109 20.4844 26.109 21.6094 25.984C22.6406 25.8668 24.1953 25.609 24.8828 25.4293C25.0625 25.3825 25.0938 25.4059 25.1328 25.609C25.1641 25.7575 25.3125 25.9372 25.6094 26.1637C26.5234 26.8747 27.2734 27.7965 27.8906 28.9762C28.1016 29.3825 28.2813 29.609 28.5 29.7575C28.7969 29.9528 28.8594 29.9606 30.1797 29.9997C31.5703 30.0387 31.8359 30.0934 31.9375 30.359C32.0313 30.609 31.9844 30.9137 31.8203 31.0622C31.6719 31.195 31.4766 31.2106 29.4141 31.2497C27.2031 31.2887 27.1719 31.2887 26.7891 31.4918C26.2734 31.7575 25.9766 32.1793 25.9141 32.7497C25.8594 33.2731 25.9609 33.5934 26.4141 34.3825C26.6016 34.7028 26.7734 35.0934 26.7969 35.2497C26.9297 36.0309 25.4297 36.6793 22.4922 37.109C21.0156 37.32 19.8906 37.3122 18.3672 37.07C15.6094 36.6403 14.1719 36.0622 14.1719 35.3903C14.1719 35.2731 14.2813 34.9684 14.4141 34.7184C14.5469 34.4684 14.7422 34.0934 14.8516 33.8981C15.4297 32.7965 14.9375 31.5934 13.7813 31.3356C13.5859 31.2887 12.5234 31.2497 11.4141 31.2497H9.39062L9.16406 31.0231C8.89062 30.7418 8.875 30.5465 9.125 30.2575L9.3125 30.0387L10.7109 29.9997C12.0625 29.9606 12.125 29.9528 12.4219 29.7575C12.6484 29.609 12.8125 29.3825 13.0703 28.8981C13.2578 28.5387 13.5312 28.0622 13.6875 27.8512C14.0781 27.3122 14.9141 26.445 15.3672 26.1168C15.625 25.9293 15.7578 25.7653 15.7891 25.609C15.8281 25.4059 15.8594 25.3825 16.0391 25.4293C16.1484 25.4606 16.6641 25.5622 17.1797 25.6637Z" fill="#000F28"/>
<path d="M23.4297 7.03906C22.1953 7.28906 20.6484 7.38281 19.3906 7.27344C18.7734 7.22656 18.1094 7.16406 17.9062 7.13281C17.5859 7.09375 17.5156 7.11719 17.3437 7.28906C17.0859 7.54688 17.0781 7.90625 17.3203 8.15625C17.5937 8.42969 18.5781 8.55469 20.5391 8.55469C22.0391 8.55469 23.0391 8.46875 23.8594 8.28125C24.0078 8.25 24.2266 8.19531 24.3437 8.17188C24.9453 8.03906 25.0547 7.21094 24.5078 6.96094C24.2812 6.85938 24.3125 6.85938 23.4297 7.03906Z" fill="#000F28"/>
<path d="M15.7344 19.297C15.5156 19.5158 15.5235 19.9533 15.7578 20.1876C15.961 20.3908 16.6172 20.5705 17.8047 20.7423C19.2813 20.9611 19.6094 20.8751 19.6953 20.2658C19.7578 19.7892 19.5781 19.6408 18.8516 19.5705C18.5313 19.547 17.8438 19.4376 17.3203 19.3283C16.1563 19.1017 15.9375 19.0939 15.7344 19.297Z" fill="#000F28"/>
<path d="M23.8203 19.2967C23.6953 19.3358 23.2188 19.4217 22.7656 19.4842C22.1094 19.5779 21.9141 19.6404 21.8125 19.7733C21.625 19.992 21.6328 20.4061 21.8203 20.6326C21.9531 20.7967 22.0312 20.8201 22.4297 20.8045C22.6797 20.7967 23.25 20.7186 23.7031 20.6326C24.6172 20.4529 24.875 20.2811 24.875 19.8358C24.875 19.3514 24.4297 19.1248 23.8203 19.2967Z" fill="#000F28"/>
<path d="M23.1562 32.8906C22.75 32.9688 22.1016 33.0547 21.7187 33.0859C21.1328 33.1328 20.9922 33.1719 20.8359 33.3281C20.6094 33.5547 20.6016 33.8984 20.8281 34.1797L21 34.3984L21.8984 34.3516C22.8047 34.3047 23.9844 34.1328 24.4687 33.9766C24.9141 33.8359 25.0391 33.2734 24.7109 32.9219C24.5 32.6953 24.2344 32.6875 23.1562 32.8906Z" fill="#000F28"/>
</svg>
