<svg width="41" height="41" viewBox="0 0 41 41" fill="none" xmlns="http://www.w3.org/2000/svg">
<g clip-path="url(#clip0_58_909)">
<path d="M9.2243 7.80199C8.88837 7.96605 8.7243 8.59886 8.7243 9.69261C8.73212 10.4973 8.75555 10.7082 8.93524 11.2004C9.2243 12.0207 9.57587 12.5598 10.2087 13.1692C10.8181 13.7473 11.5915 14.177 12.3884 14.3801C12.9743 14.5285 14.0446 14.5285 14.654 14.3801C14.9118 14.3176 15.1462 14.2707 15.1852 14.2629C15.2165 14.2629 15.2399 14.9817 15.2399 15.8567V17.4504L14.9665 17.6926C14.6071 18.0051 14.029 18.2942 13.4665 18.4426C12.3102 18.7473 11.0837 18.4114 10.1227 17.5442C9.63837 17.0989 9.2868 17.0285 9.02899 17.3098C8.70087 17.677 8.90399 18.1301 9.64618 18.6848C10.8337 19.591 12.2243 19.9114 13.6306 19.6145C14.3024 19.4739 15.0837 19.1145 15.5368 18.7395L15.8884 18.4504L16.3727 18.7082C16.6384 18.841 17.4196 19.2942 18.0993 19.7004C18.7868 20.1067 19.4196 20.4582 19.5212 20.4817C19.904 20.5832 20.4196 21.466 20.5134 22.2082C20.5837 22.7707 20.3884 23.4739 20.0056 24.0364C19.654 24.552 19.6071 24.8801 19.8493 25.1223C20.2243 25.4973 20.6931 25.2317 21.1852 24.3801C21.9118 23.1067 21.8337 21.3567 20.9899 20.2551C20.8806 20.1067 20.7868 19.9739 20.7868 19.9426C20.7868 19.9035 21.9587 19.2082 23.0056 18.6379C23.5993 18.3176 23.6227 18.3098 23.9352 18.4035C24.7165 18.6379 25.3102 19.2942 25.4821 20.1067C25.654 20.9426 25.2946 21.7942 24.529 22.3567C24.0993 22.6692 23.9821 22.9348 24.154 23.2395C24.4118 23.7004 24.904 23.6223 25.5524 23.0364C27.029 21.7082 27.0681 19.3879 25.6384 18.0754C25.2087 17.6848 24.3962 17.2317 24.1306 17.2317C23.9977 17.2317 23.9899 17.0989 23.9899 15.5285V13.8254L24.3806 13.6457C25.3337 13.216 26.0134 12.2707 26.0837 11.2864C26.1149 10.8332 26.0993 10.7473 25.9509 10.5989C25.7477 10.3957 25.3649 10.3879 25.1696 10.5832C25.0837 10.6692 24.9899 10.8723 24.9665 11.0364C24.8337 11.8098 24.529 12.2629 23.9509 12.5442L23.6071 12.7082L22.8024 12.2629C22.3571 12.0207 21.5056 11.5207 20.8962 11.1614C20.2946 10.8098 19.7165 10.5129 19.6227 10.5129C19.5212 10.5129 18.9821 10.7864 18.4118 11.1301C16.6852 12.1614 14.9899 13.0676 14.5446 13.2004C14.0681 13.341 13.1852 13.3645 12.6852 13.2473C12.0681 13.1067 11.4587 12.7551 10.9743 12.2707C10.0056 11.3176 9.65399 10.0676 9.96649 8.73949C10.0993 8.17699 10.0368 7.92699 9.71649 7.78636C9.48212 7.67699 9.46649 7.67699 9.2243 7.80199ZM22.2946 13.3332L22.8181 13.5989V15.4973V17.3879L22.4196 17.6067C22.2087 17.7239 21.5056 18.1223 20.8649 18.4973C20.2243 18.8801 19.6618 19.1848 19.6227 19.1848C19.5759 19.1848 19.2321 18.9973 18.8571 18.7707C18.4821 18.5442 17.7712 18.1301 17.2868 17.8645L16.4118 17.3723L16.4274 15.4973L16.4509 13.6145L17.3102 13.1379C17.7868 12.8723 18.4977 12.4582 18.8962 12.216L19.6306 11.7785L20.7009 12.4192C21.2946 12.7707 22.0134 13.1848 22.2946 13.3332Z" fill="#0E82FD"/>
<path d="M18.7712 13.802C18.3493 14.013 17.9196 14.513 17.8102 14.9192C17.4821 16.138 18.279 17.2942 19.4899 17.3724C20.318 17.427 20.9509 17.0599 21.3337 16.3099C21.4743 16.0364 21.5055 15.8802 21.4743 15.3958C21.4509 14.9114 21.4118 14.7708 21.2165 14.4817C21.0837 14.302 20.8259 14.0442 20.6384 13.9114C20.3493 13.7083 20.2243 13.677 19.7087 13.6536C19.2165 13.638 19.0446 13.6614 18.7712 13.802ZM20.1227 15.0052C20.5602 15.4349 20.2399 16.2161 19.6305 16.2161C19.0055 16.2161 18.6774 15.4739 19.1071 15.013C19.3649 14.7317 19.8493 14.7239 20.1227 15.0052Z" fill="#0E82FD"/>
<path d="M16.7712 2.28643C16.7634 2.29424 16.6149 2.32549 16.443 2.34111C16.1227 2.37236 15.7321 2.50518 15.3962 2.67705C15.2868 2.73174 15.1618 2.77861 15.1071 2.77861C15.0524 2.77861 14.9743 2.84111 14.9352 2.91143C14.8884 2.98955 14.8493 3.0208 14.8493 2.98174C14.8493 2.84111 13.818 3.98955 13.7087 4.26299C13.3415 5.1458 13.3649 5.11455 12.8962 5.13018C12.0055 5.15361 11.2321 5.24736 11.029 5.34893C10.9509 5.3958 10.8649 5.41143 10.8493 5.38799C10.8259 5.37236 10.7087 5.38799 10.5837 5.44268C10.0759 5.6458 9.75555 5.76299 9.71648 5.75518C9.63055 5.73955 8.44305 6.40361 8.44305 6.4583C8.44305 6.50518 8.4118 6.5208 8.37273 6.48955C8.32586 6.46611 8.26336 6.51299 8.21648 6.5833C8.16961 6.66143 8.13055 6.70049 8.13055 6.66924C8.13055 6.60674 7.86492 6.80986 7.56805 7.09112C7.48992 7.16924 7.42742 7.2083 7.42742 7.17705C7.42742 7.12237 6.90398 7.65362 6.54461 8.07549C6.42742 8.2083 6.34148 8.34112 6.3493 8.35674C6.36492 8.37237 6.2868 8.4583 6.17742 8.55205C6.06805 8.63799 6.01336 8.7083 6.05242 8.71612C6.08367 8.71612 6.00555 8.84112 5.87273 8.98955C5.73992 9.1458 5.63055 9.30205 5.63055 9.3333C5.63055 9.37237 5.49773 9.70049 5.32586 10.0599C4.95867 10.8567 4.88055 11.0755 4.85711 11.3724C4.8493 11.4739 4.79461 11.5286 4.69305 11.5286C4.61492 11.5286 4.46648 11.5599 4.36492 11.5989C4.0993 11.7083 3.88055 11.7786 3.84148 11.763C3.82586 11.7552 3.7868 11.7864 3.75555 11.8411C3.7243 11.888 3.65398 11.9349 3.59148 11.9505C3.4118 11.9739 2.81805 12.3802 2.81805 12.4817C2.81805 12.5286 2.79461 12.5521 2.77117 12.5286C2.73211 12.4817 2.3493 12.8255 2.3493 12.9114C2.3493 12.9349 2.2868 13.013 2.20086 13.0833C1.95086 13.3021 1.45086 14.2317 1.38836 14.6146C1.36492 14.7396 1.31805 14.9349 1.29461 15.0442C1.15398 15.5599 1.23992 17.0599 1.4118 17.2708C1.45086 17.3177 1.49773 17.4505 1.52117 17.5677C1.5368 17.6849 1.57586 17.8099 1.5993 17.8489C1.62273 17.888 1.59148 18.0208 1.52117 18.1536C1.45867 18.2864 1.38836 18.4583 1.37273 18.5364C1.35711 18.6146 1.29461 18.8333 1.2243 19.0286C1.0368 19.5989 1.00555 19.8021 0.974296 20.7474C0.950859 21.5442 1.01336 22.1849 1.15398 22.5442C1.17742 22.6067 1.20867 22.7161 1.21648 22.7786C1.23992 23.0052 1.44305 23.4817 1.51336 23.4817C1.54461 23.4817 1.55242 23.513 1.52898 23.5599C1.50555 23.5989 1.52117 23.638 1.57586 23.638C1.63055 23.638 1.65398 23.6614 1.62273 23.6849C1.55242 23.7552 2.13836 24.6536 2.51336 25.0599C2.80242 25.3724 2.83367 25.4349 2.85711 25.9036C2.86492 26.1849 2.90398 26.4974 2.92742 26.6067C2.99773 26.9036 3.46648 27.7942 3.58367 27.8333C3.63055 27.8567 3.67742 27.9114 3.67742 27.9661C3.67742 28.013 3.74773 28.1067 3.83367 28.1692C3.91961 28.2317 3.98992 28.3177 3.98992 28.3646C3.99773 28.4036 4.17742 28.5989 4.39617 28.7942C4.61492 28.9896 4.88836 29.2396 5.00555 29.3567C5.12273 29.4817 5.23992 29.5755 5.27117 29.5755C5.31805 29.5755 5.49773 29.7317 5.8493 30.0677C5.94305 30.1614 6.02117 30.2083 6.02117 30.1692C6.02117 30.1302 6.08367 30.1771 6.16961 30.263C6.24773 30.3567 6.34148 30.4036 6.37273 30.3724C6.49773 30.2552 6.20867 30.7161 6.02898 30.9271C5.91961 31.0442 5.85711 31.138 5.88836 31.138C5.91961 31.138 5.80242 31.3411 5.63055 31.5911C5.2868 32.1067 4.69305 33.263 4.69305 33.4349C4.69305 33.4974 4.65398 33.5755 4.60711 33.5989C4.56023 33.6302 4.54461 33.7005 4.56805 33.763C4.59148 33.8255 4.58367 33.8724 4.54461 33.8724C4.50555 33.8724 4.45086 34.0052 4.4118 34.1614C4.34148 34.5052 4.32586 34.5677 4.30242 34.5911C4.2868 34.6224 4.25555 34.7552 4.10711 35.3958C3.9743 36.0052 3.9118 36.6458 3.88055 37.6224C3.84148 38.8724 3.87273 38.888 6.31805 38.8489C7.29461 38.8333 8.14617 38.8099 8.21648 38.7864C8.40398 38.7317 8.60711 38.5521 8.56023 38.4817C8.5368 38.4427 8.55242 38.3958 8.5993 38.3646C8.63836 38.3411 8.67742 38.2474 8.67742 38.1614C8.67742 37.8802 8.98992 37.0833 9.25555 36.6692C9.52898 36.2474 9.95867 35.7474 10.0446 35.7474C10.068 35.7474 10.1696 35.6614 10.2712 35.5521C10.3727 35.4427 10.4899 35.3567 10.529 35.3567C10.568 35.3567 10.6696 35.2864 10.7477 35.2005C10.8259 35.1146 10.9352 35.0442 10.9899 35.0442C11.0446 35.0442 11.154 34.9739 11.2321 34.8958C11.3102 34.8099 11.4274 34.7317 11.4899 34.7161C11.5524 34.7005 11.7555 34.6146 11.943 34.5208C12.1384 34.4192 12.318 34.3646 12.3571 34.388C12.3962 34.4114 12.4274 34.388 12.4274 34.3411C12.4274 34.2942 12.4509 34.2708 12.4899 34.2942C12.6227 34.3724 14.2243 33.4739 14.2243 33.3177C14.2243 33.2786 14.2712 33.2474 14.3337 33.2474C14.4977 33.2474 15.3962 32.2239 15.3962 32.0286C15.3962 31.9817 15.4509 31.8958 15.5134 31.8411C15.6462 31.7317 15.9899 30.9817 15.9587 30.8802C15.9509 30.8489 15.9821 30.8255 16.029 30.8255C16.0759 30.8255 16.0993 30.7786 16.0759 30.7239C16.0602 30.6771 16.0759 30.5677 16.1149 30.4896C16.2165 30.2942 16.3102 29.7942 16.3259 29.3567C16.3337 29.263 16.5368 29.263 16.8024 29.3567C16.9899 29.4271 17.6149 29.6067 17.7009 29.6224C17.7477 29.6224 17.8337 29.6536 17.8962 29.6771C18.1227 29.763 19.5368 30.1536 19.654 30.1614C19.7009 30.1614 19.779 30.1927 19.8337 30.2317C19.8884 30.263 19.9587 30.2786 19.9743 30.2552C19.9977 30.2317 20.1774 30.2708 20.3805 30.3333C20.5837 30.3958 20.8571 30.4583 20.9821 30.4739C21.1149 30.4974 21.3024 30.5286 21.4118 30.5521C21.7477 30.6302 23.0915 30.7786 23.4821 30.7786C23.7087 30.7786 24.3024 30.7161 24.9665 30.6302C25.3337 30.5755 26.1071 30.3646 26.2165 30.2786C26.2634 30.2474 26.3805 30.1927 26.4821 30.1614C26.5915 30.1302 26.8102 30.0052 26.9821 29.8802C27.154 29.7552 27.3259 29.6536 27.3571 29.6536C27.5134 29.6536 29.0055 28.263 28.9509 28.1692C28.9274 28.1302 28.9665 28.0833 29.0368 28.0599C29.0993 28.0364 29.1384 27.9817 29.1149 27.9505C29.0915 27.9114 29.1305 27.8099 29.2087 27.7239C29.279 27.6458 29.3805 27.5052 29.4352 27.4192C29.4821 27.3411 29.5524 27.2786 29.5915 27.2864C30.5524 27.4661 32.8415 27.4427 33.1696 27.2474C33.2477 27.2005 33.2712 27.1927 33.5602 27.1224C33.6462 27.1067 33.7165 27.0833 33.7165 27.0755C33.7165 27.0677 33.7868 27.0521 33.8805 27.0364C33.9743 27.013 34.2087 26.9349 34.4118 26.8489C34.6071 26.763 34.7868 26.7005 34.8024 26.7083C34.8102 26.7161 34.8884 26.6692 34.9587 26.6067C35.0368 26.5442 35.1462 26.4896 35.2087 26.4817C35.2712 26.4739 35.4509 26.3567 35.6227 26.2239C35.7868 26.0911 35.9665 25.9817 36.0134 25.9817C36.0602 25.9817 36.0993 25.9427 36.0993 25.9036C36.0993 25.8567 36.1462 25.8255 36.2087 25.8255C36.3259 25.8255 37.6618 24.5521 37.6618 24.4427C37.6618 24.4036 37.7321 24.3255 37.818 24.263C37.904 24.2005 37.9743 24.1224 37.9743 24.0833C37.9743 24.0442 38.0602 23.9036 38.1618 23.7708C38.443 23.3958 39.0446 22.2083 39.0055 22.0911C38.9899 22.0442 39.0134 21.9974 39.0602 21.9974C39.1071 21.9974 39.1384 21.9739 39.1305 21.9349C39.1227 21.9036 39.1696 21.7239 39.2243 21.5286C39.443 20.7942 39.529 20.1692 39.5368 19.3411C39.5446 18.5677 39.4509 17.5052 39.3805 17.5052C39.3727 17.5052 39.3571 17.4349 39.3415 17.3489C39.2712 16.8958 39.0915 16.3724 38.8962 15.9974C38.818 15.8567 38.7555 15.6927 38.7555 15.6302C38.7555 15.5755 38.7087 15.4739 38.6618 15.4192C38.5915 15.3489 38.5602 15.013 38.5524 14.3802C38.5524 13.3802 38.529 13.2317 38.3805 12.9505C38.3259 12.8567 38.3024 12.7474 38.3259 12.7083C38.3493 12.6692 38.3102 12.5755 38.2399 12.513C38.1696 12.4427 38.1071 12.3411 38.0993 12.2864C38.0524 12.013 37.0134 10.7474 36.8259 10.7474C36.7868 10.7474 36.6696 10.6771 36.568 10.5911C36.4665 10.5052 36.3415 10.4349 36.279 10.4349C36.2243 10.4349 36.1774 10.3958 36.1774 10.3567C36.1774 10.3099 36.1071 10.2786 36.0212 10.2786C35.9352 10.2786 35.8649 10.2474 35.8649 10.2083C35.8649 10.1771 35.7087 10.0989 35.5212 10.0442C35.2243 9.96612 35.1618 9.91143 35.1227 9.70049C35.068 9.4583 34.7555 8.85674 34.568 8.63799C34.1618 8.16924 33.7555 7.75518 33.7555 7.81768C33.7555 7.86455 33.7321 7.86455 33.693 7.81768C33.5993 7.68487 33.0368 7.34893 32.6618 7.20049C32.2634 7.03643 30.9899 6.9583 30.5837 7.06768C30.3571 7.13018 30.3259 7.11455 30.2868 6.96612C30.2634 6.87237 30.1774 6.72393 30.0837 6.63018C29.9977 6.53643 29.9274 6.42705 29.9274 6.38799C29.9274 6.23955 28.2087 4.57549 28.0602 4.57549C28.029 4.57549 27.9352 4.51299 27.8493 4.43486C27.6462 4.26299 27.4352 4.13018 27.193 4.0208C27.0837 3.97393 26.8649 3.86455 26.7087 3.77861C26.4509 3.6458 25.8024 3.42705 25.4743 3.36455C25.4118 3.34893 25.3493 3.3333 25.3415 3.32549C25.3259 3.30986 25.2555 3.30205 25.1852 3.28643C25.1071 3.27861 24.9743 3.23955 24.8884 3.20049C24.7165 3.13018 22.6852 3.11455 22.3102 3.19268C22.1852 3.21611 21.9352 3.25518 21.7634 3.27861C21.4196 3.32549 20.6384 3.55205 20.5134 3.63799C20.3649 3.74736 20.0055 3.80205 20.0055 3.71611C20.0055 3.59893 19.2868 2.93486 19.2165 2.98174C19.1774 3.00518 19.1462 2.98955 19.1462 2.94268C19.1462 2.8958 19.0602 2.84111 18.9509 2.80986C18.8415 2.78643 18.7555 2.73174 18.7555 2.68486C18.7555 2.6458 18.7243 2.63018 18.6852 2.65361C18.6462 2.68486 18.5993 2.66924 18.5837 2.63018C18.5759 2.5833 18.4665 2.53643 18.3493 2.51299C18.2321 2.49736 18.1071 2.4583 18.068 2.44268C17.943 2.35674 16.8337 2.22393 16.7712 2.28643ZM17.9743 3.59111C18.4118 3.71611 18.8571 4.05205 19.1071 4.43486C19.1774 4.55205 19.2712 4.63018 19.3102 4.60674C19.3493 4.5833 19.3805 4.62236 19.3805 4.68486C19.3805 4.74736 19.5368 4.98174 19.7243 5.19268C20.3571 5.90361 20.4899 6.21611 20.5134 6.98174C20.529 7.35674 20.5055 7.70049 20.4587 7.75518C20.4196 7.80987 20.404 7.88018 20.4274 7.92705C20.4509 7.96612 20.4509 8.01299 20.4196 8.02862C20.3805 8.03643 20.2868 8.19268 20.2009 8.36455C20.1149 8.53643 19.9665 8.77862 19.8727 8.8958C19.529 9.32549 19.7009 9.79424 20.2165 9.86455C20.4899 9.90362 20.5446 9.88018 20.7165 9.65362C20.818 9.5208 20.9509 9.35674 21.0055 9.30205C21.0524 9.23955 21.0993 9.16143 21.0993 9.11455C21.0993 9.06768 21.1305 9.02862 21.1774 9.02862C21.2165 9.02862 21.279 8.93487 21.3024 8.80987C21.3337 8.69268 21.3805 8.55987 21.4118 8.5208C21.4509 8.47393 21.4977 8.31768 21.5212 8.16924C21.5446 8.0208 21.5993 7.7708 21.6305 7.62237C21.693 7.32549 21.693 7.29424 21.6149 6.52861C21.5602 5.98174 21.2009 5.1458 20.9196 4.88018C20.7868 4.75518 20.7712 4.7083 20.8884 4.73955C20.8962 4.73955 21.0134 4.70049 21.1384 4.65361C22.2868 4.2083 23.9743 4.11455 25.1227 4.43486C25.2946 4.48174 25.4821 4.5208 25.5368 4.50518C25.5837 4.49736 25.6305 4.52861 25.6305 4.56768C25.6305 4.61455 25.7555 4.66924 25.904 4.70049C26.0524 4.72393 26.2009 4.77861 26.2243 4.81768C26.2477 4.85674 26.2946 4.87236 26.3337 4.84893C26.3649 4.82549 26.4352 4.86455 26.4899 4.92705C26.5446 4.98955 26.6227 5.04424 26.6618 5.04424C26.7009 5.04424 26.8571 5.13799 27.0055 5.24736C27.154 5.36455 27.2712 5.42705 27.2712 5.40361C27.2712 5.34111 28.5915 6.50518 28.6149 6.59111C28.6384 6.6458 28.8024 6.86455 28.9743 7.03643C29.0212 7.09893 29.068 7.17705 29.068 7.21612C29.068 7.26299 29.0993 7.30987 29.1305 7.32549C29.193 7.34893 29.3493 7.60674 29.8571 8.52862C30.0134 8.80987 30.0837 9.02862 30.0837 9.30987C30.0837 9.84112 30.068 9.96612 29.9977 9.96612C29.9665 9.96612 29.8962 10.0833 29.8493 10.2317C29.8024 10.3802 29.7165 10.5208 29.654 10.5442C29.4743 10.6067 29.5134 11.0599 29.7087 11.2708C29.9743 11.5599 30.3337 11.513 30.6227 11.1614C30.7555 10.9974 30.8649 10.8411 30.8649 10.8021C30.8649 10.7708 30.9352 10.5833 31.0212 10.388C31.2477 9.8958 31.2477 8.3333 31.0212 8.26299C30.818 8.19268 30.9821 8.13018 31.3649 8.13799C32.0915 8.1458 32.693 8.38018 33.1852 8.84893C33.2399 8.8958 33.3102 8.95049 33.3415 8.96612C33.5446 9.05205 34.0055 9.88018 34.0993 10.3177C34.1305 10.4661 34.3962 10.9817 34.4509 10.9896C34.4743 10.9974 34.5837 11.013 34.693 11.0208C35.0446 11.0755 35.1305 11.0989 35.5993 11.3333C36.1696 11.6224 36.8415 12.2708 37.0759 12.763C37.4352 13.5052 37.4821 13.7239 37.443 14.4192C37.4274 14.7864 37.4118 15.1849 37.404 15.3177C37.404 15.4427 37.4899 15.7005 37.6071 15.8802C37.7165 16.0599 37.8337 16.3021 37.8649 16.4271C37.8962 16.5442 37.9509 16.6614 37.9821 16.6849C38.0212 16.7083 38.068 16.8177 38.0837 16.9192C38.0993 17.0286 38.1227 17.1146 38.1305 17.1146C38.1462 17.1146 38.1852 17.2786 38.2477 17.5833C38.2712 17.7083 38.3259 17.9427 38.3571 18.0989C38.443 18.4661 38.3962 20.1458 38.3024 20.5521C38.0837 21.4505 37.943 21.888 37.8649 21.9974C37.8102 22.0599 37.693 22.2864 37.5915 22.5052C37.4899 22.7161 37.3259 23.0052 37.2243 23.1458C37.1227 23.2786 37.0368 23.4271 37.0368 23.4739C37.0368 23.5208 36.9977 23.5599 36.9587 23.5599C36.9118 23.5599 36.818 23.6614 36.7399 23.7786C36.5446 24.1067 35.2868 25.1927 35.1149 25.2005C35.068 25.2005 34.9665 25.2708 34.8884 25.3567C34.8102 25.4427 34.7321 25.4974 34.7087 25.4739C34.693 25.4583 34.529 25.5208 34.3493 25.6067C33.9587 25.8177 33.3102 26.0677 33.0759 26.0989C32.9899 26.1146 32.8415 26.1458 32.7477 26.1771C32.3884 26.2864 30.6696 26.3646 30.5759 26.2708C30.5524 26.2396 30.6227 26.0833 30.7321 25.9271C30.9118 25.6614 31.0212 25.3567 31.1618 24.7317C31.2477 24.3567 31.1852 23.2474 31.0759 23.2474C31.0446 23.2474 31.029 23.2161 31.0602 23.1771C31.0837 23.138 31.0602 23.0755 31.0134 23.0521C30.9743 23.0208 30.9509 22.9505 30.9743 22.8958C31.0055 22.8021 30.6618 22.2161 30.5368 22.1692C30.5055 22.1536 30.4743 22.1067 30.4743 22.0599C30.4743 21.9114 29.7634 21.3099 29.3493 21.1067C28.8102 20.8411 28.0134 20.7239 27.7321 20.8724C27.3884 21.0442 27.3259 21.4271 27.5915 21.7083C27.6774 21.8021 27.8102 21.8802 27.8805 21.8802C28.1852 21.888 28.9665 22.1849 29.1618 22.3646C29.2712 22.4739 29.3884 22.5599 29.4118 22.5521C29.4352 22.5442 29.4509 22.5521 29.443 22.5677C29.4274 22.5755 29.4977 22.6692 29.5915 22.7786C29.779 22.9739 30.0524 23.6224 30.0915 23.9505C30.1227 24.2474 30.0055 24.8177 29.8415 25.1224C29.6618 25.4661 29.2087 25.9817 29.0837 25.9817C29.029 25.9817 28.9899 26.013 28.9899 26.0599C28.9899 26.0989 28.943 26.138 28.8962 26.138C28.8415 26.138 28.7165 26.3021 28.6149 26.513C28.1071 27.5677 27.1696 28.5911 26.3805 28.9505C25.5915 29.3021 25.4274 29.3724 25.3102 29.3802C25.2399 29.388 25.1462 29.4192 25.0993 29.4505C24.7712 29.6536 22.6774 29.6536 21.7165 29.4505C21.3571 29.3802 20.9743 29.3021 20.8649 29.2864C20.7555 29.2786 20.404 29.1927 20.0837 29.0989C19.7634 29.0052 19.443 28.9271 19.3805 28.9114C19.318 28.9036 19.1618 28.8567 19.0368 28.8021C18.9118 28.7552 18.7946 28.7239 18.779 28.7474C18.7555 28.763 18.6227 28.7317 18.4743 28.6692C18.3259 28.6067 18.1852 28.5599 18.154 28.5521C18.1149 28.5521 17.9118 28.4974 17.693 28.4349C17.4743 28.3724 17.2165 28.3021 17.1227 28.2864C16.7634 28.2083 16.6774 28.1771 16.4743 28.0989C16.3493 28.0521 16.2555 28.0364 16.2555 28.0599C16.2555 28.0911 16.2009 28.0677 16.1384 28.013C16.0759 27.9583 16.0212 27.9349 16.0212 27.9661C16.0212 27.9974 15.9352 27.9583 15.8259 27.888C15.7165 27.8177 15.6305 27.7864 15.6305 27.8177C15.6305 27.8489 15.5759 27.8333 15.5134 27.7786C15.404 27.6927 14.5055 27.2396 14.4196 27.2317C14.318 27.2239 13.529 26.763 13.1227 26.4739C12.8649 26.2864 12.6462 26.138 12.6227 26.138C12.6071 26.138 12.4821 26.0286 12.3415 25.8958C11.943 25.5052 11.4196 25.7005 11.3649 26.2552C11.3493 26.4661 11.3962 26.5599 11.6305 26.7708C12.0368 27.138 12.4821 27.4661 12.5759 27.4661C12.6227 27.4661 12.6618 27.4974 12.6618 27.5286C12.6618 27.5677 12.7555 27.6458 12.8805 27.7005C12.9977 27.763 13.1462 27.8567 13.2165 27.9114C13.2868 27.9739 13.4274 28.0364 13.5212 28.0521C13.6227 28.0755 13.7321 28.1224 13.7555 28.1692C13.7868 28.2161 13.8571 28.263 13.9196 28.2786C14.0134 28.2942 14.404 28.4583 15.0055 28.7474C15.279 28.8802 15.279 29.0442 14.9821 30.3958C14.9665 30.4349 14.9352 30.5208 14.904 30.5677C14.8649 30.6224 14.8259 30.7317 14.8102 30.8177C14.7946 30.8958 14.7243 31.0286 14.6618 31.1067C14.5915 31.1927 14.5446 31.2708 14.5524 31.2942C14.5759 31.3489 14.3259 31.638 13.779 32.2005C13.2868 32.6927 12.4509 33.1849 11.8962 33.2942C11.7555 33.3255 11.6462 33.3802 11.6462 33.4271C11.6462 33.4739 11.6227 33.4896 11.5993 33.4583C11.529 33.388 10.5837 33.9192 9.92742 34.4036C9.30242 34.8567 8.3493 35.8177 8.4118 35.9192C8.43523 35.9505 8.4118 35.9817 8.36492 35.9817C8.27898 35.9817 7.86492 36.8177 7.65398 37.4114L7.55242 37.7005H6.27117H4.98211L5.04461 37.013C5.11492 36.138 5.13055 36.0599 5.18523 35.8255C5.21648 35.7161 5.25555 35.5442 5.27898 35.4349C5.34148 35.0989 5.45086 34.7083 5.59148 34.3411C5.6618 34.1458 5.73211 33.9505 5.73992 33.9114C5.84148 33.5364 6.24773 32.7161 6.58367 32.2161C6.74773 31.9661 6.86492 31.763 6.83367 31.763C6.80242 31.763 6.87273 31.6692 6.98992 31.5599C7.0993 31.4427 7.26336 31.2317 7.35711 31.0911C7.44305 30.9427 7.54461 30.8255 7.58367 30.8255C7.65398 30.8255 7.81805 30.4036 7.81805 30.2317C7.81805 30.0911 7.35711 29.6536 7.21648 29.6536C7.1618 29.6536 7.09148 29.5989 7.06805 29.5364C7.0368 29.4739 6.98992 29.4427 6.95086 29.4661C6.9118 29.4896 6.88055 29.4661 6.88055 29.4192C6.88055 29.3724 6.82586 29.3177 6.75555 29.2864C6.68523 29.263 6.55242 29.1692 6.45086 29.0755C6.35711 28.9817 6.14617 28.8021 5.98992 28.6771C5.60711 28.3724 4.52898 27.3099 4.59148 27.3099C4.61492 27.3099 4.57586 27.2396 4.49773 27.1536C4.27898 26.9114 3.99773 26.2942 3.98211 26.0286C3.9743 25.8958 3.99773 25.6224 4.02117 25.4271C4.07586 25.0677 4.07586 25.0599 3.60711 24.5833C3.3493 24.3255 3.15398 24.1067 3.17742 24.1067C3.20086 24.1067 3.14617 24.0286 3.05242 23.9349C2.96648 23.8411 2.89617 23.7161 2.89617 23.6614C2.89617 23.6067 2.85711 23.5599 2.81805 23.5599C2.74773 23.5599 2.63836 23.3646 2.54461 23.0911C2.5368 23.0677 2.50555 22.9817 2.46648 22.8958C2.23211 22.3099 2.19305 22.2005 2.2243 22.1771C2.24773 22.1536 2.21648 21.9896 2.1618 21.8177C2.04461 21.4114 2.07586 19.9192 2.20867 19.6927C2.23211 19.6458 2.27898 19.4896 2.31023 19.3411C2.34148 19.1927 2.4743 18.8567 2.5993 18.5989C2.85711 18.0599 2.89617 17.7317 2.71648 17.4661C2.39617 16.9583 2.19305 15.3255 2.42742 15.0911C2.46648 15.0521 2.50555 14.9661 2.50555 14.9036C2.50555 14.4036 3.52898 13.1536 4.09148 12.9661C4.1618 12.9349 4.2243 12.8802 4.2243 12.8333C4.2243 12.7864 4.24773 12.7786 4.27898 12.8021C4.30242 12.8333 4.40398 12.8099 4.48992 12.7474C4.58367 12.6927 4.81805 12.6146 5.00555 12.5755C5.6618 12.4583 5.73211 12.4036 5.83367 11.9739C5.84148 11.9427 5.85711 11.8958 5.86492 11.8567C5.88055 11.8255 5.89617 11.763 5.89617 11.7239C5.91961 11.5677 6.20086 10.8489 6.43523 10.3567C6.56805 10.0755 6.66961 9.82549 6.6618 9.78643C6.65398 9.75518 6.67742 9.73174 6.71648 9.73174C6.75555 9.73174 6.87273 9.5833 6.98211 9.3958C7.25555 8.93487 7.6618 8.47393 8.14617 8.07549C8.54461 7.75518 8.7868 7.55205 8.88836 7.46612C8.94305 7.42705 9.00555 7.38799 9.02898 7.38799C9.06023 7.38799 9.19305 7.30205 9.33367 7.19268C9.4743 7.0833 9.61492 7.0208 9.63836 7.05205C9.66961 7.07549 9.69305 7.05987 9.69305 7.00518C9.69305 6.95049 9.73211 6.93487 9.77117 6.9583C9.81805 6.98174 9.8493 6.97393 9.8493 6.93487C9.8493 6.8958 9.89617 6.86455 9.95086 6.86455C9.99773 6.85674 10.2555 6.77861 10.5134 6.68486C11.3102 6.38018 12.1618 6.24736 13.1149 6.25518C13.8805 6.2708 14.029 6.24736 14.1852 6.12236C14.2946 6.03643 14.3727 5.95049 14.3649 5.91924C14.3337 5.80986 14.4665 5.2708 14.5993 4.98955C14.8024 4.53643 15.3493 3.92705 15.6227 3.8333C15.7087 3.80986 15.7868 3.75518 15.7868 3.72393C15.7868 3.66143 16.2165 3.51299 16.568 3.45049C16.8962 3.3958 17.5212 3.4583 17.9743 3.59111Z" fill="#012047"/>
</g>
<defs>
<clipPath id="clip0_58_909">
<rect width="40" height="40" fill="white" transform="translate(0.239929 0.356689)"/>
</clipPath>
</defs>
</svg>
