<svg width="41" height="41" viewBox="0 0 41 41" fill="none" xmlns="http://www.w3.org/2000/svg">
<path d="M19.4543 20.2449H14.7001L13.0767 23.9554L14.7001 24.6511L22.0053 25.4628L27.4552 23.9554L26.6436 20.2449H19.4543Z" fill="#0E82FD"/>
<path d="M19.5711 8.08032H14.8169L13.1935 11.7908L14.8169 12.4866L22.1221 13.2983L27.572 11.7908L26.7603 8.08032H19.5711Z" fill="#0E82FD"/>
<path d="M19.4543 33.1013H14.7001L13.0767 36.8118L14.7001 37.5076L22.0053 38.3193L27.4552 36.8118L26.6436 33.1013H19.4543Z" fill="#0E82FD"/>
<path d="M14.0234 1.77065C13.5 1.85659 12.75 2.2394 12.3984 2.59878C12.2422 2.76284 11.9922 3.10659 11.8515 3.3644L11.5859 3.83315L10.1875 3.87222C8.64841 3.91128 8.52341 3.95034 8.07028 4.43472C7.67184 4.85659 7.53903 5.18472 7.53903 5.74722C7.53903 6.32534 7.69528 6.72378 8.07809 7.1144C8.60934 7.63784 8.70309 7.65347 11.1718 7.70034C13.9531 7.74722 13.9687 7.75503 13.3515 8.77065C12.7265 9.80972 12.5703 10.6613 12.875 11.3332C13.0468 11.716 13.625 12.2472 14.1406 12.4816C14.3437 12.5832 14.5156 12.6769 14.5234 12.7003C14.5234 12.7238 14.3984 12.8253 14.25 12.9269C13.8593 13.1925 12.8047 14.3097 12.4375 14.8488C12.2656 15.1066 12 15.5441 11.8515 15.8253L11.5781 16.3332L10.2578 16.3722C8.74997 16.4269 8.42966 16.5207 7.96872 17.0363C7.61716 17.4425 7.49216 17.7628 7.49216 18.3019C7.49216 19.1769 8.03903 19.9191 8.85153 20.1613C9.14841 20.255 9.71091 20.2785 11.2968 20.2785C13.25 20.2785 13.3593 20.2863 13.5078 20.4347C13.5937 20.5207 13.664 20.6144 13.664 20.6535C13.664 20.6847 13.5234 20.9582 13.3437 21.255C12.7109 22.3332 12.5547 22.966 12.7578 23.6613C12.914 24.1847 13.375 24.6769 14.0468 25.0207L14.5078 25.255L14.125 25.5519C13.289 26.1847 12.2031 27.5441 11.7031 28.5753L11.5234 28.9503H10.3047C8.85153 28.9503 8.49216 29.0441 7.99997 29.5363C7.19528 30.341 7.24997 31.591 8.13278 32.341C8.67966 32.8097 8.96872 32.8566 11.289 32.8566C13.8828 32.8566 13.8906 32.8566 13.2265 33.9503C12.3672 35.38 12.4531 36.5128 13.4922 37.2706C14.2812 37.8488 15.8359 38.3331 17.9218 38.6378C19.625 38.8878 20.4297 38.9113 21.6328 38.7628C25.125 38.3175 27 37.6456 27.6328 36.5988C27.875 36.2003 27.8906 36.1378 27.8672 35.591C27.8359 34.9894 27.7812 34.8175 27.1718 33.6925C26.9453 33.2628 26.9375 33.2316 27.0547 33.0519L27.1797 32.8566H29.2734C31.6484 32.8566 31.9765 32.8019 32.4922 32.341C33.3359 31.5753 33.3437 30.1847 32.5078 29.4972C32.0547 29.1222 31.6015 29.0285 30.3047 29.0285H29.1562L28.7422 28.3097C28.1953 27.341 27.7968 26.841 26.914 26.005L26.1718 25.3019L26.5937 25.0988C27.5078 24.6535 27.9609 24.0207 27.9609 23.1925C27.9609 22.6222 27.8359 22.2472 27.4062 21.5285C27.2265 21.2238 27.0859 20.8878 27.0859 20.7863C27.0859 20.3722 27.0937 20.3644 29.5468 20.341C31.7109 20.3175 31.8437 20.3097 32.1406 20.1457C32.8437 19.7707 33.1953 19.1847 33.1953 18.4035C33.1953 17.8332 32.9843 17.3332 32.5859 16.9894C32.1015 16.5597 31.8672 16.505 30.4218 16.4582L29.0937 16.4113L28.875 15.9816C28.3125 14.9035 27.289 13.6457 26.4843 13.0519C26.3125 12.9191 26.1718 12.8019 26.1718 12.7785C26.1718 12.755 26.3437 12.6613 26.5468 12.5597C27.0625 12.3253 27.6406 11.7941 27.8125 11.4113C27.9062 11.2082 27.9609 10.9113 27.9609 10.5675C27.9609 10.0753 27.9297 9.98159 27.4922 9.14565C27.1015 8.39565 27.039 8.21597 27.1015 8.0519C27.1406 7.95034 27.2578 7.84097 27.3515 7.81753C27.4531 7.8019 28.5156 7.77065 29.7265 7.76284L31.9218 7.7394L32.3047 7.50503C33.125 6.99722 33.4297 5.9269 33.0156 5.02065C32.9062 4.77847 32.7109 4.50503 32.5547 4.39565C32.039 3.99722 31.8125 3.95034 30.4843 3.95034C29.8047 3.95034 29.2109 3.91909 29.164 3.88784C29.1172 3.85659 29 3.66128 28.8906 3.45034C28.4922 2.63003 27.5781 1.97378 26.664 1.84878C25.9843 1.75503 25.4062 1.8644 24.5468 2.25503C21.6875 3.5519 18.9843 3.55972 16.4218 2.27847C15.3828 1.76284 14.7968 1.63784 14.0234 1.77065ZM15.7578 3.45034C17.5703 4.34097 19.3984 4.68472 21.2812 4.50503C22.7734 4.35659 23.6953 4.09097 25.0468 3.4269C25.9375 2.9894 26.4375 2.93472 26.9922 3.22378C27.3515 3.41128 27.7656 3.84878 27.8437 4.12222C27.9453 4.44253 28.289 4.82534 28.6172 4.97378C28.8906 5.09878 29.1328 5.12222 30.2109 5.12222H31.4922L31.7187 5.34878C32 5.63003 32.0078 5.89565 31.7578 6.19253L31.5703 6.41128L29.2734 6.45034C28.0156 6.47378 26.914 6.52065 26.8281 6.55972C26.1953 6.84097 25.8437 7.38784 25.8437 8.09097C25.8359 8.56753 25.9218 8.8019 26.4765 9.80972C26.7734 10.3644 26.7812 10.7238 26.5 10.9972C25.9609 11.4972 24.6406 11.9191 22.625 12.2238C20.9765 12.4816 20.3281 12.505 19.0937 12.3488C16.1718 11.9972 14.3906 11.4503 14.0859 10.7941C13.9765 10.5675 13.9765 10.5128 14.0937 10.2316C14.164 10.0675 14.3593 9.68472 14.539 9.39565C14.8203 8.93472 14.8672 8.78628 14.8984 8.29409C14.9297 7.82534 14.9062 7.6769 14.7656 7.41128C14.5468 6.97378 14.1093 6.63003 13.6484 6.52847C13.4375 6.4894 12.3515 6.45034 11.2422 6.45034C9.32028 6.45034 9.20309 6.44253 9.05466 6.29409C8.85153 6.09097 8.78122 5.77847 8.89059 5.54409C9.03903 5.20815 9.39841 5.12222 10.6875 5.12222C11.3281 5.12222 11.9531 5.08315 12.0781 5.03628C12.3984 4.91909 12.6406 4.66909 12.8593 4.22378C13.1718 3.60659 13.539 3.27847 14.1328 3.08315C14.4922 2.96597 15.0156 3.08315 15.7578 3.45034ZM16.5547 13.3332C17.8515 13.6144 19.289 13.7941 20.3047 13.7941C21.3203 13.7941 22.7578 13.6144 24.0547 13.3332C24.4609 13.2394 24.8125 13.1691 24.8437 13.1691C24.875 13.1691 24.9218 13.255 24.9453 13.3566C24.9687 13.4582 25.2109 13.7238 25.4843 13.9347C26.4062 14.6691 27.1484 15.5832 27.7187 16.6769C27.9687 17.1535 28.1328 17.3644 28.3672 17.5285C28.6797 17.7316 28.7265 17.7394 30.0937 17.7785L31.4922 17.8175L31.6797 18.0363C31.9843 18.3878 31.8984 18.7707 31.4765 18.9894C31.289 19.0832 30.8672 19.1066 29.1172 19.1066C27.0547 19.1066 26.9687 19.1144 26.6328 19.2785C26.1718 19.5207 25.875 19.9113 25.7812 20.4113C25.6797 20.9503 25.8047 21.4269 26.2422 22.1535C26.4765 22.5363 26.5859 22.8253 26.6172 23.0832C26.6484 23.4269 26.6328 23.466 26.3984 23.6691C25.6797 24.2707 24.0234 24.716 21.4531 25.0128C20.375 25.13 20.2265 25.13 19.1875 25.0128C15.7422 24.5988 13.8515 23.8878 14.0156 23.0597C14.0468 22.9269 14.25 22.4972 14.4687 22.1144C14.8047 21.5207 14.875 21.3332 14.8984 20.9269C14.9531 20.1222 14.6484 19.5363 14.0156 19.255C13.7343 19.1222 13.4687 19.1066 11.6093 19.1066C9.39059 19.1066 9.08591 19.0675 8.90622 18.7316C8.76559 18.4738 8.80466 18.13 8.98434 17.966C9.12497 17.8332 9.31247 17.8097 10.5312 17.7785C12.3593 17.7238 12.3203 17.7472 13.1015 16.3175C13.5156 15.5441 14.2422 14.6769 14.9922 14.0519C15.3125 13.7785 15.6093 13.4738 15.6406 13.3644C15.6797 13.255 15.7343 13.1691 15.7656 13.1691C15.7968 13.1691 16.1484 13.2394 16.5547 13.3332ZM17.0625 26.0207C17.5781 26.1222 18.5156 26.2707 19.1484 26.341C20.2343 26.466 20.3672 26.466 21.4922 26.341C22.5234 26.2238 24.0781 25.966 24.7656 25.7863C24.9453 25.7394 24.9765 25.7628 25.0156 25.966C25.0468 26.1144 25.1953 26.2941 25.4922 26.5207C26.4062 27.2316 27.1562 28.1535 27.7734 29.3332C27.9843 29.7394 28.164 29.966 28.3828 30.1144C28.6797 30.3097 28.7422 30.3175 30.0625 30.3566C31.4531 30.3957 31.7187 30.4503 31.8203 30.716C31.914 30.966 31.8672 31.2707 31.7031 31.4191C31.5547 31.5519 31.3593 31.5675 29.2968 31.6066C27.0859 31.6457 27.0547 31.6457 26.6718 31.8488C26.1562 32.1144 25.8593 32.5363 25.7968 33.1066C25.7422 33.63 25.8437 33.9503 26.2968 34.7394C26.4843 35.0597 26.6562 35.4503 26.6797 35.6066C26.8125 36.3878 25.3125 37.0363 22.375 37.466C20.8984 37.6769 19.7734 37.6691 18.25 37.4269C15.4922 36.9972 14.0547 36.4191 14.0547 35.7472C14.0547 35.63 14.164 35.3253 14.2968 35.0753C14.4297 34.8253 14.625 34.4503 14.7343 34.255C15.3125 33.1535 14.8203 31.9503 13.664 31.6925C13.4687 31.6457 12.4062 31.6066 11.2968 31.6066H9.27341L9.04684 31.38C8.77341 31.0988 8.75778 30.9035 9.00778 30.6144L9.19528 30.3957L10.5937 30.3566C11.9453 30.3175 12.0078 30.3097 12.3047 30.1144C12.5312 29.966 12.6953 29.7394 12.9531 29.255C13.1406 28.8957 13.414 28.4191 13.5703 28.2082C13.9609 27.6691 14.7968 26.8019 15.25 26.4738C15.5078 26.2863 15.6406 26.1222 15.6718 25.966C15.7109 25.7628 15.7422 25.7394 15.9218 25.7863C16.0312 25.8175 16.5468 25.9191 17.0625 26.0207Z" fill="#000F28"/>
<path d="M23.3125 7.39575C22.0781 7.64575 20.5312 7.7395 19.2734 7.63013C18.6562 7.58325 17.9922 7.52075 17.789 7.4895C17.4687 7.45044 17.3984 7.47388 17.2265 7.64575C16.9687 7.90356 16.9609 8.26294 17.2031 8.51294C17.4765 8.78638 18.4609 8.91138 20.4218 8.91138C21.9218 8.91138 22.9218 8.82544 23.7422 8.63794C23.8906 8.60669 24.1093 8.552 24.2265 8.52856C24.8281 8.39575 24.9375 7.56763 24.3906 7.31763C24.164 7.21606 24.1953 7.21606 23.3125 7.39575Z" fill="#000F28"/>
<path d="M15.6171 19.6535C15.3984 19.8722 15.4062 20.3097 15.6406 20.5441C15.8437 20.7472 16.5 20.9269 17.6875 21.0988C19.164 21.3175 19.4921 21.2316 19.5781 20.6222C19.6406 20.1456 19.4609 19.9972 18.7343 19.9269C18.414 19.9035 17.7265 19.7941 17.2031 19.6847C16.039 19.4581 15.8203 19.4503 15.6171 19.6535Z" fill="#000F28"/>
<path d="M23.7031 19.6534C23.5781 19.6924 23.1015 19.7784 22.6484 19.8409C21.9922 19.9346 21.7968 19.9971 21.6953 20.1299C21.5078 20.3487 21.5156 20.7628 21.7031 20.9893C21.8359 21.1534 21.914 21.1768 22.3125 21.1612C22.5625 21.1534 23.1328 21.0753 23.5859 20.9893C24.5 20.8096 24.7578 20.6378 24.7578 20.1924C24.7578 19.7081 24.3125 19.4815 23.7031 19.6534Z" fill="#000F28"/>
<path d="M23.039 33.2473C22.6328 33.3254 21.9843 33.4114 21.6015 33.4426C21.0156 33.4895 20.875 33.5286 20.7187 33.6848C20.4921 33.9114 20.4843 34.2551 20.7109 34.5364L20.8828 34.7551L21.7812 34.7083C22.6875 34.6614 23.8671 34.4895 24.3515 34.3333C24.7968 34.1926 24.9218 33.6301 24.5937 33.2786C24.3828 33.052 24.1171 33.0442 23.039 33.2473Z" fill="#000F28"/>
</svg>
