<svg width="113" height="24" viewBox="0 0 113 24" fill="none" xmlns="http://www.w3.org/2000/svg">
<g clip-path="url(#clip0_25_1347)">
<path d="M44.9358 12.571L42.991 7.39451C42.973 7.34787 42.9413 7.30776 42.9001 7.27947C42.8589 7.25119 42.81 7.23604 42.7601 7.23604C42.7101 7.23604 42.6612 7.25119 42.62 7.27947C42.5788 7.30776 42.5472 7.34787 42.5292 7.39451L40.5843 12.5719C40.5708 12.6086 40.5665 12.6481 40.5718 12.6868C40.5771 12.7256 40.5917 12.7625 40.6145 12.7943C40.6372 12.8262 40.6674 12.8519 40.7024 12.8695C40.7374 12.8869 40.7762 12.8955 40.8152 12.8946H44.7214C44.7796 12.8953 44.8358 12.8739 44.8788 12.8347C44.9218 12.7956 44.9484 12.7415 44.9532 12.6836C44.9568 12.6455 44.9508 12.6071 44.9358 12.5719V12.571ZM45.842 15.4759H39.6781C39.6279 15.4762 39.5788 15.4918 39.5376 15.5206C39.4964 15.5494 39.4649 15.5902 39.4472 15.6373L38.2274 18.8665C38.2098 18.9135 38.1785 18.954 38.1374 18.9828C38.0964 19.0117 38.0475 19.0274 37.9973 19.0279H35.325C35.2842 19.0285 35.2439 19.0189 35.2078 19C35.1716 18.981 35.1407 18.9535 35.1179 18.9196C35.095 18.8858 35.081 18.8468 35.077 18.8062C35.073 18.7655 35.0791 18.7246 35.095 18.6869L41.2423 3.59754C41.2606 3.55189 41.2929 3.51315 41.3345 3.48686C41.3761 3.46057 41.4249 3.44804 41.474 3.45106H44.0279C44.0764 3.45136 44.1238 3.46525 44.1648 3.49114C44.2058 3.51704 44.2386 3.5539 44.2596 3.59754L50.4061 18.6869C50.4219 18.7246 50.4281 18.7658 50.4241 18.8065C50.42 18.8472 50.4059 18.8863 50.383 18.9202C50.3601 18.9541 50.3292 18.9818 50.2928 19.0007C50.2566 19.0197 50.2162 19.0293 50.1752 19.0287H47.5071C47.4567 19.0283 47.4076 19.0126 47.3664 18.9836C47.3252 18.9546 47.2937 18.9138 47.2762 18.8665L46.0563 15.6373C46.0447 15.5897 46.0171 15.5475 45.978 15.518C45.939 15.4885 45.891 15.4733 45.842 15.475V15.4759ZM51.6765 8.74098H53.9681C54.0328 8.74222 54.0945 8.76829 54.1405 8.81372C54.1866 8.85907 54.2134 8.92048 54.2155 8.98511V18.7862C54.2134 18.8508 54.1865 18.9119 54.1404 18.9571C54.0943 19.0022 54.0326 19.0279 53.9681 19.0287H51.6773C51.6127 19.0281 51.5508 19.0025 51.5045 18.9574C51.4582 18.9122 51.4312 18.8509 51.429 18.7862V8.98511C51.4287 8.95259 51.4349 8.9204 51.4473 8.89035C51.4597 8.86031 51.4781 8.83309 51.5013 8.81024C51.5244 8.78749 51.552 8.76961 51.5822 8.75769C51.6125 8.74578 51.6449 8.74007 51.6773 8.74098H51.6765ZM62.5559 11.1261C62.554 11.1909 62.5273 11.2525 62.4812 11.2981C62.4352 11.3437 62.3734 11.3698 62.3085 11.371H62.2423C61.1052 11.371 60.2809 11.6293 59.7537 12.1655C59.2265 12.7018 58.9625 13.5774 58.9625 14.8088V18.7688C58.9605 18.8334 58.9337 18.8946 58.8879 18.9401C58.842 18.9854 58.7805 19.0116 58.7159 19.013H56.4566C56.3921 19.0116 56.3306 18.9854 56.2847 18.9401C56.2389 18.8946 56.2121 18.8334 56.21 18.7688V8.98511C56.2121 8.92048 56.239 8.85907 56.285 8.81372C56.3311 8.76829 56.3928 8.74222 56.4574 8.74098H58.6985C58.7634 8.74205 58.8253 8.76795 58.8716 8.81339C58.9178 8.85882 58.9447 8.92031 58.9468 8.98511V10.9159H58.9956C59.2246 10.1825 59.6732 9.53711 60.2809 9.06704C60.9161 8.61899 61.6806 8.39107 62.4574 8.41822H62.5725V11.1269H62.5559V11.1261ZM68.8025 11.0301C68.7383 11.0312 68.6769 11.0567 68.6311 11.1017C68.5851 11.1467 68.5582 11.2075 68.5559 11.2717V15.3451C68.5253 15.6637 68.613 15.9815 68.8025 16.2389C68.9681 16.416 69.2478 16.4971 69.6599 16.4971H69.8908C69.9554 16.4986 70.0169 16.5247 70.0628 16.5701C70.1086 16.6155 70.1354 16.6768 70.1374 16.7413V18.7854C70.1354 18.8498 70.1086 18.9109 70.0626 18.956C70.0168 19.0011 69.9552 19.0269 69.8908 19.0279H68.9192C67.9129 19.0279 67.1391 18.768 66.5954 18.2648C66.0508 17.7468 65.7876 16.9995 65.7876 15.9782V11.2717C65.7853 11.2073 65.7583 11.1462 65.712 11.1012C65.6657 11.0561 65.6039 11.0307 65.5394 11.0301H64.106C64.0414 11.0287 63.9797 11.0024 63.9338 10.9568C63.8879 10.9112 63.8613 10.8497 63.8594 10.7851V8.98511C63.8613 8.92056 63.888 8.85915 63.9338 8.81372C63.9798 8.76829 64.0414 8.74222 64.106 8.74098H65.5402C65.6047 8.74015 65.6665 8.71449 65.7126 8.66939C65.7587 8.6242 65.7856 8.56304 65.7876 8.49849V4.86292C65.7898 4.79844 65.8167 4.73725 65.8628 4.69208C65.9089 4.64691 65.9706 4.62126 66.0351 4.62044H68.3258C68.3904 4.62126 68.4521 4.64691 68.4982 4.69208C68.5443 4.73725 68.5712 4.79844 68.5733 4.86292V8.49849C68.5755 8.56304 68.6023 8.6242 68.6484 8.66939C68.6945 8.71449 68.7563 8.74015 68.8207 8.74098H70.4685C70.5332 8.74222 70.5949 8.76829 70.6409 8.81372C70.687 8.85907 70.7138 8.92048 70.7159 8.98511V10.7851C70.714 10.8499 70.6873 10.9115 70.6412 10.9571C70.5952 11.0027 70.5334 11.0288 70.4685 11.0301H68.8025ZM79.269 15.9625C79.5326 15.6837 79.737 15.3545 79.8702 14.9947C80.0033 14.6349 80.0623 14.2519 80.0436 13.8687C80.0584 13.4859 79.9975 13.104 79.8646 12.7448C79.7317 12.3855 79.5294 12.056 79.269 11.7749C78.7111 11.264 77.9819 10.9807 77.2253 10.9807C76.4687 10.9807 75.7396 11.264 75.1816 11.7749C74.9181 12.0537 74.7136 12.3829 74.5805 12.7427C74.4474 13.1025 74.3883 13.4855 74.4069 13.8687C74.3923 14.2515 74.4531 14.6334 74.586 14.9926C74.7189 15.3519 74.9213 15.6814 75.1816 15.9625C75.4491 16.2288 75.7687 16.4369 76.1206 16.5736C76.4724 16.7103 76.8487 16.7728 77.2257 16.757C77.6034 16.778 77.9812 16.718 78.3338 16.581C78.6864 16.444 79.0055 16.2331 79.2698 15.9625H79.269ZM73.994 18.7051C73.22 18.2663 72.5903 17.6119 72.1816 16.8215C71.7474 15.8976 71.5222 14.8892 71.5222 13.8683C71.5222 12.8474 71.7474 11.839 72.1816 10.915C72.5953 10.1285 73.2238 9.47562 73.994 9.03229C74.768 8.59673 75.6433 8.37295 76.5314 8.38346C77.2576 8.36566 77.9768 8.52771 78.6252 8.85518C79.1983 9.15866 79.6772 9.6135 80.0097 10.1702H80.0594V8.96691C80.0617 8.9026 80.0886 8.84169 80.1344 8.79659C80.1803 8.75149 80.2417 8.72566 80.306 8.72442H82.5645C82.6289 8.7255 82.6906 8.75115 82.7366 8.79634C82.7826 8.84144 82.8096 8.90252 82.8119 8.96691V18.7672C82.81 18.8321 82.7832 18.8938 82.7369 18.9395C82.6907 18.9851 82.6286 19.0112 82.5636 19.0121H80.3076C80.2428 19.0109 80.181 18.9848 80.1349 18.9392C80.0889 18.8936 80.0621 18.832 80.0602 18.7672V17.5672H80.0105C79.678 18.1245 79.1988 18.5796 78.6252 18.883C77.9764 19.2093 77.2574 19.371 76.5314 19.3539C75.6433 19.3645 74.768 19.1408 73.994 18.7051ZM92.2241 15.9625C92.4873 15.6837 92.6917 15.3545 92.825 14.9946C92.9582 14.6349 93.017 14.2519 92.9988 13.8687C93.0137 13.4859 92.9524 13.104 92.82 12.7448C92.6868 12.3855 92.484 12.056 92.2241 11.7749C91.6663 11.2638 90.9364 10.9803 90.18 10.9803C89.4236 10.9803 88.6937 11.2638 88.1359 11.7749C87.8727 12.0539 87.6683 12.3831 87.535 12.7429C87.4026 13.1027 87.343 13.4856 87.3621 13.8687C87.3472 14.2515 87.4084 14.6334 87.5408 14.9926C87.6741 15.3519 87.876 15.6814 88.1367 15.9625C88.404 16.2288 88.7234 16.4369 89.076 16.5736C89.4277 16.7103 89.8034 16.7728 90.1808 16.757C90.5582 16.7779 90.9364 16.7178 91.289 16.5809C91.6415 16.4438 91.9601 16.233 92.225 15.9625H92.2241ZM88.7963 18.8822C88.2228 18.5787 87.7436 18.1235 87.4109 17.5664H87.3612V18.768C87.3588 18.8326 87.3323 18.8938 87.2868 18.9392C87.2404 18.9846 87.1792 19.0107 87.1146 19.0121H84.823C84.7585 19.0107 84.6972 18.9846 84.6509 18.9392C84.6054 18.8938 84.5781 18.8326 84.5764 18.768V3.67782C84.5781 3.61339 84.6054 3.55223 84.6509 3.50696C84.6972 3.46168 84.7585 3.43575 84.823 3.43451H87.1146C87.1792 3.43553 87.2404 3.46126 87.2868 3.50638C87.3331 3.5515 87.3596 3.61257 87.3621 3.67699V10.1851H87.4117C87.7444 9.62864 88.2236 9.17364 88.7963 8.86925C89.4451 8.54318 90.1634 8.38147 90.8892 8.39835C91.7772 8.38768 92.6528 8.61237 93.4266 9.04966C94.2004 9.48762 94.8302 10.1413 95.239 10.9308C95.7025 11.8443 95.9292 12.8596 95.8994 13.8836C95.9201 14.9069 95.6942 15.92 95.2399 16.8372C94.8261 17.6243 94.1971 18.2773 93.4274 18.72C92.6528 19.1557 91.7772 19.3795 90.8892 19.3688C90.1626 19.3748 89.4443 19.2075 88.7954 18.8806L88.7963 18.8822ZM99.7568 19.0138H97.4669C97.4023 19.0128 97.3403 18.9867 97.2939 18.9411C97.2476 18.8954 97.2211 18.8337 97.2194 18.7688V3.67865C97.2219 3.61394 97.2484 3.55254 97.2948 3.50722C97.3411 3.4619 97.4032 3.43616 97.4677 3.43534H99.7577C99.8222 3.43677 99.8834 3.46265 99.929 3.5077C99.9745 3.55276 100.002 3.61361 100.004 3.67782V18.768C100.005 18.8156 99.9919 18.8623 99.9662 18.9022C99.9406 18.9422 99.9033 18.9736 99.8595 18.9923C99.8272 19.0063 99.7924 19.0131 99.7577 19.0121V19.0138H99.7568ZM105.147 11.1112C104.748 11.4296 104.474 11.8777 104.372 12.3774C104.365 12.4135 104.366 12.4507 104.376 12.4863C104.385 12.5219 104.402 12.555 104.426 12.583C104.449 12.6111 104.479 12.6334 104.513 12.6484C104.546 12.6634 104.583 12.6706 104.62 12.6695H108.971C109.006 12.6697 109.041 12.6623 109.073 12.6481C109.105 12.6339 109.133 12.613 109.157 12.5869C109.181 12.5608 109.198 12.53 109.209 12.4966C109.219 12.4632 109.223 12.428 109.219 12.3931C109.152 11.9081 108.912 11.4637 108.542 11.1435C108.065 10.7644 107.469 10.5683 106.861 10.5906C106.248 10.5741 105.647 10.7561 105.147 11.1104L105.146 11.1112H105.147ZM110.718 9.8458C111.608 10.8017 112.053 12.1531 112.052 13.901V14.1948C112.05 14.2592 112.023 14.3203 111.977 14.3654C111.931 14.4105 111.869 14.4363 111.805 14.4373H104.538C104.501 14.438 104.466 14.4464 104.434 14.4618C104.4 14.4773 104.371 14.4996 104.348 14.527C104.324 14.5546 104.307 14.5868 104.297 14.6216C104.287 14.6563 104.285 14.6927 104.29 14.7286C104.384 15.3363 104.694 15.8897 105.164 16.2869C105.741 16.7382 106.46 16.9681 107.192 16.9349C108.284 16.9197 109.33 16.484 110.109 15.7184C110.135 15.6948 110.165 15.6773 110.198 15.667C110.232 15.6566 110.267 15.6537 110.302 15.6584C110.337 15.6632 110.37 15.6754 110.399 15.6944C110.429 15.7133 110.453 15.7385 110.472 15.768L111.576 17.3413C111.607 17.3915 111.621 17.4507 111.614 17.5096C111.609 17.5684 111.583 17.6237 111.542 17.6665C110.995 18.1336 110.391 18.5316 109.747 18.8516C108.943 19.2099 108.071 19.387 107.191 19.3705C106.161 19.3939 105.14 19.1592 104.224 18.6877C103.398 18.2538 102.716 17.5887 102.263 16.7735C101.783 15.8994 101.539 14.9154 101.554 13.9184C101.536 12.9196 101.769 11.9323 102.23 11.0466C102.663 10.2342 103.321 9.56393 104.126 9.1167C105 8.64009 105.982 8.39935 106.978 8.41822C108.592 8.39918 109.829 8.88663 110.718 9.84497V9.8458ZM54.5118 5.10872C54.5165 5.44123 54.4226 5.76768 54.2417 6.04679C54.0609 6.3259 53.8015 6.54514 53.4961 6.67679C53.1907 6.80845 52.8531 6.84661 52.5261 6.78644C52.199 6.72627 51.8971 6.57049 51.6586 6.33877C51.4201 6.10707 51.2556 5.80983 51.186 5.48466C51.1163 5.15948 51.1447 4.82096 51.2674 4.51189C51.3901 4.20281 51.6017 3.93707 51.8755 3.74825C52.1493 3.55943 52.4729 3.45601 52.8053 3.45106H52.8136C53.2572 3.44901 53.6839 3.62139 54.0016 3.93101C54.3192 4.24064 54.5025 4.66272 54.5118 5.10623V5.10789V5.10872Z" fill="white"/>
<path d="M13.2277 0.294392L2.83004 4.59676C2.25199 4.83622 2.25781 5.6575 2.83981 5.88813L13.2809 10.0286C14.1982 10.3924 15.2199 10.3924 16.1373 10.0286L26.5784 5.88813C27.1601 5.6575 27.1663 4.83622 26.5879 4.59692L16.1905 0.294392C15.2419 -0.0981308 14.1763 -0.0981308 13.2277 0.294392Z" fill="#FCB400"/>
<path d="M15.6354 12.2894V22.6331C15.6354 23.1248 16.1315 23.4619 16.5888 23.2806L28.2233 18.7646C28.3531 18.7132 28.4644 18.624 28.5428 18.5085C28.6212 18.393 28.6631 18.2566 28.6631 18.1171V7.77358C28.6631 7.2816 28.1671 6.94473 27.7097 7.12601L16.0752 11.642C15.9454 11.6934 15.8342 11.7827 15.7558 11.8982C15.6774 12.0136 15.6354 12.1499 15.6354 12.2896" fill="#18BFFF"/>
<path d="M12.9186 12.823L9.46578 14.4902L9.11521 14.6597L1.82638 18.1521C1.3645 18.375 0.774628 18.0383 0.774628 17.525V7.81681C0.774628 7.63111 0.869841 7.47079 0.997526 7.35021C1.0499 7.29804 1.10933 7.25347 1.17408 7.21779C1.34811 7.11328 1.59654 7.08538 1.80777 7.16892L12.8606 11.5484C13.4225 11.7712 13.4666 12.5585 12.9186 12.8232" fill="#F82B60"/>
<path d="M12.9185 12.823L9.46569 14.4902L0.997482 7.35005C1.04988 7.29794 1.10931 7.25342 1.17404 7.21779C1.34806 7.11328 1.59651 7.08538 1.80774 7.16892L12.8606 11.5484C13.4224 11.7712 13.4665 12.5585 12.9185 12.8232" fill="black" fill-opacity="0.25"/>
</g>
<defs>
<clipPath id="clip0_25_1347">
<rect width="112.552" height="24" fill="white" transform="translate(0.127869)"/>
</clipPath>
</defs>
</svg>
