<svg width="133" height="24" viewBox="0 0 133 24" fill="none" xmlns="http://www.w3.org/2000/svg">
<g clip-path="url(#clip0_25_1357)">
<path d="M3.40245 18.9694C2.91664 18.9705 2.43925 18.8425 2.01906 18.5987C1.59887 18.3549 1.25093 18.0039 1.0108 17.5816C0.774337 17.1622 0.656409 16.6865 0.669643 16.2052C0.682878 15.724 0.826777 15.2555 1.08593 14.8497L6.01115 7.11548C6.26324 6.6998 6.62112 6.35849 7.04826 6.1264C7.47544 5.8943 7.95654 5.77975 8.44244 5.79444C8.928 5.80607 9.40173 5.94651 9.81518 6.20136C10.2286 6.45621 10.5669 6.81633 10.7955 7.24488C11.2546 8.11306 11.1972 9.15757 10.6473 9.97252L5.72524 17.7068C5.47561 18.0957 5.13188 18.4154 4.72583 18.6361C4.31977 18.8568 3.86459 18.9714 3.40245 18.9694Z" fill="#F62B54"/>
<path d="M11.8504 18.9694C10.857 18.9694 9.94294 18.4383 9.46294 17.5847C9.227 17.1665 9.10935 16.692 9.12259 16.212C9.1358 15.732 9.27944 15.2647 9.53807 14.8602L14.4539 7.14365C14.7022 6.72213 15.0589 6.37475 15.4867 6.13752C15.9146 5.90026 16.3982 5.78181 16.8873 5.79443C17.889 5.81634 18.7968 6.3767 19.256 7.25324C19.712 8.12974 19.6452 9.18052 19.0786 9.99339L14.1638 17.7099C13.915 18.0972 13.5726 18.4156 13.1683 18.6357C12.764 18.8559 12.3107 18.9706 11.8504 18.9694Z" fill="#FFCC00"/>
<path d="M20.1096 19.0341C21.51 19.0341 22.6452 17.9227 22.6452 16.5517C22.6452 15.1807 21.51 14.0692 20.1096 14.0692C18.7092 14.0692 17.5739 15.1807 17.5739 16.5517C17.5739 17.9227 18.7092 19.0341 20.1096 19.0341Z" fill="#00CA72"/>
<path d="M130.266 14.2132C131.031 14.2132 131.49 14.7579 131.49 15.6501V18.7075H132.53V15.5802C132.53 14.063 131.815 13.1833 130.471 13.1833C129.945 13.1833 129.11 13.3273 128.613 14.2946C128.497 14.0093 128.306 13.7607 128.06 13.5751C127.815 13.3895 127.524 13.274 127.218 13.2407C127.025 13.2054 126.828 13.1939 126.633 13.2063C126.205 13.2407 125.444 13.5068 125.159 14.1099V13.2991H124.117V18.7075H125.159V15.7889C125.159 14.6536 125.901 14.2132 126.645 14.2132C127.343 14.2132 127.801 14.7465 127.801 15.6386V18.7075H128.836V15.7889C128.836 14.8852 129.378 14.2028 130.266 14.2132ZM120.295 17.8038C120.771 17.8143 121.23 17.6244 121.563 17.28C121.897 16.9357 122.074 16.4671 122.056 15.9861C122.056 14.8967 121.255 14.2132 120.295 14.2132C119.334 14.2132 118.533 14.8967 118.533 15.9861C118.515 16.4661 118.692 16.9336 119.024 17.2769C119.356 17.6212 119.813 17.8122 120.287 17.8038H120.295ZM120.295 18.8181C118.773 18.8181 117.504 17.6943 117.504 15.9798C117.504 14.2654 118.773 13.1771 120.295 13.1771C121.816 13.1771 123.097 14.2654 123.097 15.9798C123.097 17.6943 121.809 18.8233 120.288 18.8233L120.295 18.8181ZM112.146 15.9798L112.135 15.9861C112.135 14.2717 113.438 13.1833 114.97 13.1771C115.355 13.1696 115.737 13.243 116.092 13.3926C116.446 13.5421 116.766 13.7645 117.029 14.0452L116.24 14.7172C116.073 14.5527 115.874 14.423 115.656 14.3356C115.438 14.2482 115.205 14.2048 114.97 14.208C114.01 14.208 113.175 14.8915 113.175 15.9798C113.175 16.7155 113.613 17.3781 114.284 17.6598C114.954 17.9416 115.727 17.7851 116.24 17.2654L117.04 17.9374C116.776 18.221 116.455 18.446 116.099 18.5977C115.742 18.7494 115.358 18.8245 114.97 18.8181C113.45 18.8181 112.146 17.6943 112.146 15.9798ZM108.813 17.6692C108.812 17.5747 108.83 17.4809 108.865 17.3931C108.9 17.3053 108.952 17.2253 109.018 17.1577C109.085 17.09 109.163 17.0361 109.25 16.9989C109.337 16.9617 109.431 16.942 109.525 16.9409C109.62 16.942 109.713 16.9617 109.8 16.9989C109.887 17.0361 109.966 17.09 110.032 17.1577C110.098 17.2253 110.15 17.3053 110.185 17.3931C110.22 17.4809 110.238 17.5747 110.237 17.6692C110.228 17.8524 110.149 18.025 110.017 18.152C109.884 18.2791 109.709 18.3508 109.525 18.3527C109.342 18.3508 109.166 18.2791 109.034 18.152C108.902 18.025 108.823 17.8524 108.813 17.6692Z" fill="white"/>
<path fill-rule="evenodd" clip-rule="evenodd" d="M111.66 6.42364H107.955L105.358 13.1196L102.774 6.42364H99.0687L103.573 17.0045L100.772 24H104.45L111.66 6.42364ZM89.1253 12.3089C89.1253 13.9993 90.6029 15.1116 92.0542 15.1116C93.4806 15.1116 94.8822 14.0765 94.8822 12.3078C94.8822 10.5391 93.4806 9.50296 92.0542 9.50296C90.6029 9.50296 89.1253 10.6164 89.1253 12.3078V12.3089ZM94.8822 18.217V16.8783C94.1309 18.0156 92.3777 18.4456 91.4782 18.4456C88.5002 18.4456 85.5211 16.0977 85.5211 12.3078C85.5211 8.51896 88.4991 6.17113 91.4782 6.17113C92.2287 6.17113 93.9815 6.42155 94.8822 7.73636V6.42782H98.3359V18.2191L94.8822 18.2181V18.217ZM84.5382 18.217H81.0842V16.752C80.507 17.8372 79.1077 18.4696 77.6553 18.4696C74.6511 18.4696 71.9975 16.0706 71.9975 12.3558C71.9975 8.57113 74.6511 6.16904 77.6553 6.16904C79.1057 6.16904 80.5093 6.77427 81.0842 7.86051V0H84.5382V18.217ZM81.0091 12.2817C81.0091 10.5141 79.7328 9.47791 78.3064 9.47791C76.8288 9.47791 75.6017 10.5892 75.6017 12.2817C75.6017 14.0285 76.8288 15.1346 78.3053 15.1346C79.7591 15.1367 81.0091 13.9743 81.0091 12.2817ZM63.4577 11.977C63.4577 10.1844 64.3844 9.57809 65.6104 9.57809C66.7864 9.57809 67.638 10.3607 67.638 11.9259V18.215H71.1168V11.1694C71.1168 7.81149 69.4639 6.16904 66.8355 6.16904C65.4591 6.16904 64.0829 6.95164 63.4566 8.13913V6.42364H59.9797V18.215H63.4577V11.977ZM52.9155 18.4174C49.6117 18.4174 46.8559 15.9934 46.8559 12.2807C46.8559 8.56591 49.6086 6.16591 52.9155 6.16591C56.2222 6.16591 58.9991 8.56591 58.9991 12.2807C58.9991 15.9955 56.2191 18.4184 52.9155 18.4184V18.4174ZM52.9155 14.9844C54.366 14.9844 55.5691 13.9221 55.5691 12.2817C55.5691 10.6904 54.3671 9.60418 52.9155 9.60418C52.566 9.5987 52.219 9.66443 51.8957 9.79737C51.5724 9.9303 51.2796 10.1277 51.0351 10.3774C50.7891 10.6285 50.5963 10.9264 50.4675 11.2536C50.3391 11.5807 50.2778 11.9304 50.2871 12.2817C50.2879 13.9242 51.4891 14.9844 52.9155 14.9844ZM40.6191 9.57913C41.6448 9.57913 42.5464 10.3878 42.5464 11.927V18.217H46.0004V11.52C46.0004 7.95964 44.2693 6.16696 41.4946 6.16696C40.6702 6.16696 39.1175 6.4174 37.9906 8.26227C37.3395 6.89845 36.0884 6.19096 34.2393 6.19096C33.5972 6.18768 32.9681 6.36937 32.4266 6.7143C31.885 7.05925 31.4544 7.5528 31.1862 8.136V6.42469H27.705V18.216H31.1831V11.977C31.1831 10.1844 32.1598 9.57809 33.2104 9.57809C34.2122 9.57809 35.1118 10.3607 35.1377 11.8508V18.216H38.6166V11.977C38.6166 10.2626 39.5182 9.58018 40.6191 9.58018V9.57913Z" fill="white"/>
</g>
<defs>
<clipPath id="clip0_25_1357">
<rect width="132.141" height="24" fill="white" transform="translate(0.66864)"/>
</clipPath>
</defs>
</svg>
