<svg width="83" height="24" viewBox="0 0 83 24" fill="none" xmlns="http://www.w3.org/2000/svg">
<g clip-path="url(#clip0_25_1326)">
<path d="M8.88774 3.85083V10.4121H2.85987V3.85083H0V19.5135H2.86065V13.1652H8.88697V19.5135H11.7484V3.85083H8.88774ZM20.9048 14.4511C20.9048 15.0789 20.6554 15.681 20.2115 16.1249C19.7676 16.5688 19.1655 16.8182 18.5377 16.8182C17.9099 16.8182 17.3078 16.5688 16.8639 16.1249C16.42 15.681 16.1706 15.0789 16.1706 14.4511V7.74193H13.457V14.4511C13.457 15.7972 13.9918 17.0882 14.9436 18.0401C15.8955 18.992 17.1865 19.5267 18.5326 19.5267C19.8788 19.5267 21.1698 18.992 22.1216 18.0401C23.0735 17.0882 23.6083 15.7972 23.6083 14.4511V7.74193H20.9048V14.4511ZM41.0114 8.43328C41.0114 7.05754 41.921 6.62167 42.9174 6.62167C43.721 6.62167 44.7817 7.23328 45.4761 7.97496L47.2529 5.87999C46.3657 4.67999 44.5664 3.85083 43.0932 3.85083C40.1489 3.85083 38.0199 5.57496 38.0199 8.43328C38.0199 13.7365 44.5014 12.0534 44.5014 15.0217C44.5014 15.9368 43.6126 16.745 42.5954 16.745C40.9905 16.745 40.4702 15.9608 39.7332 15.1308L37.7605 17.1817C39.0224 18.7301 40.5786 19.5166 42.4421 19.5166C45.2392 19.5166 47.489 17.7716 47.489 15.0433C47.489 9.15638 41.0067 10.9858 41.0067 8.43328M81.1099 17.0113C79.5066 17.0113 79.0506 16.3177 79.0506 15.2555V10.5522H81.5435V8.16928H79.0506V5.02528L76.2991 6.26012V15.84C76.2991 18.2903 77.9899 19.5252 80.3079 19.5252C80.6717 19.5313 81.0356 19.5019 81.3933 19.4384L82.0645 16.9672C81.7618 16.9881 81.4142 17.009 81.1099 17.009M31.2341 7.82012C29.8901 7.82012 28.9517 8.21031 28.0444 9.09986V3.94451H25.327V13.5004C25.327 17.0772 27.9128 19.5282 30.8191 19.5282C34.0428 19.5282 36.8787 17.0338 36.8787 13.6753C36.8787 10.3587 34.2689 7.82244 31.2341 7.82244M31.217 16.793C30.812 16.793 30.411 16.7133 30.0368 16.5583C29.6627 16.4033 29.3227 16.1761 29.0363 15.8897C28.7499 15.6034 28.5228 15.2634 28.3678 14.8892C28.2128 14.5151 28.133 14.114 28.133 13.709C28.133 13.304 28.2128 12.903 28.3678 12.5288C28.5228 12.1547 28.7499 11.8147 29.0363 11.5283C29.3227 11.2419 29.6627 11.0148 30.0368 10.8598C30.411 10.7048 30.812 10.625 31.217 10.625C32.035 10.625 32.8194 10.9499 33.3977 11.5283C33.9761 12.1067 34.301 12.8911 34.301 13.709C34.301 14.527 33.9761 15.3114 33.3977 15.8897C32.8194 16.4681 32.035 16.793 31.217 16.793ZM60.7463 13.5329C60.7463 10.1682 57.9166 7.67999 54.6867 7.67999C51.7812 7.67999 49.1946 10.1303 49.1946 13.7079V23.2692H51.912V18.1068C52.8178 18.9948 53.7577 19.3866 55.1001 19.3866C58.135 19.3866 60.7455 16.8503 60.7455 13.5329M58.1729 13.4988C58.1729 14.3168 57.848 15.1012 57.2696 15.6795C56.6913 16.2579 55.9068 16.5828 55.0889 16.5828C54.271 16.5828 53.4865 16.2579 52.9082 15.6795C52.3298 15.1012 52.0049 14.3168 52.0049 13.4988C52.0049 12.6809 52.3298 11.8965 52.9082 11.3181C53.4865 10.7398 54.271 10.4148 55.0889 10.4148C55.9068 10.4148 56.6913 10.7398 57.2696 11.3181C57.848 11.8965 58.1729 12.6809 58.1729 13.4988Z" fill="white"/>
<path d="M69.5272 7.54838V4.8178C69.8881 4.64916 70.1936 4.38149 70.4082 4.04597C70.6229 3.71045 70.7378 3.32087 70.7396 2.92257V2.85986C70.7396 1.69857 69.7982 0.757152 68.6369 0.757152H68.5742C68.0165 0.757152 67.4817 0.978687 67.0874 1.37302C66.693 1.76736 66.4715 2.30219 66.4715 2.85986V2.92257C66.4733 3.32087 66.5883 3.71045 66.8029 4.04597C67.0175 4.38149 67.323 4.64916 67.6839 4.8178V7.54838C66.6468 7.70717 65.6701 8.13717 64.8527 8.79483L57.3639 2.96206C57.4173 2.76928 57.4452 2.57109 57.4483 2.37212C57.4492 1.90351 57.3111 1.44514 57.0515 1.05502C56.7919 0.664888 56.4224 0.360519 55.9898 0.180409C55.5571 0.00030005 55.0808 -0.0474583 54.6211 0.0431754C54.1613 0.133809 53.7387 0.358763 53.4068 0.689582C53.0749 1.0204 52.8486 1.44222 52.7564 1.90169C52.6643 2.36116 52.7105 2.83764 52.8892 3.27084C53.0679 3.70405 53.3711 4.07453 53.7603 4.33542C54.1496 4.59631 54.6075 4.73589 55.0761 4.73651C55.4861 4.73458 55.8884 4.62513 56.2429 4.41909L63.617 10.1574C62.9546 11.1582 62.609 12.3353 62.6253 13.5354C62.6416 14.7354 63.019 15.9027 63.7084 16.8852L61.4656 19.1288C61.2843 19.0708 61.0954 19.04 60.905 19.0374C60.5204 19.0377 60.1444 19.152 59.8247 19.3659C59.505 19.5798 59.2559 19.8837 59.1088 20.2391C58.9618 20.5946 58.9234 20.9856 58.9985 21.3629C59.0736 21.7402 59.2589 22.0867 59.5309 22.3587C59.8029 22.6307 60.1494 22.8159 60.5267 22.8911C60.9039 22.9662 61.295 22.9278 61.6504 22.7807C62.0058 22.6336 62.3097 22.3845 62.5236 22.0648C62.7375 21.7451 62.8518 21.3692 62.8521 20.9845C62.8496 20.7942 62.8189 20.6053 62.7608 20.424L64.9796 18.2044C65.7032 18.7614 66.5446 19.1454 67.4395 19.327C68.3344 19.5087 69.259 19.483 70.1424 19.2521C71.0259 19.0212 71.8448 18.5911 72.5363 17.9948C73.2279 17.3985 73.7738 16.6519 74.1322 15.812C74.4906 14.9722 74.6521 14.0614 74.6041 13.1495C74.5562 12.2377 74.3002 11.3489 73.8557 10.5512C73.4112 9.75357 72.79 9.06825 72.0397 8.54776C71.2895 8.02726 70.43 7.68541 69.5272 7.54838ZM68.6075 16.529C68.1974 16.5403 67.7893 16.4693 67.4071 16.3202C67.025 16.171 66.6766 15.9468 66.3825 15.6607C66.0885 15.3747 65.8548 15.0326 65.6952 14.6547C65.5356 14.2768 65.4534 13.8707 65.4534 13.4605C65.4534 13.0503 65.5356 12.6442 65.6952 12.2663C65.8548 11.8884 66.0885 11.5463 66.3825 11.2603C66.6766 10.9742 67.025 10.75 67.4071 10.6009C67.7893 10.4517 68.1974 10.3807 68.6075 10.392C69.4023 10.4198 70.1552 10.755 70.7078 11.327C71.2603 11.8989 71.5693 12.663 71.5697 13.4582C71.5701 14.2535 71.2619 15.0179 70.7099 15.5904C70.1579 16.1629 69.4053 16.4988 68.6106 16.5275" fill="#FF7A59"/>
</g>
<defs>
<clipPath id="clip0_25_1326">
<rect width="82.0645" height="24" fill="white"/>
</clipPath>
</defs>
</svg>
