<svg width="41" height="40" viewBox="0 0 41 40" fill="none" xmlns="http://www.w3.org/2000/svg">
<path d="M18.3203 0.460598C18.1875 0.59341 18.1719 0.788723 18.1406 2.8981C18.1016 5.03872 18.0859 5.24966 17.8984 5.94497C17.5938 7.11685 17.2422 7.71841 16.3906 8.56997C15.8203 9.14029 15.6562 9.35122 15.6562 9.51529C15.6562 10.1481 16.2422 10.2731 16.8438 9.7731C17.9766 8.84341 18.6484 7.76529 19.0078 6.31997C19.2422 5.36685 19.3281 4.3981 19.3281 2.45279C19.3281 0.819973 19.3203 0.710598 19.1641 0.515285C18.9688 0.265285 18.5469 0.234035 18.3203 0.460598Z" fill="#000F28"/>
<path d="M21.6328 0.436972C21.4844 0.546347 21.4766 0.647909 21.4766 2.87447C21.4766 4.81197 21.5 5.30416 21.6172 5.85885C21.9062 7.21041 22.4766 8.34322 23.2734 9.17916C24.1406 10.0854 24.6016 10.2807 24.9531 9.90572C25.2109 9.62447 25.1562 9.3276 24.7812 8.99947C23.6641 8.0151 23.1719 7.24166 22.8281 5.89791C22.6875 5.35885 22.6641 4.96822 22.6328 2.9526C22.5938 0.796347 22.5859 0.624472 22.4453 0.476034C22.2656 0.280722 21.8594 0.265097 21.6328 0.436972Z" fill="#000F28"/>
<path d="M8.37505 7.00758C8.18755 7.21851 8.14067 7.4607 8.24223 7.67945C8.33598 7.88258 8.50786 7.97633 9.05473 8.11695C9.47661 8.23414 10.0782 8.5857 10.5 8.97633L10.8516 9.30445L10.5391 9.26539C10.3672 9.24195 9.53911 9.19508 8.68755 9.17164L7.1563 9.11695L6.95317 9.32008C6.70317 9.57008 6.69536 9.87476 6.92973 10.1091C7.10161 10.281 7.17973 10.2888 8.70317 10.3357C9.58598 10.367 10.4454 10.4216 10.6172 10.4529L10.9297 10.5154L10.3985 10.8123C9.44536 11.3435 8.32036 11.617 6.67192 11.6951C6.10161 11.7185 5.60942 11.781 5.48442 11.8435C5.19536 11.992 5.11723 12.3748 5.32817 12.6482C5.47661 12.8435 5.50005 12.8513 6.32817 12.8513C8.83598 12.8513 10.75 12.2576 12.0235 11.0857L12.336 10.7966L12.8829 10.9763C14.1407 11.3904 15.1797 11.9841 16.0313 12.7732C17.1875 13.8435 17.8516 15.0388 18.2891 16.867C18.4922 17.6873 18.4922 17.742 18.5391 21.7654L18.586 25.8357L18.8204 26.2185C19.5704 27.4216 21.3047 27.3904 21.9219 26.1716L22.1407 25.742L22.1485 22.617C22.1641 18.1404 22.2422 17.3201 22.7735 15.7888C23.5625 13.4998 25.3438 11.8123 27.836 10.9841L28.4219 10.7966L28.8516 11.1795C30 12.2107 31.7344 12.7576 34.1719 12.867C35.1407 12.906 35.2344 12.8982 35.3594 12.7654C35.5157 12.5857 35.5469 12.3748 35.4766 12.0935C35.4063 11.8279 35.0938 11.7185 34.4141 11.7185C32.875 11.7185 31.1563 11.3201 30.2266 10.7498L29.836 10.5076L30.1485 10.4529C30.3204 10.4138 31.1797 10.367 32.0547 10.3357C33.586 10.2888 33.6641 10.281 33.836 10.1091C34.0704 9.87476 34.0625 9.57008 33.8125 9.32008L33.6094 9.11695L32.0782 9.17164C31.2266 9.19508 30.3985 9.24195 30.2266 9.26539L29.9141 9.31226L30.2266 8.99195C30.5547 8.6482 31.6485 8.04664 31.9375 8.04664C32.375 8.04664 32.6875 7.56226 32.4922 7.19508C32.3047 6.82789 32.0391 6.78883 31.2657 7.03101C30.2657 7.3357 29.1329 8.23414 28.4844 9.23414C28.2813 9.54664 28.1407 9.68726 27.9844 9.71851C27.8594 9.74195 27.5782 9.84351 27.3516 9.94508C27.1329 10.0466 26.8047 10.1795 26.6329 10.2341C25.3282 10.656 23.711 11.8982 22.8047 13.1638C22.0313 14.2576 21.5547 15.4529 21.1875 17.2263C21.1407 17.4451 21.086 19.3826 21.0547 21.5779L21.0079 25.531L20.8204 25.7341C20.625 25.9373 20.4532 25.9763 20.125 25.8904C19.7266 25.781 19.7188 25.6716 19.7188 21.8982C19.7188 18.0935 19.6641 17.406 19.2813 16.0154C18.6329 13.7029 17.1875 11.8357 15.1797 10.7107C14.9297 10.5701 14.6719 10.4529 14.5938 10.4295C14.4454 10.406 13.9454 10.1951 13.3516 9.91383C13.1797 9.8357 12.9219 9.74976 12.7891 9.71851C12.6016 9.67945 12.4688 9.55445 12.1954 9.1482C11.4688 8.09351 10.4922 7.32789 9.47661 7.03101C8.83598 6.8357 8.5313 6.8357 8.37505 7.00758Z" fill="#000F28"/>
<path d="M7.76568 13.1794C7.21099 13.2497 7.04693 13.3044 6.90631 13.4528C6.70318 13.6715 6.71099 14.0231 6.91412 14.2262C7.07037 14.3825 7.13287 14.3903 7.99224 14.3356C8.85943 14.2809 10.1094 14.3981 10.1094 14.5231C10.1094 14.5465 9.87506 14.695 9.58599 14.8434C8.91412 15.1872 8.39068 15.6794 8.39068 15.9684C8.39068 16.234 8.71099 16.5622 8.96099 16.5622C9.06256 16.5622 9.28912 16.4528 9.45318 16.32C9.75787 16.0778 10.461 15.695 10.7969 15.5856C10.9688 15.5387 10.9766 15.5465 10.9297 15.7184C10.6251 16.7965 10.1876 17.3825 9.35162 17.8044C8.67974 18.1403 8.53912 18.445 8.86724 18.859C8.97662 18.9997 9.10162 19.0622 9.26568 19.0622C9.87506 19.0622 11.2188 18.0153 11.6172 17.2184C11.7266 16.9997 11.9141 16.4997 12.0313 16.109C12.2735 15.3044 12.211 15.3434 13.086 15.4684C13.9532 15.5934 14.3907 15.8278 15.2657 16.6247C15.7969 17.109 16.2188 17.8512 16.3985 18.6012C16.5626 19.3122 16.5704 25.8825 16.4063 26.2809C16.2657 26.6247 16.086 26.7731 15.2813 27.2653C14.4454 27.7809 13.5079 28.7028 13.1719 29.3434C12.336 30.945 12.6329 32.7887 13.9454 34.1481C14.6485 34.8669 15.6094 35.4762 16.7501 35.9059C17.961 36.359 18.0704 36.5622 18.0782 38.2106C18.0782 39.8122 17.8829 39.6872 20.3672 39.6872C21.9532 39.6872 22.3751 39.6637 22.5001 39.5778C22.6329 39.4762 22.6485 39.3356 22.6876 38.1481C22.7266 36.8356 22.7266 36.82 22.9454 36.5309C23.0704 36.3747 23.2813 36.195 23.4141 36.1325C23.5547 36.0778 24.0157 35.8903 24.4454 35.7106C26.1251 35.0153 27.3438 33.859 27.8594 32.4528C28.1016 31.7887 28.1016 30.7028 27.8516 29.9762C27.4922 28.9294 26.4532 27.7887 25.2266 27.109C24.836 26.8903 24.6172 26.7106 24.4688 26.4762L24.2501 26.1403V22.5778C24.2501 18.7184 24.2657 18.5544 24.6954 17.6559C24.9141 17.195 25.836 16.2184 26.2422 16.0153C26.3751 15.9528 26.5235 15.8512 26.5782 15.8044C26.7422 15.6481 27.5001 15.4528 28.0157 15.445L28.4922 15.4294L28.6641 16.0231C28.8829 16.7731 29.1094 17.2497 29.4922 17.734C29.9688 18.3434 31.0469 19.0622 31.4766 19.0622C31.7032 19.0622 31.961 18.8669 32.0157 18.6403C32.1016 18.2965 31.9454 18.07 31.4376 17.8122C30.8047 17.4919 30.4141 17.1247 30.1251 16.5856C29.836 16.0231 29.6954 15.5465 29.8204 15.5465C29.9922 15.5465 30.8907 16.0075 31.2579 16.2887C31.6876 16.6169 31.9219 16.6325 32.1954 16.359C32.3516 16.2028 32.3829 16.1169 32.3438 15.9215C32.3204 15.7887 32.2501 15.6247 32.2032 15.5622C32.0626 15.3981 31.2422 14.8512 30.8829 14.6872C30.7032 14.6169 30.5938 14.5309 30.6329 14.5075C30.8516 14.3669 31.8751 14.2887 32.7344 14.3356L33.6797 14.3903L33.8516 14.1794C34.0626 13.9059 34.0626 13.734 33.8438 13.4762C33.6876 13.2965 33.5704 13.2653 32.8985 13.1872C31.5235 13.0231 30.1329 13.2965 29.1876 13.8981C28.8047 14.1481 28.6485 14.2028 28.1563 14.2419C26.7891 14.359 25.6719 14.859 24.5391 15.859C24.2188 16.1403 23.6797 16.9919 23.4454 17.5778C23.0938 18.4684 23.0704 18.8512 23.0938 22.7731L23.1172 26.445L23.3516 26.9059C23.6172 27.4372 23.9532 27.7419 24.8126 28.2419C27.7657 29.9606 27.5313 32.9215 24.3126 34.4762C23.8282 34.7106 23.2735 34.945 23.0782 35.0075C22.8438 35.0778 22.5782 35.2575 22.2891 35.5465C21.6719 36.1481 21.5157 36.6012 21.5157 37.734V38.5934H20.3907H19.2657L19.2344 37.6325C19.1954 36.5309 19.0704 36.1637 18.5547 35.609C18.2422 35.2653 17.9688 35.1169 16.961 34.734C16.6719 34.6169 16.2969 34.445 16.1251 34.3356C15.9532 34.2262 15.7813 34.1403 15.7422 34.1403C15.7032 34.1403 15.3907 33.8747 15.0469 33.5544C14.5938 33.1325 14.3594 32.8356 14.1641 32.445C13.9219 31.9606 13.8985 31.859 13.8985 31.2106C13.8985 30.5856 13.9219 30.4528 14.1329 30.0387C14.4532 29.4059 15.2657 28.6169 16.1016 28.1169C16.8985 27.6559 17.1563 27.3903 17.4454 26.7965L17.6485 26.3669V22.5387C17.6485 18.2809 17.6485 18.3044 17.1251 17.1872C16.8594 16.6403 16.6954 16.4059 16.1329 15.859C15.1485 14.8825 14.0391 14.3747 12.6251 14.2497C12.1407 14.2028 11.9532 14.1403 11.5626 13.9059C11.2969 13.7497 10.8907 13.5465 10.6485 13.4528C9.92193 13.1872 8.69537 13.07 7.76568 13.1794Z" fill="#000F28"/>
<path d="M8.68746 1.56248C7.56246 1.76561 6.49215 2.24217 5.53902 2.96092C3.66402 4.37498 2.28121 6.61717 1.60152 9.35154C1.29683 10.5703 1.24215 11.1015 1.24996 12.8125C1.24996 14.3359 1.2734 14.5859 1.4609 15.4765C1.57808 16.0234 1.78121 16.7734 1.90621 17.1562C3.03902 20.5 5.56246 22.9297 8.57027 23.5625C9.25777 23.7031 10.4687 23.7031 11.1562 23.5547C12.5312 23.2656 13.7968 22.3047 14.4062 21.0937C14.8046 20.2969 14.914 19.7656 14.914 18.6328C14.914 17.7344 14.8828 17.3984 14.7265 16.7656L14.5312 15.9922L14.1093 15.8047C13.875 15.7031 13.5781 15.5937 13.4531 15.5703C13.2421 15.5312 13.2343 15.5312 13.2812 15.789C13.3125 15.9375 13.4375 16.4609 13.5546 16.9531C13.9609 18.5781 13.8359 19.8047 13.164 20.8281C12.414 21.9765 11.3984 22.5 9.92183 22.5C8.32808 22.4922 6.88277 21.9062 5.57027 20.7265C4.89058 20.1094 4.57808 19.75 4.13277 19.0625C3.03902 17.3828 2.48433 15.5156 2.3984 13.2422C2.26558 9.73435 3.38277 6.63279 5.51558 4.56248C7.46871 2.67186 9.7109 2.16404 11.7968 3.15623C12.7187 3.59373 13.4062 4.35154 13.7734 5.34373C14.1562 6.38279 14.1484 7.58592 13.7343 9.0781C13.6328 9.4531 13.5468 9.80467 13.5468 9.86717C13.5468 9.9531 14.5468 10.4375 14.6015 10.375C14.6093 10.3594 14.7343 9.91404 14.875 9.37498C15.2265 8.03904 15.289 6.56248 15.039 5.51561C14.7968 4.49998 14.4218 3.82811 13.664 3.08592C12.9609 2.39061 12.289 2.00779 11.2812 1.71873C10.625 1.53904 9.26558 1.45311 8.68746 1.56248Z" fill="#0E82FD"/>
<path d="M30.4609 1.55442C29.1484 1.76536 28.1719 2.24192 27.3359 3.08567C26.25 4.1638 25.8047 5.34348 25.8047 7.05442C25.8125 8.00755 25.8672 8.39817 26.1719 9.54661L26.3828 10.3044L26.7812 10.1404C27 10.0544 27.2422 9.96067 27.3203 9.94505C27.4844 9.89817 27.4922 9.9763 27.2656 9.07786C27.1562 8.6638 27.0312 8.02317 26.9844 7.65598C26.7188 5.71067 27.5781 3.96067 29.1719 3.17161C29.7891 2.87473 30.7109 2.65598 31.3672 2.65598C32.4062 2.65598 33.7344 3.14036 34.6953 3.85911C36.6562 5.33567 37.8594 7.49192 38.4766 10.6247C38.5391 10.945 38.5781 11.7497 38.5781 12.7732C38.5781 14.1716 38.5469 14.531 38.3984 15.2341C38.1094 16.5857 37.6484 17.8122 37.0391 18.8279C36.8203 19.2029 36.0703 20.1404 35.7344 20.4607C33.4062 22.7107 30.1562 23.1872 28.4062 21.531C27.9766 21.1247 27.5859 20.5388 27.4062 20.0388C27.1875 19.3982 27.1719 18.1638 27.375 17.2654C27.6953 15.906 27.7656 15.5232 27.7344 15.4841C27.6562 15.406 26.5938 15.7888 26.5312 15.9216C26.4922 15.9919 26.375 16.3669 26.2734 16.7575C26.1172 17.3435 26.0859 17.6482 26.0859 18.5935C26.0859 19.57 26.1094 19.7966 26.2656 20.2654C26.8359 21.9685 28.0234 23.0935 29.7031 23.5232C31.2031 23.906 33.1719 23.5857 34.6797 22.7107C37.2734 21.2107 38.9609 18.6169 39.6094 15.1169C39.7891 14.1638 39.8125 11.4763 39.6484 10.5466C38.8672 6.00755 36.3281 2.65598 32.9609 1.71067C32.3516 1.5388 31.0625 1.46067 30.4609 1.55442Z" fill="#0E82FD"/>
</svg>
