<svg width="41" height="40" viewBox="0 0 41 40" fill="none" xmlns="http://www.w3.org/2000/svg">
<path d="M21.2541 13.1803L13.9731 10.5361L14.5594 15.8583L18.1937 17.3885H23.1669L27.1837 15.8583V10.694L21.2541 13.1803Z" fill="#0E82FD"/>
<path d="M13.4297 1.03906C13.0157 1.14844 12.3672 1.80469 12.2344 2.23438C12.1797 2.41406 12.1407 2.67969 12.1407 2.82031C12.1407 3.07031 13.1875 8.98438 13.2735 9.19531C13.2969 9.26562 13.2188 9.29688 13.0078 9.29688C12.6797 9.29688 12.4532 9.42969 11.4297 10.2344C9.88284 11.4453 8.32034 13.2344 7.42971 14.8125C5.27346 18.625 5.00784 23.8047 6.71878 28.6797C7.10159 29.7812 7.97659 31.5703 8.41409 32.1641C9.74221 33.9453 12.336 34.8203 14.461 34.1953L15.1016 34.0078L15.1485 34.6016C15.2657 36.0703 15.3438 36.5156 15.5625 36.9844C15.8594 37.625 16.3985 38.1562 17.0469 38.4609L17.5703 38.7109H20.5H23.4297L23.9453 38.4609C24.5782 38.1484 25.1172 37.5938 25.4297 36.9297C25.625 36.5 25.6719 36.2891 25.7422 35.3438C25.7891 34.75 25.836 34.1797 25.8594 34.0938L25.8907 33.9219L26.3985 34.1094C27.3672 34.4609 28.7032 34.4922 29.7813 34.1797C30.7813 33.8828 31.9532 33.125 32.5703 32.3672C33.7657 30.8984 34.9453 27.6953 35.3985 24.7109C35.5469 23.6875 35.5703 21.3047 35.4297 20.2344C34.8985 16.0625 33.0938 12.9297 29.6016 10.1406C28.6797 9.40625 28.4844 9.29688 28.1016 9.29688C27.7735 9.29688 27.75 9.28125 27.7891 9.11719C27.9532 8.44531 28.8594 3.07031 28.8594 2.75781C28.8594 2.00781 28.3516 1.3125 27.6016 1.05469C27.086 0.867188 26.6563 0.914062 25.8672 1.21875C23.6328 2.10156 22.1641 2.42969 20.5 2.42969C18.7813 2.42969 17.6875 2.17188 14.7422 1.08594C14.2969 0.921875 13.9141 0.90625 13.4297 1.03906ZM14.7266 2.5C15.5938 2.85938 17.1016 3.32812 18.0547 3.53125C18.7813 3.6875 19.1172 3.71094 20.5 3.71094C21.875 3.71094 22.2188 3.6875 22.9375 3.53125C23.9063 3.32812 25.2266 2.92188 26.2344 2.52344C27.0157 2.21094 27.2422 2.22656 27.4453 2.59375C27.5547 2.78125 27.5235 3.03906 27.0313 5.83594C26.7188 7.59375 26.4219 9.07031 26.3125 9.35938C25.7735 10.8125 24.6875 11.6953 22.8907 12.1484C20.9375 12.6406 18.4297 12.4531 16.8438 11.7031C15.9297 11.2734 15.0078 10.2266 14.6875 9.26562C14.5547 8.89062 13.4688 3.08594 13.4688 2.79688C13.4688 2.60156 13.8125 2.26562 14 2.26562C14.086 2.26562 14.4063 2.375 14.7266 2.5ZM29.9532 12.2422C31.6016 13.7969 32.8516 15.7031 33.5078 17.6875C34.7657 21.4688 34.3203 26.1172 32.3047 30.2344C31.9375 30.9922 31.7735 31.2266 31.2813 31.7188C30.3516 32.6562 29.3828 33.0703 28.1563 33.0703C27.3672 33.0703 26.625 32.8438 25.9453 32.3906C24.9922 31.7578 23.9219 30.375 23.3828 29.0703C23.0703 28.3125 22.8985 28.125 22.5313 28.125C21.9766 28.125 21.711 28.5547 21.9375 29.0938L22.0547 29.375L21.7266 29.3203C21.3047 29.2422 19.9453 29.2422 19.461 29.3125C19.1094 29.3672 19.0938 29.3672 19.1719 29.2266C19.3047 28.9688 19.2657 28.4531 19.0938 28.2812C18.9375 28.125 18.5391 28.0703 18.2813 28.1719C18.211 28.1953 17.9453 28.6562 17.6953 29.1875C17.4375 29.7188 17.0469 30.4141 16.8282 30.7344C14.961 33.4375 11.9844 33.8672 9.87503 31.7266C9.21878 31.0625 8.8594 30.4531 8.27346 28.9844C7.06253 25.9609 6.66409 22.8984 7.10159 19.9609C7.61721 16.5312 9.30471 13.6953 12.211 11.3594C12.6641 11 13.0391 10.7188 13.0625 10.7422C13.0782 10.7578 13.125 11.2266 13.1641 11.7734C13.336 14.3594 13.9219 16.9609 14.836 19.2969C15.211 20.2422 16.1094 22.0391 16.8125 23.25C17.5703 24.5547 17.8985 25.2188 17.961 25.5859C18.0391 26.0156 18.2735 26.25 18.625 26.25C19.1719 26.25 19.4063 25.8828 19.2578 25.2422L19.1875 24.9141L19.4766 24.9766C19.8438 25.0547 21.2422 25.0547 21.6172 24.9766L21.9141 24.9141L21.8672 25.3672C21.8203 25.7578 21.836 25.8516 21.9844 26.0312C22.3047 26.4453 23.1563 26.2344 23.1563 25.7422C23.1563 25.4062 23.3985 24.8828 24.2891 23.3281C26.1641 20.0234 27.0235 17.8047 27.6016 14.7578C27.7891 13.7656 28 11.8516 28 11.1328V10.6172L28.625 11.1016C28.9688 11.3672 29.5703 11.8828 29.9532 12.2422ZM26.5938 12.3906C26.461 13.7578 26.2969 14.6172 26.1407 14.7422C25.4219 15.3047 24.2422 15.9531 23.3125 16.3047C21.6094 16.9531 19.5391 16.9688 17.8203 16.3516C17.1328 16.1094 15.75 15.3984 15.2578 15.0469C14.9375 14.8047 14.8907 14.7344 14.8125 14.3203C14.7266 13.8984 14.4844 11.9688 14.4844 11.7266C14.4844 11.6641 14.625 11.75 14.8203 11.9297C16.1172 13.125 18.0703 13.75 20.4922 13.75C21.6719 13.75 22.6172 13.6172 23.6641 13.3203C24.8672 12.9688 25.5313 12.6016 26.2422 11.8828C26.4532 11.6719 26.6407 11.5078 26.6563 11.5156C26.6641 11.5312 26.6407 11.9297 26.5938 12.3906ZM25.7735 16.7344C25.4922 17.6406 25.3047 18.2031 25.211 18.3828C25.0938 18.6094 24.25 19.0781 23.3125 19.4297C21.9375 19.9531 20.2657 20.0703 18.8203 19.7656C17.9688 19.5781 17.7032 19.6172 17.5391 19.9688C17.1407 20.8516 18.0313 21.2109 20.5782 21.2109C22.1172 21.2031 22.5547 21.1328 23.8282 20.6719L24.336 20.4844L24.086 20.9297C23.125 22.6641 23.0391 22.7969 22.7188 23C22.3047 23.2656 21.6094 23.5 20.961 23.6016C20.0782 23.7344 18.8203 23.3516 18.1875 22.7578C17.586 22.1953 16.0782 19.0625 15.5 17.1719L15.3594 16.7266L15.961 17.0234C18.875 18.4922 22.125 18.5 24.9532 17.0469C25.7891 16.6172 25.8203 16.6016 25.7735 16.7344ZM21.6719 30.7891C22.3828 30.9453 23.0313 31.3125 23.336 31.7188C23.5547 32.0078 23.5938 32.1016 23.5078 32.1406C23.4453 32.1641 23 32.2422 22.5157 32.3125C21.8282 32.4141 21.2657 32.4297 19.9922 32.4062C18.3594 32.3672 18.3594 32.3672 18.1719 32.5547C17.9063 32.8203 17.9532 33.3203 18.2578 33.5469C18.4688 33.7031 18.5703 33.7109 20.4844 33.7109C22.2578 33.7109 22.5938 33.6875 23.3516 33.5312C23.8282 33.4375 24.2891 33.3359 24.3907 33.3125C24.5469 33.2656 24.5625 33.2891 24.5547 33.6016C24.5313 34.3438 24.5 34.3906 23.8985 34.5469C22.6953 34.8516 21.7188 34.9453 19.9922 34.9062C18.3594 34.8672 18.3594 34.8672 18.1719 35.0547C17.9063 35.3203 17.9532 35.8203 18.2578 36.0469C18.4688 36.2031 18.5703 36.2109 20.4844 36.2109C22.4532 36.2031 23.2188 36.1328 24.1563 35.8672C24.2891 35.8281 24.4063 35.8047 24.4063 35.8125C24.4063 35.8281 24.3516 35.9922 24.2891 36.1797C24.1172 36.6719 23.8203 37.0078 23.3672 37.25L22.961 37.4609H20.5C18.0782 37.4609 18.0313 37.4609 17.6719 37.2812C17.2344 37.0625 16.7813 36.5625 16.6641 36.1719C16.625 36.0234 16.5391 35.2969 16.4844 34.5703L16.3828 33.2422L16.7578 32.9062C16.961 32.7266 17.3125 32.3438 17.5469 32.0469C17.7735 31.7578 18.0157 31.4766 18.0782 31.4297C18.2969 31.25 18.9688 30.9453 19.4063 30.8281C19.9063 30.6953 21.1641 30.6719 21.6719 30.7891Z" fill="#000F28"/>
</svg>
